<svg id="Layer_1" data-name="Layer 1" xmlns="http://www.w3.org/2000/svg" viewBox="0 0 1500 1711.17"><defs><style>.cls-1{fill:#f2f2f2;}.cls-2{fill:#fff;}.cls-3{opacity:0.3;}.cls-4{fill:#650000;}.cls-5{opacity:0.55;}.cls-6{opacity:0.2;}.cls-7{fill:#ad651e;}.cls-8{opacity:0.6;}</style></defs><path class="cls-1" d="M1441.72,874.81c-51.06-85.42-150-136.57-254.56-121.64l-65.63,9.38,38.14,425.67,14.11,157.45,96.07-13.73c138.88-19.84,235.73-149,215.89-287.89l-10.71-75A253.56,253.56,0,0,0,1441.72,874.81Zm-256.4,356.83-4.91-36.74-43.15-322.22,65.63-9.38c78.17-11.17,150.83,43.33,162,121.52l10.72,75c11.17,78.19-43.33,150.85-121.49,162Z"/><path class="cls-1" d="M1118.48,1472.41c22.71,158.92-293.43,253.78-500.21,220.51-.06,0-.09,0-.14,0-91.28-14.7-161.21-54.38-171.24-124.54Z"/><path class="cls-2" d="M1118.83,1475l-636.08,90.88c10,70.16,80,109.84,171.24,124.54a.61.61,0,0,0,.14,0c36.67,5.91,76.77,7.78,117.8,6-53.38,5-106.36,4.14-153.66-3.48-.06,0-.09,0-.14,0-91.28-14.7-161.21-54.38-171.24-124.54l671.59-96C1118.61,1473.28,1118.73,1474.13,1118.83,1475Z"/><g class="cls-3"><path class="cls-4" d="M1118.48,1472.41c22.71,158.92-293.43,253.78-500.21,220.51q139.29,13.27,195.92-63L941.8,1497.65Z"/></g><g class="cls-3"><path class="cls-4" d="M1475,969.08l10.71,75c19.84,138.91-77,268-215.89,287.89l-96.07,13.73-14.11-157.45c6.92,2,13.9,4.29,20.74,6.68l4.91,36.74,62.44-8.92,2.87,1.4c188.31-24.26,235.85-174.85,189.8-348.43,0,0,.45-.32,1.29-.88A253.56,253.56,0,0,1,1475,969.08Z"/></g><path class="cls-1" d="M1105.93,653.37,1180,1172.05c41.86,293-162.27,429-381.36,460.3a659.46,659.46,0,0,1-70.3,6.28h0c-196.47,6.87-387.26-79.59-424.66-341.38L229.58,778.58c-5.3-37.13,186.58-95.27,428.57-129.85,100.08-14.3,193.07-22.32,268.07-24.17,54.91-1.39,100.2.53,131.59,5.71C1087.22,635.12,1104.42,642.83,1105.93,653.37Z"/><path class="cls-2" d="M814.68,1629.87c-5.33.9-10.64,1.71-16,2.48a659.46,659.46,0,0,1-70.3,6.28h0c-196.47,6.87-387.26-79.59-424.66-341.38L229.58,778.58c-5.3-37.13,186.58-95.27,428.57-129.85q8-1.14,16-2.22c-234,34.8-417,91.14-411.79,127.39l74.11,518.68c37.4,261.79,228.19,348.25,424.66,341.37h0C779,1633.32,796.87,1631.94,814.68,1629.87Z"/><g class="cls-3"><path class="cls-4" d="M1105.93,653.37l2.68,18.76c-1.58,6.29-2.7,10.33-2.7,10.33-31.86-23.14-57.36,8.19-57.36,8.19l-20.22,14.26L983.08,700s-50.85-24.25-52.6-26.78-7.9-30.91-6.05-42.32a30.21,30.21,0,0,1,1.79-6.35c54.91-1.39,100.2.53,131.59,5.71C1087.22,635.12,1104.42,642.83,1105.93,653.37Z"/></g><path class="cls-4" d="M706.31,1650.76c-71.64,0-153.15-12.61-227.29-54.15-104.13-58.34-167-158.5-186.9-297.7L218,780.22c-2.31-16.21,8.61-42,129.73-78.71,81.5-24.7,191.15-47.55,308.75-64.35s229.28-25.58,314.43-24.69c126.54,1.31,144.26,23,146.58,39.24h0l74.1,518.68c19.89,139.2-12.42,253-96,338.13-88,89.6-209.1,123.08-295.22,135.38A667.28,667.28,0,0,1,706.31,1650.76Zm252.83-1015c-82.46,0-188.47,8.67-299.34,24.51-113.3,16.19-219.63,38.14-299.39,61.81-95.83,28.44-118.57,49.35-119.26,55l74.1,518.5C366.44,1653.88,697,1635.06,797,1620.77s422.63-88.8,371.44-447.07l-74.09-518.57c-2.43-5.28-30.3-18.88-129.85-19.34Zm135.27,19.41Z"/><path class="cls-4" d="M707,1711.17c-134.24,0-257.33-40.45-271.71-141.15a11.68,11.68,0,1,1,23.13-3.31c8.7,60.92,67.38,90.37,115.06,104.34,63.3,18.54,145.71,22,232.06,9.62s164.52-38.69,220.09-74.22c41.87-26.77,89.95-71.47,81.25-132.39a11.68,11.68,0,1,1,23.13-3.3c18,126-153.86,209.14-321.16,233A725.4,725.4,0,0,1,707,1711.17Z"/><path class="cls-4" d="M1173.77,1357.34a11.68,11.68,0,0,1-1.64-23.25l96.07-13.73c132.5-18.93,224.9-142.15,206-274.67l-10.71-75c-18.94-132.53-142.17-224.94-274.65-206l-65.63,9.38a11.68,11.68,0,1,1-3.31-23.13l65.63-9.38c145.29-20.76,280.33,80.55,301.09,225.83l10.71,75c20.76,145.27-80.54,280.35-225.8,301.11l-96.07,13.72A11.69,11.69,0,0,1,1173.77,1357.34Z"/><path class="cls-4" d="M1185.3,1243.31a11.68,11.68,0,0,1-1.64-23.25l68.8-9.83A131.67,131.67,0,0,0,1364,1061.43l-10.71-75a131.69,131.69,0,0,0-148.78-111.61l-65.63,9.38a11.68,11.68,0,1,1-3.31-23.13l65.63-9.38a155,155,0,0,1,175.22,131.43l10.71,75a155,155,0,0,1-131.4,175.24l-68.8,9.83A11.83,11.83,0,0,1,1185.3,1243.31Z"/><path class="cls-4" d="M1017.92,706.41c3.5-11.31-4.5-23.34-14.55-29.59-14.61-9.08-33.19-9.93-46.74-21.58a28.54,28.54,0,0,1-7.8-10.35c-10.75-25.19,25.37-43.8,15.86-69.38a28.26,28.26,0,0,0-11.53-13.8c-12-7.6-26.49-7.07-39.73-3.79-13.47,3.34-26.18,9.39-39.73,12.36a29.86,29.86,0,0,1-10.73.2c-16.45-2.41-29.22-15.14-33.72-31.15-5.73-20.38-20-38.4-39-48C766.39,479.27,736,481.1,713.77,496c-13.34,8.9-25.85,22.69-41.83,21.41-11.27-.9-20.39-9.29-31-13.29a42,42,0,0,0-40.26,6.31c-11.11,8.86-15.46,26.88-18.5,40.76-5.81,26.5-35.38,42.46-62.47,41.25s-51.78-15.51-74-31.07S402,528.29,376.51,519.11a119.25,119.25,0,0,0-156.91,87c-7.82,36.17,1.7,74.35,19,107.08s41.82,60.92,66.16,88.79C555.4,824.63,793.71,795.2,1017.92,706.41Z"/><g class="cls-5"><path class="cls-2" d="M827.43,533.81A74,74,0,0,0,805,516.19c-23.87-12.08-54.22-10.25-76.5,4.6-13.33,8.9-25.84,22.7-41.82,21.41-11.27-.89-20.39-9.29-31-13.29a42,42,0,0,0-40.27,6.31c-11.1,8.86-15.46,26.89-18.49,40.78-5.8,26.48-35.39,42.44-62.48,41.24s-51.77-15.5-74-31.07-43.72-33.06-69.24-42.23a119.24,119.24,0,0,0-156.91,87c-7.72,35.7,1.45,73.36,18.31,105.78-5-7.61-9.75-15.44-14-23.54-17.27-32.72-26.79-70.89-19-107.08a119.26,119.26,0,0,1,156.92-87c25.52,9.19,47,26.68,69.24,42.23s46.89,29.87,74,31.07,56.67-14.75,62.47-41.24c3-13.89,7.4-31.9,18.5-40.75A42,42,0,0,1,641,504.1c10.58,4,19.69,12.39,31,13.29,16,1.26,28.49-12.51,41.82-21.41,22.28-14.88,52.63-16.71,76.5-4.63C807.48,500.06,820.86,515.73,827.43,533.81Z"/></g><g class="cls-5"><path class="cls-2" d="M966.26,585.6c-11.67-6.61-25.48-6-38.15-2.85-13.45,3.34-26.16,9.39-39.72,12.36a29.81,29.81,0,0,1-10.72.2c-16.45-2.42-29.21-15.14-33.73-31.15-.28-1-.59-1.95-.92-2.9a39.23,39.23,0,0,0,20,9.23,29.58,29.58,0,0,0,10.72-.22c13.56-3,26.26-9,39.72-12.36,13.26-3.26,27.76-3.8,39.73,3.8a28.23,28.23,0,0,1,11.53,13.81A24.4,24.4,0,0,1,966.26,585.6Z"/></g><g class="cls-5"><path class="cls-2" d="M1018.73,702.07l-.68-.43c-14.61-9.08-33.17-9.91-46.73-21.57a28.61,28.61,0,0,1-7.8-10.34,23.79,23.79,0,0,1-2-10.86c12.92,8.33,28.91,9.94,41.82,18C1012.14,682.26,1019.34,692.15,1018.73,702.07Z"/></g><path class="cls-4" d="M421.23,827.73c-3.44,0-6.81,0-10.16-.05-108.47-1.12-125-19.31-127.21-35a11.68,11.68,0,0,1,23-3.85c1.45,1.66,16.48,15.47,113.14,15.57h1c70.57,0,161.54-7.45,256.32-21,262.77-37.55,363.16-85.1,366.53-107.89A11.68,11.68,0,1,1,1067,678.9c-2.44,16.58-17.65,42.23-121,73.43-67,20.22-158.74,38.95-265.3,54.18C584.47,820.26,492.87,827.73,421.23,827.73Z"/><path class="cls-4" d="M304.73,813.68a11.67,11.67,0,0,1-8.81-4c-24.44-28-49.72-56.94-67.7-91-14.52-27.56-29.79-69.88-20-115a130.95,130.95,0,0,1,172.29-95.55c22.51,8.1,41.69,21.92,60.25,35.28,3.91,2.81,7.81,5.63,11.74,8.38,19.55,13.7,42.91,27.86,67.8,29,20.73,1,45.94-11.08,50.54-32.08,3.77-17.21,8.94-36.48,22.64-47.4a53.79,53.79,0,0,1,51.68-8.1,95.39,95.39,0,0,1,13,6.46c5.49,3.09,10.22,5.76,14.71,6.12,7.72.64,15.81-5.59,24.38-12.15,3.22-2.46,6.55-5,10-7.34a89,89,0,0,1,88.28-5.32c21.47,10.86,38.27,31.51,44.94,55.24,3.42,12.17,12.91,21.1,24.17,22.75a18.35,18.35,0,0,0,6.52,0,171.74,171.74,0,0,0,19.75-6.08c6.31-2.22,12.82-4.51,19.68-6.21,19.33-4.78,35.74-3,48.8,5.26a40.11,40.11,0,0,1,16.22,19.59c6.65,17.89-2.08,32.66-9.09,44.53-6.44,10.9-9.94,17.4-7,24.35a17.09,17.09,0,0,0,4.67,6.07c6,5.12,13.91,7.8,22.34,10.65,7.6,2.56,15.46,5.21,22.95,9.87,13.27,8.24,25,25.21,19.54,43a11.68,11.68,0,1,1-22.32-6.92c1.67-5.39-3.55-12.48-9.56-16.21-5.18-3.22-11.45-5.33-18.08-7.57-9.7-3.27-20.71-7-30.11-15.07a40.16,40.16,0,0,1-10.93-14.62c-7.74-18.17,1.18-33.27,8.35-45.41,6.25-10.57,9.94-17.41,7.3-24.49a16.53,16.53,0,0,0-6.83-8c-7.45-4.73-17.76-5.51-30.66-2.32-5.78,1.43-11.5,3.44-17.55,5.57a190.4,190.4,0,0,1-22.49,6.86,41.48,41.48,0,0,1-14.93.35c-20.37-3-37.36-18.52-43.27-39.55-4.93-17.54-17.26-32.75-33-40.71-20-10.14-46.07-8.57-64.76,3.91-2.85,1.9-5.73,4.11-8.79,6.45C700.31,520.68,687.71,530.35,671,529c-9.61-.77-17.42-5.16-24.31-9a76.11,76.11,0,0,0-9.86-5A30.47,30.47,0,0,0,608,519.53c-8.35,6.66-12.27,24.53-14.37,34.13-7.3,33.31-43.6,51.81-74.4,50.42s-57.87-17.54-80.18-33.17c-4-2.81-8-5.68-12-8.56-18-13-35.08-25.26-54.5-32.25A107.56,107.56,0,0,0,231,608.6c-6.45,29.84-.1,65.06,17.87,99.16,16.71,31.68,41.07,59.58,64.63,86.56a11.67,11.67,0,0,1-8.79,19.36Z"/><path class="cls-4" d="M1080.62,417.26c11.32-.93,23.08.13,33.23,5.24s18.41,14.74,19.86,26c2.49,19.3-15.53,36.08-34.45,40.64s-38.69.6-58.11-.75c-16.94-1.17-32.48,1.14-47.91,8.22C1002.91,459.3,1054.21,419.42,1080.62,417.26Z"/><g class="cls-5"><path class="cls-2" d="M1134,450.41a40.06,40.06,0,0,0-11.9-9.14c-10.14-5.09-21.91-6.14-33.22-5.22-21,1.72-57.88,27.38-76.85,56.61a91.59,91.59,0,0,0-18.45,6.23c9.66-37.32,61-77.19,87.36-79.37,11.32-.92,23.09.15,33.23,5.25S1132.43,439.32,1134,450.41Z"/></g><path class="cls-4" d="M993.25,508.29a11.69,11.69,0,0,1-11.32-14.62c10.72-41.35,65-85.38,97.74-88.06h0c15.21-1.24,28.46.93,39.43,6.45,14.32,7.21,24.35,20.6,26.2,34.95,3.37,26.14-19.38,47.72-43.3,53.49-16.42,4-32.63,2.33-48.31.75-4.62-.46-9-.9-13.34-1.2-15.76-1.09-29.18,1.19-42.23,7.18A11.78,11.78,0,0,1,993.25,508.29Zm39.81-31.87c2.93,0,5.89.11,8.9.32,4.73.32,9.48.8,14.06,1.26,14.38,1.44,28,2.81,40.5-.22,13.67-3.29,27.22-15.25,25.6-27.79-.85-6.65-6.16-13.35-13.53-17.06-7.08-3.56-16.17-4.92-27-4h0c-16.75,1.37-49,23.71-66.47,48.93A112.24,112.24,0,0,1,1033.06,476.42Zm47.56-59.16h0Z"/><path class="cls-4" d="M87.74,420.17c-27.3-1-56.75,10.08-70.1,33.91-7.4,13.21-8.74,30.9.56,42.85C28,509.52,46.46,512.12,62,508.44s29.29-12.4,43.82-19,31.24-11.09,46.31-5.87c6.59,2.28,12.56,6.34,19.37,7.84s15.32-.64,17.79-7.16C204.79,443.15,109.47,421,87.74,420.17Z"/><g class="cls-5"><path class="cls-2" d="M191,475.29c-23-22-77.11-33.72-92.83-34.31C70.86,440,41.38,451,28,474.87a45.69,45.69,0,0,0-5.77,26.28,27.67,27.67,0,0,1-4.06-4.24c-9.31-11.93-8-29.61-.58-42.84,13.36-23.84,42.82-34.9,70.12-33.9C107.86,420.89,190.89,439.92,191,475.29Z"/></g><path class="cls-4" d="M49,521.68c-16.4,0-31.19-6.27-40-17.58-13.16-16.91-10.25-40.18-1.53-55.73,14.28-25.5,46-41.17,80.72-39.88h0c16.09.59,86.61,14.27,108,46.47,6.94,10.44,8.33,22,4,33.43-4.84,12.8-19.73,17-31.24,14.45A63.81,63.81,0,0,1,155,497.56a71.58,71.58,0,0,0-6.74-2.93c-9.76-3.38-22.08-1.59-37.67,5.47-4.11,1.86-8.14,3.9-12.42,6-10.47,5.28-21.29,10.75-33.52,13.65A68.16,68.16,0,0,1,49,521.68Zm35.22-89.9c-24.82,0-46.71,10.8-56.35,28-4.78,8.54-6.95,21.55-.41,30,6.75,8.68,20.86,9.93,31.85,7.32,9.56-2.27,18.72-6.89,28.41-11.78,4.3-2.17,8.74-4.41,13.29-6.47,21.3-9.65,39.27-11.71,55-6.27a88.4,88.4,0,0,1,9.14,3.91A44.49,44.49,0,0,0,174,480a7.6,7.6,0,0,0,4.5-.33c1.46-4.19.92-7.74-1.77-11.79-14.17-21.32-73.24-35.47-89.41-36.06h0C86.27,431.8,85.22,431.78,84.18,431.78Z"/><path class="cls-4" d="M595.74,544.05c-.26,1.74-.5,2.91-.79,4.28s-.58,2.62-.89,3.89c-.6,2.58-1.32,5.07-2,7.57-1.48,5-3.07,9.85-4.9,14.62a233.14,233.14,0,0,1-12.54,27.77,239.58,239.58,0,0,1-15.8,25.71c-2.77,4.17-5.94,8.06-8.95,12s-6.43,7.64-9.62,11.44a4.13,4.13,0,0,1-6.65-4.87l.16-.26c2.59-4.06,5.33-8,7.77-12.12s4.91-8.21,7-12.5a227.28,227.28,0,0,0,11.68-26,217.56,217.56,0,0,0,8.2-27c1.1-4.54,2-9.11,2.69-13.65.33-2.27.69-4.55.9-6.78.13-1.12.25-2.24.32-3.32s.17-2.29.16-3a11.74,11.74,0,0,1,23.47-.06,11.94,11.94,0,0,1-.12,1.7Z"/><g class="cls-3"><path class="cls-4" d="M1076.36,634.56l.58,4a161.91,161.91,0,0,0-19.13-8.33c6.82,1.14,13,2.41,18.46,3.85A2.29,2.29,0,0,1,1076.36,634.56Z"/></g><g class="cls-3"><path class="cls-4" d="M909.43,796.14c62.55-17,123-42.52,160.19-69.66a13.39,13.39,0,0,1,21.15,8.93l59.69,417.8c39.76,278.28-142.3,414.89-348.36,454.72,103.93-54.27,173.55-152.33,144-376.77L888.5,827.85A28.65,28.65,0,0,1,909.43,796.14Z"/></g><path class="cls-2" d="M632,1340a792.41,792.41,0,0,1-125.92-10.5,41.64,41.64,0,0,1-34.25-35.25L427.3,982.8a41.77,41.77,0,0,1,47.12-47.23c35.93,4.9,73.5,6.73,112.36,6.11a41.65,41.65,0,0,1,41.74,35.84l45,314.82A41.75,41.75,0,0,1,632,1340Z"/><path class="cls-2" d="M670.53,1511.79c-54.42,8.24-105.77,6.12-152.12-12.83a34.52,34.52,0,0,1-21.22-27l-6.9-48.23A34.36,34.36,0,0,1,529.73,1385c41,6.42,83.55,8.48,127.27,7.28a34.35,34.35,0,0,1,35,29.45L699.3,1473A34.33,34.33,0,0,1,670.53,1511.79Z"/><g class="cls-6"><path class="cls-2" d="M347,638.2c-17.82,24.9-39.05,40.23-56.69,27.61s-17.49-43,.33-67.95S337.16,563,354.8,575.63,364.77,613.3,347,638.2Z"/></g><g class="cls-3"><path class="cls-4" d="M978.63,722.06c-6.77,6.53-18.3,5.18-26.08-.12S939.63,708.38,934,700.86,921.29,686,912.09,684c-10.73-2.35-21.52,3.13-32.48,3.93-18.68,1.36-35.75-11-47.74-25.41s-20.84-31.34-34-44.7a93.91,93.91,0,0,0-144.11,12.35c-11.24,16.2-17.08,35.46-26.34,52.86s-23.68,34-43.08,37.45c-16.62,3-34.43-4.21-50.29,1.56-13.22,4.81-21.86,17.58-27.42,30.5s-9.06,26.85-16.57,38.74-20.61,21.76-34.58,20C638.46,805.34,813.51,777.45,978.63,722.06Z"/></g><path class="cls-7" d="M465.2,418.73c-49.57,4.13-95.2-57.47-101.92-137.63C356.9,204.81,388,139.22,433.83,129.48a58.74,58.74,0,0,1,7.07-1c1-.12,1.91-.24,2.88-.33C633.21,105.74,669.73,401.6,465.2,418.73Z"/><g class="cls-3"><path class="cls-4" d="M465.2,418.73c-17,1.42-33.58-4.92-48.25-17.12,152.76-25.79,153.06-219,45.93-274.72C635.43,125.88,662.67,402.17,465.2,418.73Z"/></g><g class="cls-8"><path class="cls-2" d="M433.83,129.48l1.24,19.29c-34.15,22.11-55.4,78.77-50,143,4.71,56.09,28.46,103.12,59.3,124.86C403.41,405,369,349.85,363.28,281.1,356.9,204.81,388,139.22,433.83,129.48Z"/></g><path class="cls-4" d="M460.34,430.61c-54.43,0-101.59-63.65-108.7-148.53-3.43-40.91,3.29-80.37,18.92-111.11,16.5-32.47,41-51.69,69.07-54.16C498.45,109,549,129.12,582,173.39c35.27,47.36,42.76,115.14,18.63,168.66-23.29,51.64-71,83-134.41,88.32h0C464.22,430.53,462.27,430.61,460.34,430.61Zm4.86-11.88h0Zm-1.57-280.16A159,159,0,0,0,442.45,140a5.42,5.42,0,0,1-.58.06c-19.79,1.66-37.72,16.39-50.48,41.49-13.69,26.92-19.53,61.93-16.46,98.57,6.06,72.34,46.83,130.48,89.3,127,54.55-4.58,95.41-31.09,115-74.64,20.75-46,14.3-104.34-16.06-145.1C539.47,155.47,504.63,138.57,463.63,138.57Z"/><path class="cls-4" d="M465.18,430.4a11.69,11.69,0,0,1-1-23.33c42.34-3.54,73-67.67,66.94-140s-47.09-130.53-89.3-127a11.68,11.68,0,0,1-1.95-23.28c56.82-4.79,107.17,60.38,114.53,148.29S523,425.6,466.17,430.36C465.84,430.39,465.51,430.4,465.18,430.4Z"/><path class="cls-4" d="M437.75,131c-2.83,12-4.89,23.93-5.06,35.74a127.41,127.41,0,0,0,4,34.73c5.56,22.74,17.05,44.29,27.26,67.69a251.13,251.13,0,0,1,13.28,36.9,139.31,139.31,0,0,1,4.59,40.14,130.29,130.29,0,0,1-7.67,39.36,162.7,162.7,0,0,1-17.91,34.67,4.17,4.17,0,0,1-7.4-3.67l0-.12c4-11.8,7.76-23.38,10-35.14l1.53-8.78.89-8.78c.23-2.92.24-5.84.38-8.74s-.16-5.81-.18-8.69a143.84,143.84,0,0,0-6.17-34.17,313.79,313.79,0,0,0-12.79-33.7c-4.87-11.32-10.13-22.83-14.74-34.93a185.28,185.28,0,0,1-10.67-38.13A122,122,0,0,1,430,128a4.16,4.16,0,0,1,7.73,2.91Z"/><path class="cls-7" d="M730.68,247.44C692.94,215,704.79,139.3,757.16,78.25c49.86-58.1,118.43-82,157.51-56.19a56.84,56.84,0,0,1,5.71,4.3c.76.6,1.51,1.19,2.26,1.82C1071.54,147.4,886.46,381.09,730.68,247.44Z"/><g class="cls-3"><path class="cls-4" d="M730.68,247.44c-13-11.14-20.07-27.36-21.68-46.38,125.6,90.69,263.41-44.7,227.91-160.12C1058.75,163.12,881.09,376.46,730.68,247.44Z"/></g><g class="cls-8"><path class="cls-2" d="M914.67,22.06,901.8,36.48c-39.72-8.8-95,15.84-136.94,64.76-36.64,42.72-53.46,92.64-47.3,129.87-20.44-37.35-5.32-100.51,39.6-152.86C807,20.15,875.59-3.72,914.67,22.06Z"/></g><path class="cls-4" d="M829.76,299.27c-36.91,0-73.57-14.56-106.69-43h0c-43.29-37.16-32.21-118.72,25.23-185.66C775,39.49,807.84,16.57,840.71,6.12c34.72-11,65.62-7.06,87,11.18,46.83,36.43,68,86.52,59.61,141.08-9,58.36-52,111.27-107,131.66A145,145,0,0,1,829.76,299.27Zm-91.47-60.69c41.55,35.64,89.1,46.13,133.91,29.54,47.35-17.53,84.35-63.06,92.07-113.29,7.06-45.89-11.07-88.23-51-119.24-.15-.11-.3-.24-.44-.36-15.08-12.94-38.15-15.37-65-6.84C819,37.54,790,58,766,85.86c-47.27,55.1-60,125-27.74,152.72Z"/><path class="cls-4" d="M773.57,273.78c-19.67,0-37-5.89-50.49-17.48a11.68,11.68,0,0,1,15.21-17.74c15.07,12.93,38.14,15.36,65,6.83,28.78-9.15,57.82-29.56,81.76-57.46s39.69-59.7,44.37-89.54c4.35-27.8-1.55-50.24-16.63-63.17A11.68,11.68,0,0,1,928,17.49c21.45,18.4,30.14,48.41,24.49,84.52-5.33,34.07-23,70-49.72,101.14s-59.54,54.06-92.41,64.51A121.63,121.63,0,0,1,773.57,273.78Z"/><path class="cls-4" d="M916.34,25.92c-10.55,6.42-20.47,13.32-29,21.49a127.41,127.41,0,0,0-21.92,27.22c-12.29,19.93-19.57,43.24-29.08,66.94a250.46,250.46,0,0,1-17,35.36A139.61,139.61,0,0,1,794,208.38a130.79,130.79,0,0,1-33.42,22.16,162.59,162.59,0,0,1-37.28,11.58,4.16,4.16,0,0,1-2.57-7.84l.12-.06c11.19-5.46,22.1-10.89,32-17.54l7.32-5.07,6.88-5.53c2.24-1.89,4.33-3.93,6.49-5.87s4-4.19,6.07-6.23a143.24,143.24,0,0,0,20-28.38,313.77,313.77,0,0,0,15-32.76c4.65-11.41,9.16-23.23,14.54-35A185.09,185.09,0,0,1,848.9,63.46a122,122,0,0,1,64.16-45.13,4.17,4.17,0,0,1,3.36,7.55Z"/></svg>