<svg id="Layer_1" data-name="Layer 1" xmlns="http://www.w3.org/2000/svg" viewBox="0 0 1584.98 2936.71"><defs><style>.cls-1,.cls-6{fill:#fff;}.cls-1,.cls-10,.cls-4,.cls-8{stroke:#66142e;stroke-miterlimit:10;stroke-width:0;}.cls-2{opacity:0.3;}.cls-3{fill:#66142e;}.cls-4,.cls-9{fill:#f47516;}.cls-5{opacity:0.55;}.cls-7{opacity:0.25;}.cls-8{fill:#792937;}.cls-10{fill:#ea4235;}.cls-11{fill:#e93b47;}.cls-12{opacity:0.2;}</style></defs><path class="cls-1" d="M1423.09,1710.32c30.49,237.19-1375.35,418-1405.85,180.76C-6.43,1707,1399.42,1526.24,1423.09,1710.32Z"/><g class="cls-2"><path class="cls-3" d="M21.86,1907.57c89.22,203,1320.63,48.45,1397.88-168.36C1344.32,1581.06,109.09,1736.09,21.86,1907.57Z"/></g><g class="cls-2"><path class="cls-3" d="M401.67,838.5c7.35,9.19,5.49,22.41,3.61,34s-2.81,25.21,5.61,33.45c10,9.75,26.67,6.07,39.61,11.26a30.48,30.48,0,0,1,18.68,27.69c0,8.16-3.09,17.43,2,23.78,4.14,5.14,11.89,5.62,18.3,4a39.82,39.82,0,0,0,22.34-62.61c-17.21-22.91-59.26-15.56-77.76-37.43C424.39,861.25,415.47,844.44,401.67,838.5Z"/></g><path class="cls-3" d="M17.22,1906.24a15.14,15.14,0,0,1-15-13.22c-6.74-52.37,64.21-100.85,216.89-148.2,125.43-38.91,296.39-73.43,481.38-97.22s359.12-33.62,490.31-27.72c159.69,7.2,240.59,36.15,247.32,88.53a15.15,15.15,0,0,1-30,3.86c-1.58-12.33-22-53.27-218.63-62.12-129.52-5.85-301.79,3.93-485.08,27.5s-352.46,57.7-476.28,96.1c-188,58.3-197.4,103.08-195.81,115.41a15.16,15.16,0,0,1-13.09,17A16.24,16.24,0,0,1,17.22,1906.24Z"/><path class="cls-4" d="M720.71,532.88C731.15,467.11,809,445,885.48,507.82c23.71,19.47,40.91,46.28,45.22,76.65,6.13,43.15-17.28,64.83-55.86,75.48-43.32,12-83.29,34.31-113.24,67.81C724.21,769.57,697.92,822,678.49,881c.09,54.81-22.19,98.54-56.22,136.45-8.88,9.89-14.09,22.81-13.48,36.08,1.73,37.58-18.91,63.28-57.4,79.49a76.66,76.66,0,0,0-29.6,22.49c-38.12,46.88-81.94,66.72-132.07,56.62a76,76,0,0,0-54.28,9.75c-34.74,21.16-67.67,20.68-98.7-2.7-7.34-5.53-16.07-8.7-25-10.82-17.61-4.18-30.63-16.31-38.54-25.88A61.58,61.58,0,0,0,149,1164.35C16.28,1110.61,10.83,907.72,83.81,848.64c32.6-26.4,72.35-28,72.35-28,34.91-47.93,72.82-84.15,123.09-72,38.48,6.76,71.33-4.19,96.4-39.67,8.63-12.21,19.21-23,32.22-30.36,17.9-10.12,44-19.21,72.46-10.31,42.45,13.28,137.67-25.75,201.9-72.71A96.74,96.74,0,0,0,720.71,532.88Z"/><g class="cls-2"><path class="cls-3" d="M930.68,584.46c6.18,43.17-17.23,64.86-55.83,75.46-43.3,12-83.28,34.32-113.26,67.87C724.21,769.6,698,822,678.47,881c.14,54.82-22.16,98.54-56.22,136.42-8.88,9.9-14.06,22.83-13.44,36.08,1.71,37.6-18.93,63.32-57.44,79.55a76.28,76.28,0,0,0-29.57,22.48c-38.12,46.85-81.92,66.69-132.1,56.61a76,76,0,0,0-54.29,9.72c-34.68,21.18-67.67,20.68-98.69-2.67-7.34-5.51-16.07-8.72-25-10.85-17.62-4.14-30.62-16.26-38.53-25.84a61.56,61.56,0,0,0-24.23-18.2C57.31,1127.21,26.33,1019,40,936.1a161,161,0,0,0,41.23,36.26A61.23,61.23,0,0,1,102,994.26c6.25,10.78,17.06,24.87,33.73,32,8.47,3.55,16.56,8.1,22.92,14.8,26.68,28.16,59.12,34.12,96.88,19a75.93,75.93,0,0,1,55.14-.63c47.77,18.22,94.28,5.92,139.6-34a77.4,77.4,0,0,1,32.93-17.27c40.66-9.62,65.23-31.52,69.74-68.91,1.65-13.17,8.9-25,19.3-33.32,39.86-31.73,69-71.19,78-125.29,28.95-55,63.55-102.36,107.37-137.35,35-28.12,78.17-43.56,122.9-48.18,20.15-2.06,37-7.58,48.78-18.16C929.85,579.37,930.29,581.88,930.68,584.46Z"/></g><g class="cls-5"><path class="cls-6" d="M921.16,552.87A141.61,141.61,0,0,0,907.37,540C830.83,477.15,753,499.25,742.59,565a96.73,96.73,0,0,1-38.48,62.74c-64.27,47-159.47,86-201.91,72.75-28.43-8.91-54.57.17-72.45,10.27-13,7.42-23.61,18.15-32.25,30.4-25,35.48-57.9,46.42-96.38,39.67-50.25-12.14-88.16,24-123.13,72,0,0-39.74,1.54-72.32,28C54,922.61,41.6,1036.68,86,1118.74c-69-81-61.14-222.36-2.22-270.1,32.58-26.37,72.32-28,72.32-28,35-47.95,72.87-84.14,123.12-72,38.49,6.75,71.34-4.19,96.38-39.68,8.66-12.18,19.24-23,32.27-30.33,17.86-10.16,44-19.24,72.43-10.33,42.44,13.26,137.64-25.77,201.92-72.69a96.94,96.94,0,0,0,38.48-62.74C731.14,467.1,809,445,885.5,507.82A130.72,130.72,0,0,1,921.16,552.87Z"/></g><g class="cls-7"><path class="cls-6" d="M218.48,871.33c13.57,5.29,18.42,22.65,30.84,30.26,5.23,3.21,11.4,4.42,17.35,5.92s12.06,3.47,16.44,7.77,6.43,11.54,3.13,16.72c-2.69,4.2-7.95,5.89-12.86,6.78a76.4,76.4,0,0,1-49.79-8c-13.29-7.25-28.83-21.1-33-36.33S203.91,865.65,218.48,871.33Z"/></g><path class="cls-3" d="M286.46,1252.71c-20.5,0-40.39-7-59.06-21.1-4.69-3.53-10.81-6.11-19.25-8.11-21.85-5.19-37.58-19.78-46.93-31.11a46.4,46.4,0,0,0-18.05-13.66c-63.75-25.81-107.06-85.89-118.82-164.84C13.45,940.72,33.41,869.46,74,836.57c27.56-22.3,59.33-28.82,73.73-30.69,33.44-44.75,75.58-86.41,134.63-72.43,34.61,6,60.26-4.66,80.58-33.41,10.82-15.31,23.36-27.06,37.27-34.92,28.4-16,57.7-20.07,84.73-11.61,33.65,10.52,123.29-23,188.09-70.43a81.57,81.57,0,0,0,32.32-52.63h0c5.2-32.77,25.1-58,54.59-69.2,39.92-15.16,90.53-2.24,135.37,34.58,28.07,23.06,46.1,53.77,50.74,86.46s-3.28,75-67.11,92.64c-42.82,11.82-79.4,33.67-105.8,63.19C740.27,774.9,714.36,822.5,694,883.57c-.53,52.57-20.23,99.79-60.18,144.29-6.45,7.18-9.92,16.29-9.52,25,1.36,29.68-9.13,70.18-66.89,94.51a61.51,61.51,0,0,0-23.58,18c-42.5,52.27-92,73.17-147.17,62a60.88,60.88,0,0,0-43.14,7.79C324.31,1246.87,305.13,1252.71,286.46,1252.71Zm-26.7-490.92c-29.24,0-56.74,20.91-91,68a15.52,15.52,0,0,1-11.93,6.37c-.3,0-35.24,1.89-63.2,24.54-31.87,25.8-47.71,86.91-38.52,148.61,10.11,67.79,46.47,119,99.77,140.63a77.53,77.53,0,0,1,30.33,22.67c6.33,7.67,16.69,17.47,30.15,20.67,12.59,3,22.65,7.41,30.77,13.52,25.73,19.38,51.55,20,81.28,1.84a91,91,0,0,1,65.43-11.71c43.52,8.76,81.81-8,117-51.2a92.77,92.77,0,0,1,35.62-27c34-14.34,49.28-34.83,47.92-64.47-.77-17,5.41-33.77,17.43-47.16C646.44,967.32,663,927.27,663,881.05a15.57,15.57,0,0,1,.78-4.88C685.58,809.85,713.8,757.92,750,717.41c30.38-34,72.1-59,120.68-72.43,35.68-9.85,49-27.29,44.62-58.33-3.54-25-17.64-48.72-39.7-66.83C839.5,490.16,800.38,479.11,771,490.28c-19.09,7.24-31.5,23.24-35,45h0a112.81,112.81,0,0,1-44.65,72.84c-67.09,49.06-166.1,90.51-215.7,75-23.5-7.35-45.71.84-60.18,9-9.88,5.58-19,14.27-27.18,25.8-27.38,38.74-65,54.23-111.77,46-.32-.06-.64-.12-.95-.2A67.16,67.16,0,0,0,259.76,761.79Z"/><path class="cls-3" d="M148,804.51c10.79-1,19.25,1.83,27,6a45.38,45.38,0,0,1,10.81,8.33,36.72,36.72,0,0,1,7.52,12c5.94,15.57,4.38,29.89,4.09,42-.51,12.37.1,23.06,5.88,32.85a48,48,0,0,0,26.15,21.6h0a3.11,3.11,0,0,1-1.47,6,58,58,0,0,1-45.27-39.33,113.51,113.51,0,0,1-4.16-20.17c-.86-6.49-1.54-12.57-2.75-18.09a44.35,44.35,0,0,0-5.27-14.19,9.84,9.84,0,0,0-3.21-3.5,20,20,0,0,0-4.77-2.34c-3.55-1.29-8-1.42-9.75-.59a16,16,0,1,1-13.5-28.94,16.23,16.23,0,0,1,5.27-1.43Z"/><path class="cls-3" d="M366.23,1197c21.64,1.37,43.22-1.71,59.88-11.82,16-9.72,27.95-28.52,26.19-46.09-.62-8.94-5.09-19-9.64-30.39a99.35,99.35,0,0,1-7.71-37.59c-.23-6-.46-11.64-1-17a69.71,69.71,0,0,0-1.31-7.78,36.67,36.67,0,0,0-2.47-6.94c-4.14-9.07-12.57-17.06-22.72-16l-.15,0a3.12,3.12,0,0,1-1.38-6,25.3,25.3,0,0,1,20.28,1.84,43.2,43.2,0,0,1,15.22,13.47c8.12,11.84,9.54,25.16,11.61,36.55a128.44,128.44,0,0,0,3.54,16,96.44,96.44,0,0,0,6.28,14.63c4.93,10.09,11.62,21.4,14.12,36,2.28,14.75-1.06,29.73-7.75,42.18a81.43,81.43,0,0,1-28.7,30.52,99.37,99.37,0,0,1-38.17,13.55,133.76,133.76,0,0,1-38.82-.4h-.05a12.44,12.44,0,0,1,2.77-24.69Z"/><path class="cls-3" d="M391.66,835.26c3.52-4.33,9.76-6.12,15.27-5.74a27.74,27.74,0,0,1,15.59,6.3c8.7,7.33,12.51,17.16,15.93,24.55,3.17,7.43,6.76,13.19,10.11,15.23,3.12,2.23,8.81,3.1,17,3,4,0,8.48,0,13.38.23a55.77,55.77,0,0,1,15.62,3.06,50.82,50.82,0,0,1,24.82,19.52A46.1,46.1,0,0,1,526.88,931c-.91,9.94-5,19.35-11.69,26a3.16,3.16,0,0,1-5.18-3.39l0-.1c5.81-14.91,2.57-31-6.5-40a34.11,34.11,0,0,0-16.15-9.55c-5.47-1.53-12.57-1-21.57-.66a78.69,78.69,0,0,1-15-.85A38.41,38.41,0,0,1,434,895.27a39.47,39.47,0,0,1-11.1-13.81,73.68,73.68,0,0,1-5.09-13.76c-2.22-8.47-3.68-15.46-6.94-20.56a15.59,15.59,0,0,0-6.4-5.88,11.48,11.48,0,0,0-9-1.09l-.4.13a3.17,3.17,0,0,1-4-2.1A3.21,3.21,0,0,1,391.66,835.26Z"/><path class="cls-3" d="M655.89,942.39c12.42-39.59,10.07-85.17-8-125.12a3.11,3.11,0,0,1,5.47-2.95c24.22,38.37,34.43,86.61,26.7,133.7l0,.12a12.45,12.45,0,0,1-24.58-4A13.72,13.72,0,0,1,655.89,942.39Z"/><path class="cls-3" d="M385.31,722.19c-30.5,24.74-52.63,62.5-58.9,104.25a3.9,3.9,0,0,1-7.75-.45c-1.34-44.16,14.19-90,44.78-125.85l.17-.19a15.6,15.6,0,1,1,23.74,20.25A17.39,17.39,0,0,1,385.31,722.19Z"/><path class="cls-3" d="M483.15,656.23A302.07,302.07,0,0,1,515,668.64a330.33,330.33,0,0,1,30,15.42,252,252,0,0,1,27.83,19.05,166.06,166.06,0,0,1,23.89,23.75,3.11,3.11,0,0,1-4.52,4.24l-.09-.08a157,157,0,0,0-25.5-19A239.82,239.82,0,0,0,538.12,698,314.32,314.32,0,0,0,508,687.57a283.63,283.63,0,0,0-30.52-7.15l-.23,0a12.46,12.46,0,1,1,5.87-24.15Z"/><path class="cls-4" d="M202.75,1035.18q46.22,113.4,127.49,15.32"/><path class="cls-3" d="M205.62,1034c9,11.79,17,23.54,26.15,33a69.41,69.41,0,0,0,14,11.68c4.85,2.77,9.57,4.58,14.51,4.81,9.74.89,21.34-3.92,32.69-10.77s22.6-15.69,34.84-24.17l0,0a3.21,3.21,0,0,1,4.74,4,114.85,114.85,0,0,1-27,37,80.38,80.38,0,0,1-20.52,13.73,62.71,62.71,0,0,1-12.69,4.16,52.22,52.22,0,0,1-14.06.83c-9.64-.63-18.79-4.68-25.95-10a70.1,70.1,0,0,1-17-18.62,108.63,108.63,0,0,1-15.56-43.27,3.2,3.2,0,0,1,5.71-2.4Z"/><path class="cls-3" d="M738.61,514.94c-1.74,8.67-3.17,17.95-4.37,27s-2.13,18.28-2.66,27.44a239.45,239.45,0,0,0-.3,27.44c.51,9.08,1.5,18.19,4.1,26.78l0,.08a3.11,3.11,0,0,1-5.77,2.29c-4.37-8.83-7-18.25-9.13-27.67a252.33,252.33,0,0,1-4.45-28.55c-1-9.56-1.64-19.13-2-28.72s-.46-19.06-.14-29a12.47,12.47,0,1,1,24.92.8,12.9,12.9,0,0,1-.22,2Z"/><g class="cls-7"><path class="cls-6" d="M346.45,907.93a25.8,25.8,0,0,1,8.52-1.59,9.6,9.6,0,0,1,7.59,3.61c2.74,3.89.94,9.47-2.19,13-5.49,6.27-14,8.77-22.09,10.79-4.49,1.13-9.13,2.21-13.69,1.45s-9-3.84-10-8.36C312.08,915.58,339.35,910.17,346.45,907.93Z"/></g><g class="cls-7"><path class="cls-6" d="M466.78,828.3c3.32,1.89,6.89,3.55,10.7,3.89s7.93-.86,10.31-3.85c3.16-4,2.46-9.7,1.17-14.61-3.77-14.37-11.08-27.51-18.32-40.48-2.35-4.2-4.76-8.48-8.28-11.77-16.38-15.23-31,10.89-29.56,25.85C434.44,804.08,453.19,820.6,466.78,828.3Z"/></g><g class="cls-2"><path class="cls-3" d="M155.56,998.06c2.53,3.29,6,6.08,10.13,6.72s8.77-1.35,10.27-5.23c1.76-4.56-1.24-9.6-4.83-12.93s-8-6-10.31-10.33c-1.37-2.56-2.48-6-5.37-6.36C143.32,968.55,153,994.71,155.56,998.06Z"/></g><g class="cls-2"><path class="cls-3" d="M209.69,1013.22c9.1-3.05,5.6-22.13-5.85-18.57C192.74,998.11,201.42,1016,209.69,1013.22Z"/></g><g class="cls-2"><path class="cls-3" d="M177.94,973.49a9,9,0,0,0,2.66,4.9,5.55,5.55,0,0,0,2.52,1.22,4.21,4.21,0,0,0,2.75-.35c2.11-1.08,2.78-3.74,3-6.09C189.7,965.15,175.84,964.14,177.94,973.49Z"/></g><g class="cls-2"><path class="cls-3" d="M606.11,831.22c-3,8.24-7.25,16.6-14.68,21.27-2.39,1.5-5.33,2.58-8,1.72s-4.58-3.67-5.58-6.44a23.13,23.13,0,0,1,2.55-20.41c4.14-6.15,16.8-18.25,24.67-18.25C616.2,809.1,608.55,825.66,606.11,831.22Z"/></g><g class="cls-2"><path class="cls-3" d="M613.06,779.87a21.38,21.38,0,0,0-1.5,7.23c.07,2.48,1.17,5.07,3.35,6.25,2.69,1.47,6.14.33,8.49-1.63a14.12,14.12,0,0,0,5-10.82c0-3.82-2.27-10.52-7-10.85C616.44,769.7,614.29,776.16,613.06,779.87Z"/></g><g class="cls-2"><path class="cls-3" d="M587.62,773.21a7.22,7.22,0,1,0,1.21.09"/></g><g class="cls-2"><path class="cls-3" d="M401.67,838.5c7.35,9.19,5.49,22.41,3.61,34s-2.81,25.21,5.61,33.45c10,9.75,26.67,6.07,39.61,11.26a30.48,30.48,0,0,1,18.68,27.69c0,8.16-3.09,17.43,2,23.78,4.14,5.14,11.89,5.62,18.3,4a39.82,39.82,0,0,0,22.34-62.61c-17.21-22.91-59.26-15.56-77.76-37.43C424.39,861.25,415.47,844.44,401.67,838.5Z"/></g><g class="cls-2"><path class="cls-8" d="M222.54,929.15a31,31,0,0,1-32.59-.6c-8.78-5.83-13.88-15.73-21.28-23.25-4-4.06-8.75-7.53-11.54-12.5-4.19-7.48-2.91-17.24,1.82-24.39s12.45-11.9,20.57-14.66c-1.44,14.85,2.8,30.57,10.31,43.47S208.92,923.07,222.54,929.15Z"/></g><path class="cls-4" d="M661.34,2306.59c-65.1,14-82.93,92.95-16,165.9,20.74,22.6,48.44,38.31,79,41,43.43,3.75,63.79-20.81,72.32-59.92,9.57-43.9,29.7-85,61.5-116.78,39.71-39.62,90.63-68.74,148.49-91.38,54.74-2.9,97.19-27.54,133.18-63.6,9.38-9.41,22-15.31,35.28-15.43,37.62-.34,62.15-22.35,76.23-61.67a76.76,76.76,0,0,1,20.84-30.79c44.72-40.62,62.13-85.46,49.31-135a75.9,75.9,0,0,1,6.76-54.73c19.23-35.84,16.94-68.7-8.1-98.4-5.92-7-9.57-15.57-12.18-24.38-5.13-17.36-18-29.7-28-37.07a61.75,61.75,0,0,1-19.46-23.16c-60.92-129.58-263.8-123.92-318.8-47.81-24.57,34-24,73.77-24,73.77-45.94,37.49-80,77.32-65.14,126.85,8.86,38-.28,71.46-34.33,98.43-11.72,9.28-21.92,20.43-28.55,33.83-9.13,18.43-16.77,45-6.34,72.92,15.59,41.65-18.17,138.87-61.54,205.57A96.78,96.78,0,0,1,661.34,2306.59Z"/><g class="cls-2"><path class="cls-3" d="M724.34,2513.42c43.44,3.81,63.82-20.75,72.29-59.87,9.57-43.89,29.71-85,61.56-116.81,39.71-39.61,90.61-68.71,148.47-91.39,54.74-2.85,97.17-27.51,133.14-63.6,9.39-9.41,22-15.29,35.29-15.4,37.63-.34,62.18-22.37,76.28-61.7a76.42,76.42,0,0,1,20.82-30.76c44.7-40.62,62.12-85.45,49.3-135a76,76,0,0,1,6.73-54.74c19.26-35.79,17-68.7-8.06-98.4-5.91-7-9.59-15.57-12.2-24.34-5.11-17.37-17.92-29.68-27.91-37.06a61.66,61.66,0,0,1-19.51-23.2c-42.07-89.5-151.85-114.51-233.85-96.36a161.12,161.12,0,0,1,38.47,39.18,61.08,61.08,0,0,0,23,19.59c11.11,5.65,25.77,15.67,33.75,31.94,4,8.25,9,16.08,16,22.07,29.58,25.1,37.3,57.16,24.26,95.7a75.88,75.88,0,0,0,2.4,55.08c20.8,46.7,11.07,93.82-26.34,141.26a77.52,77.52,0,0,0-15.44,33.82c-7.37,41.12-27.9,66.86-65,73.41-13.06,2.36-24.52,10.26-32.21,21.1-29.51,41.53-67.31,72.81-120.84,84.72-53.28,31.91-98.73,69.06-131.27,114.73-26.16,36.54-39.21,80.43-41.38,125.35-.95,20.23-5.54,37.34-15.46,49.7C719.21,2512.87,721.74,2513.18,724.34,2513.42Z"/></g><g class="cls-5"><path class="cls-6" d="M692.27,2505.64a141.07,141.07,0,0,1-13.63-13.06c-66.92-73-49.11-151.9,16-165.9a96.75,96.75,0,0,0,60.54-41.86c43.4-66.74,77.15-163.94,61.58-205.59-10.45-27.9-2.81-54.5,6.3-72.9,6.69-13.4,16.83-24.56,28.58-33.87,34.06-26.94,43.19-60.35,34.34-98.4-14.88-49.51,19.18-89.34,65.15-126.89,0,0-.63-39.77,24-73.74,38.93-53.93,152.15-72.51,236.52-32.64-84.66-64.42-225.37-48.87-269.82,12.57-24.54,34-24,73.74-24,73.74-46,37.54-80,77.38-65.15,126.88,8.84,38.06-.28,71.46-34.34,98.41-11.69,9.31-21.89,20.47-28.52,33.87-9.17,18.4-16.81,45-6.36,72.9C799,2100.81,765.23,2198,721.9,2264.75a97,97,0,0,1-60.54,41.86c-65.14,14-82.94,92.92-16,165.9A130.82,130.82,0,0,0,692.27,2505.64Z"/></g><g class="cls-7"><path class="cls-6" d="M971.79,1786.59c6,13.26,23.62,17.15,31.9,29.13,3.49,5,5,11.14,6.86,17s4.13,11.86,8.66,16,11.88,5.79,16.86,2.2c4.06-2.91,5.46-8.26,6.08-13.21a76.46,76.46,0,0,0-10.76-49.28c-8-12.86-22.65-27.62-38.08-30.91S965.32,1772.35,971.79,1786.59Z"/></g><path class="cls-3" d="M732.5,2529.33c-3.23,0-6.4-.15-9.49-.42-32.91-2.84-64.56-19.15-89.11-45.92-39.22-42.75-54.89-92.57-41.94-133.28,9.57-30.06,33.67-51.31,66.11-58.3a81.56,81.56,0,0,0,50.79-35.14c43.76-67.31,72.38-158.66,60-191.67-9.92-26.52-7.52-56,7-85.25,7.1-14.32,18.14-27.48,32.83-39.11,27.59-21.86,36.8-48,29-82.29-17.2-58.22,22.09-102.55,65-138.39,1.08-14.49,5.84-46.57,26.61-75.3,30.61-42.36,100.7-66.19,174.33-59.31,79.47,7.42,141.84,47.37,171.11,109.61a46.36,46.36,0,0,0,14.61,17.27c11.83,8.72,27.26,23.63,33.63,45.16,2.47,8.33,5.38,14.29,9.16,18.78,28.79,34.14,32.21,74.17,9.91,115.75a60,60,0,0,0-5.42,43.5c14.12,54.46-4,105-53.89,150.35A61.42,61.42,0,0,0,1266,2109.9c-21.13,59-61,71.7-90.71,72-8.71.08-17.62,4-24.44,10.88-42.23,42.32-88.31,64.58-140.77,68-59.86,23.67-106,52.14-140.91,87-28,28-47.84,65.7-57.3,109.1C799.05,2515.43,763.42,2529.33,732.5,2529.33Zm-71.16-222.74,3.27,15.18c-21.58,4.65-36.86,17.91-43.06,37.36-9.54,30,3.63,68.42,35.23,102.86,19.29,21,43.76,33.81,68.9,36,31.29,2.68,47.92-11.59,55.81-47.76,10.73-49.23,33.45-92.27,65.71-124.46,38.47-38.39,88.78-69.41,153.8-94.85a15.69,15.69,0,0,1,4.83-1c46.15-2.45,85.23-21.22,123-59.07,12.54-12.56,29.35-19.84,46.15-20,29.66-.26,49.28-16.59,61.75-51.38a92.61,92.61,0,0,1,25-37c41.23-37.46,55.86-76.57,44.72-119.59a90.92,90.92,0,0,1,8.11-66c16.46-30.69,14.46-56.44-6.29-81.06-6.55-7.76-11.52-17.57-15.19-30-3.93-13.27-14.29-23.08-22.28-29a77.52,77.52,0,0,1-24.3-29c-24.46-52-77.64-85.54-145.89-91.92-62-5.77-122.26,13.36-146.28,46.59-21.07,29.17-21,64.15-21,64.5a15.62,15.62,0,0,1-5.71,12.21c-53.2,43.4-70.61,75.38-60.09,110.35.09.32.18.63.25,1,10.78,46.27-2.62,84.66-39.81,114.12-11.07,8.76-19.24,18.37-24.28,28.55-7.37,14.89-14.35,37.5-5.71,60.58,18.21,48.67-17.76,149.82-63.07,219.49a112.92,112.92,0,0,1-70.28,48.57Z"/><path class="cls-3" d="M932.11,1723.09c-.73,1.82-.36,6.23,1.12,9.71a19.68,19.68,0,0,0,2.6,4.63,9.54,9.54,0,0,0,3.67,3,44.12,44.12,0,0,0,14.45,4.49c5.58.91,11.69,1.25,18.22,1.76a114,114,0,0,1,20.36,3,58,58,0,0,1,41.75,43.06,3.11,3.11,0,0,1-5.94,1.8v0a48,48,0,0,0-23-24.93c-10.08-5.23-20.79-5.25-33.11-4.07-12.13,1-26.34,3.3-42.21-1.79a36.48,36.48,0,0,1-12.39-6.84,45.47,45.47,0,0,1-8.92-10.34c-4.6-7.54-7.84-15.83-7.47-26.66l.11-3.31a16,16,0,0,1,31.92,1.09A16.36,16.36,0,0,1,932.11,1723.09Z"/><path class="cls-3" d="M1329.61,1912.22a134,134,0,0,1,2.53,38.74,99.37,99.37,0,0,1-11.44,38.85,81.52,81.52,0,0,1-28.9,30.33c-12.07,7.36-26.85,11.52-41.7,10-14.76-1.7-26.41-7.76-36.76-12.13a96.49,96.49,0,0,0-14.95-5.47,128.22,128.22,0,0,0-16.16-2.66c-11.5-1.44-24.87-2.13-37.14-9.59a43.12,43.12,0,0,1-14.28-14.46,25.28,25.28,0,0,1-2.94-20.15,3.11,3.11,0,0,1,6.09,1v.15c-.47,10.19,8,18.17,17.26,21.8a35.33,35.33,0,0,0,7.06,2.09,65.54,65.54,0,0,0,7.83.88c5.4.27,11.05.19,17.05.1a115.06,115.06,0,0,1,19,.93,116.31,116.31,0,0,1,18.92,4.7c11.64,3.92,21.9,7.83,30.87,8,17.64.79,35.76-12.13,44.58-28.68,9.19-17.19,11.08-38.91,8.53-60.43a12.44,12.44,0,0,1,24.49-4.18Z"/><path class="cls-3" d="M950.37,1965a11.47,11.47,0,0,0,1.58,8.91,15.4,15.4,0,0,0,6.22,6.07c5.27,3,12.33,4,20.91,5.81a73.51,73.51,0,0,1,14,4.32,39.55,39.55,0,0,1,14.4,10.34,38.4,38.4,0,0,1,8.06,16.41,79.14,79.14,0,0,1,1.67,15c.2,9,0,16.12,1.84,21.5a34.06,34.06,0,0,0,10.42,15.6c9.51,8.57,25.76,10.91,40.32,4.31l.1-.05a3.16,3.16,0,0,1,3.67,5c-6.26,7-15.44,11.64-25.31,13.09a46.06,46.06,0,0,1-30-5.9,50.78,50.78,0,0,1-20.84-23.71,55.77,55.77,0,0,1-3.92-15.44c-.54-4.87-.72-9.32-1-13.34-.37-8.14-1.55-13.78-3.94-16.77-2.23-3.24-8.17-6.5-15.76-9.26-7.57-3-17.6-6.28-25.38-14.56a27.73,27.73,0,0,1-7.15-15.22c-.69-5.49.76-11.81,4.9-15.56a3.18,3.18,0,0,1,5.22,3.1Z"/><path class="cls-3" d="M1073.63,2243.3c-46.59,10.3-95.32,2.75-135-19.34a3.11,3.11,0,0,1,2.65-5.61c40.87,15.81,86.52,15.67,125.37,1.1a12.46,12.46,0,1,1,7.13,23.81Z"/><path class="cls-3" d="M808.8,1940.7c34.14-32.51,79-50.53,123.21-51.6a3.89,3.89,0,0,1,.87,7.71c-41.35,8.55-77.84,32.71-100.88,64.52A15.6,15.6,0,0,1,806.73,1943a15.89,15.89,0,0,1,1.81-2.09Z"/><path class="cls-3" d="M795.35,2055.67a285.11,285.11,0,0,0,8.8,30.1,313.22,313.22,0,0,0,12,29.47A240.44,240.44,0,0,0,831.78,2143a157.14,157.14,0,0,0,20.37,24.41l.08.09a3.11,3.11,0,0,1-4,4.75,166.59,166.59,0,0,1-25-22.55,256.17,256.17,0,0,1-20.55-26.75,334.65,334.65,0,0,1-17-29.13,305.5,305.5,0,0,1-14.13-31.15,12.46,12.46,0,1,1,23.28-8.89,11,11,0,0,1,.5,1.64Z"/><path class="cls-9" d="M1134.53,1761.91q115.77,39.94,22.28,126.46"/><path class="cls-3" d="M1135.54,1759a108.58,108.58,0,0,1,44.06,13.17,70.25,70.25,0,0,1,19.53,16c5.65,6.86,10.19,15.77,11.35,25.36a52.24,52.24,0,0,1-.06,14.08,63.19,63.19,0,0,1-3.46,12.9,80.7,80.7,0,0,1-12.58,21.24,115,115,0,0,1-35.46,29,3.21,3.21,0,0,1-4.25-4.51l0-.05c7.79-12.68,16-24.3,22.23-36.11s10.39-23.55,9-33.23c-.5-4.92-2.56-9.53-5.59-14.22a69.22,69.22,0,0,0-12.44-13.38c-9.91-8.63-22.09-16-34.34-24.31l0,0a3.2,3.2,0,0,1-.86-4.45A3.24,3.24,0,0,1,1135.54,1759Z"/><path class="cls-3" d="M640.14,2301c9.92-.86,19.32-1.24,29-1.45s19.19-.1,28.79.41a251.29,251.29,0,0,1,28.75,2.89c9.53,1.6,19.07,3.71,28.13,7.59a3.12,3.12,0,0,1-2,5.89l-.08,0c-8.72-2.13-17.87-2.62-27-2.63a237.64,237.64,0,0,0-27.39,1.8c-9.12,1-18.21,2.47-27.25,4.16s-18.16,3.62-26.72,5.83l-.07,0a12.47,12.47,0,0,1-6.24-24.14A13,13,0,0,1,640.14,2301Z"/><g class="cls-7"><path class="cls-6" d="M1015.34,1912.36a25.91,25.91,0,0,0-1.12,8.59,9.57,9.57,0,0,0,4,7.38c4,2.53,9.5.43,12.91-2.9,6-5.82,8-14.47,9.57-22.64.88-4.54,1.7-9.24.69-13.75s-4.33-8.83-8.9-9.57C1021.1,1877.63,1017.19,1905.15,1015.34,1912.36Z"/></g><g class="cls-7"><path class="cls-1" d="M942.42,2036.87c2.06,3.22,3.92,6.68,4.47,10.47s-.43,8-3.29,10.51c-3.79,3.36-9.55,3-14.52,2-14.55-3-28.07-9.55-41.42-16.07-4.33-2.12-8.73-4.29-12.2-7.63-16.11-15.52,9.17-31.57,24.18-30.93C916.46,2005.9,934,2023.72,942.42,2036.87Z"/></g><g class="cls-2"><path class="cls-3" d="M1094.89,1716.82c3.42,2.35,6.39,5.69,7.26,9.75s-.87,8.83-4.66,10.54c-4.46,2-9.66-.71-13.18-4.11s-6.44-7.66-10.87-9.73c-2.63-1.23-6.16-2.15-6.65-5C1064.75,1706.22,1091.4,1714.42,1094.89,1716.82Z"/></g><g class="cls-2"><path class="cls-3" d="M1113,1770c-2.55,9.26-21.8,6.81-18.86-4.82C1097,1754,1115.3,1761.63,1113,1770Z"/></g><g class="cls-2"><path class="cls-3" d="M1071.58,1740.52a8.9,8.9,0,0,1,5,2.38,5.64,5.64,0,0,1,1.35,2.45,4.31,4.31,0,0,1-.19,2.77c-1,2.16-3.59,3-5.93,3.35C1063.89,1752.72,1062.13,1738.93,1071.58,1740.52Z"/></g><g class="cls-2"><path class="cls-8" d="M953,2175.83c8.06-3.48,16.18-8.15,20.43-15.82,1.37-2.47,2.29-5.46,1.28-8.1s-3.91-4.38-6.74-5.22a23.1,23.1,0,0,0-20.24,3.66c-5.9,4.47-17.3,17.77-16.87,25.63C931.42,2187.12,947.54,2178.58,953,2175.83Z"/></g><g class="cls-2"><path class="cls-8" d="M902.07,2185.58a21.59,21.59,0,0,1,7.14-1.89,7.24,7.24,0,0,1,6.42,3c1.61,2.61.66,6.12-1.17,8.57a14.15,14.15,0,0,1-10.53,5.59c-3.81.18-10.62-1.69-11.21-6.37C892.1,2189.51,898.43,2187,902.07,2185.58Z"/></g><g class="cls-2"><path class="cls-8" d="M894,2160.54a7.23,7.23,0,1,1,.16,1.21"/></g><g class="cls-2"><path class="cls-8" d="M949,1971.3c9.59,6.84,22.68,4.26,34.19,1.74s25-4.18,33.7,3.77c10.28,9.41,7.52,26.3,13.41,38.93a30.49,30.49,0,0,0,28.68,17.14c8.14-.47,17.22-4,23.85.73,5.36,3.85,6.26,11.56,5,18a39.83,39.83,0,0,1-61.29,25.74c-23.81-15.94-18.77-58.32-41.63-75.6C973,1992.74,955.72,1984.75,949,1971.3Z"/></g><g class="cls-2"><path class="cls-3" d="M1029.75,1787.48a31,31,0,0,0-2.38-32.52c-6.31-8.45-16.48-13-24.39-20-4.27-3.77-8-8.34-13.11-10.84-7.7-3.78-17.37-2-24.25,3.15s-11.21,13.08-13.52,21.34c14.75-2.26,30.68,1.12,44,7.91S1022.93,1774.21,1029.75,1787.48Z"/></g><path class="cls-4" d="M339.06,2467.33c-42.21,51.51-7,124.36,90.79,139.77,30.3,4.77,61.76-.19,87.32-17.16,36.32-24.1,37-56,19.27-91.9-19.85-40.32-29.71-85-24.59-129.68,6.39-55.72,28.1-110.22,59.28-164,41-36.36,58.89-82.07,64.59-132.7,1.49-13.2,7.68-25.67,18-34C683,2014,688.43,1981.46,675,1941.93a76.67,76.67,0,0,1-2.87-37.07c9.7-59.63-4.6-105.56-45.46-136.31a75.94,75.94,0,0,1-28.8-47c-7.27-40-29.53-64.31-67.61-72-9-1.8-17.18-6.22-24.71-11.49-14.82-10.38-32.54-12-44.95-11.6a61.58,61.58,0,0,1-29.65-6c-128.36-63.45-283.58,67.32-279.22,161.11,1.95,41.91,27.18,72.66,27.18,72.66-12.6,57.94-14.47,110.34,28,139.82,30.63,24.26,44.28,56.08,34.43,98.39-3.39,14.56-4.42,29.64-1.27,44.25,4.34,20.1,14.91,45.67,40.45,61,38.14,22.89,72.26,120,79.86,199.18A96.76,96.76,0,0,1,339.06,2467.33Z"/><g class="cls-2"><path class="cls-3" d="M517.16,2589.93c36.35-24.07,37-56,19.27-91.87-19.85-40.3-29.71-85-24.57-129.73,6.4-55.72,28.11-110.18,59.26-163.95,41.06-36.33,58.9-82.05,64.57-132.68,1.49-13.21,7.7-25.67,18-34,29.23-23.71,34.73-56.23,21.26-95.78a76.5,76.5,0,0,1-2.86-37c9.68-59.62-4.61-105.54-45.49-136.32a76,76,0,0,1-28.82-47c-7.22-40-29.53-64.31-67.59-72-9-1.81-17.2-6.21-24.71-11.45-14.8-10.41-32.5-12.07-44.91-11.62a61.41,61.41,0,0,1-29.7-6c-88.66-43.83-190.13,5-243,70.23a160.79,160.79,0,0,1,54.5,6.7,61,61,0,0,0,30.19,1c12.22-2.49,29.93-3.78,46.3,4,8.29,4,17.06,7,26.29,7.28,38.78,1.22,64.78,21.5,78.58,59.78A76,76,0,0,0,459.94,1811C505.3,1834.62,527,1877.55,527.3,1938a77.37,77.37,0,0,0,9,36.08c19.84,36.77,19.8,69.69-5.13,97.9-8.75,10-12.8,23.3-12.07,36.57,2.78,50.87-7.32,98.88-41.79,141.54-21.82,58.15-34.24,115.51-31.27,171.51,2.29,44.88,19.41,87.35,45.69,123.85,11.85,16.42,18.91,32.66,18.85,48.51C512.8,2592.69,515,2591.35,517.16,2589.93Z"/></g><g class="cls-5"><path class="cls-6" d="M487.22,2603.81a141.89,141.89,0,0,1-18.8-1.73c-97.81-15.43-133-88.27-90.83-139.75a96.72,96.72,0,0,0,21.31-70.45c-7.61-79.24-41.73-176.31-79.84-199.21-25.55-15.32-36.14-40.89-40.47-61-3.11-14.65-2.13-29.7,1.27-44.3,9.87-42.29-3.79-74.11-34.41-98.38-42.47-29.47-40.63-81.85-28-139.85,0,0-25.26-30.72-27.16-72.63-3.13-66.43,73.89-151.48,164.73-172.82-106.35,2.31-206.77,102.1-203.29,177.85,2,41.87,27.16,72.63,27.16,72.63-12.59,58-14.43,110.38,28,139.85,30.62,24.27,44.29,56.09,34.41,98.38-3.35,14.56-4.38,29.65-1.22,44.27,4.29,20.1,14.87,45.67,40.42,61,38.12,22.9,72.23,120,79.89,199.18a97,97,0,0,1-21.3,70.45c-42.25,51.51-7,124.35,90.77,139.78A130.61,130.61,0,0,0,487.22,2603.81Z"/></g><g class="cls-7"><path class="cls-6" d="M258.16,1867.13c13,6.63,29.16-1.29,43.1,2.93,5.87,1.77,10.88,5.58,15.95,9s10.61,6.71,16.73,7.12,12.91-2.87,14.58-8.77c1.35-4.81-.88-9.86-3.48-14.12a76.41,76.41,0,0,0-39.1-31.86c-14.25-5.11-34.93-7.51-49.05-.47S244.23,1860,258.16,1867.13Z"/></g><path class="cls-3" d="M451.65,2624.35a154.85,154.85,0,0,1-24.22-1.92c-57.3-9-100.59-38.24-115.8-78.16-11.23-29.48-5.61-61.11,15.42-86.78h0a81.64,81.64,0,0,0,17.86-59.13c-7.67-79.92-42.18-169.21-72.4-187.35-24.28-14.57-40.75-39.14-47.63-71-3.38-15.63-2.93-32.81,1.32-51.05,8-34.29-1.11-60.49-28.59-82.41-49.71-34.85-46.57-94-35.36-148.73-8.18-12-24.42-40.08-26.07-75.49-2.42-52.2,37.55-114.48,99.47-155,66.81-43.68,140.48-51.26,202.14-20.78A46.15,46.15,0,0,0,460,1611c14.67-.54,36,1.51,54.43,14.39,7.12,5,13.12,7.84,18.87,9,43.79,8.79,71.39,38,79.83,84.4a60,60,0,0,0,22.85,37.4c45,33.84,62.27,84.71,51.46,151.22a61.38,61.38,0,0,0,2.24,29.56c20.2,59.32-3.08,94.08-26.16,112.79-6.77,5.48-11.27,14.13-12.35,23.72-6.7,59.42-28.89,105.53-67.81,140.87-32.09,55.79-50.44,106.79-56.07,155.83-4.51,39.33,3.48,81.19,23.1,121,29.25,59.4,2.77,93.53-24.61,111.7C504.49,2617,478.79,2624.35,451.65,2624.35ZM351.07,2477.17c-14,17.07-17.69,37-10.42,56,11.2,29.39,45.44,51.28,91.62,58.55,28.17,4.44,55.28-.8,76.32-14.75,26.11-17.34,30.28-38.9,13.92-72.12-22.26-45.21-31.28-93-26.09-138.3,6.2-54,26.24-109.59,61.28-170a15.59,15.59,0,0,1,3.13-3.83c34.58-30.65,53.47-69.68,59.46-122.81,2-17.63,10.61-33.8,23.66-44.37,23-18.68,28.23-43.68,16.31-78.66a92.67,92.67,0,0,1-3.49-44.56c8.94-55-4-94.69-39.48-121.41a91,91,0,0,1-34.73-56.66c-6.23-34.27-23.83-53.17-55.4-59.51-10-2-20-6.58-30.55-14-11.33-7.93-25.53-9.18-35.48-8.8a77.27,77.27,0,0,1-37.1-7.6c-51.54-25.48-114-18.58-171.39,18.93-52.21,34.14-87.35,86.59-85.44,127.54,1.67,36,23.49,63.3,23.71,63.57a15.64,15.64,0,0,1,3.13,13.11c-14.59,67.09-8.31,103,21.7,123.77.27.18.53.38.79.58,37.24,29.49,50.67,67.87,39.92,114.08-3.21,13.75-3.62,26.35-1.22,37.45,3.51,16.25,12.12,38.28,33.26,51,44.55,26.73,79.39,128.28,87.33,211a112.93,112.93,0,0,1-24.75,81.78Z"/><path class="cls-3" d="M187.57,1842.16c.56,1.88,3.59,5.1,6.92,6.9a19.69,19.69,0,0,0,4.91,2,9.72,9.72,0,0,0,4.75.07,44.35,44.35,0,0,0,14.11-5.48c4.92-2.77,9.92-6.31,15.34-10a114.27,114.27,0,0,1,17.83-10.29,58.07,58.07,0,0,1,59.48,7.68,3.12,3.12,0,0,1-3.53,5.11l0,0a48,48,0,0,0-33.53-5.19c-11.14,2.19-19.54,8.84-28.44,17.44-8.9,8.31-18.56,19-34.15,24.89a36.52,36.52,0,0,1-13.95,2.36,45.53,45.53,0,0,1-13.42-2.54c-8.29-3-16-7.5-22.44-16.21l-2-2.65a16,16,0,1,1,25.64-19A16.27,16.27,0,0,1,187.57,1842.16Z"/><path class="cls-3" d="M616.36,1742.61a133.94,133.94,0,0,1,26.11,28.73,99.56,99.56,0,0,1,15.23,37.53,81.37,81.37,0,0,1-3.72,41.72c-4.86,13.28-13.83,25.73-26.36,33.83-12.61,7.87-25.51,10.38-36.32,13.4a96.25,96.25,0,0,0-15.11,5,127.18,127.18,0,0,0-14.3,8c-9.89,6-20.78,13.82-35,15.62a43,43,0,0,1-20.17-2.42,25.23,25.23,0,0,1-14.86-13.94,3.12,3.12,0,0,1,5.43-3l.08.12c6,8.26,17.56,9.25,27.09,6.32a35.94,35.94,0,0,0,6.82-2.77,65.93,65.93,0,0,0,6.68-4.19c4.4-3.15,8.76-6.73,13.39-10.54a115.76,115.76,0,0,1,15.49-11.13,117.09,117.09,0,0,1,17.73-8.1c11.54-4.18,22-7.51,29.11-13,14.3-10.36,20.42-31.76,17-50.2-3.52-19.17-15.57-37.34-31-52.6a12.43,12.43,0,0,1,16.56-18.51Z"/><path class="cls-3" d="M352.5,2020.08a11.51,11.51,0,0,0,6.79,6,15.55,15.55,0,0,0,8.64.87c6-1,12.17-4.51,20-8.48a73.43,73.43,0,0,1,13.65-5.34,39.37,39.37,0,0,1,17.71-.88,38.35,38.35,0,0,1,16.52,7.82,77.68,77.68,0,0,1,10.62,10.66c5.76,6.92,10,12.61,14.83,15.68a34.09,34.09,0,0,0,17.87,5.71c12.78.78,26.95-7.5,34.23-21.74l0-.1a3.16,3.16,0,0,1,6,1.62c-.52,9.39-4.83,18.72-11.65,26a46.09,46.09,0,0,1-27.11,14,50.81,50.81,0,0,1-31.08-5.57,55.72,55.72,0,0,1-12.67-9.64c-3.46-3.47-6.37-6.85-9.06-9.84-5.36-6.14-9.8-9.82-13.53-10.66-3.76-1.15-10.44,0-18.09,2.56-7.8,2.36-17.68,6-28.93,4.41a27.69,27.69,0,0,1-15.08-7.45c-4-3.87-6.75-9.72-5.85-15.23a3.17,3.17,0,0,1,6-.82Z"/><path class="cls-3" d="M622.25,2161.07c-30,37.07-72.88,61.5-117.65,68.91a3.12,3.12,0,0,1-1.43-6.05c41.84-13.07,77.46-41.61,98.79-77.2a12.46,12.46,0,1,1,21.37,12.8,12.24,12.24,0,0,1-1,1.39Z"/><path class="cls-3" d="M226.59,2089.21c6.47-46.69,30.38-88.75,64.27-117.1a3.9,3.9,0,0,1,5.48,5.5c-27,32.43-40.53,74.06-38.75,113.29a15.6,15.6,0,1,1-31.17,1.42,15.89,15.89,0,0,1,.12-2.77Z"/><path class="cls-3" d="M287.66,2187.55a286.06,286.06,0,0,0,25.63,18.06,312.91,312.91,0,0,0,27.76,15.58,241,241,0,0,0,29.48,12,158.15,158.15,0,0,0,31.14,6.42h.12a3.11,3.11,0,0,1-.17,6.2,166.3,166.3,0,0,1-33.62-2.06,253.25,253.25,0,0,1-32.73-8.14,330.79,330.79,0,0,1-31.47-12.17,306.43,306.43,0,0,1-30.46-15.58A12.46,12.46,0,0,1,286,2186.39a13,13,0,0,1,1.41,1Z"/><path class="cls-9" d="M370.12,1746.48q115.45-40.85,96.18,85.07"/><path class="cls-3" d="M369.08,1743.55a108.56,108.56,0,0,1,42.68-17.13,70.3,70.3,0,0,1,25.22.33c8.7,1.85,17.8,6,24.67,12.78a52.13,52.13,0,0,1,8.73,11,63,63,0,0,1,5.32,12.25,80.2,80.2,0,0,1,3.38,24.45,114.7,114.7,0,0,1-9.71,44.74,3.21,3.21,0,0,1-6.13-.88v-.06c-1.79-14.77-2.62-29-5.09-42.09s-6.54-24.9-13.68-31.59c-3.45-3.53-7.94-5.86-13.24-7.64a69.69,69.69,0,0,0-18.06-2.73c-13.13-.57-27.24,1.24-42,2.38h-.06a3.2,3.2,0,0,1-2-5.86Z"/><path class="cls-3" d="M319,2476.13c7.23-6.85,14.35-13,21.77-19.17s14.95-12,22.78-17.62a255,255,0,0,1,24.29-15.64c8.46-4.67,17.24-9,26.74-11.57a3.11,3.11,0,0,1,2.13,5.83l-.08,0c-8.15,3.77-15.61,9.08-22.73,14.74a237.49,237.49,0,0,0-20.31,18.46c-6.5,6.48-12.72,13.27-18.73,20.23s-12,14.14-17.27,21.2l-.05.06a12.47,12.47,0,1,1-19.92-15A13.74,13.74,0,0,1,319,2476.13Z"/><g class="cls-7"><path class="cls-6" d="M370.55,1938.42a25.77,25.77,0,0,0,4.47,7.42,9.57,9.57,0,0,0,7.74,3.27c4.73-.53,7.71-5.58,8.3-10.31,1-8.26-2.76-16.29-6.61-23.67-2.14-4.1-4.42-8.3-8-11.19s-8.88-4.21-12.91-2C353.43,1907.66,367.5,1931.63,370.55,1938.42Z"/></g><g class="cls-7"><path class="cls-1" d="M391,2081.25c3.62,1.23,7.24,2.79,10,5.41s4.64,6.5,4,10.27c-.87,5-5.62,8.28-10.14,10.58-13.24,6.73-27.92,10-42.42,13.21-4.7,1-9.5,2.09-14.3,1.64-22.26-2.11-12.48-30.42-.33-39.27C351.43,2073.19,376.24,2076.22,391,2081.25Z"/></g><g class="cls-2"><path class="cls-3" d="M311,1735.89c4.15-.3,8.55.46,11.76,3.1s4.82,7.45,2.92,11.15c-2.24,4.35-8,5.46-12.88,5s-9.8-2-14.56-.84c-2.83.67-6.16,2.15-8.33.21C280.85,1746.36,306.8,1736.18,311,1735.89Z"/></g><g class="cls-2"><path class="cls-3" d="M358.33,1766.25c3.77,8.83-12.82,18.9-17.76,8C335.78,1763.64,354.9,1758.23,358.33,1766.25Z"/></g><g class="cls-2"><path class="cls-3" d="M307.54,1769a8.89,8.89,0,0,1,5.43-1.28,5.43,5.43,0,0,1,2.58,1.08,4.25,4.25,0,0,1,1.58,2.28c.59,2.29-.95,4.56-2.55,6.31C309.12,1783.27,299.16,1773.59,307.54,1769Z"/></g><g class="cls-2"><path class="cls-8" d="M485.81,2183.41c4.14-7.74,7.59-16.44,6.13-25.1-.46-2.78-1.61-5.7-4-7.13s-5.79-1-8.52.11a23.13,23.13,0,0,0-13.56,15.47c-1.83,7.18-2.47,24.68,2.76,30.56C476,2205.66,483.28,2188.94,485.81,2183.41Z"/></g><g class="cls-2"><path class="cls-8" d="M452.06,2222.74a21.38,21.38,0,0,1,4.41-5.93c1.9-1.59,4.57-2.49,6.9-1.65,2.88,1,4.32,4.37,4.42,7.43a14.17,14.17,0,0,1-4.76,10.94c-2.87,2.51-9.37,5.29-12.74,2C446.71,2232,450.11,2226.13,452.06,2222.74Z"/></g><g class="cls-2"><path class="cls-8" d="M430.17,2208.16a7.28,7.28,0,1,1,.88.84"/></g><g class="cls-2"><path class="cls-8" d="M355.37,2025.83c11.76-.62,20.4-10.79,27.83-19.93s17-18.85,28.72-18c13.91,1,22.26,15.89,34.74,22.12a30.49,30.49,0,0,0,33.11-4.45c6.08-5.44,11-13.89,19.11-14.29,6.6-.32,12.1,5.15,15.19,11a39.83,39.83,0,0,1-31.93,58.3c-28.56,2.36-51-33.94-79.65-33.23C387.47,2027.68,369,2032.19,355.37,2025.83Z"/></g><g class="cls-2"><path class="cls-3" d="M304.05,1831.73a31,31,0,0,0-22.11-24c-10.19-2.68-21,.09-31.51-.44-5.68-.29-11.45-1.54-17-.32-8.38,1.84-14.82,9.28-17,17.57s-.62,17.21,2.71,25.11c10.14-11,24.71-18.22,39.33-21.18S290.45,1825.6,304.05,1831.73Z"/></g><path class="cls-4" d="M710.58,1348.05s15.07,103.08,118.84,90.68c0,0,75.36,49.09,122.45,27,107.36,42,226.72-11.18,258.62-103.52,95.68-71.64-5.16-212.58-5.16-212.58,34-37.71-6.67-77.69-6.67-77.69C1226,1023.11,1164,948.28,1164,948.28c115-21.9,152.21-108.24,164.12-166.68,6.55-32,5.5-55.66,5.5-55.66-72.67,55.74-211.06,49.94-211.06,49.94-46.81-37.89-78.7,4.53-78.7,4.53s-146.53-20.82-133,104c0,0-37.58,42.46-17.48,92.91,13.65,34.26,53,92.08,56.7,154.56,0,0-13.38,58.49-100.22,25.75s-183.81-5-169.23,74C644.45,1277.82,662.81,1315.31,710.58,1348.05Z"/><g class="cls-5"><path class="cls-6" d="M685.39,1327.48c-3.57-17.68,1.65-36.64,18-57.44-14.58-79,82.39-106.73,169.23-74s100.23-25.75,100.23-25.75c-3.68-62.49-43.06-120.31-56.71-154.56-20.09-50.46,17.49-92.91,17.49-92.91-13.54-124.87,133-104,133-104s31.88-42.42,78.69-4.53c0,0,107.6,4.53,182.87-32.66,6.55-32,5.5-55.66,5.5-55.66-72.67,55.74-211.06,49.94-211.06,49.94-46.81-37.89-78.7,4.53-78.7,4.53s-146.53-20.82-133,104c0,0-37.58,42.46-17.48,92.91,13.65,34.26,53,92.08,56.7,154.56,0,0-13.38,58.49-100.22,25.75s-183.81-5-169.23,74C651.8,1268.46,657.62,1299.76,685.39,1327.48Z"/></g><path class="cls-3" d="M1029.08,1495.78a227.74,227.74,0,0,1-77-13.37c-47.05,16.71-108-16.51-126.4-27.69C740.77,1462,705,1397.9,696.43,1357.07c-29.61-21.46-45.83-43.76-49.56-68-3.08-20.13,2.8-40.79,17.5-61.49-3.37-28.93,6.33-54.38,27.7-72.25,36.35-30.4,102-35.28,163.32-12.17,27.13,10.23,49.06,11.72,63.4,4.29a33.12,33.12,0,0,0,15.65-17.37c-3.21-41.63-23.38-81.5-39.65-113.67-6.38-12.62-11.89-23.52-15.79-33.28-19.07-47.89,5.33-88.85,15.9-103.38-2.52-35.34,6.77-63.46,27.63-83.64,35.5-34.34,93.6-33.55,115.22-31.9,7.24-7,20.47-16.85,38.78-19.11,17.37-2.14,34.64,3,51.51,15.4,24.48.3,136.18-.85,196.17-46.86a15.52,15.52,0,0,1,25,11.62c.08,1.93,6.33,185.5-159,232.79,16.77,25.75,40.63,72.1,26.7,111.2,14.32,18.58,27.28,50.38,7.56,80.94,36,55.6,74.57,160.79-.89,221.56-16.72,44.15-53,81.69-100.18,103.49A225.17,225.17,0,0,1,1029.08,1495.78Zm-77.21-45.56a15.57,15.57,0,0,1,5.66,1.06,196,196,0,0,0,152.84-4.26c41.13-19,72.27-51.74,85.44-89.86a15.52,15.52,0,0,1,5.37-7.37c82.33-61.64-7.57-189.84-8.49-191.12a15.56,15.56,0,0,1,1.1-19.42c23.11-25.63-3-53.22-6.07-56.28a15.62,15.62,0,0,1-2.61-18.61c18.12-32.31-17.71-87.6-33-106.18a15.53,15.53,0,0,1,9.06-25.15c68.28-13,115.4-51.45,140-114.3a254.37,254.37,0,0,0,15.52-63.79c-78.1,40.78-189.51,36.66-194.75,36.45a15.51,15.51,0,0,1-9.12-3.44c-11.33-9.17-22.18-13.26-32.23-12.09-14.61,1.68-24.27,13.86-24.37,14a15.75,15.75,0,0,1-14.51,5.93c-.64-.08-65.35-8.67-97.67,22.69-14.81,14.37-20.77,36-17.7,64.31a15.5,15.5,0,0,1-3.81,12c-1.23,1.41-30.88,36.21-14.69,76.88,3.38,8.47,8.6,18.8,14.65,30.75,17,33.58,40.25,79.57,43.13,128.64a15.37,15.37,0,0,1-.36,4.38c-.6,2.6-6.55,25.85-31.33,39.16-22.81,12.24-52.91,11.44-89.51-2.35-50.39-19-104.85-16.14-132.44,6.93-14.5,12.12-19.89,28.85-16,49.71a15.49,15.49,0,0,1-3.06,12.41c-12.35,15.73-17.36,29.83-15.33,43.09,2.54,16.51,16.6,33.64,41.79,50.9a15.47,15.47,0,0,1,6.58,10.52c1.39,9,16,87.84,101.65,77.56a15.6,15.6,0,0,1,10.32,2.4c19,12.32,75.28,41,107.38,26A15.62,15.62,0,0,1,951.87,1450.22Z"/><path class="cls-3" d="M965.63,1131a155.09,155.09,0,0,1-10.2,50.88,148.16,148.16,0,0,1-26.08,43,5.55,5.55,0,0,1-9.07-6.3l0,0a132,132,0,0,0,14.87-42.36,129.28,129.28,0,0,0-.53-43.32,15.62,15.62,0,1,1,31-2.26Z"/><path class="cls-3" d="M1167.9,963.32c-5.46.89-9.9,1.28-14.75,1.7s-9.46.67-14.16.84c-9.39.37-18.73.38-28,.13s-18.55-.79-27.75-1.68-18.35-2-27.43-3.26a5.55,5.55,0,0,1,.53-11h.1c9-.39,17.91-.89,26.79-1.76s17.72-2,26.48-3.28,17.43-3,26-5c4.27-1,8.5-2,12.67-3.15s8.51-2.4,11.84-3.63A15.6,15.6,0,1,1,1171,962.52a15.18,15.18,0,0,1-2.81.75Z"/><path class="cls-3" d="M1122,1145.44c-5,3.07-6.78,8.06-7.2,13a20.9,20.9,0,0,0,.57,7.13,72.63,72.63,0,0,0,2.28,7.91c1.9,5.62,4.3,11.93,5.76,19.69a45.06,45.06,0,0,1,.4,13,34.1,34.1,0,0,1-5,13.92,36.27,36.27,0,0,1-4.46,5.77,30.67,30.67,0,0,1-5.92,5,34.05,34.05,0,0,1-13.94,5.12,41.79,41.79,0,0,1-25.79-4.93,51.18,51.18,0,0,1-17.05-16.12,82.76,82.76,0,0,1-9.3-18.7,4.65,4.65,0,0,1,2.85-5.9,4.74,4.74,0,0,1,4.41.75c5.31,4.22,9.93,8.7,14.72,12.22s9.45,6.46,13.71,7.75a24.44,24.44,0,0,0,12.39.75,11.75,11.75,0,0,0,4.23-1.81,10.49,10.49,0,0,0,1.49-1.33,12.3,12.3,0,0,0,1.54-2c1.7-2.36,2.43-5.48,2.24-10.75s-1.44-11.49-2-18.69a56.66,56.66,0,0,1,0-11.51,31.59,31.59,0,0,1,3.58-12.1,27.84,27.84,0,0,1,8.16-9.4,21.81,21.81,0,0,1,5.63-2.76,16.49,16.49,0,0,1,6-.53,2.3,2.3,0,0,1,1,4.24Z"/><path class="cls-3" d="M827.7,1450.06a167.85,167.85,0,0,1-1.7-93.72,5.56,5.56,0,0,1,10.91,1.72v0a146.63,146.63,0,0,0,19.37,79.79,15.65,15.65,0,1,1-27,15.76,16,16,0,0,1-1.41-3.18Z"/><path class="cls-3" d="M909.48,1314.63a13.88,13.88,0,0,1,8.83,2.06,25.16,25.16,0,0,1,6.1,5.54,88.89,88.89,0,0,1,6.94,11.22A67.36,67.36,0,0,0,943.83,1349a61.94,61.94,0,0,0,15.77,10.62c5.46,2.43,11.25,3.71,15.7,3.18a14.89,14.89,0,0,0,5.93-2,21.61,21.61,0,0,0,5.62-5.12c3.77-4.59,6.72-11,10.24-18.37s7.88-15.53,15.32-21.88a32.74,32.74,0,0,1,12.48-6.63,21.56,21.56,0,0,1,13.85.59,2.27,2.27,0,0,1-.64,4.35l-.19,0c-7.11.72-12.34,5.34-15.85,10.75s-5.15,12-7.09,19.45-4.12,16.12-9.35,24.59a42.31,42.31,0,0,1-10.69,11.85,37,37,0,0,1-15.88,6.72c-11.25,1.8-21.49-.85-30.21-5.14A66.91,66.91,0,0,1,927,1364.33a63.93,63.93,0,0,1-12.34-24.47c-1-4.15-1.47-7.6-2.4-10.49a17.43,17.43,0,0,0-1.35-3.58,4.82,4.82,0,0,0-2-2.28l-1.14-.69a4.44,4.44,0,0,1,1.66-8.19Z"/><g class="cls-2"><path class="cls-3" d="M829.42,1438.73s75.36,49.09,122.45,27c107.36,42,226.72-11.18,258.62-103.52,95.68-71.64-5.16-212.58-5.16-212.58,34-37.71-6.67-77.69-6.67-77.69C1226,1023.11,1164,948.28,1164,948.28c115-21.9,152.21-108.24,164.12-166.68,0,0-95.38,127.22-260.89,125.93-20.11-.16-35.73,18.11-31.64,37.81,3.64,17.5,14,42.32,37.65,77.08,64.92,95.52,34.28,152.34,34.28,152.34s24.63,45.46-29.86,48.06c0,0-72,16.54-49.29,89.67,0,0-34.69,31.27-43,59.83s-55-21.93-55-21.93-72.21-24.86-94.44,24.26c0,0-52.58,19.84-125.37-26.6C710.58,1348.05,725.65,1451.13,829.42,1438.73Z"/></g><g class="cls-2"><path class="cls-3" d="M1062.79,1101.17c-1.14,4-3.36,7.88-6.94,10s-8.65,2-11.47-1.07c-3.33-3.59-2.4-9.39-.29-13.8s5.22-8.54,5.77-13.41c.34-2.88.09-6.52,2.65-7.89C1063.27,1069.23,1064,1097.11,1062.79,1101.17Z"/></g><g class="cls-2"><path class="cls-3" d="M756.45,1332.09c5.86,6.53,12.87,12.75,21.5,14.34,2.77.52,5.9.44,8.08-1.35s2.91-5.11,2.81-8a23.09,23.09,0,0,0-9.9-18c-6.11-4.18-22.34-10.76-29.66-7.86C738.91,1315.24,752.13,1327.81,756.45,1332.09Z"/></g><g class="cls-2"><path class="cls-3" d="M819.62,1312a21.13,21.13,0,0,1,4.07,6.17c.85,2.32.78,5.14-.81,7-2,2.35-5.59,2.57-8.5,1.61a14.13,14.13,0,0,1-8.64-8.21c-1.38-3.55-1.77-10.61,2.48-12.65C812.74,1303.8,817.11,1309,819.62,1312Z"/></g><g class="cls-2"><path class="cls-3" d="M1026.63,1048.21a7.22,7.22,0,1,1-1.09.53"/></g><g class="cls-7"><path class="cls-6" d="M928.1,1289.2c1.38,4.35,3.29,8.69,6.58,11.86s8.25,4.93,12.57,3.44c6.21-2.15,8.55-9.48,10.59-15.73A119,119,0,0,1,987.47,1241c2.59-2.55,5.54-6.21,3.74-9.37-1.47-2.58-5.08-2.74-8-2.47-15,1.36-40.11,4.94-51.72,15.62C920.86,1254.56,924.17,1276.85,928.1,1289.2Z"/></g><g class="cls-7"><path class="cls-6" d="M984.6,918.66a9.56,9.56,0,0,1-9-7.56c-3-14.66,3.24-31,14.3-41.61s26-16.22,41.35-18.75a9.62,9.62,0,0,1,10.77,6.86c.26.9.53,1.81.79,2.72a9.59,9.59,0,0,1-5.93,11.71c-9.91,3.54-20,7.89-27.79,14.33-7.43,6.13-13.17,15-14.43,24.4a9.43,9.43,0,0,1-9.92,7.91Z"/></g><g class="cls-7"><path class="cls-6" d="M983.87,968.71c17-6.56,1.8-32.93-13.62-29.49C953.31,943,969.17,974.39,983.87,968.71Z"/></g><path class="cls-4" d="M319,2245.5c-64.36,17.09-78.43,96.77-8.13,166.47,21.79,21.6,50.21,36,80.86,37.17,43.56,1.69,62.73-23.81,69.4-63.27,7.48-44.31,25.63-86.35,55.9-119.57,37.78-41.45,87.27-73,144-98.31,54.53-5.49,95.76-32.11,130-69.84,8.93-9.84,21.24-16.34,34.51-17.08,37.56-2.12,61-25.27,73.23-65.21a76.53,76.53,0,0,1,19.35-31.74c42.75-42.7,58-88.31,42.86-137.16a75.87,75.87,0,0,1,4.16-55c17.51-36.71,13.66-69.43-12.75-97.91-6.25-6.73-10.3-15.1-13.32-23.77-6-17.09-19.34-28.82-29.68-35.7a61.72,61.72,0,0,1-20.53-22.22c-67-126.54-269.38-111.28-320.71-32.65-22.93,35.12-20.45,74.82-20.45,74.82-44.12,39.63-76.29,81-59.07,129.8,10.66,37.59,3.11,71.38-29.63,99.94-11.26,9.82-20.92,21.45-26.91,35.15-8.24,18.84-14.62,45.76-2.88,73.13,17.55,40.87-11.57,139.58-51.73,208.26A96.81,96.81,0,0,1,319,2245.5Z"/><g class="cls-2"><path class="cls-3" d="M391.75,2449.12c43.57,1.74,62.76-23.76,69.37-63.24,7.48-44.29,25.64-86.34,56-119.59,37.78-41.45,87.25-72.92,144-98.32,54.55-5.44,95.76-32.09,130-69.83,8.93-9.85,21.27-16.32,34.52-17,37.57-2.14,61.06-25.3,73.27-65.25a76.26,76.26,0,0,1,19.35-31.71c42.72-42.7,58-88.3,42.84-137.18a76.08,76.08,0,0,1,4.13-55c17.54-36.66,13.68-69.43-12.71-97.9-6.24-6.74-10.32-15.1-13.34-23.74-5.92-17.11-19.31-28.8-29.64-35.7a61.49,61.49,0,0,1-20.58-22.24c-46.27-87.41-157.11-107.19-238.16-85.18A160.7,160.7,0,0,1,691,1564.5,61.23,61.23,0,0,0,714.9,1583c11.37,5.12,26.48,14.44,35.23,30.3,4.4,8.06,9.75,15.65,17.06,21.29,30.74,23.67,40,55.33,28.77,94.44a76,76,0,0,0,5,54.92c23,45.65,15.5,93.18-19.61,142.34a77.46,77.46,0,0,0-13.82,34.51c-5.42,41.43-24.7,68.11-61.43,76.41-12.94,3-24,11.41-31.18,22.6-27.51,42.88-63.78,75.92-116.69,90.35-51.71,34.4-95.34,73.66-125.69,120.82-24.4,37.73-35.35,82.2-35.39,127.17,0,20.25-3.77,37.56-13.09,50.37C386.6,2448.81,389.14,2449,391.75,2449.12Z"/></g><g class="cls-5"><path class="cls-6" d="M359.35,2442.86a140.35,140.35,0,0,1-14.24-12.4c-70.3-69.73-56.25-149.4,8.09-166.47a96.77,96.77,0,0,0,58.48-44.68c40.19-68.72,69.3-167.41,51.78-208.28-11.76-27.37-5.39-54.3,2.83-73.11,6-13.7,15.65-25.34,26.95-35.19,32.75-28.52,40.28-62.32,29.64-99.92-17.21-48.74,14.92-90.15,59.06-129.82,0,0-2.51-39.7,20.46-74.8,36.33-55.71,148.54-79.63,234.7-43.81-87.61-60.34-227.43-38.14-268.92,25.34-22.91,35.1-20.45,74.79-20.45,74.79-44.14,39.68-76.27,81.08-59.07,129.83,10.64,37.59,3.11,71.39-29.64,99.92-11.23,9.85-20.89,21.48-26.88,35.19-8.28,18.81-14.65,45.74-2.9,73.11,17.52,40.87-11.59,139.55-51.71,208.28A96.88,96.88,0,0,1,319,2245.51c-64.4,17.08-78.45,96.75-8.14,166.48A130.64,130.64,0,0,0,359.35,2442.86Z"/></g><g class="cls-7"><path class="cls-6" d="M604.49,1711.38c6.64,13,24.41,16,33.25,27.58,3.72,4.88,5.56,10.89,7.65,16.66s4.68,11.65,9.41,15.57,12.14,5.22,17,1.4c3.91-3.1,5-8.51,5.44-13.48a76.43,76.43,0,0,0-13.08-48.71c-8.56-12.48-23.93-26.53-39.5-29.08S597.36,1697.46,604.49,1711.38Z"/></g><path class="cls-3" d="M395.59,2464.74q-2.25,0-4.44-.09c-33-1.28-65.38-16.08-91.19-41.65-41.19-40.84-59.21-89.87-48.2-131.14C259.9,2261.38,283,2239,315,2230.5h0A81.56,81.56,0,0,0,364.1,2193c40.53-69.3,64.78-161.91,50.88-194.3-11.18-26-10.16-55.58,2.92-85.48,6.4-14.64,16.81-28.3,30.93-40.62,26.53-23.14,34.48-49.71,25-83.57-19.94-57.33,17.21-103.48,58.32-141.31.39-14.53,3.64-46.79,23-76.47,28.57-43.76,97.42-70.91,171.32-67.51,79.75,3.65,143.94,40.6,176.11,101.39A46.43,46.43,0,0,0,918,1621.66c12.23,8.16,28.35,22.32,35.74,43.52,2.85,8.2,6,14,10,18.32,30.37,32.75,35.69,72.57,15.38,115.15a60,60,0,0,0-3.34,43.71c16.67,53.74.95,105.13-46.72,152.74a61.55,61.55,0,0,0-15.48,25.3c-18.31,59.92-57.53,74.49-87.19,76.17-8.7.49-17.41,4.87-23.9,12-40.18,44.27-85.15,68.69-137.4,74.58-58.66,26.48-103.37,57.11-136.62,93.59-26.68,29.27-44.68,67.89-52.07,111.69C465.92,2450.83,427.61,2464.74,395.59,2464.74ZM323,2260.51c-21.32,5.66-36,19.64-41.24,39.36-8.1,30.38,6.87,68.17,40.07,101.07,20.27,20.09,45.31,31.7,70.53,32.68,31.45,1.28,47.31-13.83,53.48-50.34,8.38-49.68,29-93.75,59.74-127.44,36.6-40.16,85.38-73.53,149.13-102a15.31,15.31,0,0,1,4.78-1.27c46-4.64,84.13-25.24,120.07-64.84,12.1-13.32,28.13-21.19,45.14-22.14,29.62-1.67,48.45-18.91,59.25-54.25a92.61,92.61,0,0,1,23.22-38.19c39.42-39.36,52.18-79.13,39-121.57a91,91,0,0,1,5-66.27c15-31.43,11.78-57.07-10.11-80.67-6.91-7.45-12.34-17-16.6-29.23-4.55-13.06-15.36-22.38-23.63-27.89a77.5,77.5,0,0,1-25.64-27.86c-26.9-50.82-81.61-81.77-150.09-84.9-62.29-2.83-121.48,19.13-143.9,53.47-19.89,30.45-18,65-18,65.37a15.5,15.5,0,0,1-5.12,12.51c-51.08,45.88-67,78.64-54.8,113.08.11.31.21.62.3.94,12.95,45.7,1.4,84.68-34.36,115.87-10.64,9.28-18.35,19.26-22.9,29.67-6.66,15.22-12.55,38.13-2.83,60.78,20.5,47.75-10.65,150.49-52.6,222.23A112.91,112.91,0,0,1,323,2260.51Z"/><path class="cls-3" d="M561.84,1649.83c-.64,1.85-.06,6.24,1.58,9.64a19.6,19.6,0,0,0,2.82,4.5,9.58,9.58,0,0,0,3.81,2.84,44.27,44.27,0,0,0,14.65,3.8c5.61.64,11.73.69,18.28.89a113,113,0,0,1,20.48,2.08,58.07,58.07,0,0,1,43.75,41,3.12,3.12,0,0,1-5.85,2.08l0,0a48,48,0,0,0-24.16-23.81c-10.32-4.75-21-4.26-33.27-2.5-12.07,1.54-26.15,4.55-42.25.22a36.71,36.71,0,0,1-12.7-6.25,45.41,45.41,0,0,1-9.39-9.91c-5-7.31-8.59-15.44-8.73-26.27l0-3.31a16,16,0,1,1,31.93-.43A16.39,16.39,0,0,1,561.84,1649.83Z"/><path class="cls-3" d="M967.86,1819.92a133.91,133.91,0,0,1,4.36,38.57,99.54,99.54,0,0,1-9.59,39.35,81.33,81.33,0,0,1-27.43,31.66c-11.71,7.93-26.27,12.78-41.17,12-14.83-1-26.75-6.5-37.29-10.38a97,97,0,0,0-15.21-4.75,128.21,128.21,0,0,0-16.26-1.89c-11.55-.89-24.94-1-37.55-7.83a43,43,0,0,1-14.94-13.76,25.29,25.29,0,0,1-3.91-20,3.12,3.12,0,0,1,6.15.76v.15c0,10.2,8.82,17.77,18.27,21a35.68,35.68,0,0,0,7.15,1.75,67.13,67.13,0,0,0,7.87.51c5.41,0,11-.33,17-.71a99.16,99.16,0,0,1,38.18,3.83c11.82,3.36,22.26,6.79,31.22,6.5,17.66,0,35.14-13.82,43.17-30.76,8.36-17.6,9.22-39.39,5.66-60.77a12.44,12.44,0,0,1,24.26-5.33Z"/><path class="cls-3" d="M591.54,1890.61a11.5,11.5,0,0,0,2,8.83,15.65,15.65,0,0,0,6.5,5.77c5.41,2.72,12.51,3.46,21.17,4.81a73.06,73.06,0,0,1,14.2,3.65,39.63,39.63,0,0,1,14.87,9.64,38.51,38.51,0,0,1,8.83,16,79.06,79.06,0,0,1,2.38,14.86c.62,9,.77,16.1,2.85,21.39a34.12,34.12,0,0,0,11.15,15.09c9.91,8.1,26.25,9.68,40.48,2.39l.1,0a3.16,3.16,0,0,1,3.9,4.8c-5.92,7.31-14.87,12.36-24.67,14.28a46.09,46.09,0,0,1-30.19-4.49,50.85,50.85,0,0,1-22-22.69,56.52,56.52,0,0,1-4.64-15.23c-.77-4.85-1.16-9.29-1.58-13.28-.76-8.12-2.2-13.7-4.74-16.57-2.38-3.13-8.47-6.11-16.18-8.5-7.7-2.65-17.88-5.44-26-13.35a27.78,27.78,0,0,1-7.86-14.86c-.94-5.45.21-11.83,4.16-15.78a3.18,3.18,0,0,1,5.36,2.85Z"/><path class="cls-3" d="M727.85,2162.75c-46.05,12.5-95.08,7.26-135.72-12.92a3.11,3.11,0,0,1,2.37-5.74c41.58,13.86,87.17,11.56,125.29-4.83a12.45,12.45,0,1,1,9.84,22.88,12,12,0,0,1-1.59.56Z"/><path class="cls-3" d="M449,1873c32.56-34.09,76.56-54.21,120.63-57.38a3.9,3.9,0,0,1,1.23,7.67c-40.9,10.5-76.2,36.36-97.7,69.22A15.6,15.6,0,1,1,447,1875.45a15.13,15.13,0,0,1,1.71-2.17Z"/><path class="cls-3" d="M441,1988.52a284.66,284.66,0,0,0,10.22,29.64,313.15,313.15,0,0,0,13.4,28.87,239.73,239.73,0,0,0,16.91,27,157.33,157.33,0,0,0,21.5,23.42l.09.08a3.11,3.11,0,0,1-3.76,4.93,165.76,165.76,0,0,1-26.06-21.34,252.57,252.57,0,0,1-21.8-25.74,332.52,332.52,0,0,1-18.4-28.29,305,305,0,0,1-15.59-30.45,12.46,12.46,0,1,1,22.83-10,11.1,11.1,0,0,1,.58,1.61Z"/><path class="cls-9" d="M765.88,1679q117.52,34.42,28.24,125.27"/><path class="cls-3" d="M766.75,1676a108.53,108.53,0,0,1,44.63,11.07,70.16,70.16,0,0,1,20.26,15c6,6.59,10.93,15.28,12.54,24.8a51.73,51.73,0,0,1,.61,14.07,62.89,62.89,0,0,1-2.84,13,80.43,80.43,0,0,1-11.57,21.81,114.55,114.55,0,0,1-34,30.6,3.21,3.21,0,0,1-4.45-4.3l0-.05c7.19-13,14.83-25,20.5-37.12s9.26-24,7.38-33.62c-.74-4.89-3-9.4-6.26-13.94a69.67,69.67,0,0,0-13.06-12.78c-10.31-8.14-22.82-14.93-35.46-22.65l0,0a3.2,3.2,0,0,1,1.8-5.93Z"/><path class="cls-3" d="M297.57,2240.89c9.87-1.33,19.25-2.15,28.88-2.82s19.16-1,28.78-1a253.6,253.6,0,0,1,28.85,1.52c9.59,1.16,19.22,2.81,28.45,6.26a3.11,3.11,0,0,1-1.68,6h-.08c-8.82-1.72-18-1.77-27.06-1.35a237.3,237.3,0,0,0-27.27,3.09c-9.06,1.46-18.08,3.33-27,5.45s-18,4.48-26.42,7.09l-.07,0a12.46,12.46,0,1,1-7.38-23.81A13.32,13.32,0,0,1,297.57,2240.89Z"/><g class="cls-7"><path class="cls-6" d="M654,1834.94a26,26,0,0,0-.72,8.64,9.59,9.59,0,0,0,4.37,7.18c4.15,2.33,9.51,0,12.76-3.51,5.68-6.09,7.29-14.83,8.48-23.07.67-4.58,1.27-9.31,0-13.77s-4.74-8.61-9.34-9.13C658.05,1800,655.45,1827.65,654,1834.94Z"/></g><g class="cls-7"><path class="cls-6" d="M587,1962.76c2.22,3.12,4.24,6.49,5,10.25s-.05,8-2.79,10.65c-3.62,3.55-9.4,3.44-14.41,2.66-14.67-2.28-28.49-8.22-42.13-14.1-4.43-1.91-8.93-3.87-12.56-7-16.82-14.73,7.67-32,22.7-32C559.61,1933.06,578,1950,587,1962.76Z"/></g><g class="cls-2"><path class="cls-3" d="M724.14,1635.85c3.53,2.19,6.66,5.38,7.72,9.4s-.45,8.86-4.15,10.74c-4.36,2.23-9.69-.25-13.36-3.48s-6.8-7.34-11.33-9.2c-2.68-1.1-6.25-1.85-6.87-4.7C693.54,1626.69,720.54,1633.62,724.14,1635.85Z"/></g><g class="cls-2"><path class="cls-3" d="M744.75,1688.16c-2.11,9.36-21.45,7.83-19.07-3.93C728,1672.84,746.66,1679.65,744.75,1688.16Z"/></g><g class="cls-2"><path class="cls-3" d="M702,1660.63a8.91,8.91,0,0,1,5.15,2.14,5.56,5.56,0,0,1,1.47,2.39,4.24,4.24,0,0,1-.07,2.77c-.86,2.21-3.43,3.14-5.75,3.62C694.88,1673.18,692.47,1659.49,702,1660.63Z"/></g><g class="cls-2"><path class="cls-8" d="M604.12,2101.07c7.88-3.86,15.77-8.9,19.66-16.77,1.25-2.53,2-5.56.89-8.15s-4.12-4.19-7-4.89a23.1,23.1,0,0,0-20.05,4.61c-5.69,4.75-16.44,18.57-15.64,26.4C583.14,2113.37,598.83,2104.07,604.12,2101.07Z"/></g><g class="cls-2"><path class="cls-8" d="M553.74,2113.23a21.25,21.25,0,0,1,7-2.23,7.22,7.22,0,0,1,6.56,2.69c1.72,2.53.95,6.08-.76,8.62a14.16,14.16,0,0,1-10.26,6.08c-3.8.35-10.69-1.19-11.5-5.84C544,2117.62,550.18,2114.83,553.74,2113.23Z"/></g><g class="cls-2"><path class="cls-8" d="M544.52,2088.59a7.26,7.26,0,1,1,.22,1.2"/></g><g class="cls-2"><path class="cls-3" d="M590.51,1897c9.9,6.37,22.86,3.18,34.22.12s24.8-5.37,33.85,2.16c10.72,8.92,8.76,25.92,15.24,38.26a30.5,30.5,0,0,0,29.46,15.76c8.11-.85,17-4.85,23.85-.41,5.54,3.6,6.81,11.26,5.89,17.8a39.82,39.82,0,0,1-60,28.61c-24.54-14.79-21.51-57.37-45.16-73.54C615.46,1917.23,597.83,1910.08,590.51,1897Z"/></g><g class="cls-2"><path class="cls-3" d="M662.42,1709.52a31,31,0,0,0-3.92-32.37c-6.7-8.14-17.07-12.2-25.3-18.79-4.44-3.56-8.39-7.94-13.61-10.2-7.87-3.41-17.45-1.15-24.07,4.29s-10.58,13.6-12.49,22c14.62-3,30.69-.33,44.29,5.82S655,1696.59,662.42,1709.52Z"/></g><path class="cls-4" d="M1557.82,336.35s45.92,93.51-46.64,142c0,0-34.34,83.13-85.66,91.58-64.73,95.4-193.24,119.1-271.79,61-119.43-4.91-116.08-178.17-116.08-178.17C988.27,441,999.18,385,999.18,385,949,360.22,957.72,263.44,957.72,263.44,850.5,310.49,771,260.37,728.07,218.93c-23.52-22.7-36-42.78-36-42.78C783.5,181,894.3,97.86,894.3,97.86c17.15-57.73,67.44-40.81,67.44-40.81s109-100.1,168.53,10.5c0,0,55,13.73,67,66.7,8.14,36,8.4,105.92,40.74,159.51,0,0,44.13,40.64,97.19-35.5s148.72-108.14,181.4-34.78C1572.59,241,1578.68,282.32,1557.82,336.35Z"/><g class="cls-5"><path class="cls-6" d="M1567,305.13c-7.06-16.59-22.1-29.27-47.34-37.17-32.67-73.35-128.33-41.36-181.39,34.78s-97.2,35.51-97.2,35.51c-32.34-53.6-32.6-123.55-40.74-159.52-12-53-67-66.69-67-66.69-59.51-110.61-168.52-10.5-168.52-10.5s-50.3-16.92-67.44,40.81c0,0-86.15,64.63-169.25,76.58-23.52-22.7-36-42.78-36-42.78C783.5,181,894.3,97.86,894.3,97.86c17.15-57.73,67.44-40.81,67.44-40.81s109-100.1,168.53,10.5c0,0,55,13.73,67,66.7,8.14,36,8.4,105.92,40.74,159.51,0,0,44.13,40.64,97.19-35.5s148.72-108.14,181.4-34.78C1561.23,237.46,1574.16,266.56,1567,305.13Z"/></g><path class="cls-3" d="M1254,677.86c-38.81,0-75.89-10.94-105.68-31.64-96.62-7.38-124.33-115.94-126.15-182.14-33.55-14-40.86-47.59-39.58-71C949,368.72,942.43,317,941.68,286.28a215.43,215.43,0,0,1-68.79,11.65c-121.64,0-193.17-112.18-194-113.58a15.55,15.55,0,0,1-.18-16.1,15.32,15.32,0,0,1,14.19-7.61c75.3,4,168.26-58.29,188.24-72.4,6.91-19.74,18.25-33.8,33.75-41.85,16.37-8.5,32.86-7.84,42.79-6.2,16.88-13.6,64.36-47.13,113-38.91,28.63,4.83,52.2,22.76,70.13,53.32,16.94,6,60.23,25.94,71.61,76.22,2.32,10.25,3.95,22.35,5.83,36.36,4.79,35.75,10.73,80,31.66,116.19a33.24,33.24,0,0,0,22.72,5.44c16-2,33.26-15.63,49.85-39.43C1360,195.61,1416.81,162.5,1464,167c27.72,2.64,50.13,18.14,63.73,43.89,23.84,8.75,40.38,22.45,49.23,40.79,10.66,22.11,9.9,49.68-2.35,84.12,16,38.51,22.86,111.6-51.31,153.68-8.88,19.65-40.25,81.5-88.53,94.37-34.62,48.07-87.22,81.11-145.28,91A211.57,211.57,0,0,1,1254,677.86ZM957.72,247.92a15.51,15.51,0,0,1,15.46,16.93c-2.12,24-.36,89.83,32.87,106.22a15.52,15.52,0,0,1,8.36,16.89c-.77,4.18-6.68,41.71,26.87,49.76a15.51,15.51,0,0,1,11.89,15.4c0,1.56-1.58,158.13,101.19,162.36a15.52,15.52,0,0,1,8.6,3c32.43,24,76.66,33.35,121.3,25.73,51.82-8.84,98.62-39.1,128.41-83a15.48,15.48,0,0,1,10.32-6.6c35.11-5.78,65.2-61.29,73.84-82.19a15.55,15.55,0,0,1,7.14-7.82c76.44-40.06,43.86-113.26,39.89-121.47a15.66,15.66,0,0,1-.52-12.39c11-28.5,12.9-50.57,5.64-65.62-5.83-12.09-17.94-20.87-37-26.85a15.55,15.55,0,0,1-9.54-8.5c-8.63-19.38-22.55-30.12-41.36-31.9-35.94-3.4-82.32,25.07-113.1,69.25-22.37,32.09-46.75,49.78-72.47,52.6-28,3.05-46-12.75-48-14.55a15.91,15.91,0,0,1-2.78-3.4c-25.39-42.09-32.25-93.17-37.25-130.48-1.78-13.27-3.32-24.74-5.33-33.64-9.67-42.69-53.81-54.58-55.68-55.07a15.66,15.66,0,0,1-9.85-7.69c-13.51-25.1-30.7-39.57-51.09-43-37.06-6.23-79.87,24.29-93.26,36.59a15.5,15.5,0,0,1-15.46,3.28s-14.88-4.58-27.87,2.31c-8.94,4.74-15.58,14.23-19.73,28.2a15.5,15.5,0,0,1-5.57,8c-4.21,3.16-93.87,69.7-181.4,80.21C755.5,229.42,835.91,300,951.48,249.23A15.5,15.5,0,0,1,957.72,247.92Z"/><path class="cls-3" d="M1307.75,358.63a148.21,148.21,0,0,1-45.84-20.69,155.21,155.21,0,0,1-37.21-36.17l-.18-.25a15.63,15.63,0,1,1,25.13-18.59,17.29,17.29,0,0,1,1.66,2.83,128.85,128.85,0,0,0,24.08,36,131.85,131.85,0,0,0,36.23,26.51l.05,0a5.55,5.55,0,0,1-3.92,10.32Z"/><path class="cls-3" d="M952.4,248.86c3.44-.87,7.84-2.33,11.82-3.71s8.16-3,12.22-4.58c8.14-3.24,16.22-6.8,24.23-10.61s15.91-7.9,23.68-12.29,15.46-8.95,23.08-13.71l.08-.05a5.54,5.54,0,0,1,6.69,8.78c-6.77,6.21-13.64,12.35-20.78,18.22S1019,242.46,1011.5,248s-15.23,10.74-23.18,15.76q-6,3.78-12.15,7.32c-4.24,2.4-8.11,4.59-13.12,6.95l-.19.08a15.61,15.61,0,0,1-13.29-28.24A16.79,16.79,0,0,1,952.4,248.86Z"/><path class="cls-3" d="M1102.09,398.15a16.53,16.53,0,0,1,5.27-3,22,22,0,0,1,6.21-.92,28,28,0,0,1,12,3.14,31.38,31.38,0,0,1,9.8,7.95,57.22,57.22,0,0,1,6.51,9.49c3.58,6.28,6.1,12.17,8.9,16.57s5.18,6.61,7.92,7.59a12.12,12.12,0,0,0,2.38.74,10.78,10.78,0,0,0,2,.26,11.9,11.9,0,0,0,4.51-.9,24.52,24.52,0,0,0,9.79-7.64c2.78-3.48,5.09-8.59,6.92-14.15s3.22-11.92,5.21-18.4a4.63,4.63,0,0,1,5.79-3.07,4.68,4.68,0,0,1,3.11,3.21,83.32,83.32,0,0,1,2.92,20.68,51.13,51.13,0,0,1-4.94,22.93A41.81,41.81,0,0,1,1178,461.3a34,34,0,0,1-14.39,3.67,30.22,30.22,0,0,1-7.72-.77,36.5,36.5,0,0,1-6.93-2.23,34,34,0,0,1-12-8.66,45.08,45.08,0,0,1-7.06-11c-3.19-7.22-4.78-13.79-6.39-19.49a72.1,72.1,0,0,0-2.6-7.81,20.68,20.68,0,0,0-3.57-6.21c-3.15-3.86-7.45-7-13.31-6.66h-.29a2.29,2.29,0,0,1-1.63-4Z"/><path class="cls-3" d="M1489.08,492.78A147.14,147.14,0,0,0,1459.51,416l0,0a5.37,5.37,0,0,1,7.75-7.34,167.5,167.5,0,0,1,51.26,78.2l.09.31A15.11,15.11,0,1,1,1489.7,496,16.29,16.29,0,0,1,1489.08,492.78Z"/><path class="cls-3" d="M1380.39,428.4a4.83,4.83,0,0,0-.32,3,16.5,16.5,0,0,0,.91,3.71c.87,2.92,2.41,6,4,10a64,64,0,0,1,3.67,27.16,66.73,66.73,0,0,1-8,26.93c-4.76,8.47-11.7,16.44-22,21.33a37,37,0,0,1-16.89,3.45,42.25,42.25,0,0,1-15.52-3.72c-9.11-4-15.87-10-21.63-15s-11-9.61-16.85-12c-6-2.47-12.88-3.32-19.16.11l-.16.09a2.27,2.27,0,0,1-3-3.23,21.58,21.58,0,0,1,11.08-8.32,32.84,32.84,0,0,1,14-1.6c9.73,1,18,5.37,25,9.37s13.13,7.69,18.84,9.35a21.91,21.91,0,0,0,7.53,1,15.05,15.05,0,0,0,6-1.75c4-2.09,8-6.41,11.14-11.51a61.86,61.86,0,0,0,7-17.68,67.52,67.52,0,0,0,1.5-19.85,87.77,87.77,0,0,1-.63-13.19,25,25,0,0,1,1.89-8,14,14,0,0,1,6.11-6.69,4.44,4.44,0,0,1,6,5.79Z"/><g class="cls-2"><path class="cls-3" d="M1511.18,478.37s-34.34,83.13-85.66,91.58c-64.73,95.4-193.24,119.1-271.79,61-119.43-4.91-116.08-178.17-116.08-178.17C988.27,441,999.18,385,999.18,385,949,360.22,957.72,263.44,957.72,263.44,850.5,310.49,771,260.37,728.07,218.93c0,0,150.64,50.89,286.35-43.85,16.5-11.52,39.72-5.29,47.49,13.26,6.91,16.49,12.4,42.82,12.6,84.85.54,115.5,58,145,58,145s5.43,51.42,51.82,22.71c0,0,68.68-27.09,91.39,46,0,0,46.3,6.15,69.35,25s32.9-49.2,32.9-49.2,45.47-61.36,91.6-33.45c0,0,54.57-13.41,88.29-92.89C1557.82,336.35,1603.74,429.86,1511.18,478.37Z"/></g><g class="cls-2"><path class="cls-3" d="M1127.73,332.18c3.2,2.64,7.23,4.59,11.37,4.31s8.25-3.27,8.85-7.38c.71-4.84-3.34-9.09-7.57-11.54s-9.14-4.09-12.35-7.78c-1.91-2.2-3.76-5.33-6.65-5C1109.25,306.12,1124.47,329.49,1127.73,332.18Z"/></g><g class="cls-2"><path class="cls-3" d="M1511,349.15c-1.13,8.71-3.39,17.8-9.6,24-2,2-4.62,3.71-7.43,3.46s-5.28-2.56-6.87-5a23.14,23.14,0,0,1-2-20.47c2.68-6.91,12.33-21.52,20-23.27C1515.9,325.34,1512.12,343.18,1511,349.15Z"/></g><g class="cls-2"><path class="cls-3" d="M1447.53,368.35a21.31,21.31,0,0,0,.14,7.39c.62,2.4,2.27,4.68,4.65,5.35,3,.83,6.06-1,7.92-3.48a14.12,14.12,0,0,0,2.48-11.66c-.88-3.71-4.55-9.75-9.21-9C1448.56,357.69,1447.9,364.46,1447.53,368.35Z"/></g><g class="cls-2"><path class="cls-3" d="M1127.56,268.05a7.22,7.22,0,1,0,1.2-.18"/></g><g class="cls-7"><path class="cls-6" d="M1345.19,411c1.32,4.37,2.21,9,1.29,13.5s-4,8.74-8.41,9.95c-6.34,1.75-12.42-3-17.64-7A119.08,119.08,0,0,0,1269,404.84c-3.58-.63-8.08-2-8.39-5.61-.24-3,2.64-5.12,5.23-6.58,13.12-7.36,35.87-18.63,51.48-16.4C1331.55,378.29,1341.45,398.55,1345.19,411Z"/></g><g class="cls-7"><path class="cls-6" d="M1088.88,137.46a9.56,9.56,0,0,0,3.11-11.3c-5.81-13.8-20.24-23.76-35.34-26.22s-30.66,1.38-44.7,8a9.63,9.63,0,0,0-5,11.76c.3.89.6,1.79.89,2.68a9.6,9.6,0,0,0,11.52,6.31c10.17-2.7,20.94-4.81,31-3.92,9.6.85,19.37,4.94,25.7,11.94a9.42,9.42,0,0,0,12.66.91Z"/></g><g class="cls-7"><path class="cls-6" d="M1117.81,178.31c-17.71,4.2-20.12-26.13-5.46-32C1128.46,139.82,1133.15,174.67,1117.81,178.31Z"/></g><path class="cls-10" d="M75.53,1928.68l2.17,8.17A31.24,31.24,0,0,1,75.53,1928.68Z"/><path class="cls-10" d="M1377.51,1761.28a31.47,31.47,0,0,1,0,8.45Z"/><path class="cls-10" d="M17.24,1891.08,22.09,1905A36.73,36.73,0,0,1,17.24,1891.08Z"/><path class="cls-11" d="M1423.23,1724.86,1388,2163.7l-37.59,469c26.94,209.52-546.24,336.26-848.55,268.23a.12.12,0,0,0-.1,0c-94.89-21.35-163.07-61.91-177.61-125.09a102.5,102.5,0,0,1-2-10.89l-88.65-254L22.09,1905c43,74.28,352,97,718.56,49.89,117.38-15.09,227.24-35.63,323.1-59.31,90.49-22.32,168.51-47.42,228.6-73.37C1367.44,1789.81,1414.62,1756.1,1423.23,1724.86Z"/><g class="cls-5"><path class="cls-6" d="M887.26,2904.76c-257.43,37.52-532,5.74-563.09-129a102.5,102.5,0,0,1-2-10.89l-88.65-254L22.09,1905c9.49,16.39,32,30.3,65.19,41.45L282,2504.63l88.66,254a97.27,97.27,0,0,0,2,10.89C401.76,2895.81,644.86,2931.7,887.26,2904.76Z"/></g><path class="cls-6" d="M1423.23,1724.86,1388,2163.7c-265.47,326.58-644.9,546.4-1063.85,612.08a102.5,102.5,0,0,1-2-10.89l-88.65-254c439-53.59,831.48-308.33,1058.84-688.65C1367.44,1789.81,1414.62,1756.1,1423.23,1724.86Z"/><path class="cls-10" d="M1424.39,1710.15a36.8,36.8,0,0,1-1.16,14.71Z"/><path class="cls-3" d="M691.24,2936.71c-70.79,0-136.19-6.26-192-18.7-116.73-26-183.74-77.54-194-149.08L6.47,1912.55a54.08,54.08,0,0,1-6.33-19.26,17.24,17.24,0,0,1,33.38-7.88l4.54,13c34.59,52.62,298.93,91,700.39,39.36s647.48-155.59,667.65-215.26l1.1-13.73a17.25,17.25,0,0,1,16.78-15.86h.42a17.24,17.24,0,0,1,17.09,15,53.93,53.93,0,0,1-1.25,20.24l-72.47,904.11c8.21,71.8-43.58,138.6-149.93,193.3-90.64,46.62-215.81,82-352.43,99.53A1375,1375,0,0,1,691.24,2936.71Zm-634-983.34,281.19,805.84a16.77,16.77,0,0,1,.82,3.48C355.47,2888.86,614,2922.7,861,2891s488.56-129.92,472.34-256.07a16.5,16.5,0,0,1-.09-3.58l68.19-850.76q-50.46,41-163.3,81.43c-130.27,46.62-306.18,85.69-495.3,110s-369.19,31-507,18.86Q116.58,1980.32,57.23,1953.37Z"/><g class="cls-12"><path class="cls-6" d="M378.35,2204.86,489.51,2692.5,679.8,2668l-84.59-484.22a52.74,52.74,0,0,0-52.27-43.13l-114.32.89A51.93,51.93,0,0,0,378.35,2204.86Z"/></g><g class="cls-2"><path class="cls-3" d="M1417.27,1798.88,1388,2163.7l-37.59,469c26.94,209.52-546.24,336.26-848.55,268.23a.12.12,0,0,0-.1,0c404.21-68.87,633.76-324.7,577.4-886.76-3.85-38.32,20.17-74.11,57.25-84.55,62.68-17.64,117.6-36.56,162.52-56C1356.15,1848.88,1397.16,1823.45,1417.27,1798.88Z"/></g><path class="cls-3" d="M408.58,2104.59c-184.6,0-332.08-24.4-361.47-82.47l-.37-.71a53.14,53.14,0,0,1-4.06-11.75c0-.15-.1-.47-.13-.62-.21-1.14-.4-2.22-.54-3.37a15.15,15.15,0,1,1,30.06-3.74c.06.54.17,1,.26,1.57a22.24,22.24,0,0,0,1.55,4.43l.2.38c5.58,11.21,37.62,48.79,215.56,61.89,128.92,9.5,294.65,2.53,466.68-19.58,361.94-46.54,601.74-138.2,643.62-200.81a15.15,15.15,0,0,1,25.18,16.84c-55.37,82.79-328.81,170.8-664.93,214C641.22,2096,518.34,2104.59,408.58,2104.59Z"/><path class="cls-3" d="M644.83,2825.25c-144,0-264.82-19.35-328.4-45.77a15.15,15.15,0,0,1,11.62-28c89,37,297,59.28,522.3,30.32,215.84-27.75,410.71-100.48,491.66-158a15.15,15.15,0,1,1,17.54,24.7c-81.42,57.83-274.3,133.61-505.34,163.31A1651.26,1651.26,0,0,1,644.83,2825.25Z"/><path class="cls-4" d="M423.42,1451c-30.44,24.27-81.38-18.37-53.94-67.33,0-32.82,27.29-31.14,27.29-31.14,14.66-40.39,62.28-21.16,62.28-21.16,71.66,16.69,56.87,107.23-6.31,108.18C442,1439.75,431.84,1444.33,423.42,1451Z"/><g class="cls-2"><path class="cls-3" d="M452.72,1439.56c-10.75.2-20.9,4.75-29.28,11.46-19.89,15.86-48.52,3.18-58.32-21.2,12.88,4.64,27.07,2.72,37-8.08,7.27-8,16.56-14.09,27.16-15.9,37.11-6.47,52.26-41.66,42.92-70.18C528.56,1359.74,511.74,1438.7,452.72,1439.56Z"/></g><g class="cls-5"><path class="cls-6" d="M496.6,1354.39a75.2,75.2,0,0,0-17.37-6.26s-47.61-19.24-62.25,21.15c0,0-27.32-1.66-27.32,31.15-11.81,21.11-9.09,41,.3,54.89-22.16-9-38.82-38.88-20.49-71.6,0-32.82,27.31-31.15,27.31-31.15,14.64-40.39,62.25-21.15,62.25-21.15C476.5,1335.51,488.82,1343.94,496.6,1354.39Z"/></g><path class="cls-3" d="M403.43,1473.64c-12.13,0-24.55-4.58-35.21-13.64-19.31-16.41-30.75-47.32-14.14-80.38,1-16.41,7.69-26.13,13.41-31.5a40.79,40.79,0,0,1,18.79-9.9,50.33,50.33,0,0,1,23.68-22c22.42-10,47.41-2,53.69.36,44.73,10.91,61.5,46.22,58.25,76.57-3.87,36-32.21,61.44-68.93,62-8.2.12-15.33,4.46-19.87,8.08h0A47.25,47.25,0,0,1,403.43,1473.64Zm-7.61-105.57c.19,0-4.35,0-7.19,2.79-3,3-3.62,8.61-3.62,12.85a15.54,15.54,0,0,1-2,7.59c-11.36,20.26-4.25,36.93,5.3,45,6.39,5.43,16.88,9.37,25.41,2.56h0c11.93-9.51,25.33-14.64,38.76-14.84,24.1-.36,36.7-17.46,38.51-34.25,1.77-16.51-6.62-36.55-35.49-43.28a15.7,15.7,0,0,1-2.3-.72c-4.92-1.94-20.18-6-30.71-1.22-5.17,2.33-8.72,6.55-11.16,13.28A15.52,15.52,0,0,1,395.82,1368.07Z"/><path class="cls-4" d="M1293.48,1513.4c-38-8.7-36.34-75.11,19.06-84.15,25.67-20.45,41.35,1.94,41.35,1.94,40.73-13.69,55.36,35.53,55.36,35.53,31.6,66.45-48.43,111.3-88.54,62.47C1313.87,1520.86,1304,1515.8,1293.48,1513.4Z"/><g class="cls-2"><path class="cls-3" d="M1320.72,1529.16c-6.86-8.29-16.74-13.39-27.21-15.76-24.8-5.68-32.72-36-19.75-58.83,4.39,13,14.73,22.87,29.34,23.88,10.77.71,21.34,4.17,29.37,11.33,28.17,25,65.14,14.92,81.63-10.16C1430.4,1538.74,1358.16,1574.79,1320.72,1529.16Z"/></g><g class="cls-5"><path class="cls-6" d="M1414.67,1510.4a75.51,75.51,0,0,0-5.92-17.48s-14.62-49.23-55.34-35.51c0,0-15.71-22.4-41.38-2-23.87,3.91-37.73,18.43-42.74,34.43-6.78-22.94,6.22-54.59,43.23-60.64,25.66-20.45,41.38,2,41.38,2,40.72-13.71,55.34,35.51,55.34,35.51C1416.92,1482.92,1418,1497.81,1414.67,1510.4Z"/></g><path class="cls-3" d="M1362.66,1565.5c-20.07,0-39.69-9.09-54-26.45-5.21-6.35-13-9.23-18.7-10.52h0c-23.52-5.39-38.76-26.58-37.93-52.74.8-25.32,17.85-53.52,54.05-61.13,13.44-9.47,25.25-10.25,33-9.15a40.89,40.89,0,0,1,19.45,8.54,50.42,50.42,0,0,1,32,4.79c21.8,11.31,31.08,35.85,33.17,42.22,19.33,41.78,2.17,76.9-23.6,93.27A69.72,69.72,0,0,1,1362.66,1565.5Zm-65.72-67.24c14.88,3.41,27.25,10.69,35.77,21.08,15.3,18.62,36.53,17.82,50.78,8.77,14-8.9,24.47-27.95,11.74-54.72a15.33,15.33,0,0,1-.86-2.25c-1.56-5.05-7.9-19.51-18.19-24.79-5-2.58-10.55-2.73-17.34-.44a15.5,15.5,0,0,1-17.66-5.81h0s-2.8-3.42-6.67-3.89c-4.2-.53-9,2.54-12.3,5.17a15.42,15.42,0,0,1-7.17,3.18c-22.93,3.75-31.53,19.69-31.92,32.21-.27,8.39,3.19,19,13.82,21.48Z"/><path class="cls-4" d="M201.63,1500.48c-7.07-33.3,18.71-39.76,18.71-39.76,0-33.11,41.33-33.11,41.33,0,0,0,23.72,18.57,3.53,42.28C272.54,1554,209,1551.46,201.63,1500.48Z"/><g class="cls-2"><path class="cls-3" d="M265.2,1503c6.14,42.55-37.18,47.84-55.91,18.78,19.46,7.67,41.46-3.52,37-34.64,20.19-23.74-3.51-42.31-3.51-42.31a31.42,31.42,0,0,0-1.17-8.88c10.13.28,20.1,8.52,20.1,24.79C261.69,1460.72,285.39,1479.29,265.2,1503Z"/></g><g class="cls-5"><path class="cls-6" d="M221.32,1501.47c2.71,18.77,13,31,24.63,36.37-17.24,3.76-40.09-9.52-44.33-38.87-7.06-33.31,18.73-39.77,18.73-39.77,0-23.29,20.47-30.19,32.58-20.67-6.18,2.71-11.29,8.83-12.59,18.31a8.45,8.45,0,0,1-4.46,6.51C228.92,1466.84,216.08,1476.78,221.32,1501.47Z"/></g><path class="cls-3" d="M240.07,1552.11A47.21,47.21,0,0,1,210.33,1541c-11-9-18.28-22.64-20.63-38.38-5.81-28.09,7.23-43.52,19.23-50.2,3.3-18.83,17.77-28.62,32.08-28.62,15,0,30.2,10.78,32.48,31.47,4.41,4.71,10.63,13.23,11.78,24.61.66,6.56-.24,16.19-7.52,26.69.76,11.32-1.5,21.33-6.63,29.19a35.78,35.78,0,0,1-25.28,16A41.25,41.25,0,0,1,240.07,1552.11ZM241,1448c-3.95,0-8.56,3.33-8.56,12.72a12.12,12.12,0,0,1-9.17,11.75c-3.2.94-14,5.73-9.81,25.5a6.86,6.86,0,0,1,.14.79c1.84,12.71,7.6,19.8,12.11,23.52,5.08,4.18,11.31,6.22,16.66,5.45a11.61,11.61,0,0,0,8.46-5.23c2.65-4,3.47-10.2,2.38-17.77a12.12,12.12,0,0,1,2.76-9.57c3.87-4.55,5.57-8.71,5.2-12.73-.52-5.73-5.28-10.79-7.07-12.25a12.37,12.37,0,0,1-4.55-9.46C249.56,1451.33,245,1448,241,1448Z"/><path class="cls-4" d="M553.91,445.87c-5-33.67,21.12-38.54,21.12-38.54,2-33,43.29-30.5,41.26,2.54,0,0,22.53,20,.92,42.43C621.4,503.63,558.1,497.2,553.91,445.87Z"/><g class="cls-2"><path class="cls-8" d="M617.21,452.28c3.51,42.84-40.05,45.46-57,15.3,19,8.85,41.6-1,39-32.3,21.61-22.45-.9-42.45-.9-42.45a31.4,31.4,0,0,0-.63-8.93c10.1.9,19.55,9.74,18.55,26C616.31,409.87,638.82,429.86,617.21,452.28Z"/></g><g class="cls-5"><path class="cls-6" d="M573.51,448.07c1.54,18.9,11.11,31.7,22.34,37.82-17.43,2.68-39.42-12-41.85-41.53-5-33.68,21.14-38.54,21.14-38.54,1.43-23.25,22.28-28.88,33.78-18.63-6.33,2.33-11.81,8.12-13.69,17.5a8.44,8.44,0,0,1-4.85,6.22C583.22,414,569.79,423.1,573.51,448.07Z"/></g><path class="cls-3" d="M591.63,499.84c-11.21,0-22.54-4.64-31.52-13-10.39-9.68-16.86-23.72-18.24-39.57-4.07-28.42,9.92-43,22.3-48.94C566.76,387.73,573,379.44,582,375a31.54,31.54,0,0,1,31.38,1.93c9.09,6,14.41,16.13,15,28.23,4.12,5,9.81,13.86,10.26,25.3.26,6.59-1.24,16.15-9.14,26.17.06,11.35-2.81,21.21-8.41,28.74a35.87,35.87,0,0,1-26.22,14.37C593.8,499.8,592.72,499.84,591.63,499.84ZM596,395.9a7.23,7.23,0,0,0-3.21.75c-3.3,1.65-5.31,5.7-5.66,11.43a12.13,12.13,0,0,1-9.88,11.16c-3.25.74-14.32,4.86-11.36,24.85,0,.27.08.53.1.79,1,12.81,6.36,20.24,10.64,24.23,4.81,4.48,10.85,6.9,16.3,6.46a11.59,11.59,0,0,0,8.76-4.69c2.89-3.89,4.08-10,3.46-17.6a12.11,12.11,0,0,1,3.35-9.38c4.13-4.3,6.09-8.35,6-12.39-.16-5.75-4.61-11.09-6.3-12.66a12.38,12.38,0,0,1-4-9.72c.35-5.72-1.15-10-4.22-12A7.18,7.18,0,0,0,596,395.9Z"/><path class="cls-4" d="M1349.42,1135.45c-7.64-36,20.26-43,20.26-43,0-35.83,44.74-35.83,44.74,0,0,0,25.67,20.1,3.82,45.77C1426.18,1193.36,1357.36,1190.63,1349.42,1135.45Z"/><g class="cls-2"><path class="cls-3" d="M1418.24,1138.16c6.65,46.06-40.24,51.78-60.52,20.32,21.07,8.3,44.88-3.8,40-37.49,21.85-25.69-3.8-45.79-3.8-45.79a34.17,34.17,0,0,0-1.27-9.62c11,.31,21.76,9.22,21.76,26.83C1414.44,1092.41,1440.09,1112.51,1418.24,1138.16Z"/></g><g class="cls-5"><path class="cls-6" d="M1370.75,1136.52c2.92,20.32,14.11,33.52,26.65,39.37-18.66,4.07-43.39-10.31-48-42.07-7.65-36,20.28-43,20.28-43,0-25.21,22.15-32.68,35.26-22.37-6.69,2.93-12.22,9.56-13.63,19.82a9.17,9.17,0,0,1-4.82,7C1379,1099,1365.07,1109.8,1370.75,1136.52Z"/></g><path class="cls-3" d="M1391.1,1191.36a48.41,48.41,0,0,1-18-3.56c-19.43-7.78-33.09-26.47-36.62-50-6.28-30.41,7.84-47.11,20.82-54.34,3.57-20.38,19.23-31,34.72-31,16.26,0,32.7,11.67,35.16,34.07,4.77,5.1,11.51,14.32,12.75,26.64.72,7.09-.26,17.51-8.13,28.87,1.63,23.41-8.89,35.58-15.66,40.9A40.21,40.21,0,0,1,1391.1,1191.36Zm1-112.71c-4.27,0-9.26,3.6-9.26,13.76a13.11,13.11,0,0,1-9.92,12.72c-3.46,1-15.16,6.21-10.62,27.61.06.28.11.56.15.85,2.07,14.4,9.72,25.56,20.47,29.86,6.38,2.56,12.93,2.12,17.09-1.15,4.93-3.87,6.81-11.78,5.31-22.25a13.08,13.08,0,0,1,3-10.36c4.18-4.92,6-9.42,5.63-13.78-.56-6.2-5.72-11.67-7.65-13.26a13.4,13.4,0,0,1-4.93-10.24c0-4.91-1.19-8.78-3.45-11.19A7.9,7.9,0,0,0,1392.05,1078.65Z"/><path class="cls-4" d="M1463.38,1248.6c-5.68,8.61-4.22,21.21,3.28,28.3,5.4,5.11,13,7.18,20.41,7.9,4.65.46,9.8.3,13.38-2.71,3-2.56,4.29-6.65,5-10.56,2.07-11,4.09-31.46-9.61-35.12C1486.15,1233.81,1468.72,1240.5,1463.38,1248.6Z"/><path class="cls-3" d="M1490.61,1295c-1.94,0-3.53-.16-4.52-.25-11.18-1.1-20-4.66-26.3-10.59-11-10.4-13.09-28.44-4.76-41.08,7.76-11.77,29.69-20,43.42-16.34,9.12,2.44,23.44,11.74,16.85,46.63-.89,4.73-2.74,11.58-8.41,16.36C1501.64,1294.16,1495.15,1295,1490.61,1295Zm.37-49.2c-6.17,0-16.59,4.25-19.25,8.29h0c-3,4.54-2.15,11.8,1.8,15.54,3,2.81,7.85,4.56,14.51,5.21,4.87.48,5.93-.38,6-.41s.9-.86,1.64-4.77c2.39-12.67,1.4-22.6-2.36-23.6A9,9,0,0,0,1491,1245.81Zm-27.6,2.79h0Z"/><path class="cls-9" d="M287.2,440.67c-5.67,8.61-4.22,21.22,3.28,28.31,5.4,5.1,13,7.18,20.41,7.9,4.66.45,9.8.29,13.38-2.72,3-2.56,4.29-6.65,5-10.56,2.07-11,4.09-31.45-9.61-35.12C310,425.88,292.54,432.58,287.2,440.67Z"/><path class="cls-3" d="M314.43,487.08a43.37,43.37,0,0,1-4.51-.25c-11.18-1.09-20-4.66-26.31-10.59-11-10.4-13.09-28.44-4.76-41.07,7.77-11.78,29.7-20,43.43-16.35,9.12,2.44,23.43,11.74,16.84,46.64-.89,4.73-2.73,11.57-8.42,16.35C325.46,486.23,319,487.08,314.43,487.08Zm.38-49.2c-6.18,0-16.6,4.25-19.26,8.29h0c-3,4.53-2.15,11.8,1.8,15.53,3,2.81,7.86,4.56,14.51,5.21,4.87.48,5.92-.37,6-.41s.91-.86,1.64-4.76c2.4-12.68,1.4-22.6-2.36-23.61A8.93,8.93,0,0,0,314.81,437.88Zm-27.61,2.79h0Z"/><path class="cls-4" d="M142.66,1313.22c-5.67,8.61-4.21,21.21,3.28,28.3,5.4,5.11,13,7.18,20.41,7.9,4.66.46,9.8.3,13.38-2.71,3.05-2.57,4.29-6.65,5-10.56,2.07-11,4.1-31.46-9.6-35.12C165.43,1298.43,148,1305.12,142.66,1313.22Z"/><path class="cls-3" d="M169.89,1359.63c-1.93,0-3.52-.16-4.51-.25-11.18-1.1-20-4.66-26.31-10.59-11-10.4-13.08-28.44-4.75-41.07h0c7.75-11.78,29.68-20,43.42-16.35,9.12,2.44,23.42,11.74,16.85,46.63-.89,4.73-2.74,11.57-8.42,16.36C180.92,1358.78,174.43,1359.63,169.89,1359.63Zm.37-49.2c-6.17,0-16.58,4.25-19.24,8.29h0c-3,4.54-2.16,11.8,1.79,15.54,3,2.81,7.86,4.56,14.52,5.21,4.84.48,5.91-.38,6-.42s.91-.85,1.64-4.76c2.4-12.67,1.4-22.6-2.36-23.6A8.91,8.91,0,0,0,170.26,1310.43Zm-27.59,2.79h0Z"/></svg>