<svg id="Layer_1" data-name="Layer 1" xmlns="http://www.w3.org/2000/svg" viewBox="0 0 2377.93 1768.36"><defs><style>.cls-1{fill:#ffa840;}.cls-2{fill:#feb85b;}.cls-3{fill:#650000;}.cls-4{fill:#ef6a20;}.cls-5{opacity:0.3;}.cls-6{opacity:0.55;}.cls-7{fill:#fff;}.cls-8{fill:#792937;}.cls-9{fill:#77223c;}</style></defs><path class="cls-1" d="M733.37,1341.34c155,200.17,605,50.09,1041.71-288S2469.78,317.15,2314.81,117C2233.11,11.46,2061.22-7.35,1853,48,1666.12,97.58,1450,206.83,1243.49,366.73,1054.71,512.89,904.86,677.4,808.08,833.27,681,1037.93,645.4,1227.71,733.37,1341.34Z"/><path class="cls-2" d="M721.79,1052c9.5-64.83,39.68-139.79,87.51-219.63l-1.22.94c-27.62,44.46-50.94,88.25-69.6,130.72C730,994.49,724.41,1023.89,721.79,1052Z"/><path class="cls-3" d="M724.27,1052.33l-5-.6c2.59-27.82,8.23-57.57,16.77-88.41C754.84,920.54,778.31,876.46,806,832l.6-.66,11.73-9.09-6.83,11.41C763,914.44,733.69,988,724.27,1052.33ZM747.53,950q-3.48,7.53-6.76,15-1.8,6.51-3.42,13Q741.94,964.19,747.53,950Z"/><path class="cls-4" d="M733.37,1341.34c155,200.17,605,50.09,1041.71-288S2469.78,317.15,2314.81,117C2233.11,11.46,2061.22-7.35,1853,48l-2.25,2.24c150.75-36,269.94-22.14,326.26,50.61,52.53,67.84,34.53,166.45-34.34,281-67,97.51-144.17,189.08-230.25,275.64l-14.86-41.63a27.55,27.55,0,0,0-26.75-18.27l-42.61,1.26a47.61,47.61,0,0,0-22.69,6.51l-49.49,29c-5.06,3-1.92,10.73,3.78,9.33L1787,637a45.54,45.54,0,0,1,26,1.31l24.38,8.65a29.92,29.92,0,0,1,19.86,30.29l-2.53,36.2c-100.33,94.11-211.39,182.12-331.33,265C1176.46,1223.91,861.56,1345,752.25,1203.85c-62.13-80.26-35.68-216.71,57-371.52l-1.22.94C681,1037.93,645.4,1227.71,733.37,1341.34Z"/><g class="cls-5"><path class="cls-3" d="M733.37,1341.34c155,200.17,605,50.09,1041.71-288,302.49-234.19,519.22-497.15,572.38-703.16C2261.77,538,2066.91,757.29,1810.32,955.94c-436.67,338.08-886.74,488.16-1041.71,288-19.53-25.23-33-54.2-40.67-86.26a.15.15,0,0,1,0-.11c-10-30.57-11.88-66-6.2-105,0-.14,0-.35.07-.56,9.5-64.83,39.68-139.79,87.51-219.63l-1.22.94c-27.62,44.46-50.94,88.25-69.6,130.72C671.34,1116.82,664.53,1252.42,733.37,1341.34Z"/></g><path class="cls-4" d="M1648.52,335.28,1703,293.14l9.09-69.93,131.19-70.12,77.26-120.71,105.28-22L1870.31,163.56l-124.37,82.63-27.69,77.61-63.72,22.5C1647.72,348.71,1642.81,339.7,1648.52,335.28Z"/><path class="cls-4" d="M1025,561l91.32,11.74,64.23-33.55A36,36,0,0,1,1222,545l46.61,44.43a4.94,4.94,0,0,1-5.57,8l-73-35.69L1092.47,626l-129.63,1.8"/><g class="cls-6"><path class="cls-7" d="M687.63,1227.71c1.57-100.24,45.14-220.29,123.19-346,96.78-155.87,246.63-320.39,435.42-466.54,206.53-159.9,422.63-269.15,609.46-318.76,208.27-55.33,380.15-36.52,461.85,69,23,29.65,36.85,63.6,42.44,101.13,1.66-57-12.71-107.65-45.18-149.6C2233.11,11.46,2061.22-7.35,1853,48,1666.12,97.58,1450,206.83,1243.49,366.73,1054.71,512.89,904.86,677.4,808.08,833.27,717,979.93,672.89,1118.91,687.63,1227.71Z"/></g><polyline class="cls-4" points="1280.89 847.89 1165.34 976.33 1173.21 1043.67 1098.3 1115.71 1021.2 1272.36 1159.62 1219.41 1137.01 1124.88 1243.62 1058.38 1192.96 982.06 1312.17 888.3"/><path class="cls-3" d="M1456.77,1285.23c-106.53,58.64-209.31,103.16-303.26,130.74-204.93,60.18-355,38.07-434-63.93-79.38-102.53-68.18-263.9,31.53-454.4,97.49-186.25,268.58-379.71,481.74-544.74s443.3-282.2,648-329.93c209.39-48.82,368.43-19.24,447.81,83.29,79,102,62.78,252.82-46.81,436.15-101,168.93-277.15,355.3-496,524.77C1675.81,1152.34,1564.38,1226,1456.77,1285.23Zm67.12-1082.59c-90.68,49.92-181.58,109.75-269.66,177.94C1045,542.59,877.29,732,782.08,913.88c-93,177.66-105.38,325.66-34.86,416.73,87.68,113.26,264,90.67,396.43,51.78,184.75-54.25,405.2-176,620.73-342.88S2153,689.73,2251.81,524.45C2322.64,406,2388.67,240.94,2301,127.69,2230.47,36.6,2084.09,11.52,1888.8,57.05,1773,84.05,1648.66,134,1523.89,202.64Z"/><path class="cls-3" d="M2138.34,379.31c10.08-25.25,20.51-49.79,29.32-74.6S2183.82,255,2188,230c4-24.9,5.57-50.28-.72-73.8l-2.37-8.78-3.28-8.43c-1.87-5.78-5.25-10.85-7.94-16.25-1.5-2.61-3.4-5-5.06-7.52s-3.27-5.11-5.41-7.29c-4.11-4.46-7.68-9.44-12.45-13.28C2133,77.93,2110.72,66,2086.62,58.49s-49.93-11.06-75.89-12-52.29.74-78.46,3.89c-26.18,3.36-52.21,8.48-78.08,14.43l-.24.06a15,15,0,0,1-6.73-29.24c26.79-6.17,53.85-11.49,81.3-15,27.48-3.31,55.3-5.07,83.31-4.11s56.28,4.7,83.77,13.32,54.05,22.5,75.76,42.88c5.73,4.76,10.25,10.75,15.21,16.28,2.58,2.7,4.5,5.93,6.67,9s4.35,6.07,6.22,9.3l5.33,9.87a70.41,70.41,0,0,1,4.74,10.15c1.4,3.46,2.87,6.91,4.18,10.41l3.11,10.73c8.1,28.81,7.72,58.84,2.71,87s-15.11,54.86-27.52,79.74a367.9,367.9,0,0,1-45.1,69.31,5.06,5.06,0,0,1-8.59-5.1Z"/><path class="cls-3" d="M1803.09,752.18c13.59-18.08,28.59-34.4,43.81-50.45S1878,670.39,1894,655.28s32.18-30.1,48.69-44.79,33.17-29.25,50.9-43a5.07,5.07,0,0,1,7.38,6.74c-12.21,19-26.15,36.49-40.56,53.59s-29.83,33.25-45.71,48.91a658.63,658.63,0,0,1-49.79,44.66c-17.46,13.92-35.49,27.17-55.26,38.3a5.11,5.11,0,0,1-6.59-7.52Z"/><path class="cls-3" d="M822.19,840.05c-26.41,44.26-49.75,90.42-66.48,138.56-8.3,24.06-14.92,48.61-18.71,73.36s-4.7,49.73-1.14,73.7,12,46.72,25.92,65.72c.87,1.18,1.69,2.41,2.61,3.56l2.9,3.3,5.76,6.65c2,2.18,4.28,4,6.39,6s4.16,4.12,6.6,5.76l7.13,5.12c1.2.84,2.33,1.76,3.58,2.53l3.86,2.15,7.69,4.34c2.61,1.36,5.43,2.37,8.13,3.58,21.86,9.34,46.29,13.55,71.07,14.28s50-1.89,75-6.31c50.07-8.89,99.29-25.08,147-44.57s94.33-42.58,140.14-66.93c91.9-48.39,180.77-102.76,270.82-156.41a5,5,0,0,1,5.77,8.16A1557.47,1557.47,0,0,1,1400,1077.05q-32.76,22-66.55,42.59c-11.35,6.71-22.6,13.58-34.1,20s-22.85,13.19-34.54,19.33q-34.89,18.74-70.82,35.62c-24,11.08-48.29,21.71-73,31.44-24.59,10-49.74,18.68-75.2,26.61a628.44,628.44,0,0,1-78,19.2c-26.52,4.69-53.63,7.55-81.17,6.75S831,1273.21,804.65,1262c-3.27-1.45-6.61-2.71-9.8-4.36l-9.43-5.28-4.7-2.66c-1.53-1-3-2.07-4.45-3.1l-8.8-6.35c-3-2.06-5.46-4.75-8.2-7.11s-5.46-4.78-7.88-7.46l-7.13-8.17-3.54-4.1c-1.12-1.41-2.14-2.9-3.21-4.35-17.08-23.34-27.21-51.11-31.31-78.86s-3.07-55.79,1.15-82.74,11.24-53.2,20-78.62C745,918,769.27,870.22,796.46,824.63A15,15,0,0,1,822.23,840h0Z"/><g class="cls-5"><path class="cls-8" d="M2033.21,286c43.27,175.17-256.76,370.51-219.47,188.36"/><path class="cls-3" d="M1900.46,533.44c-31.32,17.25-58.46,21.23-75.13,10.37-11.41-7.44-23.11-25.62-14-70l4.9,1c-6.74,32.92-2.63,55.32,11.87,64.77,18.53,12.08,53.9,2.63,92.26-24.63,70.55-50.12,131.14-144.67,110.46-228.4l4.86-1.2c21.22,85.9-40.5,182.57-112.42,233.67A234.24,234.24,0,0,1,1900.46,533.44Z"/></g><g class="cls-5"><path class="cls-8" d="M1663.81,140.12c43.27,175.18-256.76,370.52-219.47,188.36"/><path class="cls-3" d="M1531.06,387.58c-31.32,17.24-58.46,21.23-75.13,10.36-11.42-7.43-23.12-25.61-14-70l4.9,1c-6.74,32.92-2.64,55.32,11.87,64.77,18.52,12.08,53.86,2.65,92.26-24.63,70.55-50.12,131.15-144.67,110.47-228.4l4.85-1.2c21.22,85.9-40.5,182.58-112.42,233.68A239.4,239.4,0,0,1,1531.06,387.58Z"/></g><g class="cls-5"><path class="cls-8" d="M1456.76,776.36c43.27,175.17-237.94,305.55-200.65,123.4"/><path class="cls-3" d="M1362.45,972.9C1327.78,992,1294,995.75,1272.86,982c-14.54-9.48-29.68-31.52-19.2-82.71l4.9,1c-7.85,38.33-2,65.13,17,77.51,23,15,64.34,6.54,102.94-20.89,47.19-33.53,95.35-100.77,75.8-179.92l4.86-1.21c20.15,81.6-29.3,150.77-77.77,185.2A195.67,195.67,0,0,1,1362.45,972.9Z"/></g><g class="cls-5"><path class="cls-8" d="M1076.23,809.6c43.26,175.18-207.44,269-170.15,86.82"/><path class="cls-3" d="M1005.47,983.9c-29.45,16.21-59.77,18.46-80.18,5.16-23.17-15.1-30.86-48.18-21.66-93.14l4.9,1c-8.77,42.82-1.85,74.05,19.48,88,21.88,14.25,56.51,8.9,88.27-13.67,40-28.42,76.13-85.64,57.52-161l4.85-1.2c19.22,77.79-18.12,136.9-59.47,166.28A141.49,141.49,0,0,1,1005.47,983.9Z"/></g><g class="cls-5"><path class="cls-8" d="M1520.76,504.55c25.14,101.78-130.78,177.06-109.11,71.21"/><path class="cls-3" d="M1468.64,620.24c-18.55,10.21-36.74,12.15-48.28,4.63-8.58-5.59-17.48-18.74-11.16-49.61l4.9,1c-4.56,22.26-1.45,37.62,9,44.42,11.86,7.73,32.49,3.5,52.58-10.76,26.9-19.11,54.21-58,42.66-104.77l4.86-1.21c12.14,49.2-16.45,90-44.63,110.05A101.74,101.74,0,0,1,1468.64,620.24Z"/></g><path class="cls-9" d="M956.73,939.08c-24.37,7.07-48.7-11.15-50.4-36.47-5.88-87.59,76.11-144.09,136.2-129.49,20.68,4.79,30.11,21,20.81,36.83a33.62,33.62,0,0,1-11.88,11.7c-6.79,4.05-22.19,16.84-18.74,48.39C1034.09,882.48,995.65,927.79,956.73,939.08Z"/><path class="cls-3" d="M977.1,933.13a96.93,96.93,0,0,1-19.67,8.35h0a41.08,41.08,0,0,1-35.15-5.94,43.38,43.38,0,0,1-18.45-32.77,125.73,125.73,0,0,1,44.86-105.65c28-23.63,64.25-33.76,94.44-26.43,11.8,2.73,20.72,9.26,24.43,17.89,3.06,7.13,2.33,15.17-2.06,22.63a36.23,36.23,0,0,1-12.76,12.59c-6.37,3.8-20.82,15.87-17.53,46C1036.5,881.59,1009.15,915.49,977.1,933.13ZM956,936.68c37.9-11,75.39-55.49,74.2-66.37-3.61-33,12.74-46.52,19.94-50.8a31.29,31.29,0,0,0,11-10.83c3.62-6.15,4.24-12.42,1.78-18.13-3.07-7.15-10.72-12.62-21-15-28.68-7-63.19,2.76-90.07,25.4a120.77,120.77,0,0,0-43.08,101.49,38.39,38.39,0,0,0,16.33,29A36.11,36.11,0,0,0,956,936.68Z"/><g class="cls-6"><path class="cls-7" d="M921.94,932.16c-.13-.91-.22-1.84-.29-2.74-5.89-87.57,76.11-144.1,136.2-129.47a40.22,40.22,0,0,1,8.4,2.85c3.3-13.3-6.18-25.63-23.74-29.68-60-14.59-142.08,41.9-136.19,129.47A41.14,41.14,0,0,0,921.94,932.16Z"/></g><path class="cls-9" d="M1866.13,484.92c-36.53,10.6-73-16.7-75.53-54.65-8.8-131.24,114.05-215.91,204.1-194,31,7.18,45.1,31.48,31.17,55.19a50.41,50.41,0,0,1-17.8,17.53c-10.17,6.07-33.24,25.24-28.07,72.5C1982,400.11,1924.45,468,1866.13,484.92Z"/><path class="cls-3" d="M1896.29,474.82a146.47,146.47,0,0,1-29.46,12.5,60.31,60.31,0,0,1-51.6-8.73,63.7,63.7,0,0,1-27.13-48.16c-4.07-60.79,20.26-118.12,66.77-157.27,41.79-35.17,95.58-50.24,140.42-39.35,17.31,4,30.35,13.52,35.75,26.09,4.43,10.3,3.36,22-3,32.79a53.1,53.1,0,0,1-18.68,18.42c-9.74,5.81-31.88,24.27-26.87,70.08C1984.39,398.62,1943.83,448.64,1896.29,474.82Zm-8-218.59a186.84,186.84,0,0,0-30.2,20.76c-45.28,38.11-69,93.92-65,153.11a58.72,58.72,0,0,0,25,44.39,55.38,55.38,0,0,0,47.35,8c57.28-16.63,113.88-84.22,112.07-100.78-5.33-48.7,18.71-68.62,29.28-74.92a47.91,47.91,0,0,0,16.92-16.66c5.63-9.58,6.58-19.36,2.74-28.29-4.76-11.09-16.55-19.54-32.32-23.19C1961,230.62,1922.64,237.33,1888.29,256.23Z"/><g class="cls-6"><path class="cls-7" d="M1816.18,476.15a63.37,63.37,0,0,1-3.93-17.89c-8.78-131.24,114-215.9,204.15-194a63.11,63.11,0,0,1,14.62,5.25c-1.73-15.3-15-28.33-36.3-33.24-90.09-21.88-212.92,62.78-204.14,194A61.19,61.19,0,0,0,1816.18,476.15Z"/></g><path class="cls-3" d="M1901.07,486.2a152.84,152.84,0,0,1-30.76,13.12h0a72.71,72.71,0,0,1-62.25-10.49,76.15,76.15,0,0,1-32.43-57.56c-4.34-64.81,21.6-125.93,71.19-167.67,44.74-37.68,102.78-53.75,151.42-41.94,21.1,4.89,37.3,17,44.29,33.3,6,14.06,4.71,29.71-3.73,44.07a65.62,65.62,0,0,1-23,22.82c-7.67,4.57-25.06,19.37-20.85,58C1997.69,405.26,1950.75,458.86,1901.07,486.2Zm-6.66-219.09a174.67,174.67,0,0,0-28.27,19.44c-42.2,35.52-64.27,87.53-60.58,142.71a46.28,46.28,0,0,0,19.7,35,42.33,42.33,0,0,0,36.69,6.26c51.24-14.86,100.69-73.14,103.07-88-5.84-55.47,22.77-78.89,35.38-86.4a35.46,35.46,0,0,0,12.54-12.26c3.58-6.08,4.26-11.81,2-17-3.18-7.4-11.81-13.21-23.66-16C1961.05,243.5,1926,249.72,1894.41,267.11Z"/><path class="cls-3" d="M983.33,944a110.9,110.9,0,0,1-22.42,9.52h0a53.53,53.53,0,0,1-45.79-7.71,55.77,55.77,0,0,1-23.76-42.17,138.11,138.11,0,0,1,49.27-116.05c31.08-26.16,71.48-37.27,105.45-29,15.59,3.62,27.67,12.78,33,25.1,4.67,10.88,3.69,22.92-2.77,33.91a48.74,48.74,0,0,1-17.13,17c-4.29,2.56-14,11-11.5,33.87C1049.71,887.37,1018.57,924.58,983.33,944Zm-30.78-19.3c31.41-9.11,61.76-44.36,65.12-54.42-3.75-39.17,16.95-56,26.11-61.48a18.77,18.77,0,0,0,6.63-6.42c2.32-4,1.38-6.14,1.07-6.86-1.13-2.63-5-6-12.33-7.76-25-6.07-55.32,2.66-79.19,22.78a108.39,108.39,0,0,0-38.67,91.09,25.94,25.94,0,0,0,11,19.6,23.32,23.32,0,0,0,20.23,3.47Zm65.31-55.07Z"/><path class="cls-9" d="M1256.11,899.76c-69.57-113.15,52.71-189.77,162.47-157a50.19,50.19,0,0,1,26,78.54c-29.83,39.92-81.17,77.74-122.75,97.94C1298.3,930.69,1269.81,922.05,1256.11,899.76Z"/><path class="cls-3" d="M1336.45,914.48c-4.66,2.56-9.18,4.91-13.52,7a53.39,53.39,0,0,1-69-20.44h0c-26.9-43.74-27.68-86.1-2.21-119.28,33.1-43.1,103.54-60.51,167.52-41.41a52.69,52.69,0,0,1,27.29,82.44C1418.78,860,1373.54,894.06,1336.45,914.48Zm-78.21-16a48.41,48.41,0,0,0,62.5,18.55c38.46-18.68,91-56,121.84-97.19a47.69,47.69,0,0,0-24.72-74.65c-62.06-18.53-130.23-1.85-162.13,39.67-24.11,31.41-23.23,71.76,2.51,113.62Z"/><g class="cls-6"><path class="cls-7" d="M1240.91,867.33c4-72.8,97.15-113.66,182.68-88.13a50.11,50.11,0,0,1,29.75,23.64,50.2,50.2,0,0,0-34.77-60.09C1319.65,713.23,1210.59,772.56,1240.91,867.33Z"/></g><path class="cls-3" d="M1342.7,925.32c-5,2.74-9.79,5.23-14.31,7.42a65.84,65.84,0,0,1-85.06-25.13h0c-40.22-65.4-18.19-111.68-1.47-133.44,36.14-47.06,112.27-66.31,181-45.77a65.19,65.19,0,0,1,33.72,101.89C1426,871.2,1379,905.32,1342.7,925.32Zm-73.82-33.42c9.67,15.72,30,21.8,46.4,13.86,37.08-18,87.75-53.91,117.28-93.43a35.19,35.19,0,0,0-18.28-55.19c-57.27-17.11-119.79-2.27-148.63,35.3-21,27.4-19.92,61.8,3.23,99.46Z"/><path class="cls-9" d="M1434,310.8C1367,195.72,1514.46,99.59,1635.92,123.3c37.54,7.33,48.35,49.29,21.17,82.28-38.25,46.44-100.78,92.93-150.29,119.28C1478.77,339.77,1447.25,333.47,1434,310.8Z"/><path class="cls-3" d="M1513,324.35c-1.7.93-3.37,1.84-5,2.71-29.31,15.6-62,9.15-76.09-15-23.82-40.87-22.62-83.53,3.38-120.12,39.28-55.25,125.75-85.81,201.14-71.09,17.12,3.34,30.07,14,35.54,29.24,6.48,18.06,1.65,39.4-12.92,57.08C1620.42,254,1558.89,299.08,1513,324.35Zm-20.08-175.68c-21.78,12-40.41,27.65-53.57,46.17-17.54,24.68-32.33,64.62-3.14,114.7h0c12.69,21.78,42.54,27.42,69.42,13.11,45.92-24.42,110-70.59,149.54-118.66,13.44-16.31,17.95-35.82,12.07-52.21-4.85-13.54-16.44-23-31.78-26C1587.21,116.34,1534.36,125.86,1492.91,148.67Z"/><g class="cls-6"><path class="cls-7" d="M1419.17,272.9c19-74.31,124.68-123.84,215.65-106.06,15.41,3,26.29,11.83,31.94,23.45,13.66-29.48,1.1-60.73-30.86-67C1528.1,102.26,1399.72,175.66,1419.17,272.9Z"/></g><path class="cls-3" d="M1519,335.33c-1.73.95-3.43,1.87-5.12,2.77-35.36,18.81-75.23,10.32-92.76-19.74h0c-26.44-45.37-25-92.84,4-133.66,41.94-59,133.82-91.72,213.73-76.12,21.54,4.21,37.91,17.8,44.91,37.29,8,22.25,2.35,48.14-15,69.25C1629,263.27,1566,309.46,1519,335.33Zm-20.45-175.2c-20.06,11-37.14,25.29-49,42-15.4,21.69-28.35,56.84-2.52,101.17h0c9.09,15.59,32.26,19.27,52.75,8.37,44.9-24,107.26-68.84,145.77-115.57,10.6-12.88,14.32-27.85,10-40.05-3.39-9.43-11.35-15.81-22.42-18C1588.12,129.26,1537.65,138.58,1498.51,160.13Z"/><path class="cls-9" d="M861.79,1141.31c36.06-4.32,67.46-3.9,91.63,3.88,35.5,11.44,51.84,52.57,35.72,86.2-23.52,49.09-56.79,80.64-110.78,74.92A106.28,106.28,0,0,1,791.52,1241c-10.88-26.74-8.93-52.54,15.05-74.91C821.66,1152.05,841.3,1143.77,861.79,1141.31Z"/><path class="cls-3" d="M935.81,1298.2c-17,9.38-36.22,12.87-57.71,10.6-39.19-4.16-74.09-30.39-88.9-66.83-12.33-30.35-7.07-56.48,15.67-77.67,14.82-13.83,34.93-22.87,56.62-25.47h0c39.39-4.72,69.71-3.41,92.7,4a62.79,62.79,0,0,1,38.3,35.1,66,66,0,0,1-1.09,54.56C976.14,1264.3,957.74,1286.13,935.81,1298.2Zm-110-142.87A88.14,88.14,0,0,0,808.27,1168c-21.35,19.92-26.07,43.51-14.44,72.14,14.13,34.76,47.42,59.77,84.8,63.73,47.4,5,81.8-18.33,108.25-73.5a60.9,60.9,0,0,0,1-50.42,57,57,0,0,0-35.24-32.32c-22.29-7.18-51.92-8.42-90.58-3.79A100.1,100.1,0,0,0,825.81,1155.33Z"/><g class="cls-6"><path class="cls-7" d="M788.53,1232.49c3-10.39,9.14-20.29,19.13-29.61,15.08-14.08,34.7-22.31,55.22-24.79,36-4.33,67.43-3.9,91.6,3.88a60.22,60.22,0,0,1,38.68,38.61c8.45-31.15-8-65.17-39.73-75.41-24.17-7.79-55.59-8.18-91.64-3.86-20.49,2.45-40.11,10.75-55.23,24.8C785.17,1186.09,781.34,1208.84,788.53,1232.49Z"/></g><path class="cls-9" d="M1429.06,475.08c22.16-2.65,41.46-2.4,56.31,2.39,21.82,7,31.86,32.3,22,53-14.45,30.16-34.9,49.55-68.07,46a65.33,65.33,0,0,1-53.37-40.11c-6.68-16.43-5.48-32.29,9.25-46A60.09,60.09,0,0,1,1429.06,475.08Z"/><path class="cls-3" d="M1475,572.35c-10.64,5.86-22.61,8-36,6.61a68.28,68.28,0,0,1-55.43-41.66c-7.74-19.06-4.42-35.48,9.87-48.8,9.26-8.63,21.81-14.28,35.34-15.9h0c24.35-2.92,43.11-2.1,57.37,2.49a39.55,39.55,0,0,1,24.13,22.11,41.52,41.52,0,0,1-.69,34.32C1500.11,551.28,1488.67,564.84,1475,572.35Zm-67.61-87.81a52.59,52.59,0,0,0-10.58,7.62c-12.8,11.93-15.62,26.08-8.65,43.26A63.24,63.24,0,0,0,1439.52,574c28.67,3,49.5-11.15,65.55-44.63a36.52,36.52,0,0,0,.61-30.19,34.09,34.09,0,0,0-21.07-19.32c-13.56-4.37-31.63-5.12-55.25-2.29h0A60.47,60.47,0,0,0,1407.42,484.54Z"/><g class="cls-6"><path class="cls-7" d="M1393.35,549.68c-.51-10.54,3.33-20.53,13.08-29.66a60,60,0,0,1,34-15.25c22.11-2.63,41.4-2.39,56.29,2.39a36.72,36.72,0,0,1,14.37,8.67c1-16.62-8.86-32.91-25.7-38.34-14.86-4.81-34.14-5.05-56.33-2.42a60.16,60.16,0,0,0-33.91,15.25c-14.72,13.73-16,29.61-9.24,46A60.18,60.18,0,0,0,1393.35,549.68Z"/></g><path class="cls-3" d="M942,1309.36c-19.14,10.54-40.8,14.45-65.17,11.87a120.56,120.56,0,0,1-99.17-74.55c-14.28-35.14-7.81-66.79,18.72-91.52,17-15.84,39-25.79,63.66-28.74h0c41.22-4.94,73.28-3.47,98,4.5a75.23,75.23,0,0,1,46,42.06,78.45,78.45,0,0,1-1.3,64.9C986.14,1272.37,966,1296.11,942,1309.36ZM831.85,1166.27a75,75,0,0,0-15.05,10.83c-17.35,16.18-21,34.7-11.39,58.28a91.79,91.79,0,0,0,74.54,56c42,4.45,71.5-16.05,95.66-66.48a48.4,48.4,0,0,0,.8-40.07,44.62,44.62,0,0,0-27.59-25.36c-20.53-6.62-48.42-7.69-85.25-3.27A87.24,87.24,0,0,0,831.85,1166.27Z"/><path class="cls-3" d="M1481,583.36q-19.18,10.56-43.3,8A79.83,79.83,0,0,1,1372,542c-9.76-24-5.3-45.68,12.91-62.65,11.34-10.58,26-17.21,42.37-19.17h0c26.18-3.14,46.68-2.15,62.69,3a52.06,52.06,0,0,1,31.78,29.06,53.91,53.91,0,0,1-.91,44.67C1510.23,559.09,1496.89,574.6,1481,583.36Zm-67.51-87.88a39.92,39.92,0,0,0-8.1,5.82c-8.91,8.31-10.58,17.11-5.58,29.42a50.57,50.57,0,0,0,41,30.84c23.31,2.47,39.15-8.78,53-37.6a24,24,0,0,0,.4-19.85,21.74,21.74,0,0,0-13.41-12.36c-11.64-3.75-28.44-4.35-49.93-1.78h0A48,48,0,0,0,1413.46,495.48Z"/><polygon class="cls-4" points="1722.38 546.75 1668.56 534.34 1603.31 566.42 1535.43 579.45 1611.3 593.43 1659.24 567.19 1722.38 546.75"/><path class="cls-1" d="M2009.48,1425.1c-24,252-484.62,365.69-1034.38,313.31s-980.61-251-956.6-503C31.15,1102.57,166.38,994.81,372,930.27,556.4,872.35,797.44,849.21,1057.46,874c237.67,22.64,452.25,81.61,617.35,161.63C1891.63,1140.64,2023.11,1282.05,2009.48,1425.1Z"/><path class="cls-2" d="M1864.61,1174.33c-42.68-49.72-108.24-96.95-191.34-138.87l1.54.15c47.1,22.82,90.22,47.37,128.68,73.28C1826.93,1130.16,1847.4,1152,1864.61,1174.33Z"/><path class="cls-3" d="M1862.71,1176c-42.31-49.3-106.43-95.82-190.57-138.27l-11.94-6,15.7,1.7c47.13,22.83,90.53,47.55,129,73.46,24,21.74,44.66,43.87,61.7,66Zm-74.64-74.27q12.33,9,23.63,18.23-4.86-4.61-9.89-9.18Q1795,1106.2,1788.07,1101.69Z"/><path class="cls-4" d="M2009.48,1425.1c-24,252-484.62,365.69-1034.38,313.31s-980.61-251-956.6-503C31.15,1102.57,166.38,994.81,372,930.27l3.1.7c-146.67,50.11-240,125.55-248.72,217.14-8.13,85.41,59.78,159.13,179.22,219.18,108.72,46.62,222.91,82.77,341.92,109.93l-9.69-43.14a27.56,27.56,0,0,1,12.85-29.73l36.69-21.71A47.67,47.67,0,0,1,710,1376l57.31-2c5.86-.2,7.35,8,1.79,9.9l-26.55,8.91a45.45,45.45,0,0,0-21.31,15l-16,20.34a29.93,29.93,0,0,0-.59,36.21l21.48,29.25c135.1,25.93,276,41,421.7,47,424.37,22,755.27-43.92,772.2-221.67,9.63-101-85.65-202.23-246.77-283.53l1.54.15C1891.63,1140.64,2023.11,1282.05,2009.48,1425.1Z"/><g class="cls-5"><path class="cls-3" d="M1994.48,1415.1c-24,252-484.62,365.69-1034.38,313.31C579.28,1692.13,255.56,1585.7,100.53,1440c172.77,112.9,454.69,194.15,777.73,224.93,549.76,52.37,1010.36-61.31,1034.37-313.31,3-31.76-1.08-63.44-11.72-94.64a.22.22,0,0,0,0-.11c-7.88-31.19-25.23-62.12-50.9-92.09l-.36-.44c-42.68-49.72-108.24-96.95-191.34-138.87l1.54.15c47.1,22.82,90.22,47.37,128.68,73.28C1926.92,1192.19,2005.14,1303.16,1994.48,1415.1Z"/></g><path class="cls-4" d="M698.32,1063.85l-68.53-6.53-45.06-54.24-148.36,10.84-129.8-60.74L205.85,990.9l213.23,46.34,149.28,3.38,64.88,50.79,65.89-15C706.17,1074.77,705.51,1064.53,698.32,1063.85Z"/><path class="cls-4" d="M1345.94,921.38,1275,980.11l-72.22,6a35.93,35.93,0,0,0-31.91,27.08l-15.66,62.46a4.94,4.94,0,0,0,9,3.8l42.64-69.18,116.79,2.15,110.53-67.75"/><g class="cls-6"><path class="cls-7" d="M1987.41,1304.62c-54.89-83.89-155.88-162.07-289-226.58-165.1-80-379.68-139-617.35-161.63-260-24.78-501-1.63-685.48,56.29C190,1037.24,54.73,1145,42.08,1277.85c-3.56,37.33,2.84,73.45,18.17,108.16-31.86-47.29-46.79-97.78-41.75-150.59C31.15,1102.57,166.38,994.81,372,930.27,556.4,872.35,797.44,849.21,1057.46,874c237.67,22.64,452.25,81.61,617.35,161.63C1830.17,1110.88,1941.72,1204.78,1987.41,1304.62Z"/></g><polyline class="cls-4" points="1282.99 1300.64 1449.3 1347.45 1478.64 1408.57 1580.45 1429.43 1729.33 1520.63 1584.05 1549.85 1552.63 1457.86 1426.99 1458.64 1429.02 1367.05 1278.15 1351.51"/><path class="cls-3" d="M1229.87,1768.36c-82.47,0-168.44-4.14-256.45-12.53-275.58-26.25-524.08-89.63-699.71-178.44C83.11,1481-11.18,1362.17,1.06,1233.76,13.36,1104.68,132,994.68,335,924,533.6,855,790.75,831,1059.1,856.57s516.35,97.66,698.3,203c186.08,107.72,281.79,238.13,269.49,367.21-12.24,128.42-127.26,227.3-332.64,286C1565.44,1749.52,1405.66,1768.36,1229.87,1768.36ZM851.77,881.58c-187.55,0-362.16,25.75-505.23,75.52-189.4,65.88-299.72,165.31-310.64,280-13.58,142.58,130.41,246.78,253.6,309.07,171.83,86.9,415.9,149,687.24,174.84s522.75,11,707.9-41.92c132.74-37.92,293.82-113,307.4-255.63l17.42,1.66-17.42-1.66c10.93-114.66-78.63-233.14-252.18-333.6C1562.18,987,1319.23,916.52,1055.78,891.42,986.7,884.83,918.42,881.58,851.77,881.58Z"/><path class="cls-3" d="M303.35,1371.77a368.58,368.58,0,0,1-75.16-34.48c-23.78-14.4-46.45-31.54-65.87-52.69s-35.65-46.29-44.2-75L115,1198.9c-.76-3.65-1.35-7.35-2-11a71.71,71.71,0,0,1-1.43-11.11l-.76-11.19c-.14-3.73.2-7.46.29-11.18s.12-7.48.84-11.14c1.25-7.32,1.86-14.8,4.17-21.88,7.45-28.84,22.55-54.86,41.12-76.74s40.56-40.22,63.68-56,47.61-29.16,72.6-41.06c25.09-11.69,50.8-21.65,76.75-30.75a15,15,0,1,1,9.93,28.3l-.23.09c-25.05,8.79-49.78,18.38-73.7,29.53-23.81,11.32-46.89,24-68.4,38.64s-41.4,31.36-57.75,50.67-28.85,41.25-34.95,64.82c-2,5.8-2.33,11.91-3.42,17.88-.65,3-.49,6-.68,9s-.38,6.06-.26,9.07c.61,6,.47,12.09,2,18l1.74,8.88,2.69,8.69c7.25,23.24,22.11,43.87,38.83,62.76,16.93,18.89,36.45,36.12,57.17,52.3s42.64,31.43,64.65,47.39l0,0a5.05,5.05,0,0,1-4.53,8.9Z"/><path class="cls-3" d="M788.93,1508.71c-22.67,1.15-45-.42-67.18-2.84a662.2,662.2,0,0,1-66-11.14C634,1490,612.36,1484.45,591,1477.81s-42.47-14.1-62.92-23.61a5.07,5.07,0,0,1,2.63-9.65c22.33,2.14,44.17,5.67,66,9.14s43.47,7.61,65.1,11.83,43.19,8.76,64.65,14.08,42.85,11.21,64,19.23a5.11,5.11,0,0,1-1.54,9.88Z"/><path class="cls-3" d="M1680,1022.09c47.35,24,93.36,51.42,135.46,84.93,21,16.8,41,35.15,58.93,55.77s33.79,43.57,45.18,69.31,17.65,54.54,15.69,83.39c-.13,1.8-.19,3.6-.39,5.4l-.8,5.35-1.65,10.72c-.63,3.55-1.8,7-2.69,10.51-1,3.46-1.71,7.06-3.13,10.39l-4,10.08c-.7,1.66-1.32,3.37-2.1,5l-2.55,4.76-5.15,9.5c-1.82,3.1-4,6-6,8.93-16.27,23.59-37.58,42.52-60.34,57.88s-47.3,27.46-72.22,37.68a629.87,629.87,0,0,1-76.19,25.45c-25.75,6.9-51.67,13-77.77,17.7-26.08,5-52.26,9-78.49,12.42q-39.37,4.86-78.9,7.75c-13.16,1-26.35,1.53-39.53,2.12s-26.35.88-39.52,1.28q-39.54.75-79-.43a1560.51,1560.51,0,0,1-157.28-12.31,5,5,0,0,1,.52-10c104.78-2.78,209-4.32,312.49-12.54,51.74-3.89,103.37-9.19,154.21-18.32s101-21.66,148.11-40.9c23.48-9.62,46.2-20.9,66.8-34.78s39-30.47,52.43-50c1.64-2.47,3.48-4.83,5-7.38l4.18-7.78,2.12-3.87c.64-1.32,1.1-2.71,1.67-4.06l3.29-8.14c1.19-2.68,1.63-5.61,2.5-8.4.7-2.83,1.71-5.59,2.19-8.48l1.32-8.69.68-4.35c.17-1.46.2-2.93.31-4.4,1.58-23.48-3.43-47.26-13.22-69.39s-23.85-42.87-40.34-61.69-35.16-36.11-55-52c-39.88-31.75-84.27-58.29-130.25-81.58l0,0a15,15,0,0,1,13.55-26.76Z"/><g class="cls-5"><path class="cls-3" d="M346.82,1227.77c57.05,171.19,415,176,286.17,41.92"/></g><g class="cls-5"><path class="cls-3" d="M581.09,907.07c57,171.18,415,175.95,286.17,41.91"/></g><g class="cls-5"><path class="cls-3" d="M1096.11,1334.17c57.05,171.18,364.41,131.1,235.55-2.93"/></g><g class="cls-5"><path class="cls-3" d="M1435.52,1158.91c57,171.18,319.07,116.48,190.21-17.56"/></g><g class="cls-5"><path class="cls-3" d="M896.76,1138.63c33.15,99.47,205.16,79.77,130.28,1.89"/></g><path class="cls-9" d="M1605.71,1204.48c24.38-7,35.21-35.45,23.11-57.76-41.84-77.17-141.33-81.11-184.32-36.66-14.92,15.1-14.22,33.85,2.1,42.25a33.71,33.71,0,0,0,16.29,3.55c7.9-.21,27.75,2.37,41.69,30.88C1510.08,1198,1566.78,1215.74,1605.71,1204.48Z"/><path class="cls-3" d="M1577.46,1210.58c-34.35,0-70.27-12.82-75.13-22.74-13.3-27.2-32-29.66-39.38-29.48a36.53,36.53,0,0,1-17.5-3.83c-7.71-4-12.62-10.37-13.84-18-1.48-9.27,2.57-19.55,11.11-28.19,21.57-22.31,57.54-33.09,93.93-28.11a125.73,125.73,0,0,1,94.37,65.32,43.38,43.38,0,0,1,1.92,37.56,41.12,41.12,0,0,1-26.54,23.8h0A105.22,105.22,0,0,1,1577.46,1210.58Zm-113.76-57.23c8.9,0,29,3.48,43.13,32.29,4.81,9.83,60.27,27.41,98.19,16.44h0a36.11,36.11,0,0,0,23.3-20.93,38.38,38.38,0,0,0-1.69-33.24,120.81,120.81,0,0,0-90.66-62.76c-34.82-4.76-69.17,5.46-89.68,26.65-7.42,7.52-11,16.23-9.74,23.92,1,6.13,4.85,11.1,11.19,14.37a30.44,30.44,0,0,0,15.08,3.27Z"/><g class="cls-6"><path class="cls-7" d="M1631.42,1180c-.37-.84-.8-1.68-1.22-2.47-41.82-77.17-141.35-81.12-184.31-36.65a40.41,40.41,0,0,0-5.58,6.9c-9.89-9.48-8.47-25,4.2-37.77,43-44.42,142.49-40.52,184.31,36.65A41.12,41.12,0,0,1,1631.42,1180Z"/></g><path class="cls-9" d="M594.36,1306.62c36.54-10.56,52.76-53.12,34.63-86.56-62.69-115.62-211.78-121.53-276.2-54.92-22.35,22.63-21.3,50.72,3.15,63.31a50.47,50.47,0,0,0,24.41,5.31c11.84-.31,41.59,3.56,62.48,46.27C451.07,1296.88,536,1323.49,594.36,1306.62Z"/><path class="cls-3" d="M551.69,1314.55c-50.9,0-104-18.8-111.11-33.42-20.24-41.39-48.87-45.2-60.16-44.87a53.29,53.29,0,0,1-25.62-5.59c-11.19-5.76-18.32-15-20.09-26.11-2.15-13.5,3.8-28.51,16.31-41.17,32.06-33.15,85.56-49.18,139.68-41.77,60.24,8.24,111.44,43.68,140.49,97.25a63.7,63.7,0,0,1,2.81,55.2,60.28,60.28,0,0,1-39,35h0C581.62,1312.91,566.75,1314.55,551.69,1314.55Zm-170.12-83.31c13.06,0,42.7,5.15,63.5,47.69,7.32,15,91.28,41.87,148.59,25.29h0a55.35,55.35,0,0,0,35.73-32.08,58.72,58.72,0,0,0-2.6-50.89c-28.27-52.15-78.13-86.66-136.76-94.67-52.54-7.21-104.45,8.25-135.44,40.3-11.4,11.54-16.84,25-14.94,36.9,1.53,9.6,7.56,17.36,17.43,22.45a48,48,0,0,0,23.21,5Z"/><g class="cls-6"><path class="cls-7" d="M631.89,1272.51a63.53,63.53,0,0,0-6.24-17.22c-62.72-115.62-211.78-121.53-276.24-54.89a63.3,63.3,0,0,0-9.56,12.25c-6.71-13.85-2.42-32,12.92-47.49,64.46-66.64,213.52-60.73,276.23,54.89A61.14,61.14,0,0,1,631.89,1272.51Z"/></g><path class="cls-3" d="M552.58,1326.77c-53.62,0-112.83-18.89-123.23-40.15-17.05-34.87-39.49-38.15-48.6-37.87a65.27,65.27,0,0,1-31.68-7c-14.81-7.62-24.29-20.15-26.7-35.25-2.78-17.48,4.42-36.41,19.75-51.93,34.68-35.87,92.32-53.29,150.28-45.36,64.22,8.78,118.81,46.57,149.78,103.67a76.14,76.14,0,0,1,3.35,66,72.73,72.73,0,0,1-47,42.14C584.76,1325,568.93,1326.77,552.58,1326.77ZM456,1272.89c10,11.31,82.92,34.13,134.16,19.32h0a42.34,42.34,0,0,0,27.67-24.9,46.29,46.29,0,0,0-2.05-40.1C589.44,1178.6,543,1146.43,488.33,1139c-48.69-6.66-96.48,7.37-124.76,36.61-8.66,8.77-12.84,18.29-11.57,26.24.89,5.59,4.52,10.07,10.8,13.3a35.81,35.81,0,0,0,17.16,3.65C394.7,1218.38,431.33,1222.89,456,1272.89Z"/><path class="cls-3" d="M1577,1223.09c-37.82,0-78.1-13.88-85.87-29.76-10.12-20.69-22.86-22.65-27.82-22.48a48.41,48.41,0,0,1-23.57-5.21c-11.32-5.83-18.59-15.48-20.45-27.17-2.12-13.25,3.19-27.45,14.56-39,24.19-25,64.32-37.2,104.51-31.71A138.13,138.13,0,0,1,1642,1139.56a55.75,55.75,0,0,1,2.45,48.34,53.48,53.48,0,0,1-34.59,31h0A119.48,119.48,0,0,1,1577,1223.09Zm28.73-18.61h0Zm-88.29-25.61c8.22,6.71,52.68,20.29,84.12,11.2a23.33,23.33,0,0,0,15.25-13.75,25.92,25.92,0,0,0-1.15-22.45,108.39,108.39,0,0,0-81.36-56.33c-31-4.24-61.22,4.56-79,23-5.43,5.5-6.84,10.43-6.39,13.26.12.77.5,3.13,4.57,5.22a18.93,18.93,0,0,0,9,1.89C1473.15,1140.57,1499.65,1143.75,1517.42,1178.87Z"/><path class="cls-9" d="M1331.66,1331.24c-1.67-132.81-146-132.22-221.22-45.86a50.19,50.19,0,0,0,20,80.28c46.55,17.79,110.16,22.32,156.09,17.18C1312.53,1379.93,1332,1357.4,1331.66,1331.24Z"/><path class="cls-3" d="M1249.07,1387.28c-38.45,0-83.48-5.51-119.53-19.29a52.69,52.69,0,0,1-21-84.26c43.86-50.33,112.72-73.27,163.73-54.52,39.26,14.42,61.24,50.65,61.88,102h0a53.4,53.4,0,0,1-47.36,54.12A344.29,344.29,0,0,1,1249.07,1387.28Zm-15.14-159.6c-42.2,0-89,21.87-121.61,59.34a47.68,47.68,0,0,0,19,76.3c48.05,18.37,112.45,21.8,154.92,17a48.41,48.41,0,0,0,42.91-49.09h0c-.61-49.13-21.43-83.71-58.6-97.37A106.14,106.14,0,0,0,1233.93,1227.68Z"/><g class="cls-6"><path class="cls-7" d="M1327.18,1295.71c-42.31-59.38-142.86-44.15-201.51,23.14a50.12,50.12,0,0,0-12.51,35.88,50.2,50.2,0,0,1-2.73-69.37C1178.27,1207.54,1302.15,1199.4,1327.18,1295.71Z"/></g><path class="cls-3" d="M1248.32,1399.82c-38.12,0-84.12-5.19-123.24-20.15a65.2,65.2,0,0,1-25.95-104.15c47.14-54.09,121.75-78.51,177.46-58,25.75,9.47,69.11,36.81,70.07,113.58h0a65.86,65.86,0,0,1-58.47,66.7A364,364,0,0,1,1248.32,1399.82Zm-14.69-159.71c-38.51,0-81.59,20.36-111.89,55.12a35.19,35.19,0,0,0,14,56.41c46.09,17.63,108.08,20.88,149.06,16.29,18.07-2,32-18.06,31.81-36.5h0c-.55-44.21-18-73.88-50.41-85.8A94.59,94.59,0,0,0,1233.63,1240.11Z"/><path class="cls-9" d="M866.52,928.54C861.7,795.43,685.67,793,595.68,878c-27.81,26.26-14.53,67.5,26.07,80.86,57.16,18.81,134.85,24.68,190.78,20.49C844.19,976.93,867.46,954.76,866.52,928.54Z"/><path class="cls-3" d="M776.83,983.05c-48.81,0-108.53-6.29-155.86-21.86-21.76-7.17-37.24-22.62-41.42-41.35C576,904,581.28,888.1,594,876.13c55.85-52.73,145.26-73.11,208-47.4,41.53,17,65.35,52.44,67,99.72,1,27.93-23.19,50.86-56.29,53.34C801.8,982.61,789.69,983.05,776.83,983.05ZM741.66,822.61c-50.53,0-105.59,20.65-144.27,57.16-11.36,10.73-16.09,24.94-13,39,3.79,17,18,31.08,38.1,37.68,59.16,19.47,138,24.25,189.82,20.38,30.37-2.28,52.58-23,51.66-48.18-2.09-57.94-35.93-83.79-64-95.27C782.32,826.08,762.37,822.61,741.66,822.61Z"/><g class="cls-6"><path class="cls-7" d="M858.83,888.56c-55.81-52.63-171.56-38-239,25.6-11.43,10.76-15.91,24.05-14.47,36.89-27.3-17.62-33.39-50.74-9.71-73.1C675.56,802.54,823.3,796,858.83,888.56Z"/></g><path class="cls-3" d="M777,995.54c-50,0-111.31-6.47-160-22.48-26-8.55-44.57-27.43-49.72-50.5-4.5-20.21,2.07-40.45,18-55.52,59.21-55.89,154.34-77.32,221.32-49.88,46.34,19,72.91,58.36,74.8,110.84h0c1.26,34.78-27.91,63.26-67.84,66.26C802.52,995.09,790.16,995.54,777,995.54ZM742.38,835.31c-47.58,0-100.39,19.55-136.4,53.55-8.21,7.74-11.53,17.39-9.34,27.17,2.81,12.65,14,23.32,29.8,28.53,57.52,18.93,134.36,23.58,185,19.78,23.15-1.73,40.76-17.22,40.11-35.26h0c-1.85-51.28-31.58-74.07-56.2-84.16C779.43,838.41,761.32,835.31,742.38,835.31Z"/><path class="cls-9" d="M1794,1324.67c-32.79,15.62-59.11,32.76-75.38,52.25-23.9,28.64-15.72,72.14,15.88,91.95,46.12,28.92,91.1,37.81,133.67,4.12a106.35,106.35,0,0,0,38.52-101.59c-5.11-28.41-20.54-49.18-52.76-55.27C1833.69,1312.3,1812.67,1315.8,1794,1324.67Z"/><path class="cls-3" d="M1809.66,1497c-23.42,0-48.79-8.66-76.45-26a66,66,0,0,1-30.08-45.53,62.79,62.79,0,0,1,13.61-50.14c15.48-18.54,40.41-35.85,76.22-52.91h0c19.73-9.39,41.56-12.5,61.47-8.73,30.54,5.76,49,25,54.76,57.28,7,38.72-8.53,79.53-39.43,104C1851.18,1489.65,1831.24,1497,1809.66,1497Zm-14.55-170.07c-35.14,16.74-59.52,33.62-74.53,51.6a57,57,0,0,0-12.51,46.15,60.89,60.89,0,0,0,27.8,42.07c51.83,32.51,93.39,33.86,130.78,4.28,29.48-23.33,44.25-62.26,37.61-99.19-5.46-30.41-22.06-47.83-50.76-53.25-18.89-3.56-39.62-.6-58.39,8.34Z"/><g class="cls-6"><path class="cls-7" d="M1904.69,1362.58c-8.06-7.19-18.57-12.26-32-14.8-20.28-3.84-41.26-.31-59.93,8.56-32.78,15.61-59.08,32.74-75.35,52.24a60.19,60.19,0,0,0-12.06,53.29c-23.79-21.8-28.1-59.33-6.72-85,16.27-19.49,42.62-36.62,75.39-52.23,18.63-8.88,39.65-12.35,59.94-8.56C1882.73,1321.57,1898.12,1338.75,1904.69,1362.58Z"/></g><path class="cls-9" d="M958.52,1064.73c-20.15,9.6-36.33,20.13-46.32,32.11-14.69,17.59-9.66,44.32,9.75,56.5,28.34,17.77,56,23.23,82.14,2.53a65.32,65.32,0,0,0,23.67-62.43c-3.13-17.46-12.62-30.22-32.42-34A60,60,0,0,0,958.52,1064.73Z"/><path class="cls-3" d="M968.13,1171.61c-14.57,0-30.33-5.38-47.5-16.15a41.48,41.48,0,0,1-18.93-28.64,39.52,39.52,0,0,1,8.58-31.58c9.59-11.5,25-22.22,47.16-32.77h0c12.31-5.86,25.92-7.8,38.37-5.44,19.2,3.62,30.78,15.73,34.42,36a68.29,68.29,0,0,1-24.58,64.83C994,1167,981.59,1171.61,968.13,1171.61ZM959.59,1067c-21.47,10.24-36.35,20.52-45.47,31.46a34.06,34.06,0,0,0-7.48,27.59,36.47,36.47,0,0,0,16.64,25.19c31.46,19.74,56.66,20.59,79.26,2.69a63.19,63.19,0,0,0,22.76-60c-3.27-18.25-13.22-28.7-30.42-32a58,58,0,0,0-35.29,5Z"/><g class="cls-6"><path class="cls-7" d="M1028.57,1108.7c-5.21-9.19-13.79-15.58-26.91-18.09a60.07,60.07,0,0,0-36.87,5.28c-20.1,9.59-36.26,20.1-46.3,32.1a36.8,36.8,0,0,0-7.51,15c-9.71-13.53-10.1-32.56,1.24-46.14,10-12,26.15-22.52,46.3-32.16a60.23,60.23,0,0,1,36.82-5.23c19.78,3.75,29.31,16.51,32.42,34A60.3,60.3,0,0,1,1028.57,1108.7Z"/></g><path class="cls-3" d="M1809.81,1509.75c-25.67,0-53.29-9.39-83.24-28.17a78.38,78.38,0,0,1-35.78-54.16,75.25,75.25,0,0,1,16.36-60.11c16.65-20,43-38.33,80.44-56.18h0c22.42-10.68,46.34-14.05,69.16-9.74,35.65,6.74,58,30,64.74,67.36a120.51,120.51,0,0,1-44,116C1856.46,1501.41,1834,1509.75,1809.81,1509.75Zm-9.32-171.54c-33.49,16-56.49,31.76-70.31,48.33a44.64,44.64,0,0,0-9.76,36.17,48.4,48.4,0,0,0,22.09,33.45c47.37,29.71,83.27,31.27,116.39,5.07a91.8,91.8,0,0,0,33.06-87.18c-4.5-25-17.46-38.77-40.78-43.18-16.29-3.08-34.29-.47-50.69,7.34Z"/><path class="cls-3" d="M968.26,1184.11q-25.41,0-54.27-18.06a54,54,0,0,1-24.63-37.27,52,52,0,0,1,11.32-41.55c10.78-12.91,27.58-24.7,51.39-36h0c14.89-7.1,30.81-9.34,46.06-6.45,24.46,4.62,39.82,20.55,44.4,46a79.84,79.84,0,0,1-29.13,76.84C999.52,1178.62,984.43,1184.11,968.26,1184.11ZM965,1078.27c-19.54,9.31-33.42,18.79-41.25,28.18a21.68,21.68,0,0,0-4.73,17.62,24,24,0,0,0,10.93,16.56c27.08,17,46.47,18,64.87,3.48a50.56,50.56,0,0,0,18.21-48c-2.35-13.07-8.46-19.62-20.44-21.88a45.43,45.43,0,0,0-27.59,4Z"/><polygon class="cls-4" points="748.9 1282.06 787.76 1242.81 860.05 1235.05 924.39 1209.79 867.74 1262.15 813.2 1265.59 748.9 1282.06"/></svg>