<svg id="Layer_1" data-name="Layer 1" xmlns="http://www.w3.org/2000/svg" viewBox="0 0 2377.93 1768.36"><defs><style>.cls-1{fill:#ffa840;}.cls-2{fill:#feb85b;}.cls-3{fill:#650000;}.cls-4{fill:#ef6a20;}.cls-5{opacity:0.3;}.cls-6{opacity:0.55;}.cls-7{fill:#fff;}.cls-8{fill:#77223c;}</style></defs><path class="cls-1" d="M2009.48,1425.1c-24,252-484.62,365.69-1034.38,313.31s-980.61-251-956.6-503C31.15,1102.57,166.38,994.81,372,930.27,556.4,872.35,797.44,849.21,1057.46,874c237.67,22.64,452.25,81.61,617.35,161.63C1891.63,1140.64,2023.11,1282.05,2009.48,1425.1Z"/><path class="cls-2" d="M1864.61,1174.33c-42.68-49.72-108.24-96.95-191.34-138.87l1.54.15c47.1,22.82,90.22,47.37,128.68,73.28C1826.93,1130.16,1847.4,1152,1864.61,1174.33Z"/><path class="cls-3" d="M1862.71,1176c-42.31-49.3-106.43-95.82-190.57-138.27l-11.94-6,15.7,1.7c47.13,22.83,90.53,47.55,129,73.46,24,21.74,44.66,43.87,61.7,66Zm-74.64-74.27q12.33,9,23.63,18.23-4.86-4.61-9.89-9.18Q1795,1106.2,1788.07,1101.69Z"/><path class="cls-4" d="M2009.48,1425.1c-24,252-484.62,365.69-1034.38,313.31s-980.61-251-956.6-503C31.15,1102.57,166.38,994.81,372,930.27l3.1.7c-146.67,50.11-240,125.55-248.72,217.14-8.13,85.41,59.78,159.13,179.22,219.18,108.72,46.62,222.91,82.77,341.92,109.93l-9.69-43.14a27.56,27.56,0,0,1,12.85-29.73l36.69-21.71A47.67,47.67,0,0,1,710,1376l57.31-2c5.86-.2,7.35,8,1.79,9.9l-26.55,8.91a45.45,45.45,0,0,0-21.31,15l-16,20.34a29.93,29.93,0,0,0-.59,36.21l21.48,29.25c135.1,25.93,276,41,421.7,47,424.37,22,755.27-43.92,772.2-221.67,9.63-101-85.65-202.23-246.77-283.53l1.54.15C1891.63,1140.64,2023.11,1282.05,2009.48,1425.1Z"/><g class="cls-5"><path class="cls-3" d="M1994.48,1415.1c-24,252-484.62,365.69-1034.38,313.31C579.28,1692.13,255.56,1585.7,100.53,1440c172.77,112.9,454.69,194.15,777.73,224.93,549.76,52.37,1010.36-61.31,1034.37-313.31,3-31.76-1.08-63.44-11.72-94.64a.22.22,0,0,0,0-.11c-7.88-31.19-25.23-62.12-50.9-92.09l-.36-.44c-42.68-49.72-108.24-96.95-191.34-138.87l1.54.15c47.1,22.82,90.22,47.37,128.68,73.28C1926.92,1192.19,2005.14,1303.16,1994.48,1415.1Z"/></g><path class="cls-4" d="M698.32,1063.85l-68.53-6.53-45.06-54.24-148.36,10.84-129.8-60.74L205.85,990.9l213.23,46.34,149.28,3.38,64.88,50.79,65.89-15C706.17,1074.77,705.51,1064.53,698.32,1063.85Z"/><path class="cls-4" d="M1345.94,921.38,1275,980.11l-72.22,6a35.93,35.93,0,0,0-31.91,27.08l-15.66,62.46a4.94,4.94,0,0,0,9,3.8l42.64-69.18,116.79,2.15,110.53-67.75"/><g class="cls-6"><path class="cls-7" d="M1987.41,1304.62c-54.89-83.89-155.88-162.07-289-226.58-165.1-80-379.68-139-617.35-161.63-260-24.78-501-1.63-685.48,56.29C190,1037.24,54.73,1145,42.08,1277.85c-3.56,37.33,2.84,73.45,18.17,108.16-31.86-47.29-46.79-97.78-41.75-150.59C31.15,1102.57,166.38,994.81,372,930.27,556.4,872.35,797.44,849.21,1057.46,874c237.67,22.64,452.25,81.61,617.35,161.63C1830.17,1110.88,1941.72,1204.78,1987.41,1304.62Z"/></g><polyline class="cls-4" points="1282.99 1300.64 1449.3 1347.45 1478.64 1408.57 1580.45 1429.43 1729.33 1520.63 1584.05 1549.85 1552.63 1457.86 1426.99 1458.64 1429.02 1367.05 1278.15 1351.51"/><path class="cls-3" d="M1229.87,1768.36c-82.47,0-168.44-4.14-256.45-12.53-275.58-26.25-524.08-89.63-699.71-178.44C83.11,1481-11.18,1362.17,1.06,1233.76,13.36,1104.68,132,994.68,335,924,533.6,855,790.75,831,1059.1,856.57s516.35,97.66,698.3,203c186.08,107.72,281.79,238.13,269.49,367.21-12.24,128.42-127.26,227.3-332.64,286C1565.44,1749.52,1405.66,1768.36,1229.87,1768.36ZM851.77,881.58c-187.55,0-362.16,25.75-505.23,75.52-189.4,65.88-299.72,165.31-310.64,280-13.58,142.58,130.41,246.78,253.6,309.07,171.83,86.9,415.9,149,687.24,174.84s522.75,11,707.9-41.92c132.74-37.92,293.82-113,307.4-255.63l17.42,1.66-17.42-1.66c10.93-114.66-78.63-233.14-252.18-333.6C1562.18,987,1319.23,916.52,1055.78,891.42,986.7,884.83,918.42,881.58,851.77,881.58Z"/><path class="cls-3" d="M303.35,1371.77a368.58,368.58,0,0,1-75.16-34.48c-23.78-14.4-46.45-31.54-65.87-52.69s-35.65-46.29-44.2-75L115,1198.9c-.76-3.65-1.35-7.35-2-11a71.71,71.71,0,0,1-1.43-11.11l-.76-11.19c-.14-3.73.2-7.46.29-11.18s.12-7.48.84-11.14c1.25-7.32,1.86-14.8,4.17-21.88,7.45-28.84,22.55-54.86,41.12-76.74s40.56-40.22,63.68-56,47.61-29.16,72.6-41.06c25.09-11.69,50.8-21.65,76.75-30.75a15,15,0,1,1,9.93,28.3l-.23.09c-25.05,8.79-49.78,18.38-73.7,29.53-23.81,11.32-46.89,24-68.4,38.64s-41.4,31.36-57.75,50.67-28.85,41.25-34.95,64.82c-2,5.8-2.33,11.91-3.42,17.88-.65,3-.49,6-.68,9s-.38,6.06-.26,9.07c.61,6,.47,12.09,2,18l1.74,8.88,2.69,8.69c7.25,23.24,22.11,43.87,38.83,62.76,16.93,18.89,36.45,36.12,57.17,52.3s42.64,31.43,64.65,47.39l0,0a5.05,5.05,0,0,1-4.53,8.9Z"/><path class="cls-3" d="M788.93,1508.71c-22.67,1.15-45-.42-67.18-2.84a662.2,662.2,0,0,1-66-11.14C634,1490,612.36,1484.45,591,1477.81s-42.47-14.1-62.92-23.61a5.07,5.07,0,0,1,2.63-9.65c22.33,2.14,44.17,5.67,66,9.14s43.47,7.61,65.1,11.83,43.19,8.76,64.65,14.08,42.85,11.21,64,19.23a5.11,5.11,0,0,1-1.54,9.88Z"/><path class="cls-3" d="M1680,1022.09c47.35,24,93.36,51.42,135.46,84.93,21,16.8,41,35.15,58.93,55.77s33.79,43.57,45.18,69.31,17.65,54.54,15.69,83.39c-.13,1.8-.19,3.6-.39,5.4l-.8,5.35-1.65,10.72c-.63,3.55-1.8,7-2.69,10.51-1,3.46-1.71,7.06-3.13,10.39l-4,10.08c-.7,1.66-1.32,3.37-2.1,5l-2.55,4.76-5.15,9.5c-1.82,3.1-4,6-6,8.93-16.27,23.59-37.58,42.52-60.34,57.88s-47.3,27.46-72.22,37.68a629.87,629.87,0,0,1-76.19,25.45c-25.75,6.9-51.67,13-77.77,17.7-26.08,5-52.26,9-78.49,12.42q-39.37,4.86-78.9,7.75c-13.16,1-26.35,1.53-39.53,2.12s-26.35.88-39.52,1.28q-39.54.75-79-.43a1560.51,1560.51,0,0,1-157.28-12.31,5,5,0,0,1,.52-10c104.78-2.78,209-4.32,312.49-12.54,51.74-3.89,103.37-9.19,154.21-18.32s101-21.66,148.11-40.9c23.48-9.62,46.2-20.9,66.8-34.78s39-30.47,52.43-50c1.64-2.47,3.48-4.83,5-7.38l4.18-7.78,2.12-3.87c.64-1.32,1.1-2.71,1.67-4.06l3.29-8.14c1.19-2.68,1.63-5.61,2.5-8.4.7-2.83,1.71-5.59,2.19-8.48l1.32-8.69.68-4.35c.17-1.46.2-2.93.31-4.4,1.58-23.48-3.43-47.26-13.22-69.39s-23.85-42.87-40.34-61.69-35.16-36.11-55-52c-39.88-31.75-84.27-58.29-130.25-81.58l0,0a15,15,0,0,1,13.55-26.76Z"/><g class="cls-5"><path class="cls-3" d="M346.82,1227.77c57.05,171.19,415,176,286.17,41.92"/></g><g class="cls-5"><path class="cls-3" d="M581.09,907.07c57,171.18,415,175.95,286.17,41.91"/></g><g class="cls-5"><path class="cls-3" d="M1096.11,1334.17c57.05,171.18,364.41,131.1,235.55-2.93"/></g><g class="cls-5"><path class="cls-3" d="M1435.52,1158.91c57,171.18,319.07,116.48,190.21-17.56"/></g><g class="cls-5"><path class="cls-3" d="M896.76,1138.63c33.15,99.47,205.16,79.77,130.28,1.89"/></g><path class="cls-8" d="M1605.71,1204.48c24.38-7,35.21-35.45,23.11-57.76-41.84-77.17-141.33-81.11-184.32-36.66-14.92,15.1-14.22,33.85,2.1,42.25a33.71,33.71,0,0,0,16.29,3.55c7.9-.21,27.75,2.37,41.69,30.88C1510.08,1198,1566.78,1215.74,1605.71,1204.48Z"/><path class="cls-3" d="M1577.46,1210.58c-34.35,0-70.27-12.82-75.13-22.74-13.3-27.2-32-29.66-39.38-29.48a36.53,36.53,0,0,1-17.5-3.83c-7.71-4-12.62-10.37-13.84-18-1.48-9.27,2.57-19.55,11.11-28.19,21.57-22.31,57.54-33.09,93.93-28.11a125.73,125.73,0,0,1,94.37,65.32,43.38,43.38,0,0,1,1.92,37.56,41.12,41.12,0,0,1-26.54,23.8h0A105.22,105.22,0,0,1,1577.46,1210.58Zm-113.76-57.23c8.9,0,29,3.48,43.13,32.29,4.81,9.83,60.27,27.41,98.19,16.44h0a36.11,36.11,0,0,0,23.3-20.93,38.38,38.38,0,0,0-1.69-33.24,120.81,120.81,0,0,0-90.66-62.76c-34.82-4.76-69.17,5.46-89.68,26.65-7.42,7.52-11,16.23-9.74,23.92,1,6.13,4.85,11.1,11.19,14.37a30.44,30.44,0,0,0,15.08,3.27Z"/><g class="cls-6"><path class="cls-7" d="M1631.42,1180c-.37-.84-.8-1.68-1.22-2.47-41.82-77.17-141.35-81.12-184.31-36.65a40.41,40.41,0,0,0-5.58,6.9c-9.89-9.48-8.47-25,4.2-37.77,43-44.42,142.49-40.52,184.31,36.65A41.12,41.12,0,0,1,1631.42,1180Z"/></g><path class="cls-8" d="M594.36,1306.62c36.54-10.56,52.76-53.12,34.63-86.56-62.69-115.62-211.78-121.53-276.2-54.92-22.35,22.63-21.3,50.72,3.15,63.31a50.47,50.47,0,0,0,24.41,5.31c11.84-.31,41.59,3.56,62.48,46.27C451.07,1296.88,536,1323.49,594.36,1306.62Z"/><path class="cls-3" d="M551.69,1314.55c-50.9,0-104-18.8-111.11-33.42-20.24-41.39-48.87-45.2-60.16-44.87a53.29,53.29,0,0,1-25.62-5.59c-11.19-5.76-18.32-15-20.09-26.11-2.15-13.5,3.8-28.51,16.31-41.17,32.06-33.15,85.56-49.18,139.68-41.77,60.24,8.24,111.44,43.68,140.49,97.25a63.7,63.7,0,0,1,2.81,55.2,60.28,60.28,0,0,1-39,35h0C581.62,1312.91,566.75,1314.55,551.69,1314.55Zm-170.12-83.31c13.06,0,42.7,5.15,63.5,47.69,7.32,15,91.28,41.87,148.59,25.29h0a55.35,55.35,0,0,0,35.73-32.08,58.72,58.72,0,0,0-2.6-50.89c-28.27-52.15-78.13-86.66-136.76-94.67-52.54-7.21-104.45,8.25-135.44,40.3-11.4,11.54-16.84,25-14.94,36.9,1.53,9.6,7.56,17.36,17.43,22.45a48,48,0,0,0,23.21,5Z"/><g class="cls-6"><path class="cls-7" d="M631.89,1272.51a63.53,63.53,0,0,0-6.24-17.22c-62.72-115.62-211.78-121.53-276.24-54.89a63.3,63.3,0,0,0-9.56,12.25c-6.71-13.85-2.42-32,12.92-47.49,64.46-66.64,213.52-60.73,276.23,54.89A61.14,61.14,0,0,1,631.89,1272.51Z"/></g><path class="cls-3" d="M552.58,1326.77c-53.62,0-112.83-18.89-123.23-40.15-17.05-34.87-39.49-38.15-48.6-37.87a65.27,65.27,0,0,1-31.68-7c-14.81-7.62-24.29-20.15-26.7-35.25-2.78-17.48,4.42-36.41,19.75-51.93,34.68-35.87,92.32-53.29,150.28-45.36,64.22,8.78,118.81,46.57,149.78,103.67a76.14,76.14,0,0,1,3.35,66,72.73,72.73,0,0,1-47,42.14C584.76,1325,568.93,1326.77,552.58,1326.77ZM456,1272.89c10,11.31,82.92,34.13,134.16,19.32h0a42.34,42.34,0,0,0,27.67-24.9,46.29,46.29,0,0,0-2.05-40.1C589.44,1178.6,543,1146.43,488.33,1139c-48.69-6.66-96.48,7.37-124.76,36.61-8.66,8.77-12.84,18.29-11.57,26.24.89,5.59,4.52,10.07,10.8,13.3a35.81,35.81,0,0,0,17.16,3.65C394.7,1218.38,431.33,1222.89,456,1272.89Z"/><path class="cls-3" d="M1577,1223.09c-37.82,0-78.1-13.88-85.87-29.76-10.12-20.69-22.86-22.65-27.82-22.48a48.41,48.41,0,0,1-23.57-5.21c-11.32-5.83-18.59-15.48-20.45-27.17-2.12-13.25,3.19-27.45,14.56-39,24.19-25,64.32-37.2,104.51-31.71A138.13,138.13,0,0,1,1642,1139.56a55.75,55.75,0,0,1,2.45,48.34,53.48,53.48,0,0,1-34.59,31h0A119.48,119.48,0,0,1,1577,1223.09Zm28.73-18.61h0Zm-88.29-25.61c8.22,6.71,52.68,20.29,84.12,11.2a23.33,23.33,0,0,0,15.25-13.75,25.92,25.92,0,0,0-1.15-22.45,108.39,108.39,0,0,0-81.36-56.33c-31-4.24-61.22,4.56-79,23-5.43,5.5-6.84,10.43-6.39,13.26.12.77.5,3.13,4.57,5.22a18.93,18.93,0,0,0,9,1.89C1473.15,1140.57,1499.65,1143.75,1517.42,1178.87Z"/><path class="cls-8" d="M1331.66,1331.24c-1.67-132.81-146-132.22-221.22-45.86a50.19,50.19,0,0,0,20,80.28c46.55,17.79,110.16,22.32,156.09,17.18C1312.53,1379.93,1332,1357.4,1331.66,1331.24Z"/><path class="cls-3" d="M1249.07,1387.28c-38.45,0-83.48-5.51-119.53-19.29a52.69,52.69,0,0,1-21-84.26c43.86-50.33,112.72-73.27,163.73-54.52,39.26,14.42,61.24,50.65,61.88,102h0a53.4,53.4,0,0,1-47.36,54.12A344.29,344.29,0,0,1,1249.07,1387.28Zm-15.14-159.6c-42.2,0-89,21.87-121.61,59.34a47.68,47.68,0,0,0,19,76.3c48.05,18.37,112.45,21.8,154.92,17a48.41,48.41,0,0,0,42.91-49.09h0c-.61-49.13-21.43-83.71-58.6-97.37A106.14,106.14,0,0,0,1233.93,1227.68Z"/><g class="cls-6"><path class="cls-7" d="M1327.18,1295.71c-42.31-59.38-142.86-44.15-201.51,23.14a50.12,50.12,0,0,0-12.51,35.88,50.2,50.2,0,0,1-2.73-69.37C1178.27,1207.54,1302.15,1199.4,1327.18,1295.71Z"/></g><path class="cls-3" d="M1248.32,1399.82c-38.12,0-84.12-5.19-123.24-20.15a65.2,65.2,0,0,1-25.95-104.15c47.14-54.09,121.75-78.51,177.46-58,25.75,9.47,69.11,36.81,70.07,113.58h0a65.86,65.86,0,0,1-58.47,66.7A364,364,0,0,1,1248.32,1399.82Zm-14.69-159.71c-38.51,0-81.59,20.36-111.89,55.12a35.19,35.19,0,0,0,14,56.41c46.09,17.63,108.08,20.88,149.06,16.29,18.07-2,32-18.06,31.81-36.5h0c-.55-44.21-18-73.88-50.41-85.8A94.59,94.59,0,0,0,1233.63,1240.11Z"/><path class="cls-8" d="M866.52,928.54C861.7,795.43,685.67,793,595.68,878c-27.81,26.26-14.53,67.5,26.07,80.86,57.16,18.81,134.85,24.68,190.78,20.49C844.19,976.93,867.46,954.76,866.52,928.54Z"/><path class="cls-3" d="M776.83,983.05c-48.81,0-108.53-6.29-155.86-21.86-21.76-7.17-37.24-22.62-41.42-41.35C576,904,581.28,888.1,594,876.13c55.85-52.73,145.26-73.11,208-47.4,41.53,17,65.35,52.44,67,99.72,1,27.93-23.19,50.86-56.29,53.34C801.8,982.61,789.69,983.05,776.83,983.05ZM741.66,822.61c-50.53,0-105.59,20.65-144.27,57.16-11.36,10.73-16.09,24.94-13,39,3.79,17,18,31.08,38.1,37.68,59.16,19.47,138,24.25,189.82,20.38,30.37-2.28,52.58-23,51.66-48.18-2.09-57.94-35.93-83.79-64-95.27C782.32,826.08,762.37,822.61,741.66,822.61Z"/><g class="cls-6"><path class="cls-7" d="M858.83,888.56c-55.81-52.63-171.56-38-239,25.6-11.43,10.76-15.91,24.05-14.47,36.89-27.3-17.62-33.39-50.74-9.71-73.1C675.56,802.54,823.3,796,858.83,888.56Z"/></g><path class="cls-3" d="M777,995.54c-50,0-111.31-6.47-160-22.48-26-8.55-44.57-27.43-49.72-50.5-4.5-20.21,2.07-40.45,18-55.52,59.21-55.89,154.34-77.32,221.32-49.88,46.34,19,72.91,58.36,74.8,110.84h0c1.26,34.78-27.91,63.26-67.84,66.26C802.52,995.09,790.16,995.54,777,995.54ZM742.38,835.31c-47.58,0-100.39,19.55-136.4,53.55-8.21,7.74-11.53,17.39-9.34,27.17,2.81,12.65,14,23.32,29.8,28.53,57.52,18.93,134.36,23.58,185,19.78,23.15-1.73,40.76-17.22,40.11-35.26h0c-1.85-51.28-31.58-74.07-56.2-84.16C779.43,838.41,761.32,835.31,742.38,835.31Z"/><path class="cls-8" d="M1794,1324.67c-32.79,15.62-59.11,32.76-75.38,52.25-23.9,28.64-15.72,72.14,15.88,91.95,46.12,28.92,91.1,37.81,133.67,4.12a106.35,106.35,0,0,0,38.52-101.59c-5.11-28.41-20.54-49.18-52.76-55.27C1833.69,1312.3,1812.67,1315.8,1794,1324.67Z"/><path class="cls-3" d="M1809.66,1497c-23.42,0-48.79-8.66-76.45-26a66,66,0,0,1-30.08-45.53,62.79,62.79,0,0,1,13.61-50.14c15.48-18.54,40.41-35.85,76.22-52.91h0c19.73-9.39,41.56-12.5,61.47-8.73,30.54,5.76,49,25,54.76,57.28,7,38.72-8.53,79.53-39.43,104C1851.18,1489.65,1831.24,1497,1809.66,1497Zm-14.55-170.07c-35.14,16.74-59.52,33.62-74.53,51.6a57,57,0,0,0-12.51,46.15,60.89,60.89,0,0,0,27.8,42.07c51.83,32.51,93.39,33.86,130.78,4.28,29.48-23.33,44.25-62.26,37.61-99.19-5.46-30.41-22.06-47.83-50.76-53.25-18.89-3.56-39.62-.6-58.39,8.34Z"/><g class="cls-6"><path class="cls-7" d="M1904.69,1362.58c-8.06-7.19-18.57-12.26-32-14.8-20.28-3.84-41.26-.31-59.93,8.56-32.78,15.61-59.08,32.74-75.35,52.24a60.19,60.19,0,0,0-12.06,53.29c-23.79-21.8-28.1-59.33-6.72-85,16.27-19.49,42.62-36.62,75.39-52.23,18.63-8.88,39.65-12.35,59.94-8.56C1882.73,1321.57,1898.12,1338.75,1904.69,1362.58Z"/></g><path class="cls-8" d="M958.52,1064.73c-20.15,9.6-36.33,20.13-46.32,32.11-14.69,17.59-9.66,44.32,9.75,56.5,28.34,17.77,56,23.23,82.14,2.53a65.32,65.32,0,0,0,23.67-62.43c-3.13-17.46-12.62-30.22-32.42-34A60,60,0,0,0,958.52,1064.73Z"/><path class="cls-3" d="M968.13,1171.61c-14.57,0-30.33-5.38-47.5-16.15a41.48,41.48,0,0,1-18.93-28.64,39.52,39.52,0,0,1,8.58-31.58c9.59-11.5,25-22.22,47.16-32.77h0c12.31-5.86,25.92-7.8,38.37-5.44,19.2,3.62,30.78,15.73,34.42,36a68.29,68.29,0,0,1-24.58,64.83C994,1167,981.59,1171.61,968.13,1171.61ZM959.59,1067c-21.47,10.24-36.35,20.52-45.47,31.46a34.06,34.06,0,0,0-7.48,27.59,36.47,36.47,0,0,0,16.64,25.19c31.46,19.74,56.66,20.59,79.26,2.69a63.19,63.19,0,0,0,22.76-60c-3.27-18.25-13.22-28.7-30.42-32a58,58,0,0,0-35.29,5Z"/><g class="cls-6"><path class="cls-7" d="M1028.57,1108.7c-5.21-9.19-13.79-15.58-26.91-18.09a60.07,60.07,0,0,0-36.87,5.28c-20.1,9.59-36.26,20.1-46.3,32.1a36.8,36.8,0,0,0-7.51,15c-9.71-13.53-10.1-32.56,1.24-46.14,10-12,26.15-22.52,46.3-32.16a60.23,60.23,0,0,1,36.82-5.23c19.78,3.75,29.31,16.51,32.42,34A60.3,60.3,0,0,1,1028.57,1108.7Z"/></g><path class="cls-3" d="M1809.81,1509.75c-25.67,0-53.29-9.39-83.24-28.17a78.38,78.38,0,0,1-35.78-54.16,75.25,75.25,0,0,1,16.36-60.11c16.65-20,43-38.33,80.44-56.18h0c22.42-10.68,46.34-14.05,69.16-9.74,35.65,6.74,58,30,64.74,67.36a120.51,120.51,0,0,1-44,116C1856.46,1501.41,1834,1509.75,1809.81,1509.75Zm-9.32-171.54c-33.49,16-56.49,31.76-70.31,48.33a44.64,44.64,0,0,0-9.76,36.17,48.4,48.4,0,0,0,22.09,33.45c47.37,29.71,83.27,31.27,116.39,5.07a91.8,91.8,0,0,0,33.06-87.18c-4.5-25-17.46-38.77-40.78-43.18-16.29-3.08-34.29-.47-50.69,7.34Z"/><path class="cls-3" d="M968.26,1184.11q-25.41,0-54.27-18.06a54,54,0,0,1-24.63-37.27,52,52,0,0,1,11.32-41.55c10.78-12.91,27.58-24.7,51.39-36h0c14.89-7.1,30.81-9.34,46.06-6.45,24.46,4.62,39.82,20.55,44.4,46a79.84,79.84,0,0,1-29.13,76.84C999.52,1178.62,984.43,1184.11,968.26,1184.11ZM965,1078.27c-19.54,9.31-33.42,18.79-41.25,28.18a21.68,21.68,0,0,0-4.73,17.62,24,24,0,0,0,10.93,16.56c27.08,17,46.47,18,64.87,3.48a50.56,50.56,0,0,0,18.21-48c-2.35-13.07-8.46-19.62-20.44-21.88a45.43,45.43,0,0,0-27.59,4Z"/><polygon class="cls-4" points="748.9 1282.06 787.76 1242.81 860.05 1235.05 924.39 1209.79 867.74 1262.15 813.2 1265.59 748.9 1282.06"/></svg>