<svg xmlns="http://www.w3.org/2000/svg" viewBox="0 0 1377.28 1022.07"><defs><style>.cls-1{fill:#f5af41;}.cls-2{opacity:0.55;}.cls-3{fill:#fff;}.cls-4{opacity:0.4;}.cls-5{fill:#650000;}.cls-6{fill:#792937;}</style></defs><g id="Capa_2" data-name="Capa 2"><g id="Layer_1" data-name="Layer 1"><path class="cls-1" d="M1358.09,582.86c-41.82,260.43-343.64,406.74-741.86,342.78-159-25.56-293-78.11-393.79-148.67a606.31,606.31,0,0,1-68.1-55C48.45,622.86-2,498.74,19.05,367.82,32.86,282,75.36,209.1,140.38,152.16,272.73,36.26,498.46-13.41,765.43,29.48c359,57.66,586.36,249.45,597,477.49A364.34,364.34,0,0,1,1358.09,582.86Z"/><g class="cls-2"><path class="cls-3" d="M931,68.22A1193.8,1193.8,0,0,0,805.86,41.37c-267-42.89-492.7,6.78-625,122.68C115.79,221,73.29,293.9,59.47,379.71,23.76,602.12,194.24,804.88,492.78,899.12c-323.47-88.22-511-299-473.73-531.3C32.86,282,75.36,209.1,140.38,152.16,272.73,36.26,498.46-13.41,765.43,29.48A1160.35,1160.35,0,0,1,931,68.22Z"/></g><g class="cls-4"><path class="cls-5" d="M1251.68,320.23a574.34,574.34,0,0,0-86.35-75.62c-100.78-72.43-236.69-126.33-399.9-152.56-267-42.89-492.7,6.78-625,122.68C77.72,293.61,84.45,366.67,147.17,435a77,77,0,0,1,19.68,61.41c-1.88,15.26-5.73,31.34-10.4,47.75C134,608,192.17,661.07,253.53,606.35a204.89,204.89,0,0,1,47.55-27.19c35.47-4.91,65.12,1.49,89.47,22.23,22.67,19.21,40.82,50.73,54.92,96.94,1.83,6.11,3.66,12.46,5.39,19.1,39.32,89,141.21,92,208.54,40.14,36.05-23.58,76.19-9.48,119.55,34,53.72,47.79,100.4,11.31,155.61-54.92q4.62,2.31,9.24,4.77a255.14,255.14,0,0,1,43,29c17,14.12,11.89,41.46-9,48.83-123.12,43.51-277.67,55.3-450.36,27.58-96.31-15.49-183.46-40.87-259.6-74.2a62.82,62.82,0,0,1-37.8-56.2c-1-59.45-38.59-48.35-38.59-48.35L159.1,715.08,154.34,722a579.09,579.09,0,0,0,46.92,39.56c1.93,1.49,3.85,2.94,5.83,4.43,5,3.7,10.15,7.36,15.35,11,100.83,70.56,234.77,123.11,393.79,148.67,375.45,60.31,665.24-66.32,732.14-299.32a365.62,365.62,0,0,0,9.72-43.46q2.23-13.79,3.37-27.43C1354.1,469.76,1315.93,389.63,1251.68,320.23ZM1026,472.89c-341.71,112.38-525.33-95.15-525.33-95.15,0-86.25,138.37-98.76,188-49.33,41.19,43.84,81.33,68,118.39,36.09,26.19-17.37,52.27-20.74,78.26-1.25,11.31,8.47,24.88,13.48,39,13.05C984.56,374.37,1038.85,389.15,1026,472.89Z"/></g><g class="cls-4"><path class="cls-6" d="M1361.46,555.43c-7.36-85.67-45.53-165.8-109.78-235.2-18-48.76-46.59-94.87-84.71-137C1287,270,1356.65,383.13,1362.42,507A355.9,355.9,0,0,1,1361.46,555.43Z"/><path class="cls-5" d="M1363.86,555.64h-4.8c-7.18-83.56-44.92-164.4-109.15-233.77l-.49-.8c-17.83-48.31-46.17-94.15-84.23-136.25l-15.35-17,18.54,13.41c121,87.49,190.73,203.12,196.45,325.6A360.85,360.85,0,0,1,1363.86,555.64Zm-110.09-236.7c57.73,62.48,94.25,134.19,106.64,208.88q.1-10.38-.39-20.74c-5.36-114.85-67.85-223.69-176.61-308.52C1214.47,236.24,1238.09,276.64,1253.77,318.94Z"/></g><path class="cls-5" d="M1165.33,182.05C1064.55,109.61,928.64,55.71,765.43,29.48c-267-42.89-492.7,6.78-625,122.68C77.72,231,84.45,304.1,147.17,372.44a77,77,0,0,1,19.68,61.42c-1.88,15.25-5.73,31.33-10.4,47.74-22.42,63.87,35.72,116.91,97.08,62.18a204.89,204.89,0,0,1,47.55-27.19c35.47-4.91,65.12,1.49,89.47,22.24,22.67,19.2,40.82,50.72,54.92,96.93,1.83,6.11,3.66,12.46,5.39,19.11,39.32,89,141.21,92,208.54,40.14,36.05-23.59,76.19-9.49,119.55,34,53.72,47.79,100.4,11.31,155.61-54.91q4.62,2.31,9.24,4.76c33.35,17.71,61.89,43.08,85.62,72.53,45.86,56.89,89.42,34,126.1-43,19.2-40.34,57.27-67.87,101.11-76.48,57.23-11.26,97.9-45.48,105.79-124.94C1356.6,382.55,1286.33,269,1165.33,182.05ZM688.62,265.84C729.81,309.68,770,333.89,807,301.94c26.19-17.38,52.27-20.75,78.26-1.26,11.31,8.48,24.88,13.48,39,13.05,60.26-1.93,114.55,12.85,101.7,96.59C684.29,522.7,500.67,315.17,500.67,315.17,500.67,228.92,639,216.41,688.62,265.84Z"/><g class="cls-4"><path class="cls-6" d="M1361.46,555.43q-1.15,13.65-3.37,27.43a365.62,365.62,0,0,1-9.72,43.46c7-15.64,11.84-34.41,14.05-56.79C1362.18,564.82,1361.89,560.1,1361.46,555.43Z"/><path class="cls-5" d="M1350.56,627.31l-4.5-1.66a363.48,363.48,0,0,0,9.65-43.17c1.45-8.89,2.57-18.06,3.35-27.25l4.8,0c.43,4.7.72,9.45,1,14.2C1362.64,591.74,1357.85,611.09,1350.56,627.31Z"/></g><g class="cls-2"><path class="cls-3" d="M170.32,410.56q-2.9-3.17-5.64-6.35a75.87,75.87,0,0,1,2.17,29.65c-1.88,15.25-5.73,31.33-10.4,47.74-11.59,33-1.68,63.1,19.11,76.91-1.88-11.79-.77-25,4-38.79,4.67-16.41,8.52-32.49,10.4-47.74A77,77,0,0,0,170.32,410.56Zm855.92-42.16c2.22,11.55,2.31,25.41-.24,41.92C757,498.78,586,389,525.36,338.27a71.66,71.66,0,0,0-1.54,15S622.75,537,950.6,477.41c19.15-3.48,39-9.89,59.72-16.69,38.8-12.73,50.32-63.65,19-89.88C1028.34,370,1027.31,369.18,1026.24,368.4ZM765.43,29.48c-267-42.89-492.7,6.78-625,122.68-57.27,72.1-56.55,139.38-8.13,202.57-23.3-52-14.64-106.65,31.28-164.45C295.88,74.38,521.61,24.71,788.58,67.6c250.08,40.18,436.29,145.44,529.8,282.71C1235,194.56,1038.23,73.28,765.43,29.48Z"/></g><g class="cls-2"><path class="cls-3" d="M147.17,372.44c-5.39-5.87-10.35-11.74-14.92-17.71q11.33,25.13,32.43,49.48A77,77,0,0,0,147.17,372.44Z"/><path class="cls-5" d="M169.77,413.75l-6.9-8c-14.16-16.33-25.2-33.18-32.82-50.06l-8.57-19,12.68,16.54c4.5,5.88,9.34,11.62,14.78,17.55h0A79.59,79.59,0,0,1,167,403.58Zm-24.59-39.92q5.35,8.69,11.93,17.29a74.81,74.81,0,0,0-11.72-17.05h0Z"/></g><path class="cls-3" d="M1348,421.92v89.67c-14.68-136.64-178.56-84.61-329.1-.77a3.72,3.72,0,0,1-4.14-6.16C1144.11,400.46,1255,373.89,1348,421.92Z"/><path class="cls-3" d="M851.53,456.14c-54.67,68.05-117.91,186.65,0,127.35L997.12,515S880.41,601.54,811.83,628c-52.94,14.78-111.9-33.69-6-171.87"/><path class="cls-3" d="M889.84,303.83s-5.22-34.38,28.47-50.62c165.45-91.45,250.13-.61,133.26,84.18l.29,23.59c129.34-81.21,95-178.38-30.67-160.11C944.77,215,882.52,245.42,832.29,289.8"/><path class="cls-3" d="M634.45,410.32c-138.67,78.52-270.83,38.45-236.53-33,0,0,24.54-49.83,110.13-51.79L484,301.94c-212,65-120.8,220.35,92.81,160.43l104.61-35.6"/><path class="cls-3" d="M642.05,237c61.56-20.38,153.51-77.41,110.73-114.55a50.1,50.1,0,0,0-23.61-11c-19.32-3.68-61.9-7-115.47,18.07V104.61c63.12-13.33,137.54-23,160.6,20,8.42,15.74,7,34.94-2.22,50.26-10.49,17.54-24.31,35.75-41.54,46.91-16.23,10.51-25.76,31.41-24.82,50.44"/><path class="cls-3" d="M513.43,187.23s-11.23-10.89-48.13,11.4C383.54,261,261.73,306.93,241.87,247.1c-1.81-5.46,4.51-10.16,9.15-6.77,53.61,39.13,163.45-30.85,248.57-99"/><path class="cls-5" d="M798.18,955.21c-58.94,0-120.54-5.09-184.23-15.31C417,908.26,254,836,142.73,730.89,32.65,626.94-16.33,497.18,4.81,365.52,25.89,234.27,113.9,127.14,252.63,63.86,390,1.21,572.93-16.06,767.74,15.23c197,31.64,359.16,103.14,468.94,206.77,108.62,102.53,156.8,231.5,135.65,363.16S1264,824.72,1126.92,889C1033.13,932.93,921.55,955.21,798.18,955.21Zm-216-926.36c-119.51,0-228.66,20.74-317.56,61.29C135,149.28,52.82,248.7,33.33,370.1,13.74,492,59.64,612.71,162.56,709.9c105.53,99.65,267.47,171.21,456,201.48s364.71,13,496.14-48.56c128.18-60.06,209.56-160.3,229.15-282.24,19.86-123.69-24-240.43-127-337.58C1111.3,143.36,954.42,74.46,763.16,43.74A1144.22,1144.22,0,0,0,582.18,28.85Z"/><path class="cls-5" d="M867.13,470.64c-40,0-83.94-4.94-130.44-14.81-174-36.92-283.08-123.95-265.23-211.64,7.54-36.94,34.79-67.31,74.76-83.34A14.44,14.44,0,0,1,557,187.65C526.17,200,505.32,222.71,499.76,250c-14.26,70,87.9,144.74,242.92,177.62,78.68,16.69,151.83,18.58,206,5.33,50-12.24,81.23-36.7,88.05-68.9,7.3-34.28-13.59-71-58.82-103.37a14.44,14.44,0,0,1,16.81-23.48c55.14,39.48,80.09,86.66,70.26,132.85-9.25,43.63-48.11,75.93-109.43,90.94C929.12,467.42,899.41,470.64,867.13,470.64Z"/><path class="cls-5" d="M1026,424.76a15.06,15.06,0,0,1-2.21-.17,14.44,14.44,0,0,1-12.08-16.46c4.19-27.35.71-47.55-10.35-60-13-14.65-38-21.17-76.63-19.94-16.88.54-33.52-5-48.13-15.94-19-14.22-37.78-13.84-60.92,1.28C758.79,361.56,698.09,297,678.09,275.73c-24.73-24.62-82-31.89-122.13-15.2-18.63,7.73-40.83,23.49-40.83,54.66a14.44,14.44,0,0,1-28.88,0c0-36.21,21.37-65.86,58.63-81.33,51.41-21.35,120.46-11.59,153.92,21.75C754,314.33,779.7,306.43,797.58,291a14.08,14.08,0,0,1,1.45-1.09c33.78-22.43,65.71-22.69,94.92-.78,9.31,7,19.68,10.52,29.88,10.17,30.43-1,73.81,1.05,99.15,29.65,17,19.2,22.85,47.32,17.29,83.56A14.45,14.45,0,0,1,1026,424.76Z"/><path class="cls-5" d="M202.57,580.89a63,63,0,0,1-35.14-10.39c-27.74-18.58-37.65-56-24.73-93.24,5.12-18.06,8.24-32.42,9.82-45.18a62.25,62.25,0,0,0-16-49.87C66.3,305.7,63.83,225.23,129.21,143a14.44,14.44,0,0,1,22.6,18c-56,70.35-54,136.31,6,201.66a91.12,91.12,0,0,1,23.35,72.95C179.4,450,176,465.86,170.36,485.57q-.12.42-.27.84c-10.05,28.58-.51,50.78,13.41,60.1,16.2,10.86,38.78,5.81,60.42-13.5.3-.27.61-.52.93-.76,60.7-45.69,128.3-54.28,200.89-25.56a14.44,14.44,0,1,1-10.62,26.86c-63.31-25-119.72-18-172.45,21.42C241.38,573.8,220.53,580.89,202.57,580.89Z"/><path class="cls-5" d="M828.33,765.24c-20.17,0-40-8.53-59-25.43-.22-.19-.43-.39-.64-.59-58.57-58.75-90.11-39.51-100.94-32.44-41.81,32-94.26,44.06-140.41,32.31-40-10.2-71.9-38-89.71-78.38a13.72,13.72,0,0,1-.76-2.18C404.45,534.18,351,524.25,303.05,530.91a14.44,14.44,0,1,1-4-28.6c83.27-11.58,135.86,35.38,165.46,147.77,14.41,31.94,38.58,53,70,61,37.23,9.48,81.72-1.08,116.12-27.56.29-.23.6-.44.91-.64,40.81-26.69,87-14.71,137.32,35.6,14.71,13,28.67,18.8,42.69,17.74,30.51-2.28,63.6-37.36,91.93-71.36a14.44,14.44,0,0,1,22.19,18.49C911.82,724,874.84,762,833.69,765,831.9,765.18,830.11,765.24,828.33,765.24Z"/><path class="cls-5" d="M1080.34,797.56c-21.41,0-42.29-12.45-62.17-37.1-24.07-29.84-51.38-53-81.17-68.83-23.33-12.39-45.26-21.15-67-26.78a14.44,14.44,0,1,1,7.23-28c24,6.2,48,15.77,73.34,29.24,33.25,17.66,63.57,43.3,90.1,76.2,15.26,18.91,29.67,27.72,42.85,26.16,18.73-2.21,39.67-25.75,59-66.3,20.56-43.21,62.19-74.77,111.35-84.45,59-11.6,89-48.6,94.63-116.46a14.44,14.44,0,0,1,28.78,2.38C1370.5,585.22,1332,631.8,1259.4,646.08c-40.24,7.91-74.21,33.53-90.86,68.52-24.4,51.28-51.88,79.06-81.67,82.57A55.14,55.14,0,0,1,1080.34,797.56Z"/><path class="cls-5" d="M183.05,626.21c9,11.84,11.68,27.37,8.51,41.94-5.31,24.44-14,76.88-4.61,126.31,8,73.79-96.27,97.67-101.07-74.6C85.56,629,152.53,586.24,183.05,626.21Z"/><g class="cls-2"><path class="cls-3" d="M111.21,733.51c1.74,62.09,16.37,98.66,34.08,116.66C118.48,846.9,88.4,810.51,85.9,719.84,85.56,630,151,587.2,182,624.93,150,622.76,111,664.11,111.21,733.51Z"/></g><path class="cls-5" d="M1071.13,890.81c-4.73,62.87,5.27,103.3,34.46,114.49,16.4,6.29,35-.8,44.05-15.88,60.56-101.21,15.45-155.7-31.12-150C1092.6,842.52,1073.09,864.77,1071.13,890.81Z"/><g class="cls-2"><path class="cls-3" d="M1165.43,858.5a52,52,0,0,0-21.66-1.83c-25.89,3.13-45.43,25.41-47.36,51.45-3.46,45.53.87,79.27,14.59,98.71a30,30,0,0,1-5.39-1.54c-29.22-11.16-39.23-51.59-34.46-114.5,1.92-26,21.46-48.27,47.35-51.4C1136.31,837.23,1153.88,843.82,1165.43,858.5Z"/></g><path class="cls-5" d="M149.32,864.82a50.27,50.27,0,0,1-22.76-5.56c-19.41-9.83-52.38-41-55.11-139-.25-67.6,33.52-109.75,65-120.46,22.17-7.54,43.88-.94,58.07,17.64h0c11.3,14.8,15.36,34.4,11.15,53.77-5.47,25.18-13.34,74.33-4.53,120.54.07.38.12.76.17,1.15,2.88,26.5-6.65,50.8-24.88,63.4A47.41,47.41,0,0,1,149.32,864.82Zm5-239.21a26.74,26.74,0,0,0-8.58,1.53c-22.71,7.73-45.61,42-45.43,92.66,2.46,88.25,30.7,109.35,39.29,113.7,9.07,4.6,16.1,2,20.39-1,7.38-5.1,14.54-17.22,12.65-36-9.57-51.06-1.11-104.25,4.8-131.47,2.41-11.09.27-22.06-5.88-30.11h0C166.81,628.74,161,625.61,154.33,625.61Z"/><path class="cls-5" d="M1118.14,1022.07a49.26,49.26,0,0,1-17.72-3.29c-34.92-13.38-49.21-55.6-43.69-129.06h0c2.52-33.56,27.78-60.76,60-64.68a65.93,65.93,0,0,1,63.7,29.66c22,33.91,15.31,85.72-18.45,142.14A51.32,51.32,0,0,1,1118.14,1022.07Zm7-168.66a42.05,42.05,0,0,0-4.85.29C1101.63,856,1087,872,1085.53,891.89h0c-3,40-1.08,89.85,25.23,99.93,9.56,3.67,21-.55,26.49-9.81,39.6-66.18,26.49-100.07,19-111.58A36.62,36.62,0,0,0,1125.11,853.41Zm-54,37.4h0Z"/><path class="cls-3" d="M368.57,94.8c-60.22,23.1-112.95,49.46-118.32,96.42-.77,6.75-9.6,9-13.23,3.24-22.49-35.6,16.17-93.25,129.82-106.81C371.16,87.13,372.63,93.25,368.57,94.8Z"/><g class="cls-4"><path class="cls-5" d="M1362.42,507c-7.89,79.46-48.56,113.68-105.79,124.94-43.84,8.61-81.91,36.14-101.11,76.48-36.68,77.05-80.24,99.91-126.1,43-23.73-29.45-52.27-54.82-85.62-72.53q-4.62-2.45-9.24-4.76C879.35,740.34,832.67,776.82,779,729c-43.36-43.51-83.5-57.61-119.55-34-67.33,51.83-169.22,48.89-208.54-40.14-1.73-6.65-3.56-13-5.39-19.11a42.83,42.83,0,0,1,9,7c67.38,65.31,151.61-19.59,151.61-19.59,108.29-69.79,123.11,34.89,179.52,45.33,12.91,2.39,20.19,1,23.74-2.6,19.64-19.85,47.45-29.23,73.75-19.86C917.82,658.44,945,669.3,945,669.3c76.19,57.62,130.38,74.51,146,20.07,16-82.63,51.65-100.78,51.65-100.78,178.7-68,177.26-226.64,19.49-404.09l3.22-2.45C1286.33,269,1356.6,382.55,1362.42,507Z"/></g><g class="cls-4"><path class="cls-5" d="M613.7,123.86s10.16,13.24,14.2,29.89c4.08,16.84,18.18,29.47,35.19,32.78,26,5.05,60.36,15.77,83.84,38.4,42.44,40.91,81-4.78,117,6.42s90.51,44.42,136.7,28.63c46.91,46.06,64.74,89.29,27.23,127.13,0,0-7.51-69.09-93.34-71.92,0,0-48.13-14.86-73-26.09s-56.49,28-76,25.21-37.94,9.28-63.6-12.37-56.15-77-130.75-65-90.57,86.68-90.57,86.68-36.31-108.28,34.75-141.6S604.07,153.54,613.7,123.86Z"/></g></g></g></svg>