<svg xmlns="http://www.w3.org/2000/svg" viewBox="0 0 1323.58 1399.06"><defs><style>.cls-1{fill:#f5af41;}.cls-2{opacity:0.3;}.cls-3{fill:#650000;}.cls-4{fill:#792937;}.cls-5{fill:#f92140;}.cls-6{opacity:0.55;}.cls-7{fill:#fff;}.cls-8{opacity:0.25;}.cls-9{fill:#36cff2;}.cls-10{fill:#66d4f1;}.cls-11{fill:#ac92ea;}.cls-12{fill:#9bdb52;}</style></defs><g id="Capa_2" data-name="Capa 2"><g id="Layer_1" data-name="Layer 1"><path class="cls-1" d="M1180.55,707.33a842.69,842.69,0,0,1-89.9,93.85C1035.69,850.66,970.91,897.1,897,939c-103.29,58.47-205,96.93-300.57,116.32a741.29,741.29,0,0,1-94.23,13c-131.78,9.62-247-20.51-331.23-87.74A358.51,358.51,0,0,1,82.64,877c-.15-.24-.29-.53-.44-.77C-47.74,646.69,103,344.58,453.9,145.86c244.26-138.32,477.15-165.18,640-91.4,71.19,32.3,128.94,83.75,168.46,153.53q3.6,6.44,6.93,12.85C1346.17,369.85,1310.6,547.59,1180.55,707.33Z"/><g class="cls-2"><path class="cls-3" d="M1269.26,220.84q-1.1-2.16-2.27-4.33c-1.49-2.84-3.08-5.68-4.66-8.52-5-8.71-10.16-17.18-15.65-25.31-1.78-2.55-3.51-5.06-5.29-7.56-2-2.79-4-5.53-6-8.23q-2.88-3.82-5.92-7.65c0-.05,0-.1-.09-.15-2-2.45-4-4.86-6-7.26-2.12-2.55-4.28-5.06-6.5-7.56q-3.09-3.47-6.2-6.79a.84.84,0,0,1-.2-.24c-2.16-2.26-4.28-4.47-6.45-6.64-1.92-2-3.85-3.85-5.82-5.73-6.11-6-12.46-11.64-19-17.13l-5.49-4.48c-3.75-3-7.51-5.91-11.36-8.71-1.54-1.15-3.08-2.31-4.66-3.41-4.67-3.32-9.39-6.55-14.2-9.68-2.12-1.35-4.24-2.69-6.36-4-2.31-1.45-4.66-2.89-7-4.24l-1.93-1.15c-2.5-1.45-5.05-2.89-7.6-4.29-.19-.09-.39-.24-.58-.33q-3.9-2.1-7.94-4.19c-2.74-1.44-5.49-2.79-8.28-4.19a4.61,4.61,0,0,1-.72-.33c-2.79-1.35-5.58-2.65-8.42-4-.24-.1-.48-.24-.73-.34,0,0-.09-.05-.14-.05A459.5,459.5,0,0,0,1048,42.53q-14.51-3-29.41-5.15C644.49-17,110.26,317.29,82.64,725V877A358.51,358.51,0,0,0,171,980.61c.1-107.43,37.16-177.16,108.05-152.72a104.63,104.63,0,0,1,62.33,59.49A170.68,170.68,0,0,1,353,935.17c.77,48.66,60.88,58.19,84.56,4.53,4.72-10.69,16.27-17,27.63-14.2C487.59,931,503,960.15,503,1018.2l-.34,19.44-.48,30.71c3.85-.29,7.65-.58,11.5-.92,3.42-.29,6.79-.62,10.2-1,1.11-.14,2.27-.24,3.37-.38,2.94-.29,5.92-.63,8.91-1,.62,0,1.25-.14,1.87-.24,3.52-.43,7.08-.86,10.69-1.39,3.9-.53,7.84-1.11,11.79-1.74q17.76-2.73,35.9-6.4C692,1035.91,793.74,997.45,897,939c73.93-41.88,138.71-88.32,193.67-137.8,3.56-3.22,7.12-6.45,10.59-9.67,1.25-1.16,2.45-2.26,3.66-3.42,2.74-2.55,5.43-5.15,8.13-7.7l5.68-5.53.67-.68c2.75-2.64,5.44-5.34,8.09-8q21.38-21.52,40.28-43.56c2.27-2.65,4.53-5.3,6.69-7.94,2.12-2.46,4.14-4.86,6.11-7.32v-.05C1310.6,547.54,1346.17,369.8,1269.26,220.84ZM506.6,628.3a131.41,131.41,0,0,1-26-17.56c-53.47,1.44-98.67-25.37-113-108.49,0,0,15.93-97.55,132.4-177.11l27.15-73.88s69.59,80,5.05,115.61c18.43,23.34,48.71,42.21,95,19.92,0,0,8,25.75-6.88,50.54,61.94-15.16,77.63-77.59,77.63-77.59,24.06-98.95,95.39-84.56,95.39-84.56C956.23,399.35,671.45,639.47,506.6,628.3ZM829.45,916.45c-61,34.5-121.38,62-180.31,82.8-18.25,6.43-35.33-11.94-27.94-29.83q3.78-9.13,8-18.22c29-48,72.38-74.74,142.07-63,64.11,8,101-15.26,102.28-79.41,6.06-51.55,26.47-86.16,72.67-90.44A51.28,51.28,0,0,0,967.49,712c14.82-8.61,21.75-22.67,11.79-48.13-2.5-6.35-3.51-13.33-1.83-20a49.21,49.21,0,0,1,25.17-31.91,44.85,44.85,0,0,1,29.12-4l0,0a49.35,49.35,0,0,1,36.72,32c8.42,24,13.91,49.72,17,76.76C1019.52,789.39,933.56,857.49,829.45,916.45ZM1155,627.63q-1.8-7.8-3.32-15.16c-2.75-13.28-4.77-25.32-6.21-35.33a56.34,56.34,0,0,1,12.9-44.37,93.34,93.34,0,0,0,15.45-26.62c8.61-22.33,8.9-47,2.79-70.17a176,176,0,0,1-5.39-56.46c1.78-26.9,16-51.25,38-66.85a182.19,182.19,0,0,0,25.32-21.46C1256.7,399.31,1228.3,516.36,1155,627.63Z"/></g><g class="cls-2"><path class="cls-4" d="M502.66,1037.64l-.48,30.71c-90.77,6.64-173.7-5.59-244.06-35.86C331.08,1050.59,413.91,1052.56,502.66,1037.64Z"/><path class="cls-3" d="M454.3,1072.54c-72.52,0-138.65-12.68-197.14-37.84l1.53-4.55c73.45,18.22,155.4,19.94,243.57,5.12l2.85-.48-.56,35.8-2.2.16Q477.9,1072.54,454.3,1072.54Zm-167-31.32c63.17,22,134.5,30.36,212.55,24.88l.4-25.61C424.15,1053,352.69,1053.22,287.26,1041.22Z"/></g><g class="cls-2"><path class="cls-4" d="M1093.73,54.41A459.5,459.5,0,0,0,1048,42.53q-13.79-7.31-28.4-13.58A425.22,425.22,0,0,1,1093.73,54.41Z"/><path class="cls-3" d="M1093,56.71a455.28,455.28,0,0,0-45.53-11.83l-.63-.23c-9-4.77-18.52-9.31-28.23-13.49l1.53-4.54a428.47,428.47,0,0,1,74.58,25.6Zm-44.22-16.47c1.54.32,3.07.64,4.6,1q-3.56-1.2-7.17-2.32Z"/></g><path class="cls-5" d="M1162.7,295.25c74.79-53,81.63-131.2,11.94-190.93q-4.41-3.82-9.25-7.5a384.3,384.3,0,0,0-93.61-51.26A468.77,468.77,0,0,0,972,20C598-34.43,63.72,299.87,36.1,707.62V910.53s-.05,86.63-20,186.5c-19.25,109.5,138.38,122.73,123.94,0C101.5,921.31,135,776.88,232.46,810.47A104.63,104.63,0,0,1,294.79,870a170.68,170.68,0,0,1,11.65,47.79c.77,48.66,60.88,58.19,84.56,4.53,4.72-10.69,16.27-17,27.63-14.2,22.42,5.53,37.82,34.65,37.82,92.69l-2.4,143.91A104.13,104.13,0,0,1,440,1195.3a4.93,4.93,0,0,1,.76,1.52c8.76,29.83,3.21,61.58,2.65,92.15,14.76,18,25.67,39.3,32.9,62.52,19.21,43.32,103.43,51.16,107.62-19.3.72-11.74-1.44-23.44-5.34-34.56-31.77-91.39-43.8-180.63-27.44-266.73v-.09a405.93,405.93,0,0,1,31.58-97c29-48,72.38-74.75,142.07-62.95,64.11,8,101-15.26,102.28-79.42,6.06-51.54,26.47-86.15,72.67-90.43A51.62,51.62,0,0,0,921,694.53c14.82-8.62,21.75-22.67,11.79-48.13-2.5-6.35-3.51-13.33-1.83-20a49.18,49.18,0,0,1,25.17-31.91,44.92,44.92,0,0,1,29.12-4l0,.05a49.33,49.33,0,0,1,36.72,32c15.06,42.78,20.7,91.25,20.26,142.75-.29,32.15,17.76,62.37,47.36,74.93,56.31,23.88,109.45-29.79,57.52-123.45-21.47-38.84-34.42-85.09-42-121.76-2.75-13.29-4.77-25.32-6.21-35.33a56.33,56.33,0,0,1,12.9-44.37,93.48,93.48,0,0,0,15.45-26.62c8.61-22.33,8.9-47,2.79-70.17a176.05,176.05,0,0,1-5.39-56.46C1126.46,335.2,1140.7,310.84,1162.7,295.25ZM460.06,610.88c-47.93-25.27-58.57-58.81-27.38-78.88a63.26,63.26,0,0,1,24.26-8.81c37.68-5.92,58.33-20.94,58.47-47q-2.6-44.19,41.25-53.47c76.19-6.69,94.72-80.38,94.72-80.38,24.06-98.95,95.39-84.56,95.39-84.56C909.68,381.93,624.91,622.05,460.06,610.88Z"/><g class="cls-6"><path class="cls-7" d="M391,922.28a26.34,26.34,0,0,1,2.6-4.53C367,933.59,334.54,919,334,883.29a170.68,170.68,0,0,0-11.65-47.79A104.63,104.63,0,0,0,260,776c-40.57-14-70,2.84-87.79,39.9,16.08-11.17,36.25-13.72,60.26-5.44A104.63,104.63,0,0,1,294.79,870a170.68,170.68,0,0,1,11.65,47.79C307.21,966.41,367.32,975.94,391,922.28Z"/><path class="cls-7" d="M418.63,908.08c22.42,5.53,37.82,34.65,37.82,92.69l-2.4,143.91c-.26,14.17,3.48,94.73-.82,119.43a1.46,1.46,0,0,0,2.62,1.12c19.87-27.49,25.23-125.86,25.73-155L484,966.31c0-58-15.4-87.16-37.83-92.69-11.35-2.79-22.9,3.51-27.62,14.2a69.45,69.45,0,0,1-14.2,21.36A23,23,0,0,1,418.63,908.08Z"/><path class="cls-7" d="M503.53,1316.12c-7.18-22.66-17.86-43.47-32.23-61.16-8.65-10.66,3.92-60.7-26.74,8.73-.39,6.58-.79,13.15-1,19.66a15.26,15.26,0,0,0,3.12,9.76c12.93,16.86,22.67,36.34,29.34,57.46a16.29,16.29,0,0,0,.69,1.8c13.29,28.31,54.56,41,81.88,25.67,12.92-7.24,8.92-26.7-5.82-28.26-20.32-2.16-40.1-13.85-48.53-31.88A14.8,14.8,0,0,1,503.53,1316.12Z"/><path class="cls-7" d="M1117.12,805.8c-29.6-12.56-47.65-42.78-47.36-74.93.44-51.5-5.2-100-20.26-142.75-9.48-26.91-40.43-41-65.89-28.06A49.18,49.18,0,0,0,958.44,592c-.14.53-.24,1.1-.39,1.63,25.08-11.31,54.68,2.75,63.92,29,15.06,42.78,20.7,91.25,20.26,142.75-.29,32.15,17.76,62.37,47.36,74.93,34.12,14.44,67.05.49,76.19-33.64C1152,813.17,1134.69,813.26,1117.12,805.8Z"/></g><g class="cls-2"><path class="cls-3" d="M1162.7,295.25c-22,15.59-36.24,39.95-38,66.85a176.05,176.05,0,0,0,5.39,56.46c6.11,23.2,5.82,47.84-2.79,70.17a93.48,93.48,0,0,1-15.45,26.62,56.33,56.33,0,0,0-12.9,44.37c1.44,10,3.46,22,6.21,35.33-21.47-12.81-46.88-32.39-51.74-55.5-8.66-41.34,18.29-55-10.88-135.19s-18-108.29-18-108.29c26.86-36.05,42.84-67.48,51.45-94.53-22.28,8.81-44.71-.28-56.31-27.67-10.44-33.84-30.18-64.35-61.36-90.77-19.83-16.8-15.79-48.61,7.46-60.16,2.07-1.06,4.18-2,6.3-3a468.77,468.77,0,0,1,99.77,25.61,384.3,384.3,0,0,1,93.61,51.26q4.84,3.68,9.25,7.5C1244.33,164.05,1237.49,242.26,1162.7,295.25Z"/></g><g class="cls-6"><path class="cls-7" d="M393.6,917.75a52,52,0,0,0,10.73-8.57A24.65,24.65,0,0,0,393.6,917.75Z"/><path class="cls-3" d="M385.12,925.67l6.51-9.3A27,27,0,0,1,403.41,907L414,902.55l-7.95,8.3a54.56,54.56,0,0,1-11.23,9Z"/></g><g class="cls-6"><path class="cls-7" d="M36.1,707.62V910.53s-.05,86.63-20,186.5c-8.56,48.76,17.91,78.4,48.66,85.48-14.44-14.73-22.71-37.69-17.37-68.06,20-99.86,20-186.5,20-186.5V725C98.57,264.59,775.74-102.15,1138.83,78.72,784.94-141.13,68.2,233.6,36.1,707.62ZM778.05,275.18a55.06,55.06,0,0,0-12.61-.62c118.3,126.19-141.26,341.71-299.6,336.61a129.52,129.52,0,0,0,25.51,17.13C656.19,639.47,941,399.35,778.05,275.18Z"/></g><g class="cls-8"><path class="cls-7" d="M186.84,642.48A207.49,207.49,0,0,1,250,376.23c9.11-6.48,22.9-8.28,34-9.45s22.73-.15,32.75,4.83l.3.15c15.29,7.76,18.52,28.07,7.35,41.09-46.52,54.25-63.58,133.07-42,201.42,7.08,22.49-12.18,49.16-34.46,56.86S197.88,663.32,186.84,642.48Z"/></g><g class="cls-8"><path class="cls-7" d="M291.07,711.68c-3.05,16.63,4.07,34,15.69,46.3S334,778.06,350,783.58c14.55,5,30,8.37,45.3,7s30.65-7.81,40.41-19.72,12.91-29.6,5.68-43.19c-8.38-15.76-27.2-22.24-44.29-27.36-21.8-6.54-44.93-16.66-67.37-20.25C311.45,677.15,294.17,694.8,291.07,711.68Z"/></g><path class="cls-3" d="M1156.39,750a14.43,14.43,0,0,1-10.74-24.08c151-168.34,189.91-359.29,104.11-510.78A346.79,346.79,0,0,0,1160.11,111l-.68-.54c-.91-.72-1.84-1.46-2.77-2.17C996.24-12.89,729.67,6.3,461,158.42,199.55,306.48,42.36,520.2,50.79,716.19a14.44,14.44,0,1,1-28.85,1.24C17.58,616.07,54.06,508.73,127.45,407,201.62,304.25,312,209.59,446.79,133.29,585.6,54.7,726.52,9,854.32,1.22,980.51-6.5,1091.09,22.58,1174.1,85.3c1.12.85,2.21,1.71,3.27,2.55l.55.44a375.32,375.32,0,0,1,97,112.59c92.2,162.8,51.92,366.27-107.75,544.3A14.38,14.38,0,0,1,1156.39,750Z"/><path class="cls-3" d="M455.07,1084.57c-143.8,0-261.59-47.75-340.7-138.1a14.44,14.44,0,1,1,21.72-19c73.46,83.9,183.76,128.25,319,128.25.08,0,.15-.06.23,0a14.44,14.44,0,1,1-.23,28.88Z"/><path class="cls-3" d="M546.24,1078.22a14.44,14.44,0,0,1-1.91-28.75c111.72-15.1,228-56.51,345.54-123.06,60.85-34.44,116.67-72.83,165.9-114.1a14.43,14.43,0,1,1,18.55,22.12c-50.58,42.41-107.85,81.81-170.23,117.11-120.77,68.38-240.52,111-355.89,126.54A14.47,14.47,0,0,1,546.24,1078.22Z"/><path class="cls-3" d="M658.1,241.37c17.84-10.1,38.76-12.75,59.39-9.54a104.78,104.78,0,0,1,57.08,27.44C790.31,274,802.19,293,807.42,314s4.21,42.53-.41,62.41S794.22,415,784.36,432.09a310.32,310.32,0,0,1-34.15,47.8c-25.39,29.55-54.89,54.74-86.27,76.83s-65.52,40.94-102.35,54.12c-18.47,6.41-37.59,11.51-57.45,13.93s-40.39,2.37-60.75-2.17-40.4-14.19-55.94-29.33a108.86,108.86,0,0,1-19.57-25.62,101.38,101.38,0,0,1-11.09-30.32,121.44,121.44,0,0,1-2.1-31.68c.79-10.4,1.78-20.79,4.28-30.75a98.25,98.25,0,0,1,11.63-28,61.78,61.78,0,0,1,21.69-21.59,5.49,5.49,0,0,1,7.5,2,5.41,5.41,0,0,1,.74,2.7v.27c0,10.71-2.16,19.5-4.33,28.08-2.56,8.42-4.9,16.62-7.49,24.65a106.33,106.33,0,0,0-5.17,24.45,91,91,0,0,0,1.55,24.13,72.69,72.69,0,0,0,8.09,22.14,80.07,80.07,0,0,0,14.33,18.78c11.33,11,26.07,18.39,42.27,21.94s33.54,3.87,50.81,1.67,34.54-6.65,51.38-12.5c33.66-12,65.66-29.66,95.4-50.54s57.54-44.74,80.93-72a281.67,281.67,0,0,0,31-43.35c8.8-15.24,15.68-31.4,19.59-47.87s4.49-33.27.55-48.71a74.81,74.81,0,0,0-24.72-39.61c-12.17-10-26.92-16.22-42.93-20.27-8-2-16.39-3.26-25-4.93s-17.63-2.87-27.25-5.46l-.22-.06a5.15,5.15,0,0,1-1.19-9.46Z"/><path class="cls-7" d="M161.31,677.79a14.44,14.44,0,0,1-8.58-26.06L220.15,602a14.44,14.44,0,0,1,17.15,23.24L169.87,675A14.39,14.39,0,0,1,161.31,677.79Z"/><path class="cls-3" d="M990.77,335.39a14.44,14.44,0,0,1-8.59-26.06l67.43-49.75a14.44,14.44,0,0,1,17.15,23.24l-67.43,49.75A14.39,14.39,0,0,1,990.77,335.39Z"/><path class="cls-7" d="M582.7,235.87A14.46,14.46,0,0,1,569.77,215L603.46,147a14.44,14.44,0,1,1,25.88,12.81l-33.69,68.06A14.44,14.44,0,0,1,582.7,235.87Z"/><path class="cls-9" d="M890.15,183.42a14.44,14.44,0,0,1-9-25.71l62-49.65a14.44,14.44,0,0,1,18.05,22.54l-62,49.66A14.42,14.42,0,0,1,890.15,183.42Z"/><path class="cls-3" d="M545.42,437.68a185.46,185.46,0,0,1-46.91-6.5,14.44,14.44,0,0,1,7.33-27.94c35.09,9.21,64.69,6.9,88-6.86,33.76-20,43.46-57.2,43.55-57.57,27-111,111.38-95.35,112.23-95.18A14.43,14.43,0,0,1,744,272c-6-1.1-58.65-8.19-78.59,73.79-.53,2.12-12.88,49.48-56.9,75.5C590,432.19,568.87,437.68,545.42,437.68Z"/><path class="cls-3" d="M460.06,625.31a14.41,14.41,0,0,1-6.72-1.67c-33-17.4-51.77-39.51-52.75-62.25-.7-16.27,7.92-31,24.29-41.54a76.67,76.67,0,0,1,29.82-10.94c45.16-7.06,46.21-25.06,46.27-32.38-2-36.29,16.78-60.41,52.85-68a14.44,14.44,0,1,1,5.91,28.27c-22.29,4.66-31.23,16.17-29.9,38.47,0,.32,0,.63,0,.95-.14,22.89-12.52,52.08-70.68,61.18a48,48,0,0,0-18.68,6.71c-7.58,4.87-11.3,10.25-11.05,16,.39,9,10.41,23.75,37.36,37.94a14.44,14.44,0,0,1-6.74,27.22Z"/><path class="cls-3" d="M532,1399.06c-29.18,0-57.85-16.71-68.92-41.7a13.75,13.75,0,0,1-.59-1.55c-5.53-17.75-23.33-60.54-27.83-105.48-4.25-42.54,4.64-87.25,4.94-105.88L442,1000.54c0-44.88-10-74.3-26.85-78.44-4.28-1.06-9,1.53-11,6C387.9,965,356.91,976.72,333.42,972c-24.53-5-40.72-25.88-41.39-53.34a156.3,156.3,0,0,0-10.6-43.19,89.81,89.81,0,0,0-53.69-51.3c-21.27-7.33-38.36-4.9-52.22,7.44-39.5,35.16-48.1,140.6-21.41,262.37.1.47.18.93.24,1.41,4.93,41.91-8.36,75.69-36.47,92.68-25.36,15.33-58,14.08-83.25-3.2C7,1165.93-4.91,1133,1.85,1094.53c19.49-97.52,19.82-183.16,19.82-184V708a14.68,14.68,0,0,1,12.8-14.72,14.44,14.44,0,0,1,16.08,14.34V910.53c0,3.61-.31,89.22-20.32,189.33C25.57,1126.38,33.1,1148.78,51,1161c15.65,10.72,36.54,11.65,52,2.31,18.12-11,26.21-33.64,22.81-63.91C96.64,966,108.62,852.47,156.32,810c15.16-13.49,41.49-26.74,80.82-13.18a118.72,118.72,0,0,1,71,67.71,185.49,185.49,0,0,1,12.64,51.8c0,.36.07,1,.07,1.32.26,14,7.08,23.74,18.27,26,12.16,2.47,28.81-5,38.62-27.21,7.68-17.41,26.32-26.83,44.3-22.39,22.27,5.49,48.81,28.46,48.81,106.71l-2.38,144.16a117.69,117.69,0,0,1-4.19,29.23c-13.12,47.75-7.32,98.5,14.09,143.16a221.7,221.7,0,0,1,11.41,29c7.75,16.43,30.1,26.77,50.22,23.14,12.53-2.26,27.81-10.72,29.45-38.14.54-9-1-18.74-4.55-29-49-140.95-47.5-263.52,4.69-374.73a14.16,14.16,0,0,1,.71-1.33c34.94-57.86,87.59-81.34,156.52-69.77,30.63,3.76,53.08-.31,66.72-12.12,12.14-10.52,18.55-28.45,19-53.29a13.36,13.36,0,0,1,.1-1.41c7.51-63.85,36.34-98.54,85.68-103.12a37.34,37.34,0,0,0,15.29-4.55c5.69-3.3,14.26-8.29,5.61-30.39-3.84-9.77-4.67-19.73-2.38-28.78a63.72,63.72,0,0,1,32.63-41.23,60,60,0,0,1,49.5-2,64,64,0,0,1,36.54,38.15c14.68,41.61,21.58,89.91,21.09,147.65-.24,27.33,14.89,51.48,38.56,61.52,18.77,8,36.58,5.38,47.64-6.91,13.45-14.95,18.31-48.09-8.39-96.25-30.81-55.67-44.45-125.39-49.84-162a71,71,0,0,1,16.11-55.74,79.11,79.11,0,0,0,13-22.53c7.18-18.61,8-39.8,2.31-61.31a190.12,190.12,0,0,1-5.84-61.07c2-31,18.12-59.29,44.08-77.7,34.46-24.42,53.74-55.07,54.29-86.32.56-31.74-17.42-62.47-52-88.85a14.44,14.44,0,0,1,17.51-23c41.58,31.72,64.08,71.61,63.37,112.32s-24.33,79.51-66.47,109.37c-18.84,13.36-30.49,33.78-32,56a161.62,161.62,0,0,0,5,51.81c7.22,27.43,6.09,54.76-3.28,79.06a107.67,107.67,0,0,1-17.86,30.69,42.09,42.09,0,0,0-9.68,33c5.11,34.67,17.94,100.54,46.53,152.21,28.92,52.17,30.64,100.61,4.59,129.56-19.39,21.54-50.19,27-80.37,14.18-34.47-14.63-56.52-49.31-56.17-88.36.46-54.33-5.9-99.4-19.44-137.8a35.11,35.11,0,0,0-20.05-20.94,30.72,30.72,0,0,0-25.68.94A34.78,34.78,0,0,0,944.9,630c-1,4,.14,8.24,1.27,11.12,14.62,37.35-1.7,56.45-18,65.9A65.3,65.3,0,0,1,901,715.36c-23.67,2.19-51.83,12.95-59.56,77.07-.78,33-10.53,57.84-29,73.82C792.35,883.68,762.24,890,723,885.15a6.17,6.17,0,0,1-.62-.09c-57.56-9.73-97.91,7.92-126.92,55.54-48.51,103.87-49.57,219.1-3.24,352.28,4.82,13.84,6.87,27.36,6.11,40.18-2.09,35-22,59.21-53.14,64.84A74.66,74.66,0,0,1,532,1399.06Z"/><path class="cls-5" d="M1165.92,1066.34c4.73-62.88-5.27-103.31-34.46-114.5-16.4-6.28-35,.81-44,15.88-60.56,101.21-15.45,155.71,31.12,150C1144.45,1114.63,1164,1092.37,1165.92,1066.34Z"/><path class="cls-3" d="M1111.81,1120.59a53.09,53.09,0,0,1-45.15-24.7c-19.43-29.91-12.62-77.08,18.68-129.4,9.84-16.45,29.6-23.56,47-16.89,29.3,11.22,41.07,49.47,36,116.92h0c-2.09,27.85-22.91,50.41-49.5,53.64A57.46,57.46,0,0,1,1111.81,1120.59ZM1119.19,952a35,35,0,0,0-29.72,17c-30.32,50.69-37.17,96-18.77,124.31a48.59,48.59,0,0,0,47.54,22.11c24.31-3,43.36-23.65,45.28-49.22,4.82-64.15-6.25-101.85-32.92-112.07A31.77,31.77,0,0,0,1119.19,952Z"/><g class="cls-2"><path class="cls-3" d="M1165.92,1066.33c-2,26-21.46,48.32-47.4,51.45-24.69,3-49-10.93-57.32-39.81a51.67,51.67,0,0,0,30.22,5.3c25.89-3.13,45.43-25.37,47.41-51.41,2.45-32.82.91-59.53-5.35-79.17C1161.11,965,1170.54,1005,1165.92,1066.33Z"/></g><g class="cls-6"><path class="cls-7" d="M1154.66,973l-.72-.29c-16.41-6.3-35,.77-44.09,15.89-34.31,57.37-34.7,99.72-20,124.6-32.34-15.25-50-65.93-2.4-145.49,9-15.07,27.62-22.14,44-15.88C1141.33,955.63,1149,962.75,1154.66,973Z"/></g><path class="cls-3" d="M1112.05,1132.6a65.85,65.85,0,0,1-55.48-30.16c-22-33.9-15.31-85.71,18.45-142.13,12.85-21.48,38.76-30.71,61.61-21.95,34.92,13.39,49.21,55.6,43.69,129.06h0c-2.52,33.56-27.78,60.77-60,64.69A69.17,69.17,0,0,1,1112.05,1132.6Zm7-168.59a22.78,22.78,0,0,0-19.3,11.12c-39.6,66.18-26.49,100.08-19,111.58a36.81,36.81,0,0,0,36,16.73c18.63-2.26,33.24-18.32,34.73-38.19,3-40,1.08-89.84-25.23-99.92A19.85,19.85,0,0,0,1119.1,964Zm46.82,102.33h0Z"/><ellipse class="cls-7" cx="481.12" cy="716.81" rx="27.67" ry="21.06" transform="translate(-344.73 968.34) rotate(-73.07)"/><ellipse class="cls-3" cx="921.16" cy="280.72" rx="27.67" ry="21.06" transform="translate(384.36 1080.21) rotate(-73.07)"/><ellipse class="cls-3" cx="232.05" cy="516.79" rx="27.67" ry="21.06" transform="translate(-329.91 588.29) rotate(-73.07)"/><ellipse class="cls-10" cx="725.04" cy="619.46" rx="21.06" ry="27.67" transform="translate(-212.59 445.51) rotate(-30)"/><ellipse class="cls-11" cx="260.93" cy="696.07" rx="19.24" ry="14.64" transform="translate(-480.95 742.99) rotate(-73.07)"/><path class="cls-7" d="M910.84,446.38c-3.09,10.16-11.87,16.49-19.61,14.14s-11.49-12.51-8.4-22.67,11.87-16.5,19.61-14.14S913.93,436.21,910.84,446.38Z"/><ellipse class="cls-9" cx="781.5" cy="129.27" rx="19.24" ry="14.64" transform="translate(-8.74 183.87) rotate(-13.34)"/><path class="cls-9" d="M290.74,389.46a14.44,14.44,0,0,1-7.91-26.54L345.51,322a14.44,14.44,0,1,1,15.78,24.19l-62.68,40.91A14.43,14.43,0,0,1,290.74,389.46Z"/><path class="cls-12" d="M837.48,594.48A14.45,14.45,0,0,1,824,585.12l-30.48-81a14.44,14.44,0,0,1,27-10.17L851,575a14.45,14.45,0,0,1-13.51,19.53Z"/><path class="cls-9" d="M352.62,823.92c-.36,0-.72,0-1.09,0a14.43,14.43,0,0,1-13.32-15.47l6-81a14.44,14.44,0,0,1,28.8,2.15l-6.05,81A14.42,14.42,0,0,1,352.62,823.92Z"/><path class="cls-3" d="M660.71,775.33a14.41,14.41,0,0,1-10-4.06l-67.08-64.82a14.44,14.44,0,0,1,20.07-20.77l67.08,64.83a14.44,14.44,0,0,1-10,24.82Z"/><g class="cls-2"><path class="cls-3" d="M985.2,590.52a44.92,44.92,0,0,0-29.12,4,49.18,49.18,0,0,0-25.17,31.91c-1.68,6.64-.67,13.62,1.83,20,10,25.46,3,39.51-11.79,48.13A51.62,51.62,0,0,1,899.72,701c-46.2,4.28-66.61,38.89-72.67,90.43-1.25,64.16-38.17,87.4-102.28,79.42-69.69-11.8-113.1,15-142.07,62.95a405.93,405.93,0,0,0-31.58,97c-16.79-137,.82-180.44,114.21-207.44S765.3,767,774.92,714s57.76-51.35,77-64.2,20.84-38.94,20.84-38.94C915.32,549,982.74,589.08,985.2,590.52Z"/></g><g class="cls-2"><path class="cls-3" d="M651.38,544.75C556.76,606.12,397,673.06,367.61,502.25c0,0,15.93-97.55,132.4-177.11l27.15-73.88s69.59,80,5.05,115.61c18.43,23.34,48.71,42.21,95,19.92,0,0,15.78,50.87-38.36,78.55C588.81,465.34,581.35,553.66,651.38,544.75Z"/></g></g></g></svg>