<svg id="Layer_1" data-name="Layer 1" xmlns="http://www.w3.org/2000/svg" viewBox="0 0 1632.79 2733.83"><defs><style>.cls-1{fill:#fdb016;}.cls-2{fill:#99031e;}.cls-3{fill:#fb1a03;}.cls-4{fill:#f9a331;}.cls-5{opacity:0.25;}.cls-6{fill:#6c164e;}.cls-7{fill:#76c91b;}.cls-8{fill:#650000;}.cls-9{opacity:0.4;}.cls-10{fill:#fff;}.cls-11{fill:none;}</style></defs><path class="cls-1" d="M1090.56,2144.55c-8.27-5-16.08-9.63-22.24-11.86-2.61-1-3.94-.39-5.22.84-7.07,6.73-10.65,32.34-6.53,67.13,29.24-1.58,149.2-8.83,233.61-25.39,87.23-17.13,187.08-95.38,203.15-143.38-43.49,19-107.45,35.26-201,38.67-44.07,7.3-83.55,48.35-109.44,78.64C1154.28,2182.7,1117.46,2160.64,1090.56,2144.55Z"/><path class="cls-1" d="M816.64,1992.67c-18.48,10.53-110.31,57.78-294,73.46-37.45,3.2-73.4,4.66-107.34,4.66-24.53,0-48-.78-70.28-2.19,11.7,11.31,34.46,28.1,73.47,38.58,10.5,2.81,20,5.16,28.66,7.28,46.06,11.35,71.43,17.59,81.88,59.95,2.48,10.09,4.37,21.16,6.19,31.87,4.35,25.54,8.85,51.95,20.58,58.74,4,2.33,9.2,2.27,15.83-.17,16.43-6,20.56-27.86,22.37-50.51a1.34,1.34,0,0,1,0-.2s0-.06,0-.09c.38-4.86.67-9.75.94-14.52,1.34-23.42,2.49-43.64,15.33-50.78s27-7.07,38.13,0c11.48,7.33,24.55,24.89,21.54,66.95-.15,2.12-.37,4.39-.64,6.78v0h0c-2,16.89-6.88,40.38-12.47,67.06-15.44,73.7-38.79,185.07-5.4,214.75,18.48,16.42,35.84,12.67,47.14,6.64,26.88-14.34,51.39-59.29,43.86-114.37-1.4-10.25-2.85-20.51-4.29-30.72-7.25-51.43-14.19-100.91-14.89-144.1,0,0,0,0,0-.07s0,0,0,0c-.34-21.52.84-41.5,4.37-59.33,8.86-44.77,43.24-76.77,70-80.75,15.25-2.29,28.06,4.06,35.18,17.36,4,7.52,7.59,14.81,11,21.86,12.56,25.64,20.7,41.19,30.54,38,2.87-1,7.08-2.88,11.95-5.1,19.27-8.79,48.39-22.08,68.36-9.86,11.34,6.94,17.55,20.84,18.46,41.32.68,15.37.25,32.28-.2,50.18-1.43,56.81-3,120.77,34.3,134.64,14.88-1.39,30.11-3,45.59-4.82a25.17,25.17,0,0,0,2.19-2.07c14.78-16.49,14.83-53.1.14-100.45a351.56,351.56,0,0,1-11.91-52.59,6.45,6.45,0,0,1-.23-1.47.56.56,0,0,0,0-.13c-5.32-37.74-3.41-72.48,10.06-85.32,5.51-5.26,12.65-6.67,20.1-4s15.83,7.73,24.72,13c31.19,18.67,54.77,30.15,74,7.65,19.42-22.72,46.23-51.14,77.57-68.64-7.21,0-14.53-.13-22-.31C987.88,2065,840.72,2003.48,816.64,1992.67Z"/><path class="cls-2" d="M754.3,2377.09c23.37,1.07,114.05,4.19,229.35-5.09-27.79-26.9-26.37-84.74-25-137.06,0-2,.09-4,.14-6H737.86c1.31,40.55,7.82,86.89,14.6,134.94C753.08,2368.26,753.69,2372.68,754.3,2377.09Z"/><path class="cls-1" d="M958.8,2185.75c-.68-15.39-4.57-25.37-11.57-29.65-13.43-8.22-38.37,3.15-54.86,10.67-5.24,2.4-9.78,4.46-13.37,5.66-22.19,7.44-34.19-17-48-45.28-3.4-6.93-6.91-14.11-10.81-21.4-4.25-7.95-11.07-11.28-20.34-9.91-22,3.28-50.6,31.91-58,69.29-2.94,14.86-4.14,31.48-4.15,49.38H959C959.19,2204.41,959.2,2194.72,958.8,2185.75Z"/><path class="cls-3" d="M473.11,1970.83H478c204,0,310.15-49.27,331.54-91a7,7,0,0,1,.64-1.21,37.85,37.85,0,0,0,1.89-4.8c-38.51,1.28-68.41,17-97.55,32.3-25.9,13.62-52.68,27.69-84.48,31-56,5.82-89.15-22.34-118.4-47.2-13.37-11.36-26-22.09-40-29.18-31.65-16-70.89-5.31-116.34,7.11-16.61,4.54-33.79,9.23-51.36,12.75-51.32,10.29-77.77-38.52-99-77.71-8.31-15.33-16.17-29.8-24.25-38.56-.33-.36-.72-.67-1.08-1-16.64,7.51-82,39.19-96.95,78.89-4.42,11.75-3.89,22.88,1.6,34C116.07,1940.75,236,1969.91,473.11,1970.83Z"/><path class="cls-4" d="M222.63,1649c1.67.45,169.8,46,409.19,67.07,220.49,19.41,548.23,21.42,858-79,22.94-15.92,42.19-32.15,57.94-48.77l.14-.19c.08-.09.19-.16.28-.25,32.54-34.49,49.84-70.7,52.39-109.54,4.79-73-44.48-156.84-146.46-249.14-151.74-137.36-378.62-211.49-626.9-211.49a1315.28,1315.28,0,0,0-272.63,29.05C224.13,1116.81,21.2,1356.09,32,1483.58c10.57,125.15,188.46,164.91,190.26,165.3Z"/><path class="cls-1" d="M443.73,2128.46c-8.72-2.15-18.33-4.52-28.94-7.37-58.54-15.71-83.52-44.61-90.33-54-63-5.31-115.14-15.94-152.31-29.21,11.94,34.16,70.22,131.81,348.52,168.64-1.67-9.77-3.41-19.74-5.61-28.65C506.7,2144,489.56,2139.74,443.73,2128.46Z"/><g class="cls-5"><path class="cls-6" d="M958.8,2147.31c-.68-15.39-4.57-25.37-11.57-29.66-13.43-8.21-38.37,3.16-54.86,10.68-5.24,2.39-9.78,4.46-13.37,5.66-22.19,7.44-34.19-17-48-45.28-3.4-6.94-6.91-14.11-10.81-21.4-4.25-7.95-11.07-11.28-20.34-9.91-22,3.28-50.6,31.91-58,69.29-2.94,14.86-4.14,31.48-4.15,49.37H959C959.19,2166,959.2,2156.28,958.8,2147.31Z"/></g><g class="cls-5"><path class="cls-6" d="M443.73,2128.46c-8.72-2.15-44.56-21-55.17-23.84-58.54-15.72-49.1-38.13-55.92-47.52-63-5.31-108.38-15.73-145.55-29,11.94,34.16,55.28,103.15,333.58,140-1.67-9.77-3-1.33-5.25-10.24C507.07,2123.94,489.56,2139.74,443.73,2128.46Z"/></g><path class="cls-1" d="M640.69,2160.92c-6.67-4.26-15.2-4.1-23.37.44-5.89,3.27-7,23.08-7.94,39-.15,2.67-.31,5.42-.49,8.19l46.78,5.2C657.39,2187.33,652,2168.1,640.69,2160.92Z"/><path class="cls-2" d="M1293,2189.41c-84.16,16.52-202.83,23.85-234.35,25.58a335.37,335.37,0,0,0,10.39,43.34c14.13,45.56,15.27,81.89,3.6,104.34,74.18-9.66,153.34-25,228.51-48.93,237.56-75.74,227-117.91,219.92-145.81-.43-1.72-.86-3.41-1.23-5.07-2.61-11.39-2-26.67-1.46-42.86,1.05-28.69,2.2-60.73-12.75-79.82C1483.19,2096.87,1379.27,2172.47,1293,2189.41Z"/><path class="cls-3" d="M1250.6,1991c-40.09,0-82.89-1.88-127.73-5.77-192.26-16.65-272.4-47.7-299.44-61.37v56.07c25.35,11.28,169.76,70.8,404.41,76.54,138.65,3.41,222.23-18.6,272-43.35l.23-.12c26-13,42.8-26.68,53.36-37.88.63-.67,1.16-1.22,1.6-1.66,1.91-5.85,1.72-30.73.39-58.24C1519.43,1963.12,1405.13,1991,1250.6,1991Z"/><path class="cls-3" d="M1463.34,1758.75c-15,6.29-24.45,27-35.08,50.56-10.55,23.35-22.51,49.81-43,66.16-32.36,25.88-83,8.88-127.64-6.1-20.79-7-40.44-13.57-56.22-15.31-26.42-2.91-47.5,12.8-74.17,32.67-20.45,15.24-43.62,32.51-74.23,45-14.11,5.74-26.42,8.14-37.75,8.14-24.11,0-43.74-10.87-66.66-23.56-24.21-13.4-51.66-28.6-94-38.17a174.86,174.86,0,0,0-27.8-4,51.19,51.19,0,0,1-3.44,9.57v23.7c14.6,8.51,88.16,45,300.69,63.46,258.17,22.38,413-24.47,427.67-79.92,15.87-60.08-85.33-129.28-86.36-130A7.23,7.23,0,0,1,1463.34,1758.75Z"/><path class="cls-7" d="M1553.56,1602.92c-15.76,15.88-34.49,31.38-56.43,46.54a7.23,7.23,0,0,1-1.87.92c-214.12,69.62-436.7,90.58-627,90.58-87.44,0-168.05-4.42-238-10.58-236.88-20.87-404.48-65.63-411.23-67.45-6-1.31-72.24-16.42-127.22-56.88-17.47,14.6-79.29,70.65-54,113.15,16.26,27.32,50.41,24.92,83.44,22.62,28.14-2,54.72-3.83,70.05,12.76,9.29,10.08,17.57,25.33,26.32,41.47,20,36.85,42.59,78.64,83.53,70.44,17.08-3.41,34-8,50.39-12.52,46.31-12.65,90-24.6,126.65-6.06,15.52,7.86,28.78,19.12,42.82,31,28.37,24.11,57.67,49,107.57,43.85,29-3,53.43-15.85,79.26-29.42,33-17.38,67-35.18,112.95-34.05.17,0,.32,0,.49,0l.16,0a188.14,188.14,0,0,1,36.41,4.7c44.32,10,74,26.43,97.78,39.62,32.67,18.09,54.25,30,92,14.67,28.9-11.76,51.3-28.44,71.05-43.16,28.06-20.91,52.24-38.94,84.37-35.45,17.32,1.9,37.67,8.74,59.23,16,41.18,13.82,87.83,29.47,114,8.51,17.73-14.18,28.45-37.9,38.82-60.84,14.09-31.17,27.4-60.62,57.34-61,12.11-.16,25.81,1.83,40.32,3.94,47.69,7,82.37,9.13,94.32-26.32C1622.42,1674.51,1570.3,1619.17,1553.56,1602.92Z"/><path class="cls-4" d="M207.09,2315.53c77,38.44,211,86.47,414.08,98.47.88-10.46,2.17-21.27,3.75-32.26-344.58-13.7-515.46-179-517.16-180.64a7.22,7.22,0,0,1-1.89-7c0-.15,2-7.63,4.13-17-17,5.18-37.58,14.34-42.32,24.67A11,11,0,0,0,67,2204c0,.1,0,.2-.07.29a10.8,10.8,0,0,0,1.45,7.27C74.93,2223.82,114.54,2269.3,207.09,2315.53Z"/><path class="cls-3" d="M132.4,2001.38c7.32,6.25,17.83,12.3,31,18a7.46,7.46,0,0,1,2.55,1.09c36.36,15,92.6,27.21,162.7,32.75.26,0,.51,0,.77.06,56.17,4.4,121.16,4.56,192-1.48,178.08-15.2,269.47-61.31,287.57-71.38V1904c-38.76,40.53-139.77,81.3-330.74,81.3h-5.22c-216.42-.83-335.42-24.59-385-78.37C95.58,1939.13,109.33,1981.71,132.4,2001.38Z"/><path class="cls-2" d="M129.32,2150c-1,13.1-6.15,34.54-8.43,43.59,23.9,21.58,191.14,161.74,506.23,173.8,4.41-27.15,10.22-54.92,15.64-80.8,4.76-22.69,9-43,11.31-58.55l-46.38-5.16c-2.63,24-9.14,47.42-31.06,55.48-10.74,4-20.17,3.65-28-.89-15.08-8.74-20.79-30.94-25.36-56.1C198,2179.48,159.74,2056.76,155.31,2031.25a167.86,167.86,0,0,1-20.87-10.73c-13.08,11.41-35.58,36.23-27.95,54.93l3.9,9.5C121.66,2112.31,130.56,2133.91,129.32,2150Z"/><path class="cls-4" d="M1298.79,2386.82c-163.55,39.52-310.25,48.63-410.75,48.63-66.86,0-113.24-4-130.57-5.83-3.68,41.41-23.37,78.76-52.08,94.07a54.81,54.81,0,0,1-25.9,6.76c-13.18,0-26.14-5.17-37.59-15.35-18.47-16.42-23.45-48.46-21.68-86.71C242.39,2406,80,2259.21,56.61,2220c-16.7,27.83-48.86,98.27-25,199.95,39.71,169.29,206.74,258.37,525.66,280.33,398.79,27.44,674.23,1.72,842.13-78.68,167.68-80.3,183.1-175.14,184.39-257.74.7-44.92-5.44-91.23-10.76-122.43C1554.66,2279.94,1493.55,2339.77,1298.79,2386.82Z"/><path class="cls-4" d="M1305.5,2327.47c-81.41,26-167.36,41.83-246.79,51.44-11.78,8.47-27.69,10.91-47.58,7.06-2-.39-3.85-.87-5.68-1.4-72.58,6.63-136.85,8.29-183.08,8.29-31.29,0-54.3-.76-66-1.26.14,1,.29,2,.43,3.05a154.59,154.59,0,0,1,1.4,20.55c40,4.22,264.93,23.4,537.25-42.39C1538.56,2314.07,1564,2237.2,1565.94,2215c1.83-20.45-9.46-38.94-31.29-52.12.13.5.24,1,.37,1.5C1543.85,2199.53,1556,2247.62,1305.5,2327.47Z"/><g class="cls-5"><path class="cls-8" d="M226,1540.83s-9.92-11.31-4.49-19.37,62.31-5.74,61.07.77-4.49,13.49-11.47,15.5-17.52,4.65-22,4.65S226,1540.83,226,1540.83Z"/></g><g class="cls-5"><path class="cls-8" d="M277.46,1354.67a9.84,9.84,0,0,1,6-8.06c5-2.17,62.65-7.64,59.92.6s-12.8,18.77-27.52,20.94a127.85,127.85,0,0,1-28.21.78s-9.77-3.88-10.39-5.74S277.46,1354.67,277.46,1354.67Z"/></g><g class="cls-5"><path class="cls-8" d="M483.54,1502.55c-1.39.11-8.37-2.56-9.3-3.72s-2.07-5.82-1.86-8.14,9.77-20.46,33.71-26,27.91-1.45,25.23,7.65S511,1500.22,483.54,1502.55Z"/></g><g class="cls-5"><path class="cls-8" d="M333.26,1218.26c0-.93,15-11.16,30.07-10.39s36.8,2.59,31.31,12.72-37.82,21.23-54.72,14.26S333.26,1218.26,333.26,1218.26Z"/></g><g class="cls-5"><path class="cls-8" d="M573.24,1247.82s37.55-.84,31.18-27.15-42.37-12.51-49.61-3-6.28,21.39.11,24.18S573.24,1247.82,573.24,1247.82Z"/></g><g class="cls-5"><path class="cls-8" d="M703.26,1382.8s53.37,3.49,52.55-19.3-73.93-14.13-81.2-8.17S658.27,1379.78,703.26,1382.8Z"/></g><g class="cls-5"><path class="cls-8" d="M928.18,1340.61c-1.55,0-31.31,5.84-28.67,13.59s25.26,19.07,48.51,19.22,38.14-6.56,31.94-15.29S958,1340.89,928.18,1340.61Z"/></g><g class="cls-5"><path class="cls-8" d="M684,1137.5c.44-1.36,5.12-7.59,17.67-11.63s41.81-1.61,39.22,7.45-13.77,17.51-34.57,17.51S682.34,1142.77,684,1137.5Z"/></g><g class="cls-5"><path class="cls-6" d="M894.55,1133.06c.15-.86,8-11.72,25.07-13.35s25.74,5.61,29.09,10.48,5.7,18.2-9.14,26.82S890.07,1159.07,894.55,1133.06Z"/></g><g class="cls-5"><path class="cls-8" d="M1069.24,1202.6s15.4-6,29.85,10.45-10.44,24.78-20.78,21.64-16.39-4-19.18-8.83-3.26-4.07-3.84-8.26,1-6.86,1.16-7.67S1061.45,1202.49,1069.24,1202.6Z"/></g><g class="cls-5"><path class="cls-8" d="M1252.46,1212.06s36.58.31,46.19,7.29,15.19,16-5.58,21.23-46,.47-46.19-13.17S1252.46,1212.06,1252.46,1212.06Z"/></g><g class="cls-5"><path class="cls-8" d="M1352.21,1338.83s26,8.29,26.6,17.61-6.68,16.11-22.34,18.53-34.64-.38-41.62-10.23-3.87-11.08,6.51-15.5,16.43-6.51,18-6.74S1352.21,1338.83,1352.21,1338.83Z"/></g><g class="cls-5"><path class="cls-8" d="M1139,1460.46s19.19-17.37,36.74,6.37-16.62,44.67-31.62,34S1126.55,1469.18,1139,1460.46Z"/></g><g class="cls-5"><path class="cls-8" d="M953.91,1564.05c0-.82,5.59-18.58,18.55-16.7s16.33,19.19,16.45,24.25,3,11.86-5.35,20-12.09,14.41-17,10.87-5-2.85-7-5.52a44.36,44.36,0,0,1-3.78-6.28s-2.15-12.91-2.09-15.81S953.91,1564.05,953.91,1564.05Z"/></g><g class="cls-5"><path class="cls-8" d="M1369.52,1516.63c.89-1.32,22.56-7.34,40.7.22s24.41,16,8.72,22.08-37.67,1.63-45.57-2.09S1366.84,1520.6,1369.52,1516.63Z"/></g><g class="cls-5"><path class="cls-8" d="M677.54,1551.47s11.85-12.73,23.79,5.17,2.17,42.71-10.23,44.57-15.66.23-18.45-9.46-5-22.94-4.8-24.26S677.54,1551.47,677.54,1551.47Z"/></g><g class="cls-9"><ellipse class="cls-10" cx="1180.63" cy="1222.43" rx="22.73" ry="41.1" transform="translate(-332.27 1996.61) rotate(-73.1)"/></g><g class="cls-5"><path class="cls-6" d="M582.82,2369.82s2.87,119.58,48.87,146.28,82.27-5.84,82.27-5.84-80.91,29.76-84.63-36.59,6.51-103.85,6.51-103.85Z"/></g><g class="cls-5"><path class="cls-6" d="M1019.8,1785.44c-13.36.14-45,8.06-36.12,14.88s94,8.06,80.65-2.48S1022.8,1785.41,1019.8,1785.44Z"/></g><g class="cls-5"><path class="cls-8" d="M172.15,2060.44s-23.66,15.95-15.76,37.34,19.54,55.8,18.61,72.54-13.07,60-13.07,60,88.44,54.31,136.76,78.13,84.29,30.46,83.71,25.11-46.51-43.25-42.32-62.78,111.14-4.19,165.55,6,140.44,34,140.44,34l12.09-85.1-49.27-7.33s-7.47,5-8.86,7.8-21.39,40.45-21.39,40.45-14.42,3.26-20,1.86-14.41-7.9-14.41-7.9l-18.14-42.21s-76.45-10.81-77.54-13.6-108.47-27.59-108.47-27.59l-102.77-45.41Z"/></g><g class="cls-5"><path class="cls-6" d="M737.65,2278.67c3.75-.63,154.88-6,225.56,0v-60.34l-225.56,3.38-3.43,57"/></g><g class="cls-5"><path class="cls-6" d="M1058.65,2248.5s73.83-7,149.17-19.58,127.37-51.78,127.37-51.78-120.4,18.29-159.46,21.55-120.9,9.29-120.9,9.29Z"/></g><g class="cls-9"><path class="cls-10" d="M580,2089.87c-5.27,4-16.43,32.4,4.65,30.77s38.76-26.12,26.66-30.15S580,2089.87,580,2089.87Z"/></g><g class="cls-9"><path class="cls-10" d="M871.14,2095.54c2.83,5.64,14.26,24.82,32.24,20.74s22.32-22.69,11.16-25.17S860,2073.31,871.14,2095.54Z"/></g><g class="cls-9"><path class="cls-10" d="M860.75,2465.48c-5.74-7.09,317.31,4.74,514.48-79.72,0,0,16.74,46.42-112.54,80.81S897.85,2511.22,860.75,2465.48Z"/></g><path class="cls-11" d="M1298.79,2386.82c-163.55,39.52-310.25,48.63-410.75,48.63-66.86,0-113.24-4-130.57-5.83-3.68,41.41-23.37,78.76-52.08,94.07a54.81,54.81,0,0,1-25.9,6.76c-13.18,0-26.14-5.17-37.59-15.35-18.47-16.42-23.45-48.46-21.68-86.71-201.57-11.93-341.81-59.28-432.35-106.81-6,16.52-10.55,36-10.55,56.88,0,60.49,83.09,198.14,417.9,224.18s633.68-4.42,783.73-86.54,166.17-120.55,166.17-120.55,20.41,100.69-80.56,189.34c106.73-71.53,118.13-150.69,119.23-221,.7-44.92-5.44-91.23-10.76-122.43C1554.66,2279.94,1493.55,2339.77,1298.79,2386.82Z"/><path class="cls-11" d="M207.09,2315.53c77,38.44,211,86.47,414.08,98.47.88-10.46,2.17-21.27,3.75-32.26-190.61-7.58-328-61.52-413-108.51a279.92,279.92,0,0,0-18.74,35.12C197.66,2310.74,202.29,2313.13,207.09,2315.53Z"/><path class="cls-11" d="M129.32,2150c-1,13.1-6.15,34.54-8.43,43.59,23.9,21.58,191.14,161.74,506.23,173.8,4.41-27.15,10.22-54.92,15.64-80.8,4.76-22.69,9-43,11.31-58.55l-46.38-5.16c-2.63,24-9.14,47.42-31.06,55.48-10.74,4-20.17,3.65-28-.89-15.08-8.74-20.79-30.94-25.36-56.1C198,2179.48,159.74,2056.76,155.31,2031.25a167.86,167.86,0,0,1-20.87-10.73c-13.08,11.41-35.58,36.23-27.95,54.93l3.9,9.5C121.66,2112.31,130.56,2133.91,129.32,2150Z"/><path class="cls-11" d="M132.4,2001.38c7.32,6.25,17.83,12.3,31,18a7.46,7.46,0,0,1,2.55,1.09c6.41,2.65,13.47,5.21,21.09,7.66-28-19.28-54.33-52.48-64.66-94.71-13.87-7.87-25.28-16.69-34.34-26.52C95.58,1939.13,109.33,1981.71,132.4,2001.38Z"/><path class="cls-11" d="M679.08,2275.42c1.4,22.32-26.5,170.85-1.86,190.06s51.08,1.24,65.59-32.11c.12-1,.21-2,.31-3-8,7.74-20.09,10.29-29.16,10.84-17.05,1-11.47-28.32-5.89-50.64s-5.58-83.09-9.3-125.25,13.91-117.11,15.19-119.66c7.31-14.63,20.21-18.82,27.85-20,14.84-24.86,37.19-41.3,55.87-44.08,15.25-2.29,28.06,4.06,35.18,17.36,4,7.52,7.59,14.81,11,21.86,12.56,25.64,20.7,41.19,30.54,38,2.87-1,7.08-2.88,11.95-5.1,19.27-8.79,48.39-22.08,68.36-9.86,11.34,6.94,17.55,20.84,18.46,41.32.68,15.37.25,32.28-.2,50.18-.32,12.49-.64,25.33-.55,37.9,2.61-33.38,16.06-84.42,27.65-79.95,12.63,4.88,34.1,93.79,14.88,105.57s-35.89,19.21-41.82-3.06c1.13,18.33,3.78,35.19,9.44,48.42,9.65,2.25,27,3.48,45.4-8.89,27.9-18.73,0-83.59-4.34-120.35s-8.68-99.65,14.26-113.91,63.86,13,98.58,12.9,36-24.68,36-24.68-68.21-4.34-182.29-14.88-145.09-47.12-180.11-42.48-111.31,5-111.31,5l.12,0c-36.44,9.6-81.57,18.72-136,25.16-10.55,4.9-41,20.15-42.26,33.52-1.56,16.19,31,41.6,34.25,68.89s0,76.11,11.63,71.46c6.31-2.52,18.22-15.45,27.82-26.75.21-3.22.44-6.45.62-9.61,1.34-23.42,2.49-43.64,15.33-50.78s27-7.07,38.13,0c10.85,6.93,23.1,23,21.88,60.28l2.24,1.27S677.69,2253.1,679.08,2275.42Z"/><path class="cls-11" d="M1305.5,2327.47c-81.41,26-167.36,41.83-246.79,51.44-11.78,8.47-27.69,10.91-47.58,7.06-2-.39-3.85-.87-5.68-1.4-72.58,6.63-136.85,8.29-183.08,8.29-31.29,0-54.3-.76-66-1.26.14,1,.29,2,.43,3.05a154.59,154.59,0,0,1,1.4,20.55c40,4.22,264.93,23.4,537.25-42.39C1538.56,2314.07,1564,2237.2,1565.94,2215c1.83-20.45-9.46-38.94-31.29-52.12.13.5.24,1,.37,1.5C1543.85,2199.53,1556,2247.62,1305.5,2327.47Z"/><path class="cls-11" d="M1371,2049.55s-31.65,3.85-77.72,6.57C1322,2055,1347.81,2052.76,1371,2049.55Z"/><path class="cls-11" d="M1293,2189.41c-84.16,16.52-202.83,23.85-234.35,25.58a335.37,335.37,0,0,0,10.39,43.34c14.13,45.56,15.27,81.89,3.6,104.34,74.18-9.66,153.34-25,228.51-48.93,237.56-75.74,227-117.91,219.92-145.81-.43-1.72-.86-3.41-1.23-5.07-2.61-11.39-2-26.67-1.46-42.86,1.05-28.69,2.2-60.73-12.75-79.82C1483.19,2096.87,1379.27,2172.47,1293,2189.41Z"/><path class="cls-11" d="M655.93,2201.65l-46-10.17c-.21,3-.38,6-.55,8.87-.15,2.67-.31,5.42-.49,8.19l46.78,5.2C655.94,2209.51,656,2205.49,655.93,2201.65Z"/><path class="cls-11" d="M340.55,2011.59c30.69,14.11,180,8.06,239.48,3,53.62-4.61,200.38-35.3,229-41.35V1904c-38.76,40.53-139.77,81.3-330.74,81.3h-5.22c-59.79-.23-112.11-2.22-157.62-6.1C315.62,1987.13,319.16,2001.76,340.55,2011.59Z"/><path class="cls-11" d="M591.65,2233.24c-.29,1.43-.51,2.49-.65,3.17C591.23,2235.37,591.45,2234.31,591.65,2233.24Z"/><path class="cls-11" d="M1493.33,2031.89c-25.37,11.1-57.78,21.23-98.89,28.44-3,9.15-19.17,32.77-54.55,53.6-44,25.91-161.83,49-161.83,49a15.16,15.16,0,0,0-5.83-3.93c-26.69,18.46-58-.29-81.67-14.44-8.27-5-16.08-9.63-22.24-11.86-2.61-1-3.94-.39-5.22.84-7.07,6.73-10.65,32.34-6.53,67.13,29.24-1.58,149.2-8.83,233.61-25.39C1377.41,2158.14,1477.26,2079.89,1493.33,2031.89Z"/><path class="cls-11" d="M184.74,1769.26c1,1.53,6.66,10.6,13.17,20.85A182.44,182.44,0,0,0,184.74,1769.26Z"/><path class="cls-11" d="M158.81,1934.3c-27.55-17.56-45.5-40.46-43.49-69.8,3.06-44.68,68-96.26,69.23-95.48-1.28-1.67-2.56-3.26-3.85-4.66-.33-.36-.72-.67-1.08-1-16.64,7.51-82,39.19-96.95,78.89-4.42,11.75-3.89,22.88,1.6,34C96.2,1900.46,120.54,1919.68,158.81,1934.3Z"/><path class="cls-11" d="M754.3,2377.09c23.37,1.07,114.05,4.19,229.35-5.09-27.79-26.9-26.37-84.74-25-137.06,0-2,.09-4,.14-6H737.86c1.31,40.55,7.82,86.89,14.6,134.94C753.08,2368.26,753.69,2372.68,754.3,2377.09Z"/><path class="cls-11" d="M328.59,1904c-24.12,10-26.46,45.47-28.51,59.23,48.82,4.89,106.28,7.39,173,7.65H478c70.48,0,129.27-5.89,176.93-15.31-23-3.54-51.05-14.64-63.61-20-33.94-6.78-57.89-27.1-79.68-45.61l-3.43-2.9c-9.41-.86-23.89-2.23-42.6-4.19C430.91,1879.22,357.13,1892.08,328.59,1904Z"/><path class="cls-11" d="M79.71,1409.7C119,1313,330.45,1169.12,330.45,1169.12s-165.53,283.22,298.26,361.11,784.94,98.34,924.77-63.49c0,0,26.36,41.85-67.58,141.37-22.18,23.5-56.52,42.53-97.29,58,33.83-8.59,67.62-18.21,101.19-29.1,22.94-15.92,42.19-32.15,57.94-48.77l.14-.19c.08-.09.19-.16.28-.25,32.54-34.49,49.84-70.7,52.39-109.54a156,156,0,0,0-1.12-30.72c-24-55.75-100-176.82-332.2-291.46-22.07,18-83.91,17.66-151.68-2.75-75.46-22.73-131-62.16-129.14-90.43-342.16-54.06-676.6,82.67-676.6,82.67a6.54,6.54,0,0,1-.92-6.35C127.25,1242.05,24.22,1391.79,32,1483.58c3.88,45.9,30.29,80.28,62.24,105.48C92.7,1586.69,41,1505,79.71,1409.7Z"/><path class="cls-11" d="M1311.37,1870.39c-12.34-3.77-25-7.51-37.62-10.86C1286.25,1863.65,1299,1867.59,1311.37,1870.39Z"/><path class="cls-11" d="M958.8,2185.75c-.68-15.39-4.57-25.37-11.57-29.65-13.43-8.22-38.37,3.15-54.86,10.67-5.24,2.4-9.78,4.46-13.37,5.66-22.19,7.44-34.19-17-48-45.28-3.4-6.93-6.91-14.11-10.81-21.4-4.25-7.95-11.07-11.28-20.34-9.91-22,3.28-50.6,31.91-58,69.29-2.94,14.86-4.14,31.48-4.15,49.38H959C959.19,2204.41,959.2,2194.72,958.8,2185.75Z"/><path class="cls-11" d="M1463.34,1758.75c-15,6.29-24.45,27-35.08,50.56-10.55,23.35-22.51,49.81-43,66.16-32.36,25.88-83,8.88-127.64-6.1-7.8-2.62-15.43-5.18-22.76-7.46,3.1,3-80.11,26.14-64.3,58.69S1432,1952.23,1484,1908.51s39.69-94.93,39.67-95c-25.32-30-57.7-52.14-58.28-52.53A7.23,7.23,0,0,1,1463.34,1758.75Z"/><path class="cls-11" d="M68.5,1680.19c12.91-27.2,37.57-48.39,49.11-57.28a287.78,287.78,0,0,1-25.82-16.86c-17.47,14.6-79.29,70.65-54,113.15a43.78,43.78,0,0,0,21.89,18.61C57.39,1728.86,55.42,1707.76,68.5,1680.19Z"/><path class="cls-11" d="M1553.56,1602.92c-15.76,15.88-34.49,31.38-56.43,46.54a7.23,7.23,0,0,1-1.87.92c-77.17,25.09-155.44,43.83-232.9,57.58l.33,0s-111.61,57.36-266,61.08-301.34,56.73-404.58,19.53-231.32,62.91-235.95,64.17h0c44.6-12.16,86.66-22.74,122-4.81,9.7,4.91,18.51,11.15,27.19,18.06,0,0,55.74,21.93,79.3,16.89s32.86-48.44,61.39-37.28,35.17,26.66,60.67,14.26,111.7-41.48,167.5-16.09,115.33,74.62,164.31,53.1,117.18-81.34,161.83-83.36,107.88,49.45,155.63,22.79,51.46-103.55,94.24-113.47c37.43-8.68,103.74,20.61,138,21,8.48-4.69,14.89-12.22,18.82-23.86C1622.42,1674.51,1570.3,1619.17,1553.56,1602.92Z"/><path class="cls-11" d="M688.08,2515a44,44,0,0,0,9.28-3.42A90.14,90.14,0,0,1,688.08,2515Z"/><path class="cls-11" d="M1495.7,1939.57a630.71,630.71,0,0,1-67.81,20.8C1454.64,1954.62,1477.3,1947.56,1495.7,1939.57Z"/><path class="cls-11" d="M520.67,2206.52c-1.67-9.77-3.41-19.74-5.61-28.65-8.36-33.9-25.5-38.13-71.33-49.41-8.72-2.15-18.33-4.52-28.94-7.37-58.54-15.71-83.52-44.61-90.33-54-63-5.31-115.14-15.94-152.31-29.21C184.09,2072,242.37,2169.69,520.67,2206.52Z"/><path class="cls-11" d="M1523.73,1813.52c.32.42,18.43,24.63,27.94,49.8C1547.51,1845.9,1536.54,1828.71,1523.73,1813.52Z"/><path class="cls-11" d="M1250.6,1991c-40.09,0-82.89-1.88-127.73-5.77-14.43-1.25-28.15-2.59-41.34-4,22.85,10.8,48.72,45,92.19,50.65,50.22,6.52,197.26,17.66,197.26,17.66,57.84-8,99.31-21.74,128.88-36.44l.23-.12c26-13,42.8-26.68,53.36-37.88.63-.67,1.16-1.22,1.6-1.66,1.91-5.85,1.72-30.73.39-58.24C1519.43,1963.12,1405.13,1991,1250.6,1991Z"/><path class="cls-11" d="M1426.27,1960.7c-7.48,1.17-77.8,9.94-140.87,15.32C1340.32,1974.37,1387.51,1968.9,1426.27,1960.7Z"/><g class="cls-5"><path class="cls-8" d="M1495.63,1604.91c93.93-99.52,67.57-141.37,67.57-141.37-139.83,161.83-461,141.37-924.77,63.49s-298.25-361.11-298.25-361.11S128.76,1309.77,89.44,1406.5c-38.76,95.31,13,177,14.5,179.36,55.17,43.5,126.88,59.58,128,59.82l.39.1c1.6.43,156.31,42.32,380.1,64.34l14.34,1.37c4.9.46,9.79.92,14.76,1.36,196.59,17.3,478.44,20.71,756.79-49.95C1439.11,1647.44,1473.44,1628.41,1495.63,1604.91Z"/></g><g class="cls-9"><path class="cls-10" d="M309.81,1145.56s334.44-136.73,676.6-82.67c-1.91,28.27,53.68,67.7,129.14,90.43,67.77,20.41,129.61,20.73,151.68,2.75,232.2,114.64,308.25,235.71,332.2,291.46-8.67-65.5-57.38-138.81-145.34-218.42-151.74-137.36-378.62-211.49-626.9-211.49a1315.28,1315.28,0,0,0-272.63,29.05,862,862,0,0,0-245.67,92.54A6.54,6.54,0,0,0,309.81,1145.56Z"/></g><g class="cls-5"><path class="cls-6" d="M102.35,2164.44a7.87,7.87,0,0,0-3.73,1.25c1.28-.44,2.53-.86,3.74-1.25Z"/></g><g class="cls-5"><path class="cls-6" d="M193.14,2308.35a279.92,279.92,0,0,1,18.74-35.12c-68.72-38-103.36-71.38-104.12-72.13a7.22,7.22,0,0,1-1.89-7c0-.15,2-7.63,4.13-17-17,5.18-37.58,14.34-42.32,24.67A11,11,0,0,0,67,2204c0,.1,0,.2-.07.29a10.8,10.8,0,0,0,1.45,7.27C74.58,2223.18,110.55,2264.67,193.14,2308.35Z"/></g><g class="cls-5"><path class="cls-8" d="M1545.12,2395.55S1529,2434,1379,2516.1,930,2628.68,595.22,2602.64,177.32,2439,177.32,2378.46c0-20.92,4.6-40.36,10.55-56.88C108.69,2280,67.51,2238.31,56.61,2220c-16.7,27.83-48.86,98.27-25,199.95,39.71,169.29,206.74,258.37,525.66,280.33,398.79,27.44,674.23,1.72,842.13-78.68a520.66,520.66,0,0,0,65.16-36.75C1565.53,2496.24,1545.12,2395.55,1545.12,2395.55Z"/></g><g class="cls-5"><path class="cls-6" d="M592.12,1788.54c103.24,37.2,250.19-15.81,404.58-19.53s266-61.08,266-61.08l-.33,0c-137.47,24.39-272.4,33-394.15,33-87.44,0-168.05-4.42-238-10.58-236.88-20.87-404.48-65.63-411.23-67.45-5.12-1.11-53.36-12.12-101.4-40-11.54,8.89-36.2,30.08-49.11,57.28-13.08,27.57-11.11,48.67-8.8,57.62,17.34,7,39.68,5.54,61.55,4,28.14-2,54.72-3.83,70.05,12.76,9.29,10.08,17.57,25.33,26.32,41.47,20,36.85,42.59,78.64,83.53,70.44,17.08-3.41,34-8,50.39-12.52l4.61-1.25h0C360.8,1851.45,488.89,1751.33,592.12,1788.54Z"/></g><g class="cls-5"><path class="cls-6" d="M617.06,1714.69l-14.34-1.37Q609.85,1714,617.06,1714.69Z"/></g><g class="cls-5"><path class="cls-6" d="M617.06,1714.69l-14.34-1.37Q609.85,1714,617.06,1714.69Z"/></g><g class="cls-5"><path class="cls-6" d="M115.32,1864.5c-2,29.34,15.94,52.24,43.49,69.8,35,13.38,81.72,22.91,141.27,28.88,2.05-13.76,4.39-49.19,28.51-59.23,28.54-11.87,102.32-24.73,137.05-21.09,18.71,2,33.19,3.33,42.6,4.19-12.12-10.27-23.78-19.8-36.56-26.28-31.65-16-70.89-5.31-116.34,7.11-16.61,4.54-33.79,9.23-51.36,12.75-51.32,10.29-77.77-38.52-99-77.71-2.38-4.38-4.72-8.68-7-12.81-6.51-10.25-12.21-19.32-13.17-20.85l-.19-.24C183.31,1768.24,118.38,1819.82,115.32,1864.5Z"/></g><g class="cls-5"><path class="cls-6" d="M187.09,2028.1c35.57,11.46,83.87,20.53,141.61,25.09.26,0,.51,0,.77.06,56.17,4.4,121.16,4.56,192-1.48,178.08-15.2,269.47-61.31,287.57-71.38v-7.2c-28.6,6-175.36,36.74-229,41.35-59.52,5.11-208.79,11.16-239.48-3-21.39-9.83-24.93-24.46-25.12-32.45-89.1-7.59-152-22.47-193-45.75C132.76,1975.62,159.07,2008.82,187.09,2028.1Z"/></g><g class="cls-5"><path class="cls-6" d="M566.55,2235.89c-11.63,4.65-8.37-44.18-11.63-71.46s-35.81-52.7-34.25-68.89c1.28-13.37,31.71-28.62,42.26-33.52-12.91,1.52-26.29,2.92-40.26,4.11-37.45,3.2-73.4,4.66-107.34,4.66-24.53,0-48-.78-70.28-2.19,11.7,11.31,34.46,28.1,73.47,38.58,10.5,2.81,20,5.16,28.66,7.28,46.06,11.35,71.43,17.59,81.88,59.95,2.48,10.09,4.37,21.16,6.19,31.87,4.35,25.54,8.85,51.95,20.58,58.74,4,2.33,9.2,2.27,15.83-.17,10.88-4,16.35-14.94,19.34-28.44.14-.68.36-1.74.65-3.17a181.92,181.92,0,0,0,2.38-18.9,1.34,1.34,0,0,1,0-.2s0-.06,0-.09c.13-1.64.21-3.27.32-4.91C584.77,2220.44,572.86,2233.37,566.55,2235.89Z"/></g><g class="cls-5"><path class="cls-6" d="M698.61,2511c20.58-11,39.71-39.93,44.2-77.6-14.51,33.35-41,51.28-65.59,32.11s3.26-167.74,1.86-190.06-6.51-65.11-6.51-65.11l-2.24-1.27c-.07,2.16-.17,4.37-.34,6.67-.15,2.12-.37,4.39-.64,6.78v0h0c-2,16.89-6.88,40.38-12.47,67.06-15.44,73.7-38.79,185.07-5.4,214.75,13.43,11.93,26.26,13.19,36.61,10.69a90.14,90.14,0,0,0,9.28-3.42C697.78,2511.39,698.21,2511.19,698.61,2511Z"/></g><g class="cls-5"><path class="cls-6" d="M640.69,2160.92c-6.67-4.26-15.2-4.1-23.37.44-4.83,2.68-6.46,16.47-7.39,30.12l46,10.17C655.48,2181.5,650.16,2167,640.69,2160.92Z"/></g><g class="cls-5"><path class="cls-6" d="M810.08,2031.89c35-4.64,66,31.94,180.11,42.48s182.29,14.88,182.29,14.88-1.24,24.55-36,24.68-75.64-27.16-98.58-12.9-18.6,77.15-14.26,113.91,32.24,101.62,4.34,120.35c-18.44,12.37-35.75,11.14-45.4,8.89,5.26,12.28,13.1,21.44,24.7,25.76,14.88-1.39,30.11-3,45.59-4.82a25.17,25.17,0,0,0,2.19-2.07c14.78-16.49,14.83-53.1.14-100.45a351.56,351.56,0,0,1-11.91-52.59,6.45,6.45,0,0,1-.23-1.47.56.56,0,0,0,0-.13c-5.32-37.74-3.41-72.48,10.06-85.32,5.51-5.26,12.65-6.67,20.1-4s15.83,7.73,24.72,13c31.19,18.67,54.77,30.15,74,7.65,19.42-22.72,46.23-51.14,77.57-68.64-7.21,0-14.53-.13-22-.31-239.6-5.87-386.76-67.4-410.84-78.21-11.16,6.36-49.09,26.09-117.75,44.19l-.12,0S775.07,2036.53,810.08,2031.89Z"/></g><g class="cls-5"><path class="cls-6" d="M1178.06,2162.92s117.8-23.08,161.83-49c35.38-20.83,51.51-44.45,54.55-53.6-29.36,5.14-63.12,8.81-102.08,10.23-44.07,7.3-83.55,48.35-109.44,78.64a56.24,56.24,0,0,1-10.69,9.79A15.16,15.16,0,0,1,1178.06,2162.92Z"/></g><g class="cls-5"><path class="cls-6" d="M809.57,1879.86a7,7,0,0,1,.64-1.21,37.85,37.85,0,0,0,1.89-4.8c-38.51,1.28-68.41,17-97.55,32.3-25.9,13.62-52.68,27.69-84.48,31a128.26,128.26,0,0,1-38.72-1.59c12.56,5.33,40.61,16.43,63.61,20C745.25,1937.69,795.57,1907.16,809.57,1879.86Z"/></g><g class="cls-5"><path class="cls-6" d="M1484,1908.51c-52.08,43.72-297.61,44.65-313.43,12.09s67.4-55.68,64.3-58.69c-12.22-3.78-23.6-6.76-33.46-7.85-26.42-2.91-47.5,12.8-74.17,32.67-20.45,15.24-43.62,32.51-74.23,45-14.11,5.74-26.42,8.14-37.75,8.14-24.11,0-43.74-10.87-66.66-23.56-24.21-13.4-51.66-28.6-94-38.17a174.86,174.86,0,0,0-27.8-4,51.19,51.19,0,0,1-3.44,9.57v23.7c14.6,8.51,88.16,45,300.69,63.46,59.4,5.15,113.27,6.6,161.28,5.16,63.07-5.38,133.39-14.15,140.87-15.32l1.62-.33a630.71,630.71,0,0,0,67.81-20.8c32.25-14,51.4-30.87,56.09-48.63a56,56,0,0,0-.12-27.62c-9.51-25.17-27.62-49.38-27.94-49.8l0,0C1523.73,1813.58,1536.08,1864.84,1484,1908.51Z"/></g><g class="cls-5"><path class="cls-6" d="M1081.53,1981.24c-145.84-15.47-217.6-39.18-248.87-53-5-1.69-8.3-3.17-9.23-4.35v56.07c25.35,11.28,169.76,70.8,404.41,76.54,23.35.58,45.1.42,65.42-.34,46.07-2.72,77.72-6.57,77.72-6.57s-147-11.14-197.26-17.66C1130.25,2026.25,1104.38,1992,1081.53,1981.24Z"/></g><g class="cls-5"><path class="cls-6" d="M823.43,1923.85c.93,1.18,4.2,2.66,9.23,4.35C829.07,1926.62,826,1925.15,823.43,1923.85Z"/></g><g class="cls-5"><path class="cls-6" d="M823.43,1923.85c.93,1.18,4.2,2.66,9.23,4.35C829.07,1926.62,826,1925.15,823.43,1923.85Z"/></g><g class="cls-9"><path class="cls-10" d="M1450.25,1722.81c-42.78,9.92-46.5,86.81-94.24,113.47s-111-24.8-155.63-22.79-112.85,61.85-161.83,83.36-108.51-27.71-164.31-53.1-142,3.69-167.5,16.09-32.15-3.1-60.67-14.26-37.83,32.24-61.39,37.28-79.3-16.89-79.3-16.89c5.21,4.14,10.36,8.52,15.63,13,27.1,23,55.1,46.75,101,44.3,18.12-4.75,40.36-10.86,61-17.31,8.24-3.92,16.43-8.18,24.76-12.56,33-17.38,67-35.18,112.95-34.05.17,0,.32,0,.49,0l.16,0a188.14,188.14,0,0,1,36.41,4.7c44.32,10,74,26.43,97.78,39.62,2.55,1.42,5,2.78,7.46,4.11,22,8.06,48.36,15.63,64.92,13.44,9.85-1.3,23.72-5.84,38.33-11.62,20.19-10.54,37.06-23,52.32-34.42,28.06-20.91,52.24-38.94,84.37-35.45,17.32,1.9,37.67,8.74,59.23,16l11.49,3.83c12.61,3.35,25.28,7.09,37.62,10.86,25.33,5.74,48.94,6.61,64.94-6.18,17.73-14.18,28.45-37.9,38.82-60.84,14.09-31.17,27.4-60.62,57.34-61,12.11-.16,25.81,1.83,40.32,3.94,32,4.68,58.16,7.13,75.5-2.46C1554,1743.42,1487.68,1714.13,1450.25,1722.81Z"/></g><g class="cls-5"><path class="cls-6" d="M963.09,1907.78c28.67,15.67,49.74,24.72,84.52,10.56,6.58-2.67,12.78-5.63,18.73-8.74-14.61,5.78-28.48,10.32-38.33,11.62C1011.45,1923.41,985.13,1915.84,963.09,1907.78Z"/></g><g class="cls-9"><path class="cls-10" d="M963.09,1907.78c28.67,15.67,49.74,24.72,84.52,10.56,6.58-2.67,12.78-5.63,18.73-8.74-14.61,5.78-28.48,10.32-38.33,11.62C1011.45,1923.41,985.13,1915.84,963.09,1907.78Z"/></g><g class="cls-5"><path class="cls-6" d="M628.58,1922.81c19.67-2,37.21-8.63,54.5-16.86-20.66,6.45-42.9,12.56-61,17.31C624.21,1923.15,626.35,1923,628.58,1922.81Z"/></g><g class="cls-9"><path class="cls-10" d="M628.58,1922.81c19.67-2,37.21-8.63,54.5-16.86-20.66,6.45-42.9,12.56-61,17.31C624.21,1923.15,626.35,1923,628.58,1922.81Z"/></g><g class="cls-9"><path class="cls-10" d="M714,2145.68c-1.28,2.55-18.91,77.5-15.19,119.66s14.88,102.93,9.3,125.25-11.16,51.68,5.89,50.64c9.07-.55,21.18-3.1,29.16-10.84a145.28,145.28,0,0,0-.65-33.79c-1.4-10.25-2.85-20.51-4.29-30.72-7.25-51.43-14.19-100.91-14.89-144.1,0,0,0,0,0-.07s0,0,0,0c-.34-21.52.84-41.5,4.37-59.33a115.42,115.42,0,0,1,14.15-36.67C734.17,2126.86,721.27,2131.05,714,2145.68Z"/></g><g class="cls-9"><path class="cls-10" d="M1015,2298.82c19.22-11.78-2.25-100.69-14.88-105.57-11.59-4.47-25,46.57-27.65,79.95,0,7.66.26,15.23.71,22.56C979.1,2318,995.78,2310.6,1015,2298.82Z"/></g><path class="cls-8" d="M868.18,1749.49c-87.71,0-168.56-4.43-238.69-10.61-235.41-20.75-402.82-65.06-412.5-67.66-12.65-2.78-196-45.6-207.88-185.72-6.15-72.78,47.51-171.69,140-258.12,105.5-98.56,247.79-170.71,400.66-203.16C719,988.31,893,985.63,1052.93,1016.49c166.67,32.16,310.71,99.8,416.56,195.61,108.94,98.61,159.3,186.16,154,267.65-4.29,65.41-44,123.22-121.46,176.72a15.69,15.69,0,0,1-4.08,2C1282.78,1728.43,1059.27,1749.49,868.18,1749.49Zm-40.87-723.35a1307.1,1307.1,0,0,0-271,28.87C409,1086.29,272,1155.67,170.63,1250.38c-85.64,80-135.52,169.08-130.16,232.47C50.53,1601.93,222.3,1640.17,224,1640.54c.28.07.57.13.85.21,1.67.46,169.35,45.86,408.06,66.84,219.32,19.27,545.11,21.28,853-78.31,67.78-47.3,102.48-96.9,106.07-151.59,4.61-70.29-43.72-151.79-143.67-242.26C1298.18,1099.48,1073.45,1026.14,827.31,1026.14Z"/><path class="cls-8" d="M1015.27,1948.38c-26.26,0-47.42-11.72-70.75-24.63-23.72-13.13-50.6-28-91.73-37.32-57.62-13-94.86,6.54-134.27,27.27-26.62,14-54.13,28.46-87.57,31.93-59.59,6.19-94.24-23.22-124.8-49.18-13-11-25.23-21.44-38.33-28.08-28.7-14.54-66.48-4.22-110.23,7.73-16.75,4.58-34.07,9.32-51.94,12.89-57.47,11.48-86.79-42.55-108.19-82-8.06-14.85-15.66-28.87-23-36.84-7.85-8.51-30.08-7-51.59-5.45-36.23,2.54-81.27,5.69-104.76-33.76-39.58-66.47,60-143.5,64.25-146.75a15.74,15.74,0,0,1,19.09,25h0c-.82.63-81.2,63.82-56.3,105.63,12.64,21.22,38.1,21.08,75.52,18.47,28.92-2,58.82-4.12,76.91,15.49,10,10.86,18.54,26.56,27.56,43.18,23.22,42.8,42.17,72.61,74.36,66.15,16.79-3.36,33.58-8,49.82-12.38,47.94-13.1,93.21-25.48,132.75-5.45,16.41,8.32,30.68,20.44,44.48,32.16,28.25,24,54.85,46.68,101.17,41.87,27.4-2.85,51.09-15.3,76.17-28.49,40.74-21.42,86.9-45.7,155.86-30.11,45.5,10.29,75.74,27,100,40.48,32.67,18.09,50.67,28.06,84.63,14.24,27.9-11.36,49.83-27.7,69.18-42.11,28.27-21.07,55-41,90.39-37.08,18.23,2,39,9,61,16.35,39.1,13.13,83.43,28,106,9.94,16.13-12.9,26.42-35.67,36.37-57.69,14.58-32.23,29.65-65.56,65-66,12.76-.2,26.8,1.87,41.66,4,46.3,6.74,75.12,8.73,85-20.61,13.48-40-35.94-94.87-56.12-112.63a15.74,15.74,0,0,1,20.76-23.66c3.61,3.17,88.11,78.28,65.18,146.33-19,56.35-77,47.89-119.37,41.71-13.58-2-26.34-3.83-36.69-3.71-14.33.19-23.44,18.09-36.76,47.54-11,24.22-23.36,51.67-45.39,69.3-36,28.78-89,11-135.67-4.68-20.36-6.83-39.58-13.28-54.45-14.91-23.12-2.5-42,11.55-68.15,31-20.86,15.54-44.49,33.16-76.11,46C1041,1945.82,1027.57,1948.38,1015.27,1948.38Z"/><path class="cls-8" d="M478.2,1993.78H473c-250.28-1-372.69-33.07-409.33-107.36-8.34-16.91-9.18-34.49-2.49-52.26,20.19-53.69,104-89.76,113.48-93.69a15.73,15.73,0,0,1,12.07,29.06c-22.31,9.29-83.06,41-96.11,75.74-3.58,9.54-3.18,18.2,1.27,27.23,30.19,61.21,147.77,88.91,381.23,89.81h5.08c240.09,0,325.07-66.26,326.91-96.75a15.74,15.74,0,0,1,31.42,1.9C832.86,1928.52,719.1,1993.77,478.2,1993.78Z"/><path class="cls-8" d="M413.42,2079.42c-148.1,0-257.1-27.47-295.91-60.58-46.33-39.52-59.23-146-59.76-150.5A15.74,15.74,0,0,1,89,1864.69c3.22,27.35,18.27,104.06,48.92,130.2,35.86,30.6,178.34,65.83,382.79,48.38,164.72-14.06,254.62-54.91,279.76-68v-92.66a15.74,15.74,0,0,1,31.48,0v101.93a15.72,15.72,0,0,1-7.37,13.32c-3.84,2.41-96.38,59.27-301.19,76.76C484.88,2077.92,448.06,2079.42,413.42,2079.42Z"/><path class="cls-8" d="M1252.2,1999.62c-40.69,0-84.22-1.92-130.07-5.9-248.39-21.52-312.72-67.78-315.34-69.74a15.74,15.74,0,0,1,18.72-25.3c1.34.92,64.64,43.35,299.34,63.69,244.32,21.16,404.75-20.8,418.69-73.61,11.9-45-55.79-102.42-82.88-120.73a15.73,15.73,0,0,1,17.62-26.07c4.74,3.19,115.68,79.18,95.69,154.84C1556.82,1961.73,1432.71,1999.62,1252.2,1999.62Z"/><path class="cls-8" d="M1254.67,2079.74q-13.5,0-27.4-.34c-263.3-6.45-411.77-77.69-418-80.72a15.74,15.74,0,1,1,13.83-28.27c2.13,1,149.69,71.28,404.9,77.53,152.07,3.71,268.4-24.93,319.15-78.62,1.77-11.54.32-51.9-2.21-85.27a15.74,15.74,0,1,1,31.38-2.38c7.37,97.15.32,103.3-5.35,108.24,0,0-.38.43-.87.95C1515.74,2048.49,1404.29,2079.74,1254.67,2079.74Zm295.64-113.54-.27.24Zm0,0h0Z"/><path class="cls-8" d="M679.39,2539.06c-15.17,0-30-5.93-43.16-17.59-43.33-38.51-20.31-148.35-1.81-236.61,6.22-29.65,11.58-55.26,12.69-70.78,2.47-34.58-7.79-43.93-11-46-5.13-3.28-11-1.16-13.88.3-2.74,4.58-3.69,21.27-4.33,32.43-1.76,30.8-4.17,73-38.33,85.55-13.23,4.86-25.08,4.36-35.23-1.51-21.05-12.19-26.22-42.58-31.7-74.76-1.76-10.29-3.57-20.94-5.86-30.22-6.88-27.91-17.25-31.38-65.08-43.16-8.77-2.16-18.45-4.54-29.13-7.41-72.34-19.42-96.53-59.27-97.53-61a15.74,15.74,0,0,1,27-16.12c.48.77,20.19,31,78.67,46.69,10.44,2.8,19.9,5.13,28.49,7.24,47.66,11.74,76.43,18.83,88.11,66.19,2.56,10.39,4.47,21.61,6.32,32.47,3.45,20.26,8.18,48,16.45,52.8,2.07,1.21,5.82.23,8.6-.79,14.77-5.43,16.36-33.26,17.76-57.81,1.49-25.93,2.77-48.33,19.71-57.74,15.54-8.63,33.05-8.53,46.85.27,13.44,8.57,28.78,28.49,25.47,74.75-1.26,17.65-6.83,44.22-13.28,75-14.13,67.41-37.77,180.24-8.08,206.63,11.88,10.57,24.48,12.42,37.46,5.5,24.68-13.17,46.17-56.3,39.42-105.69-1.4-10.25-2.84-20.51-4.28-30.72-11-77.82-21.34-151.32-10.44-206.36,9.7-49,46.83-83,77.12-87.53,18.74-2.78,35.17,5.36,44,21.79,4.09,7.64,7.7,15,11.19,22.12,6,12.34,15.11,30.83,20.19,33.59,2.72-.93,6.79-2.79,11.09-4.75,20.92-9.54,52.53-24,76.36-9.37,13.91,8.5,21.49,24.73,22.53,48.21.69,15.67.26,32.73-.2,50.79-1.72,68.4-.31,121.25,34,127.91,15.72,3,26.89,1,33.24-6.08,12.35-13.78,11.72-49.13-1.66-92.24-17.62-56.76-23.21-125.9.19-148.2,7.87-7.5,18.39-9.62,28.9-5.79,8.21,3,16.94,8.2,26.17,13.73,33.21,19.87,49.33,25.58,63.13,9.43,28.31-33.12,71.93-78.11,123.59-86.46a15.74,15.74,0,0,1,5,31.07c-41.45,6.7-79.59,46.49-104.68,75.84-33.32,39-77.08,12.77-103.22-2.87-6.85-4.1-13.37-8-18.49-10.25-5.61,11.14-8.58,56.07,9.45,114.18,17.4,56.06,15.63,99.59-5,122.56-9.8,10.94-28.61,22.6-62.66,16-63.15-12.26-61.09-93.95-59.44-159.59.44-17.5.86-34,.21-48.61-.53-12-3.19-20.12-7.5-22.76-9.6-5.86-34.77,5.64-46.87,11.16-5.47,2.5-10.19,4.65-14.22,6-29.3,9.77-44.09-20.41-58.39-49.61-3.37-6.87-6.85-14-10.68-21.14-2.15-4-5-6.49-11.57-5.49-16.22,2.41-43.67,26.06-50.88,62.51-9.86,49.81.14,120.75,10.73,195.86,1.44,10.25,2.9,20.55,4.31,30.85,8,58.3-15.5,116.22-55.81,137.72A63.57,63.57,0,0,1,679.39,2539.06ZM622.51,2168"/><path class="cls-8" d="M529.45,2230.68a14.59,14.59,0,0,1-2-.13c-368.16-46-380.89-196.92-381.26-203.32a15.74,15.74,0,0,1,31.43-1.78c.09,1.09,15.28,131.59,353.74,173.87a15.74,15.74,0,0,1-1.94,31.36Z"/><path class="cls-8" d="M966.12,2237.45H730.49a15.74,15.74,0,0,1,0-31.47H966.12a15.74,15.74,0,1,1,0,31.47Z"/><path class="cls-8" d="M662.2,2237.45a15.08,15.08,0,0,1-1.76-.1l-61-6.77a15.74,15.74,0,0,1,3.48-31.28l61,6.77a15.74,15.74,0,0,1-1.72,31.38Z"/><path class="cls-8" d="M1050.27,2223.94a15.73,15.73,0,0,1-.71-31.45c1.42-.07,143.36-6.82,239-25.6,96.37-18.91,198.48-109.38,198.56-147.27a15.75,15.75,0,0,1,15.74-15.7h0a15.74,15.74,0,0,1,15.7,15.77c-.15,61.45-121.55,158-224,178.09-97.93,19.22-237.68,25.87-243.58,26.14Z"/><path class="cls-8" d="M633.31,2390.65h-.53c-353.42-11.48-523.93-176.48-531-183.49a15.74,15.74,0,0,1-4.13-15.22c2.14-8.07,7.89-31.65,8.82-43.67.82-10.66-8-32-17.26-54.54l-4-9.61c-16.42-40.26,33.28-80.49,39-84.94A15.73,15.73,0,1,1,143.57,2024c-11.58,9.08-35,33.86-29.18,48.22l3.9,9.51c11.7,28.39,20.93,50.81,19.54,68.94-.9,11.62-4.82,29.22-7.42,40,33.88,29.28,200.3,158.7,503.4,168.54a15.73,15.73,0,0,1-.5,31.46Z"/><path class="cls-8" d="M822.19,2401.38c-46,0-74.25-1.64-75.16-1.69a15.74,15.74,0,0,1,1.94-31.42c3,.18,298.75,17.31,549.55-62.66,229.92-73.31,220.11-112.3,214.25-135.6-.45-1.78-.89-3.53-1.29-5.25-2.85-12.47-2.27-28.31-1.66-45.08,1.12-30.6,2.38-65.27-16.59-79.89a15.74,15.74,0,0,1,19.22-24.92c31.79,24.5,30.14,69.67,28.82,106-.53,14.65-1,28.48.9,36.93.34,1.5.73,3,1.12,4.59,12.52,49.77,3.47,97.16-235.21,173.26C1129.15,2392.65,928.33,2401.38,822.19,2401.38Z"/><path class="cls-8" d="M627.93,2437.37l-.87,0c-211-11.51-350.43-61.43-430.23-101.3-88-43.94-137.13-92.06-148.71-113.68-5.32-9.95-5.77-20.36-1.28-30.13,12.17-26.54,59.8-38.35,69.22-40.44a15.73,15.73,0,0,1,6.85,30.71h0c-19.51,4.38-43.81,14.84-47.47,22.85-.2.43-.34.73.42,2.15,5.09,9.5,42.92,54.37,135,100.39,77.13,38.53,212.24,86.81,417.86,98a15.74,15.74,0,0,1-.83,31.45Z"/><path class="cls-8" d="M888,2444c-85.65,0-138-6.57-139.13-6.72a15.74,15.74,0,0,1,4.08-31.21c2.4.32,243,30.36,540.49-41.51,188.83-45.62,260.2-107.52,264-150.25,2.56-28.57-26-44.42-38.47-49.91a15.73,15.73,0,1,1,12.72-28.78c38.79,17.13,60.13,47.61,57.09,81.51-6.32,70.45-111.29,135.33-288,178C1136.53,2434.8,989.06,2444,888,2444Z"/><path class="cls-8" d="M840,2733.83q-130.38,0-284.33-10.63c-179.61-12.36-311.44-46.11-403-103.18-77-48-123.94-111.71-143.43-194.79-33.85-144.3,35.7-229.62,38.67-233.18a15.74,15.74,0,0,1,24.19,20.14h0c-2.56,3.1-62.32,77.57-32.22,205.85,17.49,74.57,59.83,131.9,129.43,175.27,85.88,53.52,216.6,86.66,388.52,98.5,391.76,27,673.63.78,837.85-77.86,163.31-78.21,178.25-166.48,179.55-250.19,1.2-76.51-17.73-157.18-17.92-158a15.74,15.74,0,0,1,30.62-7.27c.82,3.45,20,85.35,18.77,165.75-1.39,89.47-17.91,192.12-197.42,278.08C1281.5,2703.53,1093.91,2733.82,840,2733.83Z"/><path class="cls-8" d="M277.77,1513.94c15.59,2.63,11.19,21.11,1.75,28.2-17.11,16.67-76.6,20.07-66-15.54a32,32,0,0,1,9.41-12.66c-1.09,5-2,9.81-1.83,14.16.07,11.87,11.14,10.51,19.95,10.61,10.56-.53,22.38-2.08,31.31-6.58,7.57-3.74,13.26-10.53,5.45-18.19Z"/><path class="cls-8" d="M282,1339.87c-6.2,25.29,2.61,26.05,24.8,24.31,11.86-.81,44.65-7.84,30.07-24.31,15.62,2.61,11.22,21.14,1.76,28.22-15.14,12.59-42.69,16.59-59.44,6.63-13.52-8.56-7.86-26.79,2.81-34.85Z"/><path class="cls-8" d="M336.53,1207.19c-6.2,25.27,2.62,26,24.8,24.3,11.87-.81,44.66-7.84,30.07-24.3,15.62,2.61,11.22,21.13,1.77,28.21C378,1248,350.48,1252,333.73,1242c-13.52-8.56-7.87-26.78,2.8-34.84Z"/><path class="cls-8" d="M686.85,1122.86c-3.13,20.56-1.92,27,21.9,24.33,12.09-.92,39.39-8.38,27.41-24.33,13.85,2.48,11,20.31,2.84,27.49-13.17,13.79-48.2,19.67-60.1,2.14-6.11-10,0-22.87,8-29.63Z"/><path class="cls-8" d="M1375.2,1509.06c-7.66,19.33-7.92,25.9,15.89,28.62,12,1.81,40.26.66,32.16-17.57,13,5.53,6.21,22.25-3.39,27.42-15.92,10.49-51.38,8.37-59-11.38-3.72-11.06,5.15-22.28,14.39-27.09Z"/><path class="cls-8" d="M1255.34,1207.14c-7.66,19.34-7.93,25.9,15.89,28.62,12,1.81,40.26.65,32.16-17.58,12.95,5.53,6.21,22.26-3.39,27.43-15.92,10.49-51.38,8.37-59-11.38-3.72-11.06,5.15-22.28,14.39-27.09Z"/><path class="cls-8" d="M470.2,1478.37c3.9,25.73,12.34,23.08,32.19,13,10.66-5.28,38.31-24.26,18.55-33.93,15.43-3.54,18.42,15.27,12.38,25.42-9.21,17.41-33.15,31.6-52.44,28.76-15.76-2.76-17.47-21.76-10.68-33.28Z"/><path class="cls-8" d="M605.93,1225.62c-1.78,23.07-32.81,33.35-51.63,21-17.21-10.05-16.92-32.91-1.44-44.18,19.93-16.1,53.47-3,53.07,23.14Zm-1.57,0c-.81-21.41-48.31-18.24-50.58,0,.52,24,50.39,25.68,50.58,0Z"/><path class="cls-8" d="M951.91,1139.15c-1.78,23.06-32.81,33.34-51.63,21-17.21-10-16.92-32.91-1.44-44.18,19.93-16.1,53.47-3,53.07,23.15Zm-1.57,0c-.81-21.42-48.31-18.25-50.59,0,.53,23.94,50.4,25.68,50.59,0Z"/><path class="cls-8" d="M756.6,1365.21c-1.12,9.54-11.05,13.72-18.66,17.29-18.86,9.39-72.17,10.32-75.78-17.29,1.62-21.59,32.68-28,50-27.17,14.5.54,42.83,10.52,44.47,27.17Zm-1.57,0c-2.88-19-52.36-10.88-65.86-8.28-6.8,1.6-20.89,6.66-10.65,13.92,13.13,11.47,73.11,17.54,76.51-5.64Z"/><path class="cls-8" d="M1379.73,1358.13c-4.65,29.27-76.33,32.42-79.27,0,1.22-20.47,25.55-28,42.39-27.17,14.7,1,35.57,10.73,36.88,27.17Zm-1.57,0c-3.18-15.09-24-11.71-35.31-11.44-9.22.91-19,1.88-26.49,6.91a7.81,7.81,0,0,0-3.31,4.53c2.63,19.1,64.55,22.8,65.11,0Z"/><path class="cls-8" d="M940.8,1340.46c14.54,2.92,31.76,3.17,42.93,14.43,10.75,13.7-9.46,23.34-20.71,24.85-20.59,4.11-76.11,2.43-75.82-27.11,5.95-22.84,37.21-13.81,53.6-12.17Zm-.17,1.56a57.64,57.64,0,0,0-34.54,8.81,12.06,12.06,0,0,0-3.06,2.8c-.59.84-.38,1.15-.18.66,14.58,12.29,38.77,17.12,58.62,15.34,22.76-2.64,22.29-11.09,3.15-21.24a64,64,0,0,0-24-6.37Z"/><path class="cls-8" d="M1077.76,1201.21c8.51,1.69,18.06,3.61,24.13,10.77,8,9.19.77,22.41-9.18,26.5-18.08,8.62-52,2.06-50.21-23.15,2.88-16.9,22.87-16.69,35.26-14.12Zm-.17,1.56c-8.44-.55-19.61,5.44-19.44,14.22,1.93,6.87,9.39,11,16.6,12.51,7.8,1.46,20.29,0,22.77-8.32,2-9.44-10.51-18.56-19.93-18.41Z"/><path class="cls-8" d="M1156.48,1453.69c25,3.48,36.28,32.49,16.64,50.39-20.62,18.9-57.61,1.05-52.81-27.61,2.3-17.23,21.34-25.65,36.17-22.78Zm-.16,1.56c-24.55-1-27.77,39.69-4.69,44.07,28.31,4.24,33.85-41.2,4.69-44.07Z"/><path class="cls-8" d="M688.44,1546.5c31.25,7.64,26.52,66-7,66-18.21-1.56-27.47-22.79-24.41-38.72,2.12-14.57,16.44-29.13,31.42-27.25Zm-.17,1.56c-13.71,0-15.5,17.24-15.61,27.35,0,8.62,1.17,21.91,10.1,24.54,21.15,1.28,29.1-49.16,5.51-51.89Z"/><path class="cls-8" d="M972,1546.5c31.24,7.64,26.52,66-7,66-18.21-1.56-27.46-22.79-24.41-38.72,2.12-14.58,16.45-29.13,31.43-27.25Zm-.17,1.56c-13.71,0-15.51,17.24-15.61,27.35,0,8.62,1.17,21.91,10.09,24.54,21.16,1.28,29.1-49.16,5.52-51.89Z"/></svg>