<svg id="Layer_1" data-name="Layer 1" xmlns="http://www.w3.org/2000/svg" viewBox="0 0 1500 1607.39"><defs><style>.cls-1{fill:#f9a332;}.cls-2{fill:#650000;}.cls-3{fill:#ee1822;}.cls-4{opacity:0.4;}.cls-5{fill:#fff;}.cls-6{opacity:0.3;}.cls-7{fill:#6d184e;}.cls-8{opacity:0.5;}.cls-9{opacity:0.35;}.cls-10{fill:#ffce00;}.cls-11{opacity:0.6;}</style></defs><path class="cls-1" d="M912.67,124.37S777.74,79.49,767.19,174.13,632,680.88,239.38,907,20.81,1492.57,406.09,1579.31,1745.14,215.94,912.67,124.37Z"/><path class="cls-2" d="M441.38,1600.5a177.85,177.85,0,0,1-39.11-4.22c-106.86-24.06-201.06-69.28-272.4-130.77C58.71,1404.19,14.91,1331,3.2,1253.8-17.57,1117,63.23,988.45,230.7,892,436.78,773.25,562.37,603.85,631.44,482.65c76.5-134.24,112.76-259.2,118.47-310.45,3-26.74,15.17-47.67,35.24-60.51,45.38-29,118.3-8.39,131.15-4.41,163.35,18.38,270.28,88.61,317.82,208.75,102.05,257.94-100.64,692.18-353.61,987.83-83.45,97.53-169.58,176.21-249.1,227.51C560.16,1577.35,496.45,1600.5,441.38,1600.5ZM846.66,131.15c-15.82,0-31.39,2.53-42.81,9.86-11.21,7.19-17.55,18.65-19.37,35.05-5.19,46.55-37.54,174.15-122.83,323.81C590.45,624.81,460.9,799.49,248.06,922.11c-154.2,88.83-228.94,204.77-210.47,326.47,10.44,68.86,50.21,134.76,115,190.59,67,57.78,156,100.37,257.34,123.18,105.33,23.74,275.53-84,444.18-281.1,125.82-147.06,235.82-326.88,301.79-493.35,74.48-188,90.35-346.7,45.9-459.07-42.59-107.64-140.5-170.62-291-187.17a17.48,17.48,0,0,1-3.58-.79C895.71,137.09,870.88,131.15,846.66,131.15Z"/><path class="cls-3" d="M235.89,1033.25s374.35-303.12,558.9-762.37,678.86-199.44,436.54,415.58c-248.56,630.86-725.21,842.07-970.11,732.3C-86.71,1262.81,235.89,1033.25,235.89,1033.25Z"/><g class="cls-4"><path class="cls-5" d="M329.3,1422C-56.82,1274.52,304,1036.52,304,1036.52S678.32,733.4,862.86,274.15c57.06-142,143.73-215.22,229.09-230.49C983.55,12.91,853.89,79.74,777.42,270c-184.55,459.25-558.9,762.37-558.9,762.37s-322.6,229.56,25.33,385.51c47.06,21.1,102.7,30.28,163.61,27C379.48,1440.39,353.84,1431.4,329.3,1422Z"/></g><path class="cls-2" d="M400.93,1464c-53.43,0-103.06-9.76-146.82-29.37-106.46-47.72-164-108-171-179.13-12.09-122.26,131-228,142.25-236.07,6.57-5.38,97.51-80.67,208.26-207.2C539,691.84,684.35,499.08,778.65,264.4,867.51,43.27,1021.39-10.3,1134.49,34.71c81.08,32.26,141.89,113.15,166.86,221.94,28.42,123.82,9.8,274.65-53.84,436.18C1108,1047,877.77,1311.37,616,1418.08,541,1448.63,468,1464,400.93,1464ZM246,1047.41c-1.38,1-138.69,100.26-128.3,204.74,5.75,57.79,56.44,108.51,150.65,150.74,89.93,40.31,208.73,34.26,334.53-17,253-103.14,476.2-360.39,612.29-705.79,77.14-195.78,71-334.09,52.3-415.66C1245.08,167,1191.93,95,1121.63,67c-97.06-38.61-230.78,11.44-310.71,210.34C714.68,516.87,566.54,713.2,459.22,835.74c-116.3,132.78-208.52,207.89-212.38,211-.28.23-.57.44-.86.65Zm-10.09-14.16h0Z"/><path class="cls-2" d="M196.83,1222.35c7.91,9.44,15,18.47,22.21,27.3s14.42,17.28,21.87,25.46,15.21,16,23.43,23.59c2.09,1.85,4.14,3.79,6.21,5.76,2.2,1.76,4.37,3.62,6.55,5.52,4.24,4.08,9.1,7.17,13.61,11.66a86.1,86.1,0,0,1-9.14-1.14c-1.55-.22-3.05-.54-4.59-.83s-2.92-.89-4.4-1.33c-2.91-1-5.84-2-8.74-3.1-2.79-1.3-5.54-2.7-8.28-4.15a109.22,109.22,0,0,1-28.93-23,124.67,124.67,0,0,1-20.44-30.47C201.09,1246.58,197.3,1234.77,196.83,1222.35Z"/><path class="cls-2" d="M282.71,1226.47a321.35,321.35,0,0,1-21.5,25.91c-7.31,8.09-14.75,15.82-22,23.59s-14.5,15.44-21.52,23.42-13.68,16.17-20.94,25.48c-.44-11.8,3.19-23.41,8.3-33.9a123.14,123.14,0,0,1,20.1-28.24,144.87,144.87,0,0,1,26.29-21.92C261,1234.68,271.26,1229.36,282.71,1226.47Z"/><path class="cls-1" d="M1189.88,19.05s-130.49-21.74-105,91.67c24.18,107.52,153.83,407.86-447.89,893.77-59.2,47.8-95.11,118.15-101.13,194-7.51,94.52-42.2,276.18-205.62,259.69-121.91-12.3,195.31,390.69,781.6-136.75S1483,37,1189.88,19.05Z"/><g class="cls-6"><g class="cls-6"><circle class="cls-7" cx="760.12" cy="1330.36" r="14.17" transform="translate(-767.94 1442.93) rotate(-64.47)"/></g></g><g class="cls-6"><g class="cls-6"><circle class="cls-7" cx="940.28" cy="1172.05" r="14.17" transform="translate(-342.54 389.62) rotate(-19.88)"/></g></g><g class="cls-6"><g class="cls-6"><circle class="cls-7" cx="900.93" cy="1277.32" r="14.17" transform="translate(-639.95 1539.82) rotate(-64.47)"/></g></g><g class="cls-6"><circle class="cls-7" cx="838.82" cy="1100.92" r="14.17"/></g><g class="cls-6"><circle class="cls-7" cx="1057.32" cy="1064.37" r="14.17" transform="translate(-61.69 2063.69) rotate(-86.96)"/></g><g class="cls-6"><circle class="cls-7" cx="1117.8" cy="863.72" r="14.17"/></g><g class="cls-6"><g class="cls-6"><circle class="cls-7" cx="994.69" cy="953.73" r="14.17"/></g></g><g class="cls-6"><circle class="cls-7" cx="1329.28" cy="832.19" r="14.17" transform="translate(-220.6 1071.75) rotate(-40.83)"/></g><g class="cls-6"><circle class="cls-7" cx="1285.35" cy="572.94" r="14.17" transform="translate(-39.61 98.73) rotate(-4.33)"/></g><g class="cls-6"><g class="cls-6"><circle class="cls-7" cx="1190.89" cy="708.52" r="14.17" transform="translate(-54.03 99.92) rotate(-4.7)"/></g></g><g class="cls-6"><circle class="cls-7" cx="1111.86" cy="600.67" r="14.17" transform="translate(90.67 1345.11) rotate(-64.47)"/></g><g class="cls-6"><g class="cls-6"><path class="cls-7" d="M1259,412.25a14.17,14.17,0,1,1-13.47-14.83A14.17,14.17,0,0,1,1259,412.25Z"/></g></g><g class="cls-6"><g class="cls-6"><path class="cls-7" d="M1428.16,354.3a14.17,14.17,0,1,1-13.47-14.83A14.15,14.15,0,0,1,1428.16,354.3Z"/></g></g><g class="cls-6"><circle class="cls-7" cx="1271.84" cy="206.81" r="14.17" transform="translate(873.43 1432.21) rotate(-81.22)"/></g><g class="cls-6"><circle class="cls-7" cx="1174.63" cy="310.7" r="14.17" transform="translate(-35.65 417.98) rotate(-19.88)"/></g><g class="cls-6"><g class="cls-6"><circle class="cls-7" cx="1296.19" cy="277.22" r="14.17"/></g></g><g class="cls-6"><circle class="cls-7" cx="1393.92" cy="480.27" r="14.17" transform="translate(25.25 1028.36) rotate(-40.83)"/></g><g class="cls-6"><circle class="cls-7" cx="1398.8" cy="671.39" r="14.17" transform="translate(583.94 1991.77) rotate(-83.96)"/></g><g class="cls-6"><circle class="cls-7" cx="1214.18" cy="1037.35" r="14.17" transform="translate(-323.82 1467.34) rotate(-56.13)"/></g><g class="cls-6"><circle class="cls-7" cx="697.17" cy="1212.7" r="14.17" transform="translate(-96.98 61.17) rotate(-4.7)"/></g><g class="cls-6"><circle class="cls-7" cx="654.7" cy="1406.91" r="14.17" transform="translate(-548.46 426.89) rotate(-25.88)"/></g><g class="cls-6"><circle class="cls-7" cx="556.07" cy="1485.39" r="14.17" transform="translate(-1023.94 1347.03) rotate(-64.47)"/></g><g class="cls-6"><circle class="cls-7" cx="836.83" cy="1383.1" r="14.17" transform="translate(-767.46 1581.82) rotate(-65.89)"/></g><g class="cls-6"><circle class="cls-7" cx="909.24" cy="866.66" r="14.17" transform="translate(-253.27 1342.47) rotate(-65.89)"/></g><g class="cls-6"><g class="cls-6"><circle class="cls-7" cx="1046.39" cy="714.28" r="14.17" transform="translate(268.46 1714.25) rotate(-86.44)"/></g></g><g class="cls-8"><path class="cls-5" d="M1209.63,117.28a66.47,66.47,0,0,0-22.75-53.36c56,3.82,139,44.66,161.16,62.67-26-37.38-55.49-67.39-87.33-88.39-22.8-11.08-46.54-17.67-70.83-19.15,0,0-130.49-21.74-105,91.67,24.18,107.52,153.83,407.86-447.89,893.77-59.2,47.8-95.11,118.15-101.13,194C532,1247,521,1318.56,489,1374.42c31.37-27.44,61.76-65.46,86.81-118.07,15-31.52,19.21-67.11,32.53-98.21a80.11,80.11,0,0,0,100.45-122c482.36-402.82,469.8-709,440.92-855.81A66.61,66.61,0,0,0,1209.63,117.28Z"/></g><g class="cls-9"><path class="cls-2" d="M1194.61,239.44c-24.88-39.67-62.42-65.26-108.55-74C960.75,141.71,803,254.92,785.39,267.91a67.62,67.62,0,0,0,80.37,108.78c40.53-29.95,141.49-88.54,195.14-78.36,9,1.7,14.34,5.34,19.13,13,5.38,8.57,7.79,14.32,8.86,17.63-4.46,3.52-15.3,10.39-39.13,18.49-36,12.23-83.71,21.57-134.22,31.45-142.07,27.79-289,56.54-329.57,171.7-15.34,43.56-31.13,106.82,8.74,153.21,44.23,51.47,114,38.22,181.41,25.41,40.74-7.74,108.93-20.7,119.77-.8,13.54,24.86,12.43,45.42-3.5,64.7-36.13,43.73-138.45,67-264.1,26.88C486.69,774.77,333.82,849.7,256,947.07c-53.88,67.39-66,138-33.21,193.84,28.29,48.15,83.23,74.52,163.3,78.36,38.32,1.84,83.19-1.49,133.36-9.88A67.62,67.62,0,1,0,497.11,1076c-115.12,19.25-150.56,1-157-3.28.43-6,5.68-21.46,21.46-41.2,48.44-60.58,146-108.08,225.54-82.7,83.62,26.7,166.31,34.07,239.11,21.32,71.85-12.59,132.36-44.87,170.39-90.89,51.11-61.86,57.84-142.43,18-215.54-58-106.5-186.82-82-263.79-67.39-11.48,2.19-26.5,5-40,7,.78-2.43,1.65-5,2.64-7.83,14.87-42.23,143.11-67.32,228-83.92,127.3-24.91,237.24-46.42,273.36-129.82C1233.58,338.59,1226.76,290.7,1194.61,239.44Z"/></g><path class="cls-2" d="M383.51,1555.89c45.24,12.31,92.73,17.34,140.12,16.67l17.79-.58c5.93-.22,11.87-.21,17.78-1l35.49-3.52,35.25-5.82c2.93-.52,5.89-.88,8.8-1.54l8.71-2,17.43-4.06,17.42-4,17.16-5.17,17.16-5.17,8.58-2.59,4.29-1.29,4.2-1.56c22.37-8.51,45.09-16.09,66.74-26.48l16.42-7.31c5.44-2.52,11-4.65,16.3-7.59l31.93-16.63,16-8.35,15.46-9.27,30.94-18.52c5.23-3,10.18-6.39,15.14-9.8l14.93-10.16,29.86-20.3,57.42-44,55.07-47,26.55-24.54,25.84-25.29c67.9-68.4,127.57-144.89,176.11-227.93a1021,1021,0,0,0,63.81-129.16A982.64,982.64,0,0,0,1437,765.1c23.09-93.16,32.67-189.82,26.23-285.46q-2.54-35.83-7.91-71.34c-3.61-23.65-8.46-47.07-14.25-70.22-11.56-46.29-27.9-91.35-49.48-133.44s-48.86-81.18-82.91-112.39a237.67,237.67,0,0,0-56.06-38.56,78.35,78.35,0,0,0-7.65-3.47L1237.27,47l-7.9-2.68L1225.42,43l-4-1-8-2.09-8.15-1.46-4.07-.74-4.11-.41-8.21-.84-1-.09-.83-.11c-1.52-.23-4-.53-6-.71s-4.33-.37-6.52-.48c-4.37-.23-8.75-.29-13.09-.17a119.13,119.13,0,0,0-25.06,3.24c-7.8,2-15.11,4.86-20.69,9s-9.93,8.86-12.57,15-4,13.36-4.06,21.24,1.34,16.27,3.13,24.85c4.24,18,9.64,37.13,14,56.43a596.06,596.06,0,0,1,10.59,58.94c.65,5,1,10,1.59,15l.74,7.49.44,7.52c.27,5,.64,10,.82,15l.21,15.07c.16,5,0,10.05-.21,15.07l-.5,15.06-1.24,15c-.43,5-.72,10-1.49,15-1.42,9.92-2.37,19.94-4.42,29.74-1.82,9.85-3.52,19.73-6.05,29.41-9.1,39-22.33,76.73-38.34,113.08l-12.55,27c-4.48,8.84-9.16,17.56-13.73,26.35s-9.62,17.27-14.56,25.84-9.78,17.19-15.27,25.38C980,687.19,930.91,749,877.47,806.32S767.15,917.49,707.77,968.17c-14.79,12.74-30,25-44.95,37.5-7.45,6.19-15.27,12.6-21.91,18.33a247.21,247.21,0,0,0-19.53,18.91,256.84,256.84,0,0,0-55.11,93,267.07,267.07,0,0,0-11.94,53.17l-.71,6.79c-.24,2.23-.48,4.49-.69,7.15-.4,5.1-1,10.15-1.58,15.19-1.32,10.06-2.86,20.06-4.86,29.94-7.58,39.56-20.09,78.48-40.3,114.07a297.32,297.32,0,0,1-35.76,50.06c-13.84,15.31-29.71,29.18-47.74,39.73a171.15,171.15,0,0,1-58,21.72,173.46,173.46,0,0,1-60.53-.49,5.42,5.42,0,0,1,1-10.76h.05c18.95,0,37.63-2.18,55.07-7.73a160,160,0,0,0,48.07-24.46,199.59,199.59,0,0,0,20.39-17.61c3.09-3.3,6.23-6.52,9.19-9.93s5.91-6.82,8.53-10.55a275.6,275.6,0,0,0,28.6-46.57,450.21,450.21,0,0,0,21.28-51.07,449.93,449.93,0,0,0,15.43-53.54c2-9.08,3.53-18.25,4.89-27.39.6-4.57,1.2-9.15,1.61-13.7l1.56-15a301.61,301.61,0,0,1,13.51-60.12,291.56,291.56,0,0,1,62.56-105.59,280.33,280.33,0,0,1,22.22-21.52c8-6.93,15.24-12.79,22.69-19,14.77-12.36,29.78-24.45,44.36-37,58.58-50,114.55-102.89,166.82-159.06S952,666.36,992.69,602c5.32-7.91,9.86-16.26,14.7-24.43s9.76-16.33,14-24.82c4.38-8.41,8.87-16.77,13.15-25.22l12-25.74c15.24-34.61,27.72-70.32,36.26-106.87,2.4-9.09,4-18.33,5.67-27.55,1.94-9.18,2.78-18.5,4.13-27.76.73-4.63,1-9.3,1.39-13.95l1.15-14,.47-14c.18-4.67.35-9.34.19-14l-.19-14c-.16-4.67-.52-9.33-.77-14l-.4-7-.7-7c-.5-4.65-.87-9.31-1.47-13.95a562.81,562.81,0,0,0-10-55.48c-4.16-18.53-9.35-36.75-14-56.46-2.18-10.36-4.12-21.23-4-32.74s1.93-23.72,7.14-35.39,14.1-22,24.23-29.1c10.19-7.3,21.38-11.42,32.27-14.25A152.93,152.93,0,0,1,1160.37.08c5.35-.16,10.67-.08,16,.2,2.66.14,5.31.33,8,.58s5.15.53,8.42,1l-1.79-.2a207.91,207.91,0,0,1,76.81,20.67,271.86,271.86,0,0,1,64.35,44.17c38.12,35,67.34,77.44,90.43,122.19s40.15,92.35,52.28,140.85c6.07,24.25,11.13,48.74,14.9,73.41s6.49,49.46,8.24,74.33c6.7,99.49-3.27,199.69-27.18,296.18a1017.07,1017.07,0,0,1-46.43,141.58,1056.62,1056.62,0,0,1-65.95,133.5c-50.12,85.76-111.67,164.59-181.46,234.91l-26.56,26-27.27,25.21-56.42,48.18q-29.37,22.74-59,45.16L977,1449l-15.38,10.45c-5.11,3.51-10.22,7-15.62,10.1l-32,19.14-16,9.57-16.52,8.65-33.09,17.22c-5.43,3-11.27,5.28-16.91,7.89l-17.06,7.6c-22.48,10.75-46.17,18.72-69.49,27.55l-4.38,1.63-4.49,1.35-9,2.71-17.94,5.41-17.94,5.38L673,1587.86l-18.27,4.25-9.14,2.12c-3.05.69-6.17,1.08-9.25,1.63L599.24,1602l-37.45,3.72c-6.23.79-12.53.8-18.8,1l-18.85.6c-50.25.7-100.89-4.57-150-18a17.39,17.39,0,0,1,9.14-33.55Z"/><path class="cls-10" d="M358.51,1200.54c-74-3.55-123.93-26.87-149.14-69.8C180.45,1081.49,192,1018,241.16,956.56c74.14-92.72,219.35-164.19,353.45-121.38,139.2,44.45,244.17,14.38,282.79-32.37,20.47-24.77,22.28-53.06,5.38-84.09-15.67-28.75-69.53-21-138.29-8-65.47,12.44-127.3,24.19-165-19.66-34-39.55-19.42-96.61-5.51-136.09,37.28-105.79,179.23-133.56,316.5-160.42,51.11-10,99.38-19.45,136.48-32.05,44.25-15,50.76-27.57,51.36-28.95,1.23-2.83.3-13.34-11.95-32.88-7.39-11.79-16.84-18.21-30.64-20.82-63.93-12.11-174.89,56.47-208.7,81.46a50.24,50.24,0,1,1-59.7-80.81c16.95-12.52,169-121.73,287.1-99.37,41.25,7.81,74.81,30.69,97,66.16,28.93,46.11,35.33,88.57,19,126.19-32.49,75-138.27,95.71-260.75,119.67-99.28,19.42-222.85,43.6-241,95.21-5.61,15.91-8,26.58-9,33.38,16.72-.36,45.51-5.83,66-9.73,77-14.63,193.33-36.74,245.28,58.62,36.3,66.65,30.26,140-16.15,196.15-35.39,42.83-92.21,73-160,84.83-70,12.28-149.87,5.1-230.83-20.75-86.63-27.66-192.3,23.23-244.41,88.41-22.17,27.73-28.72,51.89-23.64,60.55,7.64,13,54.18,32.24,175.59,11.94a50.23,50.23,0,1,1,16.58,99.09Q414.34,1203.22,358.51,1200.54Z"/><g class="cls-11"><path class="cls-5" d="M574,588.64c37.28-105.79,179.23-133.56,316.5-160.42,51.11-10,99.38-19.44,136.48-32,44.25-15,50.76-27.57,51.36-28.95,1.06-2.45.5-10.68-7.64-25.54-6.88,5.3-19.76,12.7-43.72,20.84-37.1,12.6-85.37,22.05-136.48,32.05C753.22,421.44,611.27,449.21,574,555c-9.15,26-18.58,59.54-14.29,90.74C562.08,625.33,568.08,605.4,574,588.64Z"/></g><g class="cls-11"><path class="cls-5" d="M767.34,314.18c16.95-12.53,169-121.74,287.1-99.37,41.25,7.81,74.81,30.69,97,66.15q21.78,34.73,26.51,66.54c4.76-30.83-4.06-64.4-26.51-100.18-22.24-35.47-55.8-58.35-97-66.16C936.38,158.8,784.29,268,767.34,280.53a50.25,50.25,0,0,0-17.49,57.22A49.88,49.88,0,0,1,767.34,314.18Z"/></g><g class="cls-11"><path class="cls-5" d="M725.73,612c-17.05,3.24-39.81,7.56-56.62,9.13-.11.29-.26.57-.36.86-5.61,15.92-8,26.59-9,33.38,16.72-.35,45.51-5.82,66-9.72,77-14.63,193.33-36.74,245.28,58.62,12.71,23.34,20.21,47.5,22.62,71.47,3.52-34.64-3.91-70.77-22.62-105.12C919.06,575.3,802.72,597.41,725.73,612Z"/></g><g class="cls-11"><path class="cls-5" d="M241.16,990.21C315.3,897.48,460.51,826,594.61,868.83c139.2,44.45,244.17,14.38,282.79-32.37,15.28-18.49,20.15-38.94,14.61-61a72.55,72.55,0,0,1-14.61,27.38c-38.62,46.75-143.59,76.82-282.79,32.37-134.1-42.81-279.31,28.66-353.45,121.38C205,1001.78,189.22,1048.08,194.9,1089,199.06,1057.19,214.62,1023.41,241.16,990.21Z"/></g><g class="cls-11"><path class="cls-5" d="M471.59,1091.79c-108,18.06-156.71,4.84-171.55-7.45-5.94,13.48-7,24-4,29.16,7.64,13,54.18,32.24,175.59,11.93a50.19,50.19,0,0,1,55.59,32.77,50.2,50.2,0,0,0-55.59-66.41Z"/></g><g class="cls-9"><path class="cls-7" d="M272.4,1022.83c-22.17,27.73-28.06,51.54-23.64,60.56,23.09,47,130.24,71.5,195.2,21.11-82.25,7.3-153.78-14.33-160.18-25.23-5.08-8.66,1.47-32.83,23.63-60.56,34.37-43,122.2-90.1,182.33-102.22C416.94,888.49,313.41,971.53,272.4,1022.83Z"/><path class="cls-7" d="M732.26,710.16c14.11-2.68,27.58-5.13,40.24-7.09-21.54,1.43-47.15,5.87-75.25,11.21-12.78,2.43-25.41,4.83-37.76,6.79C682.43,719.62,707.08,715,732.26,710.16Z"/><path class="cls-7" d="M582.39,834.6c-44.78-14.3-90.78-15.8-135-8.08a274.36,274.36,0,0,1,99.95,12.2c72.11,23,135,26,184.28,17.09C688.82,858.28,638.38,852.48,582.39,834.6Z"/><path class="cls-7" d="M772.88,369.1a50.13,50.13,0,0,0,41.94-8.35c26.16-19.33,98.5-64.74,159.52-78.7-65-1.27-163.11,59.6-194.54,82.82A49.71,49.71,0,0,1,772.88,369.1Z"/><path class="cls-7" d="M758.59,603.52c63-5,129.38,5,165.18,70.68,36.3,66.64,30.26,140-16.15,196.14-35.39,42.83-92.2,73-160,84.84-1.31.23-2.63.4-3.94.61a385.52,385.52,0,0,0,38.95-4.73c67.78-11.88,124.6-42,160-84.84,46.41-56.17,52.45-129.5,16.14-196.15C916.24,592,830.53,592.68,758.59,603.52Z"/><path class="cls-7" d="M459.37,1091.2c-8.18,1.37-16,2.54-23.51,3.57a50.2,50.2,0,0,1,46.65,44c3.32,27-16.35,51.45-43.17,55.89-7,1.15-13.83,2.18-20.59,3.13q27.13-2.52,57.19-7.52a50.23,50.23,0,1,0-16.57-99.09Z"/><path class="cls-7" d="M1129.18,232.53c28.82,46.11,23.13,115.62-5.89,144.52-70,69.7-140.58,64.51-263.06,88.47C761,485,639.69,540.31,621.51,591.92c-.06.16-.1.32-.17.48-17,38.07,35.51,46.28,36.1,46.18-.05,0-6.52-34.86-.91-50.78,18.18-51.61,141.74-75.78,241-95.21,122.48-24,228.26-44.66,260.74-119.66,16.3-37.63,9.89-80.08-19-126.2A154.21,154.21,0,0,0,1129.18,232.53Z"/></g><path class="cls-2" d="M378.81,1216q-10.83,0-21-.49c-79.2-3.8-133.47-29.76-161.32-77.16-32.23-54.88-20.19-124.53,33-191.09,77.33-96.71,229.14-171.15,369.68-126.28,132.58,42.34,231.2,15.35,266.72-27.65,16.64-20.15,17.84-41.57,3.77-67.42-11.7-21.46-78.3-8.8-122.37-.43-66.76,12.69-135.79,25.81-179.12-24.6-39-45.43-23.42-107.83-8.27-150.81C600,436.17,746.22,407.57,887.62,379.9,938.2,370,986,360.67,1022.16,348.37c26.44-9,37.25-16.55,41.13-19.95-.85-3.22-3.19-9.59-9.58-19.77-5.19-8.29-11-12.23-20.75-14.08-54.38-10.29-156.23,48.64-197,78.8a65.19,65.19,0,0,1-77.48-104.86c17.49-12.93,174.48-125.59,298.77-102,45.45,8.61,82.43,33.81,106.94,72.9,31.7,50.54,38.46,97.67,20.09,140.09-35.61,82.22-145,103.62-271.59,128.4-85.41,16.7-214.47,41.95-229.81,85.5-1.51,4.3-2.77,8.15-3.81,11.59,14.43-2,31.25-5.2,43.83-7.58,76.38-14.53,204.11-38.79,261.27,66.14,39.33,72.2,32.69,151.76-17.75,212.82-37.66,45.58-97.65,77.56-168.93,90-72.42,12.67-154.71,5.34-238-21.24-80.5-25.7-179.23,22.27-228.18,83.49-18,22.51-22.28,39.33-22,44.11,6.19,6.17,47.77,23,159.82,4.3a65.19,65.19,0,1,1,21.5,128.59C449.54,1212.5,412,1216,378.81,1216ZM511.47,837.37c-102.66,0-202.11,57.84-258.63,128.53-45,56.34-56.18,113.66-30.58,157.26,22.41,38.15,68.49,59.16,137,62.44h0c36,1.72,78.56-1.46,126.47-9.47a35.28,35.28,0,0,0-11.64-69.6c-120.67,20.18-177.76,3.36-190.95-19.1-9.54-16.25.22-46.65,24.85-77.47C363.23,940.83,475.82,887,568.6,916.65c78.66,25.12,156,32.13,223.7,20.26,64.27-11.25,117.91-39.54,151-79.63C985.71,806,991.15,738.9,957.87,677.81,911.14,592,805.59,612.09,728.52,626.73c-21.37,4.06-50.53,9.61-68.48,10a15,15,0,0,1-15.11-17.13c1.43-9.78,4.7-22,9.71-36.17,21-59.67,143.88-83.71,252.27-104.92,118.34-23.15,220.54-43.14,249.9-110.93,14.21-32.83,8.16-70.61-18-112.31-20-31.84-50.12-52.39-87.17-59.41-111.84-21.17-259,84.58-275.44,96.71a35.28,35.28,0,1,0,41.93,56.75c1.36-1,137.88-99.7,220.37-84.13,18,3.41,30.87,12.18,40.53,27.57,9,14.32,18.52,34.05,13,46.78-3.16,7.3-15.19,21.85-60.27,37.16-38.1,12.94-86.83,22.47-138.42,32.56C760.21,435.3,622.53,462.24,588.09,560c-12.67,36-26.18,87.71,2.75,121.38,32,37.29,87.11,26.82,150.85,14.71,77.34-14.7,133.68-22.19,154.22,15.51,19.83,36.4,17.41,71.25-7,100.77-41.72,50.5-153,83.65-298.87,37.09A257.51,257.51,0,0,0,511.47,837.37Z"/><g class="cls-6"><path class="cls-7" d="M1392.68,209.74c1.43,3.21,2.85,6.43,4.25,9.69C1395.53,216.17,1394.11,213,1392.68,209.74Z"/></g><g class="cls-6"><path class="cls-7" d="M1402.46,232.75c.65,1.6,1.28,3.24,1.91,4.85C1403.74,236,1403.11,234.35,1402.46,232.75Z"/></g><g class="cls-6"><path class="cls-7" d="M1391.24,206.5c.48,1.07,1,2.16,1.44,3.24C1392.19,208.66,1391.72,207.57,1391.24,206.5Z"/></g><g class="cls-6"><path class="cls-7" d="M1398.64,223.51c1.28,3.06,2.57,6.13,3.82,9.24C1401.21,229.64,1399.92,226.57,1398.64,223.51Z"/></g><g class="cls-6"><path class="cls-7" d="M1396.93,219.43c.58,1.35,1.14,2.72,1.71,4.08C1398.07,222.15,1397.51,220.78,1396.93,219.43Z"/></g><g class="cls-6"><path class="cls-7" d="M1386.53,196.37q2.38,5,4.71,10.13C1389.69,203.08,1388.12,199.72,1386.53,196.37Z"/></g><g class="cls-6"><path class="cls-7" d="M1385.69,194.57a1.34,1.34,0,0,1,.07.18l.77,1.62C1386.25,195.78,1386,195.16,1385.69,194.57Z"/></g><g class="cls-6"><path class="cls-7" d="M1420.59,283c.69,2.14,1.4,4.25,2.07,6.4C1422,287.26,1421.28,285.15,1420.59,283Z"/></g><g class="cls-6"><path class="cls-7" d="M1422.66,289.41q2.31,7.41,4.52,15Q1425,296.82,1422.66,289.41Z"/></g><g class="cls-6"><path class="cls-7" d="M1417.92,274.76c.91,2.73,1.79,5.5,2.67,8.25C1419.71,280.26,1418.83,277.49,1417.92,274.76Z"/></g><g class="cls-6"><path class="cls-7" d="M1404.37,237.6c1.16,2.93,2.32,5.85,3.44,8.82C1406.69,243.45,1405.53,240.53,1404.37,237.6Z"/></g><g class="cls-6"><path class="cls-7" d="M1409.91,252.08c1,2.77,2.06,5.54,3.06,8.35C1412,257.62,1410.93,254.85,1409.91,252.08Z"/></g><g class="cls-6"><path class="cls-7" d="M1415.27,267.06c.89,2.57,1.79,5.11,2.65,7.7C1417.06,272.17,1416.16,269.63,1415.27,267.06Z"/></g><g class="cls-6"><path class="cls-7" d="M1407.81,246.42c.71,1.87,1.4,3.77,2.1,5.66C1409.21,250.19,1408.52,248.29,1407.81,246.42Z"/></g><g class="cls-6"><path class="cls-7" d="M1413,260.43c.78,2.19,1.53,4.42,2.3,6.63C1414.5,264.85,1413.75,262.62,1413,260.43Z"/></g><g class="cls-6"><path class="cls-7" d="M749.76,304.37l16.75-15,34.5-23c46.56-87.88,80.06-136.61,88.17-148-39.13-8-114.22-13.91-122,55.75C762.2,219,731.55,335.07,659,468.9l56.59-24.3q21.18-48.56,41-89.75l-2.87-1.23Z"/></g><g class="cls-6"><path class="cls-2" d="M1385.76,194.75c-17.14-35.94-36.5-67.88-57.44-94.88,58.51,173.59,115.42,450.14-33.65,758.89C1057.35,1350.29,599.34,1584,442.52,1404c-122.6,72.81-350.6-3.7-341.33-196.68,1.5-31.23,39.6-81.11,96.21-142.22l-.57-10.15,13.72-54.14,40.7-61.25L319,884.92l76.15-36.52,21.56-5.18c54.53-55.31,108.76-112.4,155.86-168.5l-3.75-3.33-3-56.58c-79,105.85-185.42,211-326.37,292.23-201.37,116-253.63,267-204.8,398.39,56.94,110,186,201.85,356.56,240.24A165.38,165.38,0,0,0,439,1549c137.2,33.89,363.66,3.54,657.91-261.17C1486.16,937.6,1498.58,469.11,1385.76,194.75Z"/></g></svg>