<svg id="Layer_1" data-name="Layer 1" xmlns="http://www.w3.org/2000/svg" viewBox="0 0 1500 1340.29"><defs><style>.cls-1{fill:#f7af41;}.cls-2{opacity:0.3;}.cls-3{fill:#650000;}.cls-4{fill:#ffce00;}.cls-5{opacity:0.65;}.cls-6{fill:#fff;}.cls-7{fill:#6c184e;}.cls-8{fill:#ee1822;}.cls-9{fill:#bd1622;}.cls-10{fill:#f6c547;}.cls-11{fill:#48c75a;}.cls-12{fill:#661a47;}.cls-13{fill:#eb984e;}</style></defs><path class="cls-1" d="M48.63,1159.46s-30.08,95.64,193.91-41.41,783.08-241.8,1047.57-208.36,77.76-595.24-118.53-696.16S361.34,548.4,48.63,1159.46Z"/><g class="cls-2"><path class="cls-3" d="M66.42,1138.29s-47.87,116.81,176.12-20.24,783.08-241.8,1047.57-208.36,77.76-595.24-118.53-696.16S379.12,527.24,66.42,1138.29Z"/></g><path class="cls-3" d="M87.25,1194.75c-11.77,0-21.07-2.81-28-8.39-21.11-17.08-9.69-50.37-9.2-51.78a11.06,11.06,0,0,1,.55-1.27C194.35,852.45,379.79,646.86,510,523.85,675.11,368,849.29,253,987.92,208.33c80-25.75,143.38-27.08,188.37-4,71.28,36.65,145.66,141.45,199,280.35,52.23,136.1,69.38,270,44.77,349.49-17.75,57.28-55.62,87.06-110.16,87.06a167.62,167.62,0,0,1-21-1.38c-272.13-34.41-826.62,75.82-1040.9,206.92C173.66,1172.26,120.58,1194.75,87.25,1194.75ZM69.3,1142c-1.91,6-4.92,22.08,2.94,28.4,6.6,5.3,38,16.56,164.93-61.11,106.17-65,292.78-126.72,512-169.44,212.24-41.36,414.94-56.45,542.23-40.34,55.44,7,92.11-17,108.95-71.36,23.31-75.27,6.33-204-44.32-336-50.77-132.3-123.25-235.53-189.16-269.42-39.37-20.25-99.08-18.44-172.65,5.24C858.41,271.64,687.09,385,524.17,538.81,395.2,660.61,211.64,864.1,69.3,1142Z"/><path class="cls-4" d="M1185.46,333.94c-31.09-7.14,3.09-18.82-38.12-59.91s-86.5-7.31-86.5-7.31c7.35-15.06,9-29.05,1.13-40.12C1026.51,176.93,933.4,208,899.33,168.16s-115.43-3.31-115.43-3.31-485.83,290-624.92,624S30.52,1225.41,91,1202.29s105-75.24,149.27-34.18-11,118,42.52,156c30,21.24,99.38-16.9,66-73.81s-77.52-162.4-2.71-219,246.57-86.71,236.43-7.23c-25.15,197,184.42,113.44,119.33,30.21-55.27-70.69-4.42-194.8,118.82-126.47C924.11,985.14,911,907.05,1013,873.52c76.12-25,216.19-25.82,216.19-25.82,98.3-57.74,9.43-86.23,9.43-86.23S1321,698,1300.34,654.23s-10.64-112.85-8.81-182.73S1216.54,341.09,1185.46,333.94Z"/><g class="cls-2"><path class="cls-3" d="M1185.46,333.94c-31.09-7.14,3.09-18.82-38.12-59.91s-86.5-7.31-86.5-7.31c7.35-15.06,9-29.05,1.13-40.12C1026.51,176.93,933.4,208,899.33,168.16s-115.43-3.31-115.43-3.31-11.3,6.74-30.92,19.34c152,39.95,465.71,168,408,623.87,0,0-606.73,43.54-773.53,147.2C267.44,1029.82,146.88,1170,53.35,1188c6.69,17.13,20,21.06,37.62,14.34,60.45-23.13,105-75.24,149.27-34.18s-11,118,42.52,156c30,21.24,99.38-16.9,66-73.81s-77.52-162.4-2.71-219,246.57-86.71,236.43-7.23c-25.15,197,184.42,113.44,119.33,30.21-55.27-70.69-4.42-194.8,118.82-126.47C924.11,985.14,911,907.05,1013,873.52c76.12-25,216.19-25.82,216.19-25.82,98.3-57.74,9.43-86.23,9.43-86.23S1321,698,1300.34,654.23s-10.64-112.85-8.81-182.73S1216.54,341.09,1185.46,333.94Z"/></g><g class="cls-5"><path class="cls-6" d="M1212,349.57a56.13,56.13,0,0,1,9.07,3.07,144.19,144.19,0,0,0-23.94-14.46C1197.84,343.52,1200.26,346.87,1212,349.57Z"/><path class="cls-6" d="M1266,777.37l-.52-.51-.3.23Z"/><path class="cls-6" d="M1087.4,282.34s26.56-19.77,57.51-10.6c-18-16.57-36.47-19.48-51.55-17.53C1094.66,262.75,1092.3,272.3,1087.4,282.34Z"/><path class="cls-6" d="M1054.92,218.45c-30.74-29.61-88.54-20.92-127.74-33.31C953.78,213.76,1012.71,203.61,1054.92,218.45Z"/><path class="cls-6" d="M783.9,164.85S567.67,293.92,382.43,479a76.69,76.69,0,0,0-10.36,9.3,77.68,77.68,0,0,0-5.61,6.87C280.32,583.69,202.6,684.11,159,788.86,28.38,1102.53,29.79,1212.05,80.5,1205.08c-17.49-40.36,5.21-160.84,105-400.59,37.55-90.18,100.38-177.15,172.09-256.07a28.74,28.74,0,0,0,5.61,7.3c15.93,14.73,45.71,8.45,66.52-14s24.76-52.66,8.83-67.4a28.2,28.2,0,0,0-5.08-3.66c179.27-172.15,364.39-304,364.39-304s62.86-8.69,100.92,1C864.47,128.68,783.9,164.85,783.9,164.85Z"/></g><path class="cls-3" d="M303.43,1340.29c-9.85,0-19.17-2.54-26.62-7.82-32.6-23.1-30.6-58.47-28.84-89.68,1.48-26.13,2.87-50.81-14.73-67.14-24.72-22.92-48.45-11.33-88.27,11.16-15.78,8.9-32.08,18.11-50.32,25.09-21.89,8.37-34.95,1.4-42.06-5.91C7.21,1159.26,80.24,951.21,149.48,784.9c72.66-174.5,240-336.27,367.58-441.25C654.91,230.22,777.4,156.74,778.63,156a10.48,10.48,0,0,1,1-.55c3.61-1.62,88.84-39.19,127.47,6,13.37,15.63,40.1,18.43,68.4,21.4,34.37,3.6,73.32,7.68,94.79,37.75a38.59,38.59,0,0,1,7,26.54c21.57-6.84,51-6.58,77.27,19.58,24.68,24.62,25.47,41.18,26,51.08.06,1.27.14,2.94.28,3.79.64.39,2.47,1.28,6.92,2.31h0c35.8,8.22,116,72.62,114.06,147.85-.41,15.44-1.21,30.88-2,45.81-2.69,51.62-5.22,100.38,9.81,132.26,18.67,39.61-27.42,87.45-51.74,109,11.76,6.56,25.79,17.8,27.65,34.66,2.32,20.89-14.41,41.53-51.15,63.11a10.26,10.26,0,0,1-5.15,1.42c-1.39,0-139.35,1.1-213,25.31-36.71,12.06-57.3,29.84-75.47,45.52-33.81,29.19-58,45.19-125.08,8-46-25.5-85.56-24.69-108.55,2.23-24.09,28.22-22.85,76.05,2.83,108.9,18.81,24.06,19.66,52.18,2.25,75.21-21.13,28-62.17,39.88-93.43,27.15-22.28-9.08-57.94-37.72-46.47-127.53,1.66-13-2.5-21.92-13.1-28.06-39.08-22.64-149.3,1.22-206.91,44.8-72,54.44-20.22,161.9,5.38,205.58,16.43,28,13.07,56.85-9,77.08C335.76,1334,318.94,1340.29,303.43,1340.29Zm-98.68-197.67c14.27,0,28.48,5,42.49,17.94,24.7,22.91,22.88,55,21.28,83.4-1.67,29.62-3.12,55.2,20.19,71.72,11.18,7.92,32.28,3.94,46.06-8.7,8.58-7.87,20.66-25,5.14-51.51-28.37-48.42-85.18-168,0-232.4C399,978.33,519,947.61,569.51,976.88c17.91,10.37,25.93,27.13,23.2,48.48-7.2,56.44,4.81,94,33.83,105.86,22.66,9.23,53.72,0,69.24-20.5,6.82-9,15.62-27.53-2-50.13-31.49-40.27-32.48-99.54-2.26-134.94,29.48-34.53,79.64-37.09,134.18-6.86,58,32.15,72.58,19.55,101.65-5.55,18.66-16.1,41.88-36.15,82.5-49.49,71.69-23.56,195.72-26.06,216.53-26.32,35.3-21.22,39.49-35.18,38.78-41.68-1.37-12.57-22.39-22.13-29.64-24.49a10.3,10.3,0,0,1-3.12-17.94c19.66-15.17,72.63-65.11,58.68-94.7-17.23-36.56-14.57-87.83-11.75-142.11.77-14.8,1.56-30.1,2-45.28,1.63-62.6-69-120.57-98.09-127.26-18.66-4.29-22.53-12.15-23.15-25.17-.37-7.81-.88-18.5-19.92-37.48-34.24-34.14-71.55-7.48-73.12-6.33a10.3,10.3,0,0,1-15.37-12.79c9.41-19.25,3.84-27.06,2-29.62-16.09-22.53-47.23-25.79-80.2-29.25-31.07-3.25-63.19-6.61-81.89-28.49-23.64-27.64-81.7-10.2-102.85-.85-8.74,5.28-126.6,77-258.76,185.75C404.21,463.19,239.48,622.3,168.48,792.81,117.58,915.07,83.9,1013,68.37,1084c-17.52,80.07-6.55,102-1,107.66,1.52,1.55,6.14,6.3,19.94,1,16.81-6.43,32.44-15.26,47.56-23.79C157.87,1155.89,181.39,1142.62,204.75,1142.62Z"/><path class="cls-3" d="M857.21,840.81C916,830.2,975,820.67,1034.31,813c29.67-3.82,59.42-7.17,89.28-9.78s59.84-4.48,90-5.06a9,9,0,0,1,.35,18h-.48c-29.57-.92-59.29-.56-89,.53s-59.47,2.94-89.19,5.26C975.8,826.62,916.44,833.17,857.21,840.81Z"/><g class="cls-2"><path class="cls-7" d="M1047,213.21s.3-.22.83-.58l-.42-.3C1047.25,212.62,1047.12,212.91,1047,213.21Z"/><path class="cls-7" d="M1277.66,418c-1.82,69.89-11.84,138.92,8.82,182.73a34.64,34.64,0,0,1,2.45,7.23c-3.9-39.6,1.33-87.81,2.6-136.45.5-19.3-5-37.87-13.88-54.81C1277.65,417.12,1277.67,417.56,1277.66,418Z"/><path class="cls-7" d="M1289.79,615.43c.58,42-65,92.53-65,92.53s34.36,11,36.7,33.24c22.66-22.29,52.2-58.71,38.87-87C1295,642.86,1291.7,629.77,1289.79,615.43Z"/></g><ellipse class="cls-8" cx="849.81" cy="371.93" rx="149.72" ry="119.49" transform="translate(-65.76 521.05) rotate(-32.89)"/><g class="cls-5"><path class="cls-6" d="M871.64,489.82c-73.43,19-137.88-17.84-143.94-82.35s48.57-132.24,122-151.27c54-14,103.12,2.27,127.75,37.5-24.61-41.4-79.08-61.24-139.27-45.64-77.88,20.18-135.8,92-129.38,160.4S783.57,516,861.44,495.8A182.86,182.86,0,0,0,918.1,470,171.42,171.42,0,0,1,871.64,489.82Z"/></g><path class="cls-9" d="M861.51,276.17l17,181c47.54-20.8,80.51-67.62,76.29-112.49S910.61,271.93,861.51,276.17Z"/><path class="cls-9" d="M819,287.61c-46.38,21.25-78.3,67.33-74.15,111.53s43,71.93,91.08,68.71Z"/><path class="cls-9" d="M819,287.61c-46.38,21.25-78.3,67.33-74.15,111.53s43,71.93,91.08,68.71Z"/><path class="cls-8" d="M825.47,348c-15.2,7-25.65,22.06-24.29,36.54S815.27,408.1,831,407Z"/><path class="cls-8" d="M866.4,337.38c15.76-1.05,28.48,8,29.84,22.51s-9.09,29.58-24.29,36.55Z"/><path class="cls-3" d="M821.06,509.81c-28.35,0-54.79-7.67-76-22.53-26-18.24-42-45.94-45-78C693.31,336.9,754.26,260.78,836,239.6c43.79-11.35,87-5.16,118.55,17,26,18.23,42,45.93,45,78,6.8,72.39-54.16,148.51-135.88,169.68A169.76,169.76,0,0,1,821.06,509.81ZM878.59,251.5a153,153,0,0,0-38.22,5c-73.78,19.12-128.9,86.92-122.87,151.13,2.53,26.89,15.88,50.09,37.61,65.34,27.35,19.19,65.31,24.41,104.14,14.36,73.78-19.12,128.9-86.92,122.87-151.13-2.53-26.88-15.89-50.09-37.62-65.33C926.28,258.09,903.35,251.5,878.59,251.5Z"/><path class="cls-10" d="M802.78,428.33a54.08,54.08,0,0,1,2.28,7.65,23.38,23.38,0,0,1,.85,7.34,6.3,6.3,0,0,1-12.56-1,6.37,6.37,0,0,1,.37-1.69,23.21,23.21,0,0,1,3.81-6.32A53.58,53.58,0,0,1,802.78,428.33Z"/><path class="cls-10" d="M782.79,410.09A55.13,55.13,0,0,1,781,417.9a23.62,23.62,0,0,1-2.86,6.86,6.3,6.3,0,0,1-10.5-7,6.71,6.71,0,0,1,1.14-1.29,23.62,23.62,0,0,1,6.44-3.69A52.68,52.68,0,0,1,782.79,410.09Z"/><path class="cls-10" d="M777.46,380.93a49.77,49.77,0,0,1-5.08,5.55,20.45,20.45,0,0,1-5.49,4.14,6.31,6.31,0,0,1-5.39-11.41,6.68,6.68,0,0,1,1.79-.54,20.53,20.53,0,0,1,6.87.43A47.82,47.82,0,0,1,777.46,380.93Z"/><path class="cls-10" d="M788.66,351.09a44.44,44.44,0,0,1-7,1.38,18,18,0,0,1-6.43,0A6.32,6.32,0,1,1,778,340.14a6.59,6.59,0,0,1,1.88.74,18.1,18.1,0,0,1,4.66,4.42A44.15,44.15,0,0,1,788.66,351.09Z"/><path class="cls-10" d="M812.47,331a47.09,47.09,0,0,1-6.36-3.66A19.6,19.6,0,0,1,801,323a6.32,6.32,0,1,1,10.07-7.63,6.85,6.85,0,0,1,.92,1.7,19.34,19.34,0,0,1,.86,6.63A47.53,47.53,0,0,1,812.47,331Z"/><path class="cls-10" d="M904.74,401.65a48.87,48.87,0,0,1,6.14,4.27,20.19,20.19,0,0,1,4.81,4.88,6.31,6.31,0,0,1-10.61,6.83,6.21,6.21,0,0,1-.77-1.71,20.15,20.15,0,0,1-.45-6.83A47.44,47.44,0,0,1,904.74,401.65Z"/><path class="cls-10" d="M920,374a43.23,43.23,0,0,1,7.07-.67,17.89,17.89,0,0,1,6.39.62,6.32,6.32,0,1,1-4,12,6.21,6.21,0,0,1-1.79-.93,18,18,0,0,1-4.2-4.87A44.11,44.11,0,0,1,920,374Z"/><path class="cls-10" d="M919.68,343.11A46.38,46.38,0,0,1,925,338a19.34,19.34,0,0,1,5.6-3.66,6.31,6.31,0,1,1,2.63,12.2,19.34,19.34,0,0,1-6.6-1A46.74,46.74,0,0,1,919.68,343.11Z"/><path class="cls-10" d="M903.79,319.94a51.77,51.77,0,0,1,2-7.6,22.81,22.81,0,0,1,3.05-6.59A6.3,6.3,0,0,1,919,313.17a6.7,6.7,0,0,1-1.22,1.27,22.71,22.71,0,0,1-6.49,3.26A53,53,0,0,1,903.79,319.94Z"/><path class="cls-10" d="M877.94,312.58a53.55,53.55,0,0,1-2-7.76,23.3,23.3,0,0,1-.55-7.4,6.3,6.3,0,0,1,12.51,1.46,6.61,6.61,0,0,1-.43,1.67,23.68,23.68,0,0,1-4.07,6.2A54.07,54.07,0,0,1,877.94,312.58Z"/><path class="cls-9" d="M878.52,465.94a8.73,8.73,0,0,1-8.7-7.91l-17-181a8.74,8.74,0,0,1,7.94-9.52c55-4.77,98.15,27.39,102.75,76.43C968,391.58,933.72,442.6,882,465.21A8.72,8.72,0,0,1,878.52,465.94Zm-7.45-181.45,15,159.26c38.76-21.53,63.56-61.22,60.09-98.21-3.42-36.41-34.33-61.05-74.92-61.05Z"/><path class="cls-9" d="M828.36,476.84c-49.74,0-88-31.34-92.25-76.89-4.45-47.41,28.12-96.87,79.2-120.28a8.74,8.74,0,0,1,12.34,7.12L844.58,467a8.75,8.75,0,0,1-8.12,9.54C833.74,476.75,831,476.84,828.36,476.84ZM811.47,301.32c-37.45,21.8-61.35,60.95-58,97s32.81,60.31,72.81,61Z"/><ellipse class="cls-8" cx="537.66" cy="694.69" rx="140.05" ry="111.78" transform="translate(-291.05 403.28) rotate(-32.89)"/><g class="cls-5"><path class="cls-6" d="M558.08,805c-68.69,17.8-129-16.69-134.64-77s45.42-123.7,114.12-141.5c50.51-13.09,96.45,2.13,119.49,35.08-23-38.73-74-57.29-130.28-42.7-72.84,18.88-127,86.06-121,150s69.93,100.57,142.78,81.69a171.13,171.13,0,0,0,53-24.12A160.74,160.74,0,0,1,558.08,805Z"/></g><path class="cls-9" d="M548.6,605.12l15.91,169.35C609,755,639.82,711.21,635.88,669.24S594.53,601.15,548.6,605.12Z"/><path class="cls-9" d="M508.79,615.82c-43.39,19.88-73.24,63-69.36,104.32s40.22,67.29,85.2,64.28Z"/><path class="cls-9" d="M508.79,615.82c-43.39,19.88-73.24,63-69.36,104.32s40.22,67.29,85.2,64.28Z"/><path class="cls-8" d="M514.89,672.3c-14.22,6.51-24,20.64-22.73,34.18s13.18,22,27.92,21.06Z"/><path class="cls-8" d="M553.18,662.38c14.73-1,26.64,7.51,27.91,21.06s-8.51,27.66-22.72,34.18Z"/><path class="cls-3" d="M510.77,824.51c-26.7,0-51.6-7.23-71.56-21.24-24.51-17.19-39.58-43.32-42.42-73.56-6.39-68.1,50.9-139.7,127.73-159.6,41.2-10.68,81.87-4.85,111.58,16,24.51,17.2,39.58,43.32,42.42,73.56h0c6.39,68.1-50.9,139.7-127.72,159.61A160.1,160.1,0,0,1,510.77,824.51Zm53.81-241.63A142.19,142.19,0,0,0,529,587.54C460.4,605.33,409.12,668.35,414.72,728c2.34,24.9,14.71,46.38,34.83,60.5,25.39,17.81,60.64,22.66,96.73,13.31,68.63-17.78,119.91-80.8,114.31-140.48h0c-2.34-24.9-14.71-46.39-34.83-60.51C608.85,589,587.57,582.88,564.58,582.88Z"/><path class="cls-10" d="M506.24,750.08a48.8,48.8,0,0,1,3.52,6.1,22.61,22.61,0,0,1,2.32,6.17,5.18,5.18,0,1,1-10.2,1.85,5.45,5.45,0,0,1-.07-1.27,22.73,22.73,0,0,1,1.61-6.39A49.47,49.47,0,0,1,506.24,750.08Z"/><path class="cls-10" d="M482.92,740.69a54.16,54.16,0,0,1-.17,7.36,25.37,25.37,0,0,1-1.25,6.82,5.18,5.18,0,1,1-9.72-3.58,5.36,5.36,0,0,1,.54-1.07,25.05,25.05,0,0,1,4.76-5A52.94,52.94,0,0,1,482.92,740.69Z"/><path class="cls-10" d="M470.52,717.47a51.3,51.3,0,0,1-3.56,6.15,23.38,23.38,0,0,1-4.22,5.14,5.19,5.19,0,0,1-6.71-7.91,5.43,5.43,0,0,1,1.05-.69,23.51,23.51,0,0,1,6.38-1.85A52.45,52.45,0,0,1,470.52,717.47Z"/><path class="cls-10" d="M473.39,688.58a42.64,42.64,0,0,1-5.84,3,19.5,19.5,0,0,1-5.8,1.8,5.19,5.19,0,1,1-1.09-10.32,5.36,5.36,0,0,1,1.39,0,19.5,19.5,0,0,1,5.69,2.13A44.42,44.42,0,0,1,473.39,688.58Z"/><path class="cls-10" d="M490.54,664.16a44.78,44.78,0,0,1-6.3-1.41,19,19,0,0,1-5.49-2.32,5.19,5.19,0,1,1,5.84-8.58,5.37,5.37,0,0,1,1.06.95A19.15,19.15,0,0,1,488.5,658,44,44,0,0,1,490.54,664.16Z"/><path class="cls-10" d="M589,722.5a45,45,0,0,1,5.35,4.17,21.12,21.12,0,0,1,4.26,4.66,5.19,5.19,0,0,1-8.84,5.44,5.28,5.28,0,0,1-.54-1.22,21,21,0,0,1-.67-6.28A46.6,46.6,0,0,1,589,722.5Z"/><path class="cls-10" d="M603.35,696.59a42.62,42.62,0,0,1,6.42-.25,19,19,0,0,1,5.86.82,5.2,5.2,0,0,1-3.47,9.8,5.27,5.27,0,0,1-1.27-.66,18.67,18.67,0,0,1-4-4.32A42.72,42.72,0,0,1,603.35,696.59Z"/><path class="cls-10" d="M603,667.74a46.34,46.34,0,0,1,5-4.34,20.25,20.25,0,0,1,5.3-3.16,5.19,5.19,0,0,1,3.51,9.77,5.85,5.85,0,0,1-1.34.29,20.23,20.23,0,0,1-6.13-.69A45.66,45.66,0,0,1,603,667.74Z"/><path class="cls-10" d="M588.15,646.07a49.46,49.46,0,0,1,2.18-6.82,23.68,23.68,0,0,1,3-6,5.19,5.19,0,0,1,8.26,6.27,5.24,5.24,0,0,1-.87.89,23.4,23.4,0,0,1-5.87,3.24A52.37,52.37,0,0,1,588.15,646.07Z"/><path class="cls-10" d="M564,639.18a53,53,0,0,1-1.43-7.16,24.47,24.47,0,0,1-.26-6.85,5.18,5.18,0,0,1,10.27,1.4,5.85,5.85,0,0,1-.31,1.18,24.66,24.66,0,0,1-3.55,5.87A53.34,53.34,0,0,1,564,639.18Z"/><path class="cls-9" d="M564.51,783.47a9,9,0,0,1-9-8.16L539.64,606a9,9,0,0,1,8.19-9.81c51.84-4.49,92.66,25.9,97,72.25,4.22,44.94-28,93-76.72,114.32A9.12,9.12,0,0,1,564.51,783.47Zm-6-169.74,13.78,146.8c35.35-20.12,57.86-56.52,54.67-90.45C623.78,636.72,595.59,614.06,558.46,613.73Z"/><path class="cls-9" d="M517.59,793.66c-47,0-83.08-29.63-87.12-72.68-4.2-44.69,26.47-91.3,74.57-113.35A9,9,0,0,1,517.76,615l15.83,168.6a9,9,0,0,1-8.36,9.82Q521.36,793.66,517.59,793.66ZM501.08,630C467,650.39,445.29,686.26,448.4,719.3s29.86,55.29,66.36,56.32Z"/><path class="cls-11" d="M353.17,676.41c-95.14,3.91-97,52.15-66.8,126.56C343.51,779.11,381.33,737.16,353.17,676.41Z"/><path class="cls-3" d="M284.07,819.62a9.12,9.12,0,0,1-3.55-.72,9,9,0,0,1-5-5.37c-14.53-42.48-25.18-85.79-4.89-114.81,14.11-20.19,41-30.43,82.32-31.31a8.91,8.91,0,0,1,8.23,5c12,23.85,14.1,47.46,6.17,70.18C356.8,772.9,328.55,800,287.84,818.79A8.85,8.85,0,0,1,284.07,819.62Zm63.46-134c-31.77,1.46-52.12,9.14-62.11,23.43-14.33,20.5-6.87,55.53,3.93,89,31-16.22,53-38.24,61-61.37C356.08,720.27,355.12,703.14,347.53,685.6Z"/><path class="cls-3" d="M356,685a81.91,81.91,0,0,0-17.78,11.11,116.83,116.83,0,0,0-16.05,16,182.34,182.34,0,0,0-25,41.61,101,101,0,0,1,3.44-25.3A115.76,115.76,0,0,1,310,704.08a84.57,84.57,0,0,1,15.88-21.82c6.64-6.4,14.9-11.94,24.44-14.38a9,9,0,0,1,6,16.93Z"/><path class="cls-11" d="M525.37,416.81c84.22-44.42,110.07-3.65,121.34,75.87C585.31,500.76,531.54,483.49,525.37,416.81Z"/><path class="cls-3" d="M632.8,508.09c-35.72,0-65.95-9.33-86.5-27C528,465.47,518,444,516.38,417.34a9,9,0,0,1,4.63-8.41c36.13-20,64.56-24.65,86.9-14.28,32.12,14.9,44.68,57.69,53.46,101.73a9,9,0,0,1-8,10.72Q642.84,508.09,632.8,508.09Zm-97.94-86.16c2.25,19,10,34.27,23.17,45.54,18.59,15.94,48.7,23.91,83.6,22.4-7.46-34.33-18.61-68.36-41.3-78.89C584.51,403.64,563.06,407.22,534.86,421.93Z"/><path class="cls-3" d="M523.56,408c9.47-2.68,19.4-2,28.36.16A84.39,84.39,0,0,1,576.61,419a115.4,115.4,0,0,1,20.32,16.32,101.19,101.19,0,0,1,15.69,20.14,183,183,0,0,0-42.55-23.4,117.5,117.5,0,0,0-21.93-5.8,82.42,82.42,0,0,0-21-.67l-.32,0a9,9,0,0,1-3.3-17.67Z"/><path class="cls-11" d="M899.79,716.05c-65.23-60.48-98.44-30-127.87,39.07C825.37,777.28,878.08,774.73,899.79,716.05Z"/><path class="cls-3" d="M821.65,778.15c-18.31,0-38.39-3.89-59.24-11.63a8.43,8.43,0,0,1-4.62-11.62c18.6-37.6,40.29-73.18,72.89-78.84,22.67-4,47.19,7.16,75,33.94a8.39,8.39,0,0,1,2.14,8.72c-7.89,23.67-22.17,40.59-42.45,50.31C852.62,775.11,837.83,778.15,821.65,778.15Zm-44.46-24.34c31.14,9.84,60.22,9.93,80.86,0,14.59-7,25.31-18.9,31.94-35.47-21.88-20.11-40.37-28.53-56.43-25.75C810.54,696.63,792.23,724.65,777.19,753.81Z"/><path class="cls-3" d="M896,723.57A76.46,76.46,0,0,0,877,719.1a109.43,109.43,0,0,0-21.2-.08,170.68,170.68,0,0,0-44.06,10.81,95,95,0,0,1,19-14.38,108.34,108.34,0,0,1,22.29-9.8,78.9,78.9,0,0,1,24.92-3.84c8.61.18,17.73,2,25.62,6.72a8.43,8.43,0,0,1-7.25,15.15Z"/><path class="cls-11" d="M155.77,868.77c5.15.3,10,.73,15,1.29s9.94,1.25,15,2.14A138.45,138.45,0,0,1,201,875.67a64.3,64.3,0,0,1,16.26,6.83l.66.41a12.51,12.51,0,1,1-13.11,21.32,12.93,12.93,0,0,1-1.9-1.43c-2.11-1.93-5.86-4-9.69-5.76a117.61,117.61,0,0,0-12.45-4.82c-4.34-1.45-8.8-2.76-13.32-4s-9.16-2.29-13.57-3.2l-.19,0a8.22,8.22,0,0,1,2.13-16.26Z"/><g class="cls-2"><path class="cls-7" d="M155.77,868.77c5.15.3,10,.73,15,1.29s9.94,1.25,15,2.14A138.45,138.45,0,0,1,201,875.67a64.3,64.3,0,0,1,16.26,6.83l.66.41a12.51,12.51,0,1,1-13.11,21.32,12.93,12.93,0,0,1-1.9-1.43c-2.11-1.93-5.86-4-9.69-5.76a117.61,117.61,0,0,0-12.45-4.82c-4.34-1.45-8.8-2.76-13.32-4s-9.16-2.29-13.57-3.2l-.19,0a8.22,8.22,0,0,1,2.13-16.26Z"/></g><path class="cls-3" d="M211.28,913.26A19.58,19.58,0,0,1,201,910.35a20.89,20.89,0,0,1-2.95-2.22c-.52-.47-2.5-2.1-7.87-4.56A107.47,107.47,0,0,0,178.47,899c-4.12-1.37-8.44-2.66-12.89-3.82s-9.08-2.27-13.2-3.12a15.49,15.49,0,0,1-9.95-6.66,15.32,15.32,0,0,1-2.21-11.58,15.47,15.47,0,0,1,16-12.26h0c5,.29,9.87.71,15.37,1.33,5.25.58,10.44,1.32,15.41,2.2a144.35,144.35,0,0,1,16,3.65c6.12,1.86,11.65,3.7,18,7.6l.66.41a19.69,19.69,0,0,1-10.35,36.47Zm-56-37.33a1.06,1.06,0,0,0-1,.84,1,1,0,0,0,.81,1.22c4.56,1,9.39,2.09,14.14,3.34S178.6,884,183,885.41a122.94,122.94,0,0,1,13.2,5.12c5.18,2.38,9.06,4.73,11.52,7a7.34,7.34,0,0,0,.82.62,5.34,5.34,0,0,0,5.58-9.11l-.67-.41c-4.89-3-9.31-4.48-14.58-6.08a131.55,131.55,0,0,0-14.38-3.26c-4.75-.84-9.49-1.52-14.5-2.07-5.25-.59-9.89-1-14.62-1.26Z"/><path class="cls-11" d="M167.2,878.53c-29-106.1-151-19.58-151-19.58S112.08,973.71,167.2,878.53Z"/><g class="cls-5"><path class="cls-6" d="M166.55,879.6c.22-.36.44-.7.65-1.07-29-106.1-151-19.58-151-19.58s3.26,3.9,8.92,9.66C48,854.08,136.32,804.29,166.55,879.6Z"/></g><path class="cls-3" d="M109.82,923.45c-52.74,0-105.61-57.17-107.94-59.72A7.17,7.17,0,0,1,3.22,852.9c3.06-2,75.49-49.2,127.4-29.66,21.38,8,36,26,43.51,53.39a7.24,7.24,0,0,1-.71,5.5c-14.3,24.68-33.17,38.45-56.08,40.93A70,70,0,0,1,109.82,923.45ZM18.68,860.32c15.74,15.23,58.7,52.6,97.14,48.46,17.32-1.88,32-12.39,43.62-31.26-6.38-21-17.77-34.76-33.86-40.84C89.37,823,37.84,849.27,18.68,860.32Z"/><line class="cls-11" x1="167.2" y1="878.53" x2="85.35" y2="867.91"/><path class="cls-3" d="M166.28,885.64a167.71,167.71,0,0,1-20.49-2.44c-6.79-1.12-13.53-2.66-20.26-4.21-13.47-3.15-26.89-6.59-40.18-11.08,14-.95,27.85-.85,41.67-.47,6.91.23,13.82.46,20.67,1.1a172.09,172.09,0,0,1,20.44,2.87,7.2,7.2,0,0,1-1.85,14.23Z"/><path class="cls-12" d="M107.31,923.4q13.83-12.24,27.93-24.24c9.42-8,18.88-15.89,28.8-23.56A7.21,7.21,0,0,1,172.86,887a6.73,6.73,0,0,1-1.15.73l-.06,0c-10.81,5.4-21.6,11.3-32.32,17.28S117.94,917.17,107.31,923.4Z"/><path class="cls-11" d="M167.53,879.91s-61.88,3.74-76.06,110.88C91.47,990.79,217.87,950.56,167.53,879.91Z"/><g class="cls-5"><path class="cls-6" d="M109.31,980.84C120.93,893,171,888.42,172.74,888.29a75.84,75.84,0,0,0-5.21-8.38s-61.88,3.74-76.06,110.88c0,0,27.23-8.67,51.38-25A194.92,194.92,0,0,1,109.31,980.84Z"/></g><path class="cls-3" d="M91.47,998a7.18,7.18,0,0,1-7.11-8.13c14.78-111.71,80-116.93,82.74-117.1a7.21,7.21,0,0,1,6.28,3c12.74,17.88,16.27,35.7,10.52,53-14.82,44.44-87.18,67.93-90.25,68.91A7.4,7.4,0,0,1,91.47,998Zm72.66-110.25c-12.38,2.8-50.34,17.4-63.69,92.09,19.93-8,60.46-27.48,69.84-55.65C174.19,912.42,172.18,900.46,164.13,887.72Z"/><path class="cls-3" d="M132.59,926.57q6.82-13,14.07-25.85c4.86-8.57,9.8-17.06,15.46-25.5a7.23,7.23,0,0,1,12,8,7.63,7.63,0,0,1-1.16,1.35c-7,6.32-13.83,13.32-20.54,20.37S139.11,919.27,132.59,926.57Z"/><path class="cls-11" d="M167,879.6s-57.7-22.69-38.07-129C129,750.64,236.73,828,167,879.6Z"/><g class="cls-5"><path class="cls-6" d="M145.72,764.44A213.91,213.91,0,0,0,129,750.64C109.32,856.91,167,879.6,167,879.6c.85-.63,1.65-1.27,2.44-1.9C158,869.22,128.12,839.21,145.72,764.44Z"/></g><path class="cls-3" d="M167,886.78a7.26,7.26,0,0,1-2.63-.5c-2.58-1-63-26.13-42.5-136.95a7.18,7.18,0,0,1,11.25-4.52c2.62,1.88,64.17,46.58,64.53,93.43.14,18.2-8.74,34.06-26.38,47.12A7.18,7.18,0,0,1,167,886.78ZM134.09,763.85C123.7,839,155.29,864.63,166.2,871.12c11.59-9.63,17.2-20.39,17.11-32.76C183.1,808.67,150.56,777.66,134.09,763.85Z"/><path class="cls-3" d="M148.21,824.42q5.91,13.44,12.2,26.66c4.2,8.77,8.53,17.54,13.23,25.71A7.24,7.24,0,0,1,161.11,884a7.6,7.6,0,0,1-.69-1.65c-2.78-9.78-4.84-19.37-6.82-29S149.86,834.07,148.21,824.42Z"/><path class="cls-3" d="M57.67,1169.84a2.68,2.68,0,0,0,.75.9,4.34,4.34,0,0,0,1.62.69,19.31,19.31,0,0,0,6.95,0A77.62,77.62,0,0,0,84.67,1166c12-5.09,23.86-11.78,35.41-18.86,23.09-14.32,45.4-30.39,67.17-47.1s43-34.29,63.74-52.39q7.77-6.78,15.44-13.69c5.16-4.6,10.07-9.26,15.44-13.91,2.64-2.31,5.25-4.66,7.93-6.93l8.19-6.61,4.1-3.3,4.21-3.13,8.44-6.26c45.76-32.34,96.49-56.47,148.78-75q39.21-14,79.61-24a787.71,787.71,0,0,1,81.41-16.24,975.41,975.41,0,0,0-158.65,46.64,768.54,768.54,0,0,0-75.1,34,529.24,529.24,0,0,0-69.61,43.43l-8.08,6.29-4,3.14-3.91,3.29-7.8,6.59c-2.54,2.26-5,4.6-7.52,6.89-5,4.5-10,9.49-15,14.21s-10.13,9.5-15.25,14.19q-30.7,28.14-63.1,54.47c-21.66,17.47-43.83,34.39-67.54,49.54-11.88,7.55-24.06,14.76-37.4,20.68a94.4,94.4,0,0,1-21.76,7,36.23,36.23,0,0,1-13.66,0,22.23,22.23,0,0,1-7.87-3.34,20.74,20.74,0,0,1-6.18-6.69,9,9,0,0,1,15.57-9.06Z"/><g class="cls-2"><ellipse class="cls-7" cx="1101.19" cy="745.48" rx="14.37" ry="10.5" transform="translate(-151.79 300.05) rotate(-14.53)"/></g><g class="cls-2"><ellipse class="cls-7" cx="1034.98" cy="708.74" rx="23.37" ry="17.08" transform="translate(-144.69 282.27) rotate(-14.53)"/></g><g class="cls-2"><ellipse class="cls-7" cx="885.6" cy="608.9" rx="18.22" ry="14.32" transform="translate(-158 352.09) rotate(-20.69)"/></g><g class="cls-2"><ellipse class="cls-7" cx="1058.28" cy="434.47" rx="12.6" ry="9.9" transform="translate(-85.25 401.84) rotate(-20.69)"/></g><g class="cls-2"><ellipse class="cls-7" cx="1081.02" cy="565.27" rx="14.31" ry="11.24" transform="translate(-129.99 418.31) rotate(-20.69)"/></g><g class="cls-2"><path class="cls-7" d="M945,520.19c1.81,4.79-1.67,10.54-7.77,12.85s-12.5.28-14.31-4.51,1.66-10.54,7.76-12.84S943.18,515.4,945,520.19Z"/></g><g class="cls-2"><ellipse class="cls-3" cx="732.94" cy="686.86" rx="13" ry="10.21" transform="translate(-263.3 558.46) rotate(-35.8)"/></g><g class="cls-2"><ellipse class="cls-7" cx="761.95" cy="562.56" rx="12.9" ry="10.13" transform="matrix(0.81, -0.58, 0.58, 0.81, -185.12, 551.95)"/></g><g class="cls-2"><ellipse class="cls-7" cx="367.15" cy="890.93" rx="17.12" ry="13.45" transform="translate(-451.76 383.05) rotate(-35.8)"/></g><g class="cls-2"><ellipse class="cls-7" cx="375.5" cy="799.94" rx="14.48" ry="11.37" transform="translate(-396.96 370.75) rotate(-35.8)"/></g><g class="cls-2"><ellipse class="cls-7" cx="237.09" cy="978.08" rx="9.52" ry="7.48" transform="translate(-527.3 323.43) rotate(-35.8)"/></g><g class="cls-2"><ellipse class="cls-7" cx="378.68" cy="633.68" rx="14.48" ry="11.37" transform="translate(-299.11 341.2) rotate(-35.8)"/></g><g class="cls-2"><ellipse class="cls-3" cx="505.14" cy="542.73" rx="18.91" ry="14.85" transform="translate(-222.03 397.99) rotate(-35.8)"/></g><path class="cls-13" d="M1226.69,772c-18.13,103.15,217.36,119.86,217.36,119.86s149.15-349.13-91.49-647.1S784.57-8.07,748.9,62.3s35,102.55,35,102.55S1325,212.5,1226.69,772Z"/><g class="cls-5"><path class="cls-6" d="M1352.56,244.73c-240.64-298-568-252.8-603.66-182.43-31.77,62.68,20.84,95.07,32.7,101.39-14.29-15.41-26.16-40.72-7.84-76.88,7.8-15.38,30.59-29.46,63.79-38.41-7.66,4.88-11.93,10.48-11,15.65,1.87,10.44,24.16,15.18,49.81,10.6s44.91-16.75,43-27.19c-.67-3.74-4-6.74-9.15-8.85,116.82-2.91,286.2,46.29,424.71,217.8,223.71,277,85,601.58,85,601.58s-155.31-11-194.23-71.81c4.77,90.5,218.27,105.65,218.27,105.65S1593.2,542.7,1352.56,244.73Z"/></g><g class="cls-2"><path class="cls-3" d="M1444.05,891.83s20.32-47.61,33.86-122.61c-24.64-23.43-62.05-42.76-101.38-58.57a84.87,84.87,0,0,1-53-86.1c8.34-96.24,7.93-217.49-75.49-320.78-188.15-233-443.13-201.34-477.24-146.91a84.41,84.41,0,0,0,13.13,8S1325,212.5,1226.69,772C1208.56,875.12,1444.05,891.83,1444.05,891.83Z"/></g><path class="cls-3" d="M1444.06,902.12c-.25,0-.49,0-.74,0-6.62-.47-162.89-12.24-212.47-75.73-13.09-16.77-17.9-35.67-14.3-56.17,29.22-166.28,4-302.83-75-405.86-128-166.92-356.27-189-358.56-189.23a10.32,10.32,0,0,1-3.36-.89c-1.43-.65-35.2-16.36-47-50.16-7.19-20.52-4.79-42.86,7.14-66.41,14-27.62,61.5-48.87,123.94-55.46,136.43-14.39,338.6,40.07,496.91,236.08,126.37,156.48,144.93,326.92,138.25,442.35-7.23,124.89-43.75,211.63-45.3,215.26A10.3,10.3,0,0,1,1444.06,902.12ZM1226.68,772l10.14,1.78c-2.59,14.73.77,27.79,10.25,39.94,38.37,49.13,158.93,64.1,190.23,67.2,8.64-22.83,35.23-100.31,41-202.21,6.34-111.6-11.72-276.36-133.76-427.49C1191.44,61.6,996.84,8.82,865.83,22.64c-62.25,6.57-99,27-107.75,44.31-9.27,18.29-11.33,35.16-6.13,50.14,7.69,22.15,29.18,34.71,34.85,37.7,11.1,1.17,65.33,7.8,133.77,32.21,69.62,24.83,167.29,73.55,237.2,164.66,82.73,107.82,109.33,249.83,79,422.09Z"/><path class="cls-1" d="M1444.05,891.83s-46.07,52-137.1,23.79S1194.59,824.46,1226.69,772,1509.32,785.66,1444.05,891.83Z"/><g class="cls-2"><path class="cls-7" d="M1444.05,891.83s-46.07,52-137.1,23.79S1194.59,824.46,1226.69,772,1509.32,785.66,1444.05,891.83Z"/></g><path class="cls-3" d="M1359.41,934.39c-16.35,0-34.85-2.53-55.51-8.94-63-19.54-87-52.12-96-76-10-26.54-6.47-55.95,10-82.82,12.42-20.33,43.4-23.84,67.21-23.24,62.18,1.62,145.41,33.11,171.46,81.17,12.55,23.13,11.24,48.27-3.76,72.68a10.58,10.58,0,0,1-1.06,1.43C1450.14,900.48,1419.24,934.39,1359.41,934.39Zm-79.18-170.5c-23,0-39.56,4.94-44.77,13.45-13.23,21.65-16.09,44.07-8.26,64.83,10.45,27.71,39.85,50.3,82.8,63.62,78.83,24.45,120.32-14.55,125.81-20.21,10.75-18,11.62-34.74,2.68-51.23-21.84-40.29-97.21-68.93-153.91-70.41C1283.11,763.91,1281.66,763.89,1280.23,763.89Zm163.82,127.94h0Z"/><path class="cls-3" d="M911.84,120.17a34.27,34.27,0,0,1-2.91-14.59,42.75,42.75,0,0,1,2.75-14.84,34.15,34.15,0,0,1,8.21-12.9,26,26,0,0,1,13.36-7.22c-2.41,4.71-5,8.22-7,12.19a125.57,125.57,0,0,0-5.76,11.48c-1.7,3.94-3.2,8-4.59,12.34S913.24,115.37,911.84,120.17Z"/><path class="cls-3" d="M939.13,138.19c-1.47-6.69-1.14-13.6,0-20.35a65.19,65.19,0,0,1,6.8-19.51,51.44,51.44,0,0,1,13.2-16.17c1.4-1,2.75-2.15,4.21-3.1s3.07-1.7,4.62-2.46a24.87,24.87,0,0,1,4.83-1.9,49.73,49.73,0,0,1,5-1.25c-4.62,5.28-9.26,9.43-13,14.47A113.83,113.83,0,0,0,954.17,103a139.38,139.38,0,0,0-8.3,16.79C943.38,125.66,941.27,131.75,939.13,138.19Z"/><path class="cls-3" d="M1324.24,577.21c5.69-4.57,12.43-7.58,19.39-9.82a70.4,70.4,0,0,1,21.85-3,55.65,55.65,0,0,1,21.8,4.51c1.7.81,3.41,1.53,5,2.44s3.13,2,4.63,3.11a27.1,27.1,0,0,1,4.21,3.59c1.3,1.33,2.57,2.64,3.72,4.06-7.21-1.91-13.43-4.37-20.09-5.51a115.28,115.28,0,0,0-19.63-2.69,143.08,143.08,0,0,0-20.13.46C1338.2,574.9,1331.37,576,1324.24,577.21Z"/><path class="cls-3" d="M1312.81,624.8c8.91-4.6,18.75-7.2,28.73-8.67a104,104,0,0,1,30.41.17c2.51.49,5.07.75,7.55,1.43s5,1.34,7.41,2.09,4.79,1.86,7.16,2.84l3.53,1.52,3.35,1.91c2.2,1.33,4.43,2.57,6.53,4s4,3.24,6,4.83a32.17,32.17,0,0,1,2.84,2.52l2.56,2.82c1.65,1.93,3.28,3.84,4.77,5.84-9-4.63-17.1-9.61-26.13-12.73l-3.26-1.36-3.37-1.06c-2.26-.67-4.43-1.56-6.71-2.14s-4.55-1.17-6.83-1.75-4.61-.91-6.91-1.38a173.29,173.29,0,0,0-28.37-2.56A243.65,243.65,0,0,0,1312.81,624.8Z"/><path class="cls-11" d="M1018.74,542.18c72.94-38.47,95.33-3.17,105.09,65.71C1070.65,614.88,1024.08,599.92,1018.74,542.18Z"/><path class="cls-3" d="M1111.77,621.23c-30.93,0-57.1-8.07-74.9-23.34-15.82-13.57-24.54-32.16-25.92-55.25a7.8,7.8,0,0,1,4-7.29c31.29-17.3,55.91-21.35,75.27-12.37,27.82,12.9,38.69,50,46.3,88.11a7.78,7.78,0,0,1-6.92,9.28Q1120.46,621.24,1111.77,621.23ZM1027,546.61c2,16.43,8.68,29.68,20.06,39.44,16.11,13.81,42.16,20.71,72.41,19.4-6.46-29.73-16.12-59.21-35.77-68.32C1070,530.77,1051.38,533.87,1027,546.61Z"/><path class="cls-3" d="M1017.17,534.54c8.2-2.33,16.81-1.77,24.56.13a73.77,73.77,0,0,1,21.39,9.43,100.58,100.58,0,0,1,17.59,14.14,87.27,87.27,0,0,1,13.59,17.45,157.89,157.89,0,0,0-36.85-20.27,100.92,100.92,0,0,0-19-5,70.42,70.42,0,0,0-18.15-.58l-.28,0a7.82,7.82,0,0,1-2.86-15.3Z"/></svg>