<svg id="Layer_1" data-name="Layer 1" xmlns="http://www.w3.org/2000/svg" viewBox="0 0 1674.17 2810.14"><defs><style>.cls-1{fill:#ef771d;}.cls-2{fill:#390176;}.cls-3{opacity:0.55;}.cls-4{fill:#fff;}.cls-5{fill:#650000;}.cls-6{fill:#9b47fc;}.cls-7{opacity:0.2;}.cls-8{opacity:0.3;}.cls-9{fill:#6cc900;}</style></defs><path class="cls-1" d="M1087.57,1539.53l-27.69-69.39-39.76,135.95c-27.83,41.08-59.83,36.19-95-3.83,81-124.37,108.64-244.62,78.1-360.39,0,0-94.62,133.33-96.46,136.53l-32.08-70.05,53.24-68.41-103.29,18.22L725.12,1215c66.48-3.9,129.69-15.86,187.53-41,90.31-39.25,158.92-116.9,187.86-211q7.34-23.8,16.58-46.44A25.32,25.32,0,0,0,1097.93,882c-14.07-2.38-27.86-7.61-39.84-13.46-22.67-11-42.16-27.54-57.81-47.27L890.71,683.18c43.12,18.39,81.42,47.39,116.87,82.76,19.51,19.5,43.42,34.39,70.14,41.1l1,.24c49.13,12,100.42-5.59,134.59-42.86,56.58-61.73,130.68-112.51,223.11-151.88l17.45,110.28c-340.73,147.54-435.65,554.45-287.23,808.77C1142.33,1572.25,1087.57,1539.53,1087.57,1539.53Z"/><path class="cls-2" d="M978,1637.23c-16.94,0-35.35-11.19-54.78-33.28l-1.28-1.46,1.06-1.63c80.09-122.94,106.7-241.68,79.13-353-33.22,46.81-91.38,128.89-93.14,131.82l-2.5,4.15-2-4.37L871.69,1308l50.11-64.39-97.5,17.2-.71-.3L714.26,1213l10.71-.63c72.21-4.24,133.27-17.6,186.66-40.82,89.51-38.91,157.47-115.23,186.44-209.4,4.87-15.84,10.48-31.54,16.65-46.66a22.76,22.76,0,0,0-17.21-31c-12.68-2.14-26.32-6.74-40.54-13.68-22.27-10.82-42-27-58.69-48l-115.85-146,9.28,4c40.19,17.14,78.68,44.39,117.68,83.31,20.2,20.2,44.05,34.18,69,40.43l.85.21c47.24,11.5,97.86-4.63,132.19-42.07,57-62.17,132.35-113.48,224-152.51l3-1.29,18.26,115.48-1.82.79c-155.34,67.26-270.16,193.55-323.32,355.6-50.7,154.59-36.77,322.64,37.28,449.53l.77,1.3-.78,1.3c-10.52,17.62-28.24,24.68-51.29,20.42a104.22,104.22,0,0,1-31.25-11.6l-.75-.44L1060.25,1478l-38,129.56c-12.68,18.71-26.78,28.68-41.9,29.62C979.55,1637.21,978.76,1637.23,978,1637.23ZM928.31,1602c18.75,20.9,36.08,31,51.71,30,13.37-.84,26.08-10,37.76-27.06l41.72-142.69,30.11,75.46c6.63,3.76,52.21,27.89,74-6.21-74.09-128-87.93-297-36.95-452.38,53.41-162.83,168.54-289.86,324.33-357.91l-16.62-105.08c-89.62,38.59-163.36,89-219.22,150-35.59,38.83-88.11,55.54-137.07,43.61l-1-.25c-25.8-6.47-50.46-20.91-71.32-41.77-35.42-35.34-70.37-60.92-106.54-77.94l103.06,129.88c16.19,20.42,35.34,36.09,56.92,46.57,13.78,6.73,27,11.18,39.14,13.23a27.89,27.89,0,0,1,21.11,38c-6.12,15-11.67,30.53-16.5,46.22-29.41,95.6-98.4,173.09-189.29,212.58-51.32,22.34-109.6,35.63-177.84,40.56l89.09,38.69L934,1236.26l-56.36,72.44,29.55,64.51c14.71-21.17,85.16-120.46,93.93-132.81l3.17-4.46,1.39,5.28C1035.7,1355,1009.67,1476.43,928.31,1602Z"/><g class="cls-3"><path class="cls-4" d="M1121.35,1000c-28.95,94.09-97.55,171.73-187.86,211-42.24,18.37-87.37,29.71-134.55,36l-73.82-32c66.48-3.9,129.69-15.86,187.53-41,90.31-39.25,158.92-116.9,187.86-211,4.68-15.13,9.87-29.91,15.71-44.31.83.16,1.69.35,2.53.48a25.31,25.31,0,0,1,19.17,34.47Q1128.7,976.23,1121.35,1000Z"/><path class="cls-4" d="M1028.42,803c-31.68-31.62-65.69-58.15-103.37-76.52l-34.34-43.31c43.12,18.39,81.42,47.39,116.87,82.76,19.51,19.5,43.42,34.39,70.14,41.1.32.08.63.15,1,.25,49.14,12,100.41-5.61,134.57-42.87,56.59-61.74,130.71-112.51,223.12-151.88l6.84,43.2c-86,38.48-155.44,87.19-209.12,145.75-34.13,37.28-85.46,54.86-134.57,42.87-.32-.08-.63-.15-1-.25C1071.83,837.4,1047.93,822.51,1028.42,803Z"/><path class="cls-4" d="M1024.06,1279c29.53,112,4.65,228.18-70.39,348.23-9.23-5.42-18.81-13.8-28.58-24.94,68.82-105.6,99.12-208.26,87.92-307.74C1019.78,1285,1024.06,1279,1024.06,1279Z"/></g><path class="cls-5" d="M977.78,1652.38c-21.65,0-43.27-12.6-66-38.43a17.72,17.72,0,0,1-1.54-21.35c69.56-106.77,97.63-209.9,83.73-307.16-33,46.61-69.16,97.65-72.22,102.29a17.71,17.71,0,0,1-31.14-2l-32.07-70a17.7,17.7,0,0,1,2.12-18.24l25-32.12-58,10.23a17.59,17.59,0,0,1-10.13-1.2l-99.49-43.2a17.7,17.7,0,0,1,6-33.91c70.4-4.13,129.78-17.08,181.51-39.59,85.46-37.14,150.33-110,178-200,5-16.26,10.77-32.39,17.11-47.93a7.62,7.62,0,0,0-5.71-10.33c-14.11-2.37-29.14-7.42-44.67-15-24.3-11.81-45.81-29.37-63.91-52.18L876.84,694.17a17.7,17.7,0,0,1,20.81-27.28c42,17.92,82.05,46.22,122.44,86.52,18.27,18.27,39.69,30.88,61.94,36.46l.74.18c41.9,10.21,86.86-4.21,117.46-37.59,58.45-63.76,135.57-116.32,229.23-156.21a17.7,17.7,0,0,1,24.42,13.53l17.44,110.27a17.71,17.71,0,0,1-10.45,19c-151.31,65.53-263.16,188.55-314.95,346.43-49.38,150.54-35.93,314,36,437.18a17.68,17.68,0,0,1-.09,18c-13.86,23.2-37.68,33-67,27.55a119.35,119.35,0,0,1-36.27-13.49,17.64,17.64,0,0,1-7.36-8.63l-8.67-21.72-25.35,86.69a17.64,17.64,0,0,1-2.33,5c-15.45,22.78-33.45,35-53.49,36.24C980.12,1652.34,979,1652.38,977.78,1652.38Zm-30.3-52.27c12.08,11.59,22.87,17.42,31.59,16.82,8-.5,16.41-6.75,24.87-18.57l39-133.19a17.7,17.7,0,0,1,33.43-1.6l25.27,63.35c9.5,4.57,30.24,12.52,43.54,2.65-71.49-130.42-83.89-299.49-32.85-455.12,53.54-163.22,167.6-291.39,322-362.27L1422.51,638c-79.6,36.6-145.52,83.08-196.18,138.35-39.33,42.9-97.5,61.33-151.83,48.08l-1.19-.29c-28.36-7.11-55.45-22.93-78.24-45.72q-12-12-24-22.45l43.06,54.26c14.77,18.63,32.16,32.88,51.67,42.36,12.51,6.1,24.29,10.11,35,11.92a43,43,0,0,1,32.61,58.63c-6,14.56-11.35,29.69-16,45-30.71,99.83-102.78,180.76-197.72,222-38,16.51-79.49,28.22-125.76,35.39l32.83,14.25,98-17.3a17.71,17.71,0,0,1,17,28.31l-46.64,59.93L910,1342.92q24-34.12,78.8-111.29a17.71,17.71,0,0,1,31.56,5.73C1050.66,1352.39,1026.15,1474.37,947.48,1600.11Z"/><circle class="cls-6" cx="339.27" cy="1361.63" r="229.85" transform="translate(-863.45 638.71) rotate(-45)"/><path class="cls-2" d="M338.87,1594a232.36,232.36,0,0,1-201-348.32c63.94-111.05,206.31-149.38,317.37-85.45s149.38,206.31,85.44,317.37h0C497.72,1552.2,419.35,1594,338.87,1594Zm.78-459.61c-78.71,0-155.35,40.87-197.36,113.84-62.53,108.62-25,247.85,83.57,310.39s247.85,25,310.38-83.57,25-247.85-83.57-310.39A226,226,0,0,0,339.65,1134.38Z"/><g class="cls-3"><path class="cls-4" d="M566.8,1314.78a228.85,228.85,0,0,0-98-112c-110-63.32-250.49-25.5-313.84,84.53a229,229,0,0,0-24.12,169.08,229.32,229.32,0,0,1,13.48-201.86c63.32-110,203.85-147.86,313.88-84.51A229.1,229.1,0,0,1,566.8,1314.78Z"/></g><g class="cls-7"><ellipse class="cls-4" cx="260.68" cy="1235.38" rx="89.12" ry="71.27" transform="translate(-773.05 510.44) rotate(-43.04)"/></g><g class="cls-7"><circle class="cls-4" cx="221.3" cy="1398.41" r="35.74" transform="translate(-1193.38 1455.1) rotate(-83.3)"/></g><g class="cls-8"><path class="cls-2" d="M538.47,1476.32c-63.34,110-203.89,147.85-313.9,84.52A229.24,229.24,0,0,1,116.25,1417.3a229.85,229.85,0,0,0,47.48,36.27c110,63.35,250.54,25.53,313.88-84.48a229.22,229.22,0,0,0,23.81-170.46C573.55,1270.29,591.59,1384.06,538.47,1476.32Z"/><path class="cls-2" d="M338.87,1594a232.27,232.27,0,0,1-225.1-176.08l-2.23-8.93,6.52,6.5a227.31,227.31,0,0,0,380.88-216.24l-2.22-8.9,6.51,6.47c74.58,74.09,90,189.55,37.46,280.78l-2.22-1.28,2.22,1.28C497.73,1552.21,419.36,1594,338.87,1594ZM121.12,1425.5a225.28,225.28,0,0,0,104.73,133.12c108.61,62.52,247.86,25,310.4-83.57A227.53,227.53,0,0,0,506,1207,232.49,232.49,0,0,1,121.12,1425.5Z"/></g><path class="cls-2" d="M338.85,1609.13a246,246,0,0,1-123.1-33c-118.3-68.11-159.12-219.76-91-338.05s219.76-159.13,338-91,159.12,219.77,91,338.06C508,1564.62,424.57,1609.13,338.85,1609.13Zm.77-459.6a212.12,212.12,0,0,0-106.21,396c101.37,58.36,231.34,23.38,289.71-78l15.34,8.83-15.34-8.83c58.36-101.38,23.37-231.35-78-289.71A210.89,210.89,0,0,0,339.62,1149.53Z"/><circle class="cls-6" cx="247.5" cy="1789" r="229.85"/><path class="cls-2" d="M247.11,2021.36a230.92,230.92,0,0,1-115.57-30.95C20.48,1926.47-17.85,1784.1,46.09,1673s206.31-149.4,317.37-85.45S512.85,1793.91,448.91,1905h0C406,1979.57,327.59,2021.36,247.11,2021.36Zm.77-459.6c-78.71,0-155.34,40.86-197.35,113.83C-12,1784.2,25.48,1923.44,134.09,1986s247.85,25,310.39-83.57l2.21,1.28-2.21-1.28c62.53-108.61,25-247.85-83.57-310.38A225.9,225.9,0,0,0,247.88,1561.76Z"/><g class="cls-3"><path class="cls-4" d="M474.31,1741.83A228.7,228.7,0,0,0,377.24,1632c-110-63.35-250.53-25.52-313.88,84.51a229,229,0,0,0-24.53,167.3,229.33,229.33,0,0,1,12.61-203.89c63.33-110,203.89-147.83,313.88-84.5A229.09,229.09,0,0,1,474.31,1741.83Z"/></g><g class="cls-7"><ellipse class="cls-4" cx="168.91" cy="1662.75" rx="89.12" ry="71.27" transform="translate(-1089.45 562.84) rotate(-43.04)"/></g><g class="cls-7"><circle class="cls-4" cx="129.53" cy="1825.78" r="35.74" transform="translate(-726.34 207.84) rotate(-23.82)"/></g><g class="cls-8"><path class="cls-2" d="M446.71,1903.69c-63.34,110-203.9,147.85-313.9,84.52A229.24,229.24,0,0,1,24.49,1844.67,229,229,0,0,0,72,1880.94c110,63.35,250.54,25.53,313.87-84.48A229.17,229.17,0,0,0,409.66,1626C481.79,1697.66,499.82,1811.43,446.71,1903.69Z"/><path class="cls-2" d="M247.11,2021.38A232.3,232.3,0,0,1,22,1845.29l-2.22-8.92,6.51,6.49a227.13,227.13,0,0,0,46.95,35.86c108.62,62.53,247.86,25.06,310.39-83.53a226.31,226.31,0,0,0,23.55-168.56l-2.23-8.91,6.51,6.47c74.58,74.1,90,189.56,37.46,280.78h0C406,1979.59,327.59,2021.38,247.11,2021.38ZM29.35,1852.87A225.26,225.26,0,0,0,134.09,1986c108.61,62.53,247.86,25,310.4-83.57h0a227.52,227.52,0,0,0-30.29-268,231.2,231.2,0,0,1-26.14,163.35c-63.93,111-206.3,149.37-317.37,85.42A233,233,0,0,1,29.35,1852.87Z"/></g><path class="cls-2" d="M247.09,2036.5a246.17,246.17,0,0,1-123.11-33C5.69,1935.42-35.14,1783.77,33,1665.48s219.75-159.11,338-91,159.12,219.76,91,338h0C416.28,1992,332.81,2036.5,247.09,2036.5Zm.77-459.61A212.27,212.27,0,0,0,63.65,1683.15c-58.37,101.38-23.38,231.34,78,289.7s231.34,23.39,289.71-78,23.37-231.33-78-289.7A210.86,210.86,0,0,0,247.86,1576.89Zm198.83,326.8h0Z"/><circle class="cls-6" cx="684.9" cy="1441.33" r="229.85" transform="translate(-818.57 906.45) rotate(-45)"/><path class="cls-2" d="M684.53,1673.84a232.53,232.53,0,1,1,201.78-116.55l-2.22-1.27,2.22,1.27a230.9,230.9,0,0,1-141,108.46A233.79,233.79,0,0,1,684.53,1673.84Zm.74-459.9a228.37,228.37,0,0,0-59.46,7.92,227.29,227.29,0,1,0,256.07,332.88c62.53-108.61,25-247.85-83.57-310.38A225.87,225.87,0,0,0,685.27,1213.94Z"/><g class="cls-3"><path class="cls-4" d="M505.52,1365.59a229.2,229.2,0,0,0-18.75,187.69,229.59,229.59,0,0,1,2.77-224.42c63.35-110,203.85-147.85,313.88-84.5a229,229,0,0,1,103.14,125.86,228.81,228.81,0,0,0-87.16-89.14C709.41,1217.75,568.85,1255.6,505.52,1365.59Z"/></g><g class="cls-7"><ellipse class="cls-4" cx="606.32" cy="1315.08" rx="89.12" ry="71.27" transform="translate(-734.41 767.81) rotate(-43.04)"/></g><g class="cls-7"><circle class="cls-4" cx="566.94" cy="1478.11" r="35.74" transform="translate(-666.31 485.47) rotate(-30.18)"/></g><g class="cls-8"><path class="cls-2" d="M884.11,1556c-63.34,110-203.89,147.85-313.9,84.51A229.2,229.2,0,0,1,461.89,1497a229.32,229.32,0,0,0,47.48,36.27c110,63.35,250.54,25.52,313.88-84.48a229.22,229.22,0,0,0,23.81-170.46C919.19,1350,937.23,1463.76,884.11,1556Z"/><path class="cls-2" d="M684.51,1673.84a232.66,232.66,0,0,1-225.1-176.22l-2.23-8.92,6.51,6.49a226.93,226.93,0,0,0,47,35.86c108.61,62.53,247.86,25.06,310.38-83.54A226.29,226.29,0,0,0,844.58,1279l-2.22-8.9,6.5,6.46c74.58,74.1,90,189.56,37.46,280.78l-2.21-1.27,2.21,1.27a230.86,230.86,0,0,1-141,108.46A233.46,233.46,0,0,1,684.51,1673.84ZM466.76,1505.2A227.32,227.32,0,1,0,851.6,1286.71a231.21,231.21,0,0,1-26.14,163.35c-63.93,111-206.31,149.37-317.37,85.42A233,233,0,0,1,466.76,1505.2Z"/></g><path class="cls-2" d="M684.5,1689A247.6,247.6,0,1,1,808.42,1226.8c118.29,68.11,159.12,219.76,91,338h0a245.92,245.92,0,0,1-150.17,115.52A249.21,249.21,0,0,1,684.5,1689Zm.74-459.9a213.32,213.32,0,0,0-55.49,7.39,212.15,212.15,0,1,0,239,310.7h0a212.3,212.3,0,0,0-183.52-318.09Z"/><circle class="cls-6" cx="466.7" cy="2090.3" r="188.9" transform="translate(-1341.38 942.24) rotate(-45)"/><path class="cls-2" d="M466.39,2281.85a190.41,190.41,0,0,1-95.22-25.62c-91.49-52.68-123.07-170-70.4-261.45s170-123.07,261.46-70.4a191.46,191.46,0,0,1-45.76,350.8A192.48,192.48,0,0,1,466.39,2281.85ZM467,1904a186.45,186.45,0,0,0-161.8,93.32c-51.27,89-20.53,203.2,68.51,254.47a186.34,186.34,0,0,0,254.47-68.51h0A186.28,186.28,0,0,0,467,1904Z"/><g class="cls-3"><path class="cls-4" d="M322.81,2028a188.62,188.62,0,0,0-10.66,166.92,188.94,188.94,0,0,1-4.7-196.29c52.05-90.39,167.59-121.5,258-69.46a188,188,0,0,1,80.08,91,187.87,187.87,0,0,0-64.75-61.63C490.38,1906.52,374.86,1937.59,322.81,2028Z"/></g><g class="cls-7"><ellipse class="cls-4" cx="402.11" cy="1986.55" rx="73.24" ry="58.57" transform="matrix(0.73, -0.68, 0.68, 0.73, -1247.69, 809.16)"/></g><g class="cls-7"><circle class="cls-4" cx="369.75" cy="2120.53" r="29.37" transform="translate(-1223.95 673.64) rotate(-37.87)"/></g><g class="cls-8"><path class="cls-2" d="M630.41,2184.56c-52,90.41-167.56,121.51-258,69.46a188.38,188.38,0,0,1-89-118,188.72,188.72,0,0,0,39,29.8c90.43,52.07,205.9,21,258-69.43A188.32,188.32,0,0,0,600,1956.34C659.24,2015.23,674.07,2108.74,630.41,2184.56Z"/><path class="cls-2" d="M466.38,2281.85a191.68,191.68,0,0,1-185.45-145.17l-2.23-8.92,6.52,6.49A186.36,186.36,0,0,0,597.48,1957l-2.22-8.9,6.51,6.47a191.61,191.61,0,0,1,30.86,231.31h0a190.24,190.24,0,0,1-116.16,89.35A193,193,0,0,1,466.38,2281.85ZM288.31,2144.23a186.37,186.37,0,0,0,339.89,39.06h0a186.57,186.57,0,0,0-23.72-218.55,191.52,191.52,0,0,1-316.17,179.49Z"/></g><path class="cls-2" d="M466.36,2297a205.42,205.42,0,0,1-102.75-27.65c-98.72-56.85-132.8-183.41-76-282.13s183.41-132.8,282.13-76a206.61,206.61,0,0,1-49.37,378.55A207.84,207.84,0,0,1,466.36,2297Zm.63-377.86a171.32,171.32,0,0,0-148.66,85.74c-47.1,81.81-18.86,186.69,62.95,233.79a171.18,171.18,0,0,0,233.78-63h0A171.14,171.14,0,0,0,467,1919.14Z"/><circle class="cls-6" cx="846.54" cy="1818.3" r="229.85"/><path class="cls-2" d="M846.15,2050.66a231,231,0,0,1-115.57-30.95c-111.06-63.94-149.39-206.32-85.45-317.37S851.44,1553,962.5,1616.89s149.39,206.31,85.45,317.37l-2.22-1.28,2.22,1.28C1005,2008.87,926.62,2050.66,846.15,2050.66Zm.77-459.61c-78.71,0-155.34,40.87-197.36,113.84-62.53,108.62-25,247.85,83.57,310.39s247.85,25,310.39-83.57,25-247.85-83.57-310.39A226,226,0,0,0,846.92,1591.05Z"/><g class="cls-3"><path class="cls-4" d="M676.27,1745.72a229.86,229.86,0,0,0,3.78,235.74c-65.89-71.89-80.85-180.89-29.63-269.87,63.35-110,203.86-147.85,313.88-84.51a228.64,228.64,0,0,1,80.55,77.84,230.36,230.36,0,0,0-54.7-43.7C880.16,1597.89,739.62,1635.7,676.27,1745.72Z"/></g><g class="cls-7"><ellipse class="cls-4" cx="767.95" cy="1692.05" rx="89.12" ry="71.27" transform="translate(-948.21 979.6) rotate(-43.04)"/></g><g class="cls-7"><circle class="cls-4" cx="728.57" cy="1855.08" r="35.74" transform="translate(-1198.82 2362.32) rotate(-83.3)"/></g><g class="cls-8"><path class="cls-2" d="M1045.74,1933c-63.33,110-203.89,147.85-313.89,84.52A229.21,229.21,0,0,1,623.53,1874,229.32,229.32,0,0,0,671,1910.24c110,63.35,250.54,25.53,313.87-84.48a229.18,229.18,0,0,0,23.82-170.46C1080.82,1727,1098.86,1840.73,1045.74,1933Z"/><path class="cls-2" d="M846.15,2050.67A232.27,232.27,0,0,1,621,1874.59l-2.22-8.93,6.51,6.5a227.31,227.31,0,0,0,380.88-216.24L1004,1647l6.51,6.47c74.58,74.09,90,189.55,37.46,280.78l-2.22-1.28,2.22,1.28C1005,2008.88,926.63,2050.67,846.15,2050.67Zm-217.76-168.5a225.28,225.28,0,0,0,104.73,133.12c108.61,62.52,247.86,25,310.41-83.57a227.53,227.53,0,0,0-30.29-268,232.49,232.49,0,0,1-384.85,218.49Z"/></g><path class="cls-2" d="M846.12,2065.8a246,246,0,0,1-123.1-33c-118.29-68.11-159.12-219.76-91-338.06s219.75-159.11,338-91,159.12,219.76,91,338.06h0C1015.32,2021.28,931.84,2065.8,846.12,2065.8Zm.78-459.6c-73.47,0-145,38.14-184.21,106.25-58.37,101.37-23.38,231.33,78,289.7s231.33,23.38,289.7-78,23.38-231.34-78-289.7A210.85,210.85,0,0,0,846.9,1606.2Z"/><circle class="cls-6" cx="1190.77" cy="1760.12" r="229.85"/><path class="cls-2" d="M1190.4,1992.63a231,231,0,0,1-115.59-31.1c-111.06-63.94-149.39-206.31-85.45-317.36s206.31-149.4,317.37-85.45a232.4,232.4,0,0,1-55.54,425.82A233.79,233.79,0,0,1,1190.4,1992.63Zm.75-459.75c-78.71,0-155.34,40.86-197.36,113.83-62.53,108.62-25,247.86,83.57,310.39s247.85,25,310.39-83.56,25-247.86-83.57-310.39A225.93,225.93,0,0,0,1191.15,1532.88Z"/><g class="cls-3"><path class="cls-4" d="M1009.49,1687.67a229.23,229.23,0,0,0-20.26,183,229.71,229.71,0,0,1,2.35-225.27c63.32-110,203.85-147.86,313.88-84.51a228.87,228.87,0,0,1,104.8,131,228.46,228.46,0,0,0-86.89-88.73C1213.34,1539.81,1072.82,1577.68,1009.49,1687.67Z"/></g><g class="cls-8"><path class="cls-2" d="M1390,1874.82c-63.34,110-203.9,147.84-313.9,84.51a229.21,229.21,0,0,1-108.32-143.54,229,229,0,0,0,47.48,36.27c110,63.36,250.54,25.53,313.87-84.48a229.15,229.15,0,0,0,23.82-170.45C1425.06,1668.78,1443.09,1782.56,1390,1874.82Z"/><path class="cls-2" d="M1190.38,1992.64a232.7,232.7,0,0,1-225.1-176.22l-2.23-8.92,6.51,6.48a226.93,226.93,0,0,0,47,35.86c108.61,62.54,247.85,25.06,310.38-83.53a226.32,226.32,0,0,0,23.55-168.57l-2.23-8.9,6.51,6.47c74.58,74.09,90,189.55,37.46,280.78h0a230.89,230.89,0,0,1-141,108.46A233.94,233.94,0,0,1,1190.38,1992.64ZM972.62,1824a227.32,227.32,0,0,0,415.14,49.55l2.22,1.27-2.22-1.27a227.52,227.52,0,0,0-30.29-268,231.22,231.22,0,0,1-26.14,163.36C1267.4,1879.91,1125,1918.22,1014,1854.28A233.52,233.52,0,0,1,972.62,1824Z"/></g><g class="cls-7"><ellipse class="cls-4" cx="1112.18" cy="1633.88" rx="89.12" ry="71.27" transform="translate(-815.84 1198.9) rotate(-43.04)"/></g><g class="cls-7"><circle class="cls-4" cx="1072.8" cy="1796.9" r="35.74" transform="translate(-956.38 1284.89) rotate(-45)"/></g><path class="cls-2" d="M1190.37,2007.78a246.18,246.18,0,0,1-123.12-33.12c-118.29-68.11-159.12-219.76-91-338.05s219.75-159.11,338-91,159.12,219.76,91,338.05a245.89,245.89,0,0,1-150.17,115.52A248.78,248.78,0,0,1,1190.37,2007.78Zm.76-459.76a212.28,212.28,0,0,0-184.21,106.25c-58.37,101.38-23.38,231.34,78,289.7a212.14,212.14,0,1,0,106.21-396Z"/><circle class="cls-6" cx="948.27" cy="2166.49" r="188.9"/><path class="cls-2" d="M948,2358A191.53,191.53,0,0,1,782.35,2071c52.68-91.49,170-123.06,261.46-70.39s123.06,170,70.39,261.45a190.25,190.25,0,0,1-116.15,89.35A192.46,192.46,0,0,1,948,2358Zm.62-377.84a186.32,186.32,0,1,0,161.17,279.28l2.22,1.28-2.22-1.28c51.27-89,20.54-203.2-68.51-254.47A185.22,185.22,0,0,0,948.59,1980.19Z"/><g class="cls-3"><path class="cls-4" d="M1135.33,2125.81a188.17,188.17,0,0,0-77.33-84.66c-90.43-52.07-205.92-21-258,69.46a188.31,188.31,0,0,0-19.51,140.22,188.55,188.55,0,0,1,7.92-173.14c52.05-90.39,167.53-121.48,258-69.42A188.49,188.49,0,0,1,1135.33,2125.81Z"/></g><g class="cls-8"><path class="cls-2" d="M1112,2260.75c-52,90.41-167.57,121.51-258,69.46a188.37,188.37,0,0,1-89-118,188.61,188.61,0,0,0,39,29.81c90.44,52.07,205.91,21,258-69.43a188.37,188.37,0,0,0,19.57-140.09A189,189,0,0,1,1112,2260.75Z"/><path class="cls-2" d="M948,2358a191.71,191.71,0,0,1-185.45-145.17l-2.23-8.92,6.52,6.48a185.93,185.93,0,0,0,38.49,29.4c89.05,51.27,203.2,20.55,254.47-68.48a185.53,185.53,0,0,0,19.3-138.2l-2.22-8.9,6.5,6.46A191.62,191.62,0,0,1,1114.21,2262l-2.22-1.28,2.22,1.28a190.22,190.22,0,0,1-116.16,89.34A192.55,192.55,0,0,1,948,2358ZM769.89,2220.42a186.36,186.36,0,0,0,339.88,39.06h0a186.53,186.53,0,0,0-23.72-218.55,190.49,190.49,0,0,1-21.86,133c-52.67,91.48-170,123-261.45,70.36A191.58,191.58,0,0,1,769.89,2220.42Z"/></g><g class="cls-7"><ellipse class="cls-4" cx="883.69" cy="2062.73" rx="73.24" ry="58.57" transform="translate(-1170.06 1158.36) rotate(-43.04)"/></g><g class="cls-7"><circle class="cls-4" cx="851.32" cy="2196.72" r="29.37" transform="translate(-541.83 296.86) rotate(-15.07)"/></g><path class="cls-2" d="M947.94,2373.18A206.68,206.68,0,0,1,769.23,2063.4c56.84-98.72,183.4-132.79,282.13-76s132.8,183.41,76,282.14h0A205.25,205.25,0,0,1,1002,2366,207.88,207.88,0,0,1,947.94,2373.18Zm.62-377.85a171.18,171.18,0,1,0,148.08,256.58l15.34,8.84-15.34-8.84c47.1-81.81,18.87-186.69-62.94-233.78A170.15,170.15,0,0,0,948.56,1995.33Z"/><circle class="cls-6" cx="569.57" cy="2403.33" r="188.9" transform="translate(-1532.59 1106.67) rotate(-45)"/><path class="cls-2" d="M569.26,2594.87A190.33,190.33,0,0,1,474,2569.25c-91.49-52.67-123.07-170-70.39-261.45s170-123.06,261.45-70.39a191.44,191.44,0,0,1,70.39,261.45h0a190.2,190.2,0,0,1-116.14,89.35A192.48,192.48,0,0,1,569.26,2594.87Zm.63-377.85a186.48,186.48,0,0,0-161.81,93.33c-51.27,89.05-20.53,203.2,68.51,254.47a186.33,186.33,0,0,0,254.47-68.51h0c51.27-89,20.53-203.2-68.51-254.47A185.25,185.25,0,0,0,569.89,2217Z"/><g class="cls-3"><path class="cls-4" d="M424.43,2350a188.48,188.48,0,0,0-15.75,153.21,188.78,188.78,0,0,1-.46-189.35c52-90.39,167.57-121.46,258-69.42a188.3,188.3,0,0,1,85.21,104.77,188,188,0,0,0-69-68.63C592,2228.5,476.48,2259.57,424.43,2350Z"/></g><g class="cls-8"><path class="cls-2" d="M733.29,2497.59c-52.06,90.41-167.57,121.51-258,69.46a188.36,188.36,0,0,1-89-118,188.61,188.61,0,0,0,39,29.81c90.44,52.07,205.91,21,258-69.43a188.37,188.37,0,0,0,19.57-140.09A189,189,0,0,1,733.29,2497.59Z"/><path class="cls-2" d="M569.25,2594.88A191.7,191.7,0,0,1,383.81,2449.7l-2.23-8.92,6.52,6.49a186,186,0,0,0,38.49,29.4c89.05,51.27,203.2,20.54,254.46-68.48A185.54,185.54,0,0,0,700.36,2270l-2.23-8.9,6.51,6.46a191.68,191.68,0,0,1-135.39,327.33ZM391.19,2457.26a186.36,186.36,0,0,0,339.88,39h0a186.52,186.52,0,0,0-23.72-218.54,190.54,190.54,0,0,1-21.86,133c-52.67,91.47-170,123-261.46,70.36A191.11,191.11,0,0,1,391.19,2457.26Z"/></g><g class="cls-7"><ellipse class="cls-4" cx="504.99" cy="2299.57" rx="73.24" ry="58.57" transform="translate(-1433.65 963.63) rotate(-43.04)"/></g><g class="cls-7"><circle class="cls-4" cx="472.62" cy="2433.56" r="29.37" transform="translate(-1394.46 802.73) rotate(-37.87)"/></g><path class="cls-2" d="M569.24,2610a205.42,205.42,0,0,1-102.76-27.64c-98.72-56.85-132.8-183.41-76-282.14s183.4-132.79,282.13-76a206.6,206.6,0,0,1-49.38,378.55A207.81,207.81,0,0,1,569.24,2610Zm.62-377.86a171.31,171.31,0,0,0-148.66,85.75c-47.1,81.81-18.86,186.68,62.95,233.78a171.18,171.18,0,0,0,233.78-62.94h0a171.16,171.16,0,0,0-148.08-256.59Z"/><circle class="cls-6" cx="259.73" cy="2290.78" r="188.9" transform="translate(-1543.75 854.61) rotate(-45)"/><path class="cls-2" d="M259.41,2482.2a190.36,190.36,0,0,1-95.21-25.5c-91.49-52.68-123.06-170-70.39-261.45s170-123.07,261.45-70.4,123.07,170,70.39,261.46h0A191.58,191.58,0,0,1,259.41,2482.2Zm.64-377.73A186.47,186.47,0,0,0,98.24,2197.8c-51.26,89-20.53,203.2,68.52,254.47S370,2472.8,421.22,2383.76s20.53-203.2-68.51-254.47A185.25,185.25,0,0,0,260.05,2104.47Z"/><g class="cls-3"><path class="cls-4" d="M110.58,2233.89a188.34,188.34,0,0,0-17.66,147,188.66,188.66,0,0,1,5.34-178.51c52.07-90.43,167.55-121.52,258-69.48a188.51,188.51,0,0,1,87.18,111,187.88,187.88,0,0,0-74.83-79.44C278.17,2112.38,162.65,2143.45,110.58,2233.89Z"/></g><g class="cls-8"><path class="cls-2" d="M423.45,2385c-52.05,90.41-167.57,121.51-258,69.45a188.37,188.37,0,0,1-89-118,188.23,188.23,0,0,0,39,29.8c90.44,52.07,205.91,21,258-69.42A188.37,188.37,0,0,0,393,2156.82,189,189,0,0,1,423.45,2385Z"/><path class="cls-2" d="M259.41,2482.32A191.68,191.68,0,0,1,74,2337.15l-2.23-8.92,6.51,6.49a186.34,186.34,0,0,0,38.5,29.4c89,51.27,203.2,20.54,254.46-68.49a185.51,185.51,0,0,0,19.31-138.19l-2.22-8.9,6.5,6.46a191.59,191.59,0,0,1,30.86,231.31l-2.21-1.27,2.21,1.27a190.19,190.19,0,0,1-116.15,89.35A192.61,192.61,0,0,1,259.41,2482.32ZM81.35,2344.71a186.36,186.36,0,0,0,339.88,39.05h0a186.55,186.55,0,0,0-23.72-218.55,190.53,190.53,0,0,1-21.86,133c-52.67,91.48-169.95,123.05-261.46,70.37A192.58,192.58,0,0,1,81.35,2344.71Z"/></g><g class="cls-7"><ellipse class="cls-4" cx="195.15" cy="2187.02" rx="73.24" ry="58.57" transform="translate(-1440.23 721.86) rotate(-43.04)"/></g><g class="cls-7"><circle class="cls-4" cx="162.78" cy="2321" r="29.37" transform="translate(-597.82 122.13) rotate(-15.07)"/></g><path class="cls-2" d="M259.39,2497.34a205.27,205.27,0,0,1-102.74-27.52c-98.73-56.84-132.8-183.4-76-282.13s183.39-132.79,282.13-76,132.8,183.41,76,282.14h0A206.75,206.75,0,0,1,259.39,2497.34Zm.63-377.73a171.31,171.31,0,0,0-148.66,85.75c-47.09,81.8-18.86,186.68,63,233.78S361,2458,408.1,2376.2h0c47.1-81.81,18.86-186.69-63-233.79A170.19,170.19,0,0,0,260,2119.61ZM423.44,2385h0Z"/><circle class="cls-6" cx="718.13" cy="2080.8" r="229.85"/><path class="cls-2" d="M717.76,2313.31a231,231,0,0,1-115.59-31.1c-111-63.94-149.39-206.31-85.45-317.37S723,1815.44,834.1,1879.39s149.38,206.32,85.44,317.37a230.87,230.87,0,0,1-141,108.46A233.79,233.79,0,0,1,717.76,2313.31Zm.76-459.75c-78.72,0-155.35,40.86-197.36,113.83-62.53,108.62-25,247.85,83.57,310.39s247.84,25,310.38-83.57l2.22,1.28-2.22-1.28c62.53-108.61,25-247.85-83.57-310.38A225.87,225.87,0,0,0,718.52,1853.56Z"/><g class="cls-3"><path class="cls-4" d="M539.62,2003.55a229.29,229.29,0,0,0-15.68,196.2,229.7,229.7,0,0,1-1.16-231.43c63.33-110,203.85-147.85,313.88-84.5A228.74,228.74,0,0,1,937,2001.76,228.59,228.59,0,0,0,853.5,1919C743.51,1855.72,603,1893.56,539.62,2003.55Z"/></g><g class="cls-8"><path class="cls-2" d="M917.34,2195.49c-63.34,110-203.89,147.85-313.9,84.52a229.24,229.24,0,0,1-108.32-143.54,229.24,229.24,0,0,0,47.48,36.27c110,63.35,250.54,25.53,313.88-84.48a229.21,229.21,0,0,0,23.81-170.46C952.42,1989.46,970.46,2103.23,917.34,2195.49Z"/><path class="cls-2" d="M717.75,2313.32a232.71,232.71,0,0,1-225.11-176.23l-2.23-8.92,6.52,6.49a226.42,226.42,0,0,0,46.95,35.86c108.62,62.54,247.86,25.06,310.38-83.53a226.28,226.28,0,0,0,23.55-168.57l-2.23-8.9,6.51,6.47c74.58,74.09,90,189.55,37.47,280.78h0a230.9,230.9,0,0,1-141,108.45A233.59,233.59,0,0,1,717.75,2313.32ZM500,2144.67a227.31,227.31,0,0,0,415.13,49.55l2.22,1.27-2.22-1.27a227.53,227.53,0,0,0-30.28-268,231.29,231.29,0,0,1-26.15,163.36c-63.93,111-206.3,149.37-317.37,85.42A232.85,232.85,0,0,1,500,2144.67Z"/></g><g class="cls-7"><ellipse class="cls-4" cx="639.55" cy="1954.56" rx="89.12" ry="71.27" transform="translate(-1161.94 962.61) rotate(-43.04)"/></g><g class="cls-7"><circle class="cls-4" cx="600.17" cy="2117.58" r="35.74" transform="translate(-1540.9 2627.65) rotate(-87.58)"/></g><path class="cls-2" d="M717.72,2328.31a246,246,0,0,1-123.1-33c-118.3-68.11-159.13-219.76-91-338.05s219.76-159.12,338-91,159.12,219.76,91,338.05h0C886.91,2283.79,803.44,2328.31,717.72,2328.31Zm.77-459.61A212.28,212.28,0,0,0,534.28,1975c-58.37,101.38-23.37,231.34,78,289.7a212.16,212.16,0,0,0,289.71-78h0c58.36-101.38,23.37-231.34-78-289.71A210.92,210.92,0,0,0,718.49,1868.7Zm198.84,326.79h0Z"/><circle class="cls-6" cx="297.61" cy="2603.58" r="188.9"/><path class="cls-2" d="M297.29,2795a190.35,190.35,0,0,1-95.21-25.49c-91.49-52.68-123.06-170-70.39-261.46a191.46,191.46,0,0,1,331.85,191.06h0A191.58,191.58,0,0,1,297.29,2795Zm.62-377.84a187.33,187.33,0,0,0-48.74,6.49,185.11,185.11,0,0,0-113,86.95c-51.27,89.05-20.54,203.2,68.51,254.47s203.2,20.53,254.46-68.51a186.46,186.46,0,0,0-161.19-279.4Z"/><g class="cls-3"><path class="cls-4" d="M485.43,2575.27a188.88,188.88,0,0,0-359.9,108.93,188.52,188.52,0,0,1,11-166.12c52-90.4,167.56-121.47,258-69.42A188.47,188.47,0,0,1,485.43,2575.27Z"/></g><g class="cls-8"><path class="cls-2" d="M461.33,2697.84c-52.05,90.41-167.57,121.51-258,69.46a188.4,188.4,0,0,1-89-118,188.92,188.92,0,0,0,39,29.8c90.44,52.07,205.91,21,258-69.43a188.37,188.37,0,0,0,19.57-140.09A189,189,0,0,1,461.33,2697.84Z"/><path class="cls-2" d="M297.29,2795A191.33,191.33,0,0,1,111.85,2650l-2.23-8.92,6.52,6.48a186,186,0,0,0,38.49,29.4c89.05,51.27,203.2,20.55,254.46-68.48a185.48,185.48,0,0,0,19.31-138.2l-2.22-8.9,6.51,6.47a191.61,191.61,0,0,1,30.86,231.31h0A191.6,191.6,0,0,1,297.29,2795ZM119.23,2657.5a184.64,184.64,0,0,0,85.4,107.58c89.05,51.27,203.21,20.54,254.48-68.51h0A186.53,186.53,0,0,0,435.39,2478a190.49,190.49,0,0,1-21.86,133c-52.67,91.48-169.95,123.05-261.45,70.37A191.44,191.44,0,0,1,119.23,2657.5Z"/></g><g class="cls-7"><ellipse class="cls-4" cx="233.03" cy="2499.83" rx="73.24" ry="58.57" transform="translate(-1643.53 831.91) rotate(-43.04)"/></g><g class="cls-7"><circle class="cls-4" cx="200.66" cy="2633.81" r="29.37" transform="translate(-677.84 142.73) rotate(-15.07)"/></g><path class="cls-2" d="M297.26,2810.14a205.33,205.33,0,0,1-102.73-27.51c-98.73-56.84-132.8-183.41-76-282.14a206.6,206.6,0,0,1,358.09,206.18h0A206.75,206.75,0,0,1,297.26,2810.14Zm.63-377.83a172,172,0,0,0-44.78,6,170.09,170.09,0,0,0-103.86,79.89c-47.1,81.81-18.87,186.69,62.94,233.79S398.87,2770.82,446,2689h0a171.32,171.32,0,0,0-148.09-256.69Zm163.43,265.53h0Z"/><circle class="cls-6" cx="515.01" cy="1733.8" r="188.9"/><path class="cls-2" d="M514.7,1925.34a191.53,191.53,0,0,1-165.62-287.07c52.68-91.49,170-123.06,261.46-70.39a191.46,191.46,0,0,1-45.76,350.8A192.89,192.89,0,0,1,514.7,1925.34Zm.62-377.84A186.32,186.32,0,1,0,676.5,1826.78h0A186.28,186.28,0,0,0,515.32,1547.5Z"/><g class="cls-3"><path class="cls-4" d="M701.87,1695.29a188.91,188.91,0,0,0-355.14,125.3,188.61,188.61,0,0,1,8.77-171.32c52.07-90.44,167.55-121.53,257.94-69.48A188.39,188.39,0,0,1,701.87,1695.29Z"/></g><g class="cls-8"><path class="cls-2" d="M678.72,1828.06c-52.05,90.41-167.56,121.51-258,69.46a188.41,188.41,0,0,1-89-118,188.41,188.41,0,0,0,39,29.81c90.43,52.07,205.9,21,258-69.43a188.33,188.33,0,0,0,19.58-140.09C707.55,1658.73,722.38,1752.24,678.72,1828.06Z"/><path class="cls-2" d="M514.69,1925.23a191.36,191.36,0,0,1-185.45-145.06l-2.23-8.92,6.52,6.49a186.36,186.36,0,0,0,312.26-177.28l-2.22-8.9,6.51,6.46a191.63,191.63,0,0,1,30.86,231.32h0A191.58,191.58,0,0,1,514.69,1925.23ZM336.63,1787.72A184.69,184.69,0,0,0,422,1895.3c89.05,51.26,203.21,20.54,254.49-68.51h0a186.56,186.56,0,0,0-23.72-218.55,191.51,191.51,0,0,1-316.16,179.48Z"/></g><g class="cls-7"><ellipse class="cls-4" cx="450.42" cy="1630.04" rx="73.24" ry="58.57" transform="translate(-991.35 746.18) rotate(-43.04)"/></g><g class="cls-7"><circle class="cls-4" cx="418.06" cy="1764.03" r="29.37" transform="translate(-444.24 169.34) rotate(-15.07)"/></g><path class="cls-2" d="M514.68,1940.49A206.68,206.68,0,0,1,336,1630.71c56.85-98.72,183.41-132.79,282.13-76a206.61,206.61,0,0,1-49.37,378.55A207.81,207.81,0,0,1,514.68,1940.49Zm.62-377.86a171.18,171.18,0,1,0,148.07,256.59h0A171.14,171.14,0,0,0,515.3,1562.63Z"/><path class="cls-5" d="M1522.92,1123.68a133.61,133.61,0,0,0-19,14.35,114.64,114.64,0,0,0-8.22,8.12c-1.26,1.42-2.38,2.93-3.58,4.38a38.77,38.77,0,0,0-3.36,4.48,73.21,73.21,0,0,0-10,19.4l-1.53,5.2a5.66,5.66,0,0,0-.38,1.93,12.09,12.09,0,0,1-.27,1.46c.22,1.71,0,3.26.92,4.58a2,2,0,0,0,.59,1c.27.32.43.71.71,1.05.74.56,1.21,1.38,2.15,1.84a12.42,12.42,0,0,0,5.61,2.34,10.78,10.78,0,0,0,5.4-.31,9.9,9.9,0,0,0,4-2.77l1.8-2.75q1.21-2.4,2.24-4.87a58.38,58.38,0,0,0,3.75-31.27,66.69,66.69,0,0,0-19.4-37.81c-10.27-9.65-24.13-15.77-39.22-17.74s-31.38-.33-47.12,3.68-31.13,10.74-46.78,18.35-31.39,16.17-48.11,24c-33,15.72-72.94,27.89-113.45,18.92-20-4.54-40.06-15-53.73-32.43a90.73,90.73,0,0,1-15.17-28.28,76.33,76.33,0,0,1-3.42-33.21,15.49,15.49,0,1,1,30.74,3.85l0,.14,0,.13c-1.64,12.19,3.42,27.18,12.18,38.14,8.4,10.84,21.73,18.14,36.27,21.44s30.87,2.83,46.66-.36a161.77,161.77,0,0,0,23.46-6.61c7.82-2.84,15.61-6.17,23.4-9.8,15.59-7.29,31.2-15.75,47.62-23.77s33.74-15.74,52.69-20.52c18.76-4.75,38.63-7,58.93-4.37s40.72,11.11,56.48,26a97.54,97.54,0,0,1,28.64,55.65,93.67,93.67,0,0,1-.7,32.06,91.77,91.77,0,0,1-4.59,15.44q-1.49,3.74-3.26,7.32a71.34,71.34,0,0,1-5.41,8.49,41.81,41.81,0,0,1-17.48,12.63,42.45,42.45,0,0,1-20.91,2.24,44.29,44.29,0,0,1-19.08-7.2,45.79,45.79,0,0,1-8.06-6.73c-1.2-1.31-2.28-2.8-3.37-4.24a22.89,22.89,0,0,1-2.87-4.65c-3.73-6.44-4.9-14.09-4.81-21.2.17-1.72.39-3.45.64-5.17a26,26,0,0,1,.91-4.61l2.21-7.63a105.85,105.85,0,0,1,14.22-28,117.64,117.64,0,0,1,20.78-22.43,152.7,152.7,0,0,1,24.36-16.82,206.83,206.83,0,0,1,53.35-20.48c4.63-1.09,9.12-2,13.93-2.87a117.1,117.1,0,0,1,14.5-1.68,158,158,0,0,1,28.57.73,198.1,198.1,0,0,1,53.67,14,5.2,5.2,0,0,1-2.71,10h0a288.12,288.12,0,0,0-51.71-3.14,168.58,168.58,0,0,0-24.83,2.78c-4,.8-8,1.71-11.86,2.79s-8,2.41-12,3.77"/><path class="cls-9" d="M1211.62,184.37,1176.8,360.55l39.29-9.35c-22.45,57-59.61,98.93-110.12,127.24,79.83-27.43,163.4-8.4,248.44,28.39-68.66,49.71-115.43,113.73-143.74,189.8L1137,694l19.66,37.17c-59.24,20.62-121.65,5.16-186.55-38.75q-6.18-4.59-12.16-8.22c-24.55-14.92-53.61,10.9-41.67,37q2.91,6.36,6.73,13c36,69.6,44,133.4,16.63,189.77L905,900.19,899,973.68C820.09,992.86,751,1031.8,693.61,1094.15c-26.56-88.77-35.65-174,1-250.05-34,46.8-80,78.83-139.28,94.43l13.92-38L390.13,914.51l31.5-42.09c-60.36-1.77-122.71-24.15-187.8-74.41l50.31-41-24.52-32.79,45.07-18-4.78-53.07c82.3-68.88,174.78-99.92,278.16-91-75.72-22-139.62-60.57-184.59-125.81l36.71-5.27c-64.24-80.2-100.25-163.41-95.7-250.88l42.77.82c-26.67-47.46-39.57-95.49-32.06-144.26C394.54,35,440.69,53.47,484.73,85.5l4.2-42.57C576.3,48.7,654.71,94.22,726.85,167.4l9.51-35.81c59.55,52.28,90.34,120.3,103.31,198,3.22-103.69,44.94-191.92,123-265.53l52.18,10.94L1038,32.43l29.72,28.18,46.57-45.13c42.31,70.51,57.22,135.05,51.89,195.21Z"/><path class="cls-2" d="M692.44,1099.19l-1.29-4.31c-28.62-95.67-30.88-170.61-6.72-233.73-33.37,39.33-76.51,66.16-128.49,79.85l-4.74,1.25,14.24-38.82L384.69,917.5l32-42.71c-62.74-3-123.12-27.45-184.39-74.75l-2.56-2,50.91-41.48L255.57,723.1,302,704.54,297.24,652l1-.86c77.52-64.89,164.63-96,259.15-92.83-72.83-24.73-127.28-64.3-166-120.55l-2.34-3.4,36.37-5.22c-67.19-85-97.77-166.56-93.47-249.12l.13-2.47,40.81.79c-27.33-50.05-37.21-96.55-30.21-142l.32-2.09,2.12-.08C391,32.6,436,47.82,482.62,80.84l4-40.63,2.47.16c82.45,5.45,159.82,45.38,236.42,122.06L734.94,127l3.1,2.72c51.29,45,84.21,103.74,100.27,179,7.85-94.24,49-177.07,122.57-246.45l1-.92,51.62,10.82,23.85-43.86,30.35,28.77L1114.8,11.4l1.66,2.77c39.81,66.36,57.06,129.18,52.63,191.87l46.13-26.71-35.14,177.81,40.18-9.56-1.79,4.56c-19.69,50-51.39,89.71-94.39,118.24,65.53-16.58,139.69-5.55,231.34,34.1l4.13,1.79-3.64,2.63c-66,47.78-114.05,111.25-142.84,188.62l-.64,1.73-71.09-2.52,19,35.9-2.81,1c-57.45,20-121,6.84-188.82-39.05q-6.16-4.56-12.06-8.15a26.59,26.59,0,0,0-38,33.78c1.91,4.18,4.14,8.5,6.62,12.84,37.68,72.85,43.28,137.48,16.71,192.16l-1.3,2.68L907.23,904.8l-5.87,70.93-1.79.44c-80.22,19.5-148.88,59.78-204.08,119.71Zm.06-256.59,4.37,2.61c-31.15,64.72-31.83,142.32-2.08,243.92,55-58.43,122.81-98,201.77-117.49l6.3-76.07,35.77,24.69C963,867.67,957,805.52,920.75,735.47c-2.51-4.38-4.81-8.83-6.78-13.15A31.71,31.71,0,0,1,959.29,682c4.06,2.47,8.22,5.27,12.36,8.34,65.23,44.14,126.26,57.38,181.35,39.35l-20.32-38.43,76.24,2.71c28.68-76.13,75.89-138.89,140.36-186.6-97.41-41.46-174.56-49.89-242.48-26.55l-2.08-4.65c49.18-27.57,85.2-68.38,107.14-121.37L1173.52,364,1208,189.41l-44.85,26,.43-4.91c5.53-62.32-10.8-124.79-49.88-190.89l-46,44.58-29.08-27.57-22.48,41.36L963.42,66.88c-77.28,73.33-118,161.75-121.19,262.84l-5.08.34c-13.76-82.44-46.29-145.88-99.39-193.8l-9.59,36.12L725,169.19c-75.95-77-152.45-117.46-233.8-123.54L486.84,90.2l-3.61-2.63C437,54,392.62,38,347.41,39.25,341.05,84,351.55,130,379.49,179.76l2.19,3.89-44.75-.86c-3.54,81.54,27.63,162.26,95.26,246.68L435,433l-37,5.32c41.43,58.4,100.62,98.14,180.82,121.42l-.93,5C477,556,384.45,586.1,302.58,654.24l4.82,53.63-43.74,17.51,24,32.08L238,798C299.06,844.5,359.19,868,421.71,869.86l4.92.14-31.07,41.52L573,897.71l-13.6,37C614.61,919.18,659.37,888.19,692.5,842.6Z"/><g class="cls-8"><path class="cls-2" d="M674.11,775c-17.75,36.86-24.74,75.88-24.19,116.44-26.77,21.66-58.19,37.47-94.66,47.06l14-38L390.13,914.49l31.51-42.06c-60.36-1.77-122.72-24.19-187.8-74.43l37.9-30.87c44.28,23.75,87.29,35,129.42,36.21l-31.5,42.12,179.11-14-13.95,38C594.1,853.87,640.11,821.84,674.11,775Z"/><path class="cls-2" d="M551.17,942.26l14.26-38.84L384.69,917.48l32-42.68c-62.72-3-123.09-27.45-184.39-74.77l-2.56-2,41.72-34,1.5.81c42.67,22.89,84.64,34.64,128.3,35.92l4.92.14-31.07,41.55,177.45-13.85L538.93,865.7c55.22-15.57,100-46.57,133.11-92.17l4.38,2.61c-16.69,34.66-24.53,72.37-23.95,115.29l0,1.24-1,.78c-27.21,22-59.38,38-95.61,47.56ZM573,897.7l-13.61,37.07c33.16-9.35,62.73-24.32,88-44.52-.35-35.85,5.1-68.15,16.61-98.13-33.36,39.33-76.49,66.14-128.48,79.83l-4.74,1.24L545,834.36,364.23,848.45l32-42.74c-41.72-2-83.45-13.93-124.17-35.53L238,797.94c61.13,46.57,121.27,70.11,183.76,71.93l4.93.15L395.56,911.5Z"/></g><g class="cls-8"><path class="cls-2" d="M939.66,924.09l-34.6-23.9L899,973.68c-78.87,19.19-147.91,58.13-205.36,120.49a620.91,620.91,0,0,1-17.37-72.35c56.82-60.48,124.83-98.33,202.29-117.21l6.06-73.51L919.18,855c14.91-30.69,19.34-63.57,14.43-98.42C960.32,817.52,964.09,873.76,939.66,924.09Z"/><path class="cls-2" d="M692.44,1099.2l-1.29-4.3a618.7,618.7,0,0,1-17.44-72.65l-.22-1.26.87-.93c54.85-58.36,122.72-97.89,201.76-117.49l6.28-76.09,35.76,24.71c13.33-28.78,17.68-60.47,12.92-94.24l-2.6-18.43L936,755.57c27.82,63.46,29.85,120.54,6,169.64l-1.3,2.68-33.41-23.08-5.9,70.92-1.79.43c-80.19,19.51-148.85,59.8-204.08,119.74ZM679,1022.64a606.72,606.72,0,0,0,15.81,66.5c55-58.43,122.83-98,201.78-117.51l6.32-76.06,35.76,24.71c19.84-42.89,19.56-92.1-.81-146.53,1.48,29.32-4,57-16.35,82.37l-1.3,2.68-33.41-23.08-5.86,70.95-1.79.43C800.72,926.21,733.38,965.08,679,1022.64Z"/></g><g class="cls-8"><path class="cls-2" d="M1210.68,696.64,1137,694l19.64,37.19c-59.24,20.59-121.63,5.14-186.54-38.76-4.16-3.06-8.2-5.8-12.16-8.23-16-9.75-34-2.08-41.21,11.71q-6.16-15.12-14.19-30.69c-2.54-4.47-4.8-8.79-6.73-13.07-11.92-26.11,17.09-51.94,41.69-37q5.94,3.65,12.12,8.2c64.91,43.9,127.34,59.37,186.57,38.79l-19.67-37.22,73.65,2.63c20.72-55.68,51.37-104.93,93.21-146.81a619.16,619.16,0,0,1,71,26.08C1285.77,556.56,1239,620.55,1210.68,696.64Z"/><path class="cls-2" d="M1103.84,742.67c-42.55,0-87.79-16.08-135.14-48.1q-6.24-4.59-12.07-8.17a25.66,25.66,0,0,0-20.7-3.06A27.53,27.53,0,0,0,919,697.11l-2.55,4.9-2.09-5.12c-4.06-9.95-8.8-20.21-14.1-30.48-2.74-4.83-5-9.18-6.78-13.18A31.72,31.72,0,0,1,938.86,613c4,2.47,8.17,5.28,12.31,8.33,65.25,44.13,126.28,57.41,181.39,39.38l-20.34-38.46,76.23,2.72c21.18-56.2,52.51-105.31,93.15-146l1.07-1.07,1.46.42a619.55,619.55,0,0,1,71.32,26.19l4.12,1.78-3.64,2.64c-66,47.83-114.1,111.3-142.85,188.63l-.65,1.73-71.08-2.53,19,35.92-2.81,1A162.43,162.43,0,0,1,1103.84,742.67ZM942.76,677.29A31.89,31.89,0,0,1,959.3,682c4,2.47,8.16,5.27,12.35,8.36,66.16,44.75,125.54,57.65,181.35,39.36l-20.3-38.45,76.23,2.72c28.64-76.1,75.86-138.85,140.37-186.6a604.72,604.72,0,0,0-65.15-23.79c-40,40.37-70.81,89.09-91.55,144.82l-.65,1.73-71.08-2.53,19,35.94-2.82,1c-57.45,20-121,6.82-188.84-39.09q-6.16-4.54-12-8.15a26.6,26.6,0,0,0-38,33.78c1.75,3.88,3.91,8.08,6.62,12.87,4.6,8.91,8.76,17.75,12.43,26.4a32.56,32.56,0,0,1,17.34-12A30.2,30.2,0,0,1,942.76,677.29Z"/></g><g class="cls-3"><path class="cls-4" d="M352.73,234.08A289.18,289.18,0,0,0,361,319c-19.51-45.14-29-91.35-26.53-138.84l37.07.71a294.84,294.84,0,0,0,23.94,54Z"/></g><g class="cls-3"><path class="cls-4" d="M596.27,616c-103.37-8.92-195.84,22.1-278.14,91l4.79,53.05-45.07,18.07,24.54,32.77-22.51,18.34a432,432,0,0,1-46-31.26l50.31-41-24.54-32.77,45.07-18.06-4.75-53c57.11-47.85,119.16-77.39,186.36-88C518.85,587.85,555.89,604.32,596.27,616Z"/></g><g class="cls-3"><path class="cls-4" d="M736.36,131.57c49.88,43.83,79.57,98.61,95.51,161-17.32-40.25-42.34-76.36-77.27-107l-9.54,35.82C672.92,148.1,594.5,102.59,507.13,96.82l-4.19,42.57c-44-32-90.2-50.5-139.53-48.73a186.11,186.11,0,0,0,2.1,67.29C347,118.07,338.87,77.66,345.2,36.78,394.53,35,440.69,53.46,484.74,85.51l4.19-42.58c87.36,5.78,165.79,51.29,237.93,124.48Z"/></g><g class="cls-3"><path class="cls-4" d="M1159,120.89a429.56,429.56,0,0,0-26.57-51.5l-46.54,45.1-29.75-28.16L1033,128.92,980.85,118c-78,73.6-119.73,161.82-123,265.52a408.64,408.64,0,0,0-17.47-69.09c6.67-97.16,48-180.36,122.18-250.34L1014.84,75,1038,32.45l29.71,28.13,46.58-45.08C1136.26,52.16,1150.85,87.22,1159,120.89Z"/></g><g class="cls-3"><path class="cls-4" d="M365.51,158C369,165.69,373,173.38,377.26,181l-5.7-.12A205.76,205.76,0,0,1,365.51,158Z"/></g><g class="cls-3"><path class="cls-4" d="M839.66,329.63q-3.17-19-7.79-37.11,4.65,10.8,8.56,21.93C840.06,319.45,839.84,324.53,839.66,329.63Z"/></g><path class="cls-5" d="M693.61,1109.64a15.5,15.5,0,0,1-14.84-11.05c-22.75-76-29.24-139.56-19.44-194.88-28.67,23.13-62.14,39.8-100.1,49.8a15.5,15.5,0,0,1-18.49-20.32l5.62-15.3L391.33,930a15.49,15.49,0,0,1-13.6-24.72l14.68-19.62c-57-7.47-112.27-32.27-168-75.34a15.47,15.47,0,0,1-.32-24.26l38.79-31.61-15.63-20.88a15.49,15.49,0,0,1,6.65-23.66l34.37-13.76-3.74-41.58A15.46,15.46,0,0,1,290,641.26c63.71-53.33,133.73-84.6,209-93.46-49.12-25.09-88.13-59-118.19-102.67A15.48,15.48,0,0,1,391.28,421l10.49-1.51C342,338.2,314.86,259.42,319,179.38a15.5,15.5,0,0,1,15.76-14.68l16.84.32c-21.14-45.34-28.26-88.29-21.74-130.63a15.49,15.49,0,0,1,14.75-13.12c42.84-1.56,84.6,10.58,127.22,36.91l1.65-16.77A15.49,15.49,0,0,1,490,27.47c79.93,5.28,155,41.44,228.73,110.35l2.71-10.2A15.49,15.49,0,0,1,746.58,120c39.78,34.93,68.94,77.65,88.11,129.41C852.3,175.72,891.57,109.86,952,52.84A15.54,15.54,0,0,1,965.81,49l40.89,8.57L1024.37,25a15.48,15.48,0,0,1,24.26-3.84l18.95,18,35.9-34.79a15.5,15.5,0,0,1,24.06,3.15c36.25,60.42,54.42,118.19,55.14,175.72L1203.86,171a15.48,15.48,0,0,1,23,16.4l-30.14,152.54,15.84-3.77a15.48,15.48,0,0,1,18,20.74c-14.38,36.52-34.86,67.8-61.2,93.56,56.07-3.26,118.44,10.67,191.26,42.18a15.49,15.49,0,0,1,2.93,26.76c-63.89,46.25-110.42,107.71-138.3,182.65a15.52,15.52,0,0,1-15.07,10.08l-46.9-1.67,7.14,13.51a15.49,15.49,0,0,1-8.6,21.87c-61.5,21.41-128.9,7.77-200.32-40.56l-.54-.38c-3.7-2.74-7.4-5.24-11-7.42a13.66,13.66,0,0,0-19.53,17.35c1.75,3.83,3.79,7.79,6.08,11.79l.32.58c39.6,76.59,45.25,145.11,16.8,203.66a15.48,15.48,0,0,1-22.72,6l-12.59-8.69L914.4,975a15.49,15.49,0,0,1-11.78,13.77c-77.69,18.9-144.18,57.89-197.62,115.91A15.47,15.47,0,0,1,693.61,1109.64Zm1-281a15.5,15.5,0,0,1,13.94,22.21c-27.5,57.12-29.9,125.41-7.21,213.34,51.49-49.37,112.94-83.86,183.12-102.74l5.17-62.51a15.5,15.5,0,0,1,24.24-11.47l18.85,13c15.73-45.9,8-98-23.28-158.74-2.69-4.72-5.11-9.43-7.21-14A44.65,44.65,0,0,1,966,671c4.3,2.62,8.69,5.58,13.06,8.8,56.61,38.24,107.5,52,155,41.72l-10.71-20.26a15.48,15.48,0,0,1,14.24-22.71l62.64,2.22c27-67.48,68.45-124.46,123.52-169.79C1239.06,478.12,1171,472.49,1111,493.09a15.49,15.49,0,0,1-12.61-28.16c39.58-22.19,69.33-52.21,90.31-91.29l-8.33,2a15.49,15.49,0,0,1-18.78-18.07l28.2-142.65-15.89,9.19a15.48,15.48,0,0,1-23.18-14.77c4.87-55-8.23-110.45-40-168.84l-32.26,31.25a15.49,15.49,0,0,1-21.43.12L1042,57.54l-13.53,24.9a15.53,15.53,0,0,1-16.79,7.77l-44.17-9.27c-71.57,70-109.34,153.76-112.31,249.18a15.49,15.49,0,0,1-30.76,2.07c-11.85-71-38-127.32-79.8-171.24l-2.77,10.42a15.49,15.49,0,0,1-26,6.9C646.14,107.58,576.3,68.7,502.83,59.78L500.14,87a15.48,15.48,0,0,1-24.52,11C435.72,69,397.43,54,359,52.29c-2.83,38.4,7.62,78.18,31.76,121.13a15.47,15.47,0,0,1-.22,15.54A15.06,15.06,0,0,1,377,196.49L349.59,196c.21,74,30.64,148,92.69,225.42a15.49,15.49,0,0,1-9.89,25l-10.72,1.54c38.78,46.66,91.61,79.28,160.72,99.34a15.49,15.49,0,0,1-5.65,30.3c-95.15-8.2-182.81,19.47-260.67,82.32l4,44.91a15.48,15.48,0,0,1-9.67,15.77L284.1,731.12l12.44,16.63A15.47,15.47,0,0,1,293.92,769l-34.85,28.39c54.3,38.4,107.79,57.9,163,59.51A15.5,15.5,0,0,1,434,881.7l-11,14.72,145-11.29a15.49,15.49,0,0,1,15.74,20.78l-2.92,8c41-16.34,75-42.77,101.21-78.87A15.47,15.47,0,0,1,694.58,828.61Z"/><path class="cls-5" d="M914.36,697C840.48,627.76,769.22,555.6,701.59,480.08c-16.84-18.94-33.84-37.74-50.27-57.05-8.21-9.66-16.13-19.57-24-29.48L604,363.47l-22.85-30.39L559,302.21,537.32,271l-21-31.7a6.64,6.64,0,0,1,10.72-7.83l.08.11,23.54,29.54,23.75,29.34q24,29.1,48.33,57.91l49.29,57c16.31,19.1,32.51,38.3,49.3,57,67,74.88,137.77,146.5,211.15,215.29A13.28,13.28,0,0,1,914.37,697Z"/><path class="cls-5" d="M895.74,671.92q-97.41,17.64-193.26,42.84c-15.93,4.31-31.73,9.08-47.8,12.88s-32.06,8-48,12.16q-48,12.56-95.78,26.15a6.65,6.65,0,0,1-4.32-12.55q46.28-18.81,93.55-35.17,23.65-8.1,47.45-15.83c15.86-5.2,32.06-9.17,48.2-13.32Q792.48,663.67,891,645.8a13.27,13.27,0,1,1,4.73,26.12Z"/><path class="cls-5" d="M670.87,719.79,575.25,672.7a4.44,4.44,0,0,1,3.23-8.24l102.1,30.62a13.32,13.32,0,0,1-7.66,25.52A14.1,14.1,0,0,1,670.87,719.79Z"/><path class="cls-5" d="M826.3,684.34c-17.15,11-32.75,25.23-46.79,41.09a391.92,391.92,0,0,0-38.08,51.7l0,0a6.64,6.64,0,0,1-11.58-6.47A407.84,407.84,0,0,1,763.94,713c13.18-18.32,28.53-35.6,46.84-50.22l0,0a13.29,13.29,0,1,1,16.58,20.78A10.13,10.13,0,0,1,826.3,684.34Z"/><path class="cls-5" d="M881,654.66q29.25-95.67,65.9-188.85c6-15.55,11.86-31.17,18.88-46.31s14.08-30.24,21.29-45.26q21.78-45,45.91-88.79a6.64,6.64,0,0,1,12,5.77q-19.1,45.88-37.2,92-9,23.09-17.72,46.29c-5.66,15.51-12.25,30.64-18.4,46q-36.21,92.15-65.22,186.9A13.27,13.27,0,1,1,881,654.66Z"/><path class="cls-5" d="M954.68,451.46l-18.43-105a4.44,4.44,0,0,1,8.56-2.25l35.55,100.48a13.32,13.32,0,1,1-25.12,8.89A13.77,13.77,0,0,1,954.68,451.46Z"/><path class="cls-5" d="M912.89,562.23c17.86-15.17,37.77-26.92,58.27-36.35a409,409,0,0,1,63.13-22.42,6.65,6.65,0,0,1,4.17,12.61l-.06,0a391.63,391.63,0,0,0-58.05,27.46c-18.25,10.73-35.17,23.32-49.29,38a13.3,13.3,0,1,1-19.19-18.41c.31-.32.64-.63,1-.92Z"/><path class="cls-5" d="M642,561a232,232,0,0,0,37.16,4.47,287.09,287.09,0,0,0,37.46-.63,282.79,282.79,0,0,0,36.81-5.31A300.15,300.15,0,0,0,789,549.74l.41-.14a13.31,13.31,0,0,1,8.27,25.3,12.74,12.74,0,0,1-1.47.39,325.34,325.34,0,0,1-39.55,6.09,313.36,313.36,0,0,1-78.9-2.74,241.46,241.46,0,0,1-38.35-9.22,4.43,4.43,0,0,1,2.35-8.52Z"/><path class="cls-5" d="M683.58,311.27a243.24,243.24,0,0,1,17.8,36.24A288.25,288.25,0,0,1,713.83,386,279.54,279.54,0,0,1,721,426.06c1.66,13.58,1.78,27.33,1.51,41.14a13.31,13.31,0,0,1-26.61-.51,13.92,13.92,0,0,1,.11-1.46l.07-.52c1.61-12.34,3-24.85,2.82-37.46a259.62,259.62,0,0,0-2.46-37.91,274.35,274.35,0,0,0-7.65-37.57,235.68,235.68,0,0,0-12.91-36.11l-.11-.23a4.42,4.42,0,0,1,7.79-4.16Z"/></svg>